<svg width="35" height="34" fill="none" xmlns="http://www.w3.org/2000/svg"><path d="M3.01 18.22h3.026c.23 0 .443.115.57.304 0 0 .576.871 1.152 1.735l1.43-12.722a.684.684 0 011.086-.47.68.68 0 01.256.389l2.135 8.948.908-2.569a.681.681 0 011.282-.008l1.616 4.394h2.627a.68.68 0 01.568.303s.577.871 1.152 1.735c.32-2.83 1.432-12.722 1.432-12.722a.682.682 0 011.341-.08l2.134 8.948.91-2.57a.68.68 0 011.28-.007s1.349 3.657 1.617 4.393h2.685l.143-.273c1.304-2.243 2.257-6.398 2.257-9.424 0-3.86-2.81-8.524-8.285-8.524-7.824 0-8.83 7.329-8.83 7.329S16.532.035 8.712.035C3.432.035.598 4.53.598 8.524c0 3.45 1.51 7.708 2.284 9.457l.128.24z" fill="#E74D2F"/><path d="M29.057 19.585a.681.681 0 01-.64-.446l-1.128-3.065-1.045 2.964a.677.677 0 01-.679.452.676.676 0 01-.627-.522l-1.766-7.404-1.205 10.708a.68.68 0 01-.52.585.68.68 0 01-.727-.284s-1.654-2.489-1.988-2.988h-2.737a.682.682 0 01-.639-.447l-1.128-3.064c-.35.988-.7 1.976-1.048 2.964a.676.676 0 01-.678.452.68.68 0 01-.63-.522l-1.763-7.399-1.204 10.703a.68.68 0 01-.928.558.682.682 0 01-.32-.257s-1.653-2.489-1.986-2.988H3.75C8.64 28.275 17.5 34 17.5 34s9.021-5.725 13.991-14.415h-2.435z" fill="#E74D2F"/></svg>