<svg width="73" height="29" fill="none" xmlns="http://www.w3.org/2000/svg"><path d="M0 14.458c0-.848.687-1.535 1.535-1.535h24.01a1.535 1.535 0 010 3.07H1.536A1.535 1.535 0 010 14.457zm44.996.007c0-.852.69-1.542 1.541-1.542h23.998a1.541 1.541 0 110 3.083H46.537c-.851 0-1.541-.69-1.541-1.541z" fill="#E74D2F"/><path d="M25.32 15.932a1.541 1.541 0 01-1.09-1.888l3.456-12.901a1.541 1.541 0 012.978.797l-3.457 12.902a1.541 1.541 0 01-1.888 1.09zm21.586 0a1.541 1.541 0 01-1.888-1.09L41.561 1.94a1.541 1.541 0 112.977-.797l3.457 12.901a1.541 1.541 0 01-1.09 1.888z" fill="#E74D2F"/><path d="M36.46 28.83a1.541 1.541 0 01-1.887-1.09L27.66 1.944a1.541 1.541 0 012.977-.798l6.912 25.796a1.541 1.541 0 01-1.09 1.888z" fill="#E74D2F"/><path d="M35.7 28.826a1.541 1.541 0 01-1.09-1.887l6.912-25.796a1.541 1.541 0 012.978.797l-6.912 25.797a1.541 1.541 0 01-1.888 1.09z" fill="#E74D2F"/></svg>