<svg width="1440" height="415" fill="none" xmlns="http://www.w3.org/2000/svg"><path opacity=".2" d="M570.06 230.182c.764 0 1.519-.038 2.263-.113 10.028.097 19.241-6.567 21.957-16.709l27.454-102.523 76.841 286.953c2.891 10.797 13.146 17.653 23.91 16.605 9.307-.669 17.59-7.127 20.141-16.653l77.295-288.649 27.921 104.267a22.445 22.445 0 008.976 12.725 22.41 22.41 0 0013.216 4.286H1454.5c12.44 0 22.52-10.091 22.52-22.538 0-12.447-10.08-22.537-22.52-22.537H886.964L841.953 17.21C839.231 7.042 829.978.37 819.919.502c-10.057-.13-19.307 6.542-22.03 16.708l-77.295 288.65-76.209-284.593c-.73-9.247-7.164-17.455-16.63-19.993a22.437 22.437 0 00-9.083-.538c-.981.128-1.965.322-2.947.585-9.419 2.526-15.836 10.665-16.619 19.857l-43.948 164.118H-3.071c-12.387 0-22.429 10.048-22.429 22.443 0 12.394 10.042 22.443 22.43 22.443h573.13z" fill="#94CDEA" stroke="#94CDEA"/></svg>