<svg width="268" height="682" fill="none" xmlns="http://www.w3.org/2000/svg"><path fill-rule="evenodd" clip-rule="evenodd" d="M-34.125 547.876c-65.331 23.322-130.71-28.27-197.478-47.089-52.815-14.886-110.904-15.229-152.124-51.449-41.487-36.454-60.02-90.951-71.43-144.986-11.397-53.972-4.751-107.346 6.754-161.295 14.632-68.612 4.917-164.615 68.89-193.411 65.817-29.627 126.241 66.9 198.143 73.21 74.231 6.515 153.528-79.184 214.925-36.957 59.167 40.695 22.327 136.54 33.093 207.54 9.89 65.222 45.397 127.66 27.356 191.113-19.398 68.227-61.327 139.477-128.129 163.324z" fill="#37A3DB" fill-opacity=".15"/></svg>