<svg width="36" height="36" fill="none" xmlns="http://www.w3.org/2000/svg"><path d="M18.845 23.74a.743.743 0 00.741-.742v-.345a.743.743 0 00-.74-.74H6.465a.743.743 0 00-.742.74v.345c0 .408.334.741.742.741h12.38z" fill="#E74D2F"/><path d="M26.617 8.458a12.65 12.65 0 00-4.029-2.717l-.007-.004a1.102 1.102 0 00-1.353.42l-.86 1.337a2.75 2.75 0 00-.9-.144c-.2 0-.397.022-.586.063l1.516-2.365.47-.734a1.11 1.11 0 00-.337-1.534L16.481.174a1.113 1.113 0 00-1.538.337L7.895 11.497a1.11 1.11 0 00.338 1.535l.767.493-.348.544-.349.545-.219.341a1.11 1.11 0 00.338 1.535l.66.422a1.11 1.11 0 001.534-.337l.219-.341.348-.545.348-.545.756.486a1.112 1.112 0 001.538-.337l2.892-4.511a2.799 2.799 0 00.7 1.312 2.813 2.813 0 002.135.886 2.83 2.83 0 002.572-3.773 9.36 9.36 0 012.135 1.6 9.272 9.272 0 012.735 6.602 9.272 9.272 0 01-2.735 6.6 9.288 9.288 0 01-3.858 2.328 1.112 1.112 0 01-.33.049h-3.647a1.11 1.11 0 01-1.112-1.112v-.249h-5.311v5.004c.115-.007.233-.011.348-.011h15.945a2.715 2.715 0 002.235-2.669c0-.823-.367-1.56-.945-2.057a12.63 12.63 0 002.747-7.876 12.634 12.634 0 00-3.714-8.958zm-7.15 2.724a1.01 1.01 0 01-1.011-1.015 1.012 1.012 0 011.015-1.012c.56 0 1.012.452 1.012 1.012s-.456 1.015-1.015 1.015zm6.743 17.03a.939.939 0 01-1.242-.445.948.948 0 111.242.445zM10.002 31.33A4.682 4.682 0 005.669 36h19.429a1.11 1.11 0 001.112-1.112V31.32H10.35a5.39 5.39 0 00-.348.011z" fill="#E74D2F"/></svg>