<svg width="29" height="32" fill="none" xmlns="http://www.w3.org/2000/svg"><g clip-path="url(#clip0)"><path d="M26.013 32h-24a1.92 1.92 0 01-1.406-.594A1.922 1.922 0 01.013 30V10c0-.542.198-1.01.594-1.406A1.922 1.922 0 012.013 8h24c.563 0 1.036.198 1.422.594.385.396.578.864.578 1.406v20c0 .563-.193 1.037-.578 1.422-.386.385-.86.578-1.422.578zm-12-20c-2.208 0-4.094.781-5.656 2.344C6.794 15.906 6.013 17.792 6.013 20c0 2.208.781 4.094 2.344 5.656C9.919 27.22 11.805 28 14.013 28c2.208 0 4.094-.781 5.656-2.344 1.563-1.562 2.344-3.448 2.344-5.656 0-2.208-.781-4.094-2.344-5.656C18.107 12.78 16.221 12 14.013 12zm0 14c-1.667 0-3.083-.583-4.25-1.75-1.167-1.167-1.75-2.583-1.75-4.25 0-1.667.583-3.083 1.75-4.25 1.167-1.167 2.583-1.75 4.25-1.75 1.667 0 3.083.583 4.25 1.75 1.167 1.167 1.75 2.583 1.75 4.25 0 1.667-.583 3.083-1.75 4.25-1.167 1.167-2.583 1.75-4.25 1.75zm12-20h-24a1.92 1.92 0 01-1.406-.594A1.922 1.922 0 01.013 4V2c0-.542.198-1.01.594-1.406A1.922 1.922 0 012.013 0h24c.563 0 1.036.198 1.422.594.385.396.578.864.578 1.406v2c0 .563-.193 1.036-.578 1.422-.386.385-.86.578-1.422.578zm-19-4h-2a.961.961 0 00-.703.297.961.961 0 00-.297.703c0 .27.099.505.297.703A.961.961 0 005.013 4h2c.27 0 .505-.099.703-.297A.961.961 0 008.013 3a.961.961 0 00-.297-.703A.961.961 0 007.013 2zm4 0a.961.961 0 00-.703.297.961.961 0 00-.297.703c0 .27.099.505.297.703a.961.961 0 00.703.297c.27 0 .505-.099.703-.297A.961.961 0 0012.013 3a.961.961 0 00-.297-.703.961.961 0 00-.703-.297zm4 0a.961.961 0 00-.703.297.961.961 0 00-.297.703c0 .27.099.505.297.703a.961.961 0 00.703.297c.27 0 .505-.099.703-.297A.961.961 0 0016.013 3a.961.961 0 00-.297-.703.961.961 0 00-.703-.297z" fill="#E74D2F"/></g><defs><clipPath id="clip0"><path fill="#fff" d="M0 0h28.031v32H0z"/></clipPath></defs></svg>