<svg width="33" height="32" fill="none" xmlns="http://www.w3.org/2000/svg"><path d="M16.077 0c-8.836 0-16 7.164-16 16s7.164 16 16 16 16-7.164 16-16-7.164-16-16-16zm0 5.62l9.468 5.904H6.61l9.468-5.904zm9.586 15.332c0 .947-.768 1.714-1.715 1.714H8.207a1.714 1.714 0 01-1.715-1.714V11.9c0-.1.01-.198.027-.294l9.046 5.641c.011.007.023.012.035.018a.943.943 0 00.233.096l.02.005a.975.975 0 00.224.028h.002c.074 0 .149-.01.223-.028l.02-.005a.954.954 0 00.234-.096c.011-.006.023-.01.034-.018l9.047-5.64c.016.095.026.192.026.293v9.052z" fill="#37A3DB"/></svg>