<svg width="36" height="36" fill="none" xmlns="http://www.w3.org/2000/svg"><g clip-path="url(#clip0)" fill="#E74D2F"><path d="M9.37 3.604c3.499 5.175 4.642 18.28 4.688 18.836a1.125 1.125 0 11-2.241.19c-.015-.15-.215-.193-.288-.062-.793 1.413.18 3.342 1.971 3.342h9c1.74 0 2.79-1.884 1.971-3.34a.154.154 0 00-.288.06 1.125 1.125 0 11-2.241-.19c.046-.555 1.19-13.661 4.689-18.836a.899.899 0 01.064-.085.25.25 0 00-.187-.408h-.007c-.22-.014-.247.055-.68-.372-.41-.405-1.032-1.016-2.196-1.016-1.165 0-1.786.611-2.197 1.016-.322.319-.39.37-.616.37-.225 0-.293-.051-.616-.369-.412-.405-1.032-1.017-2.197-1.017-1.164 0-1.785.612-2.196 1.017-.322.318-.39.37-.616.37-.225 0-.293-.052-.616-.37-.41-.405-1.032-1.017-2.196-1.017-1.164 0-1.785.612-2.197 1.017-.322.318-.39.37-.616.37-.028 0-.056 0-.083.002-.202.014-.298.253-.17.41l.06.082zm9.755 18.931a1.125 1.125 0 11-2.25 0V12.41a1.125 1.125 0 112.25 0v10.125z"/><path d="M24.556 19.279a.422.422 0 00.203.42 4.497 4.497 0 01-2.259 8.39h-8.935c-2.473.001-4.533-1.967-4.565-4.44a4.491 4.491 0 012.24-3.952.422.422 0 00.204-.42 83.269 83.269 0 00-.997-5.973.42.42 0 00-.459-.332 8.535 8.535 0 00-3.055.956.349.349 0 00-.183.308v18.712c0 .131.073.25.189.312a8.758 8.758 0 004.118 1.018h13.886a8.8 8.8 0 004.118-1.022.354.354 0 00.189-.313v-18.71a.349.349 0 00-.183-.309 8.709 8.709 0 00-3.052-.957.42.42 0 00-.46.332 83.21 83.21 0 00-1 5.98zm10.18-4.611l-2.92.302a.352.352 0 00-.316.35v16.553c0 .175.128.323.3.348l2.936.43c.67.084 1.264-.44 1.264-1.116v-15.75c0-.676-.593-1.2-1.264-1.117zM0 15.785v15.82c0 .677.593 1.2 1.264 1.117l2.928-.366a.352.352 0 00.308-.35V15.43a.352.352 0 00-.303-.348l-2.915-.41A1.125 1.125 0 000 15.784z"/></g><defs><clipPath id="clip0"><path fill="#fff" d="M0 0h36v36H0z"/></clipPath></defs></svg>