<svg width="48" height="48" fill="none" xmlns="http://www.w3.org/2000/svg"><path d="M23.999 38.049a1.875 1.875 0 100-3.75 1.875 1.875 0 000 3.75zM29.23 10.92H18.768c-.586 0-1.063.455-1.063 1.013v19.775c0 .558.477 1.013 1.064 1.013h10.46c.587 0 1.064-.455 1.064-1.013V11.933c0-.559-.477-1.013-1.063-1.013z" fill="#fff"/><path d="M24 0C10.744 0 0 10.746 0 24c0 13.253 10.745 24 24 24 13.254 0 24-10.746 24-24C48 10.745 37.254 0 24 0zm9.337 35.843a3.32 3.32 0 01-3.32 3.32H17.983a3.32 3.32 0 01-3.32-3.32V12.052a3.32 3.32 0 013.32-3.32h12.034a3.32 3.32 0 013.32 3.32v23.791z" fill="#fff"/></svg>