<svg width="48" height="48" fill="none" xmlns="http://www.w3.org/2000/svg"><path d="M24 0C10.746 0 .001 10.745.001 24c0 13.254 10.745 24 24 24 13.254 0 24-10.746 24-24C48 10.745 37.255 0 24 0zm0 8.43l14.203 8.856H9.8L24 8.43zm14.38 22.998h-.001a2.571 2.571 0 01-2.572 2.571H12.195a2.571 2.571 0 01-2.572-2.571V17.849c0-.15.016-.296.04-.44l13.57 8.462.051.027a1.77 1.77 0 00.35.144l.032.007c.11.026.222.042.334.042h.003c.112 0 .224-.016.335-.042l.03-.007a1.441 1.441 0 00.35-.144c.018-.01.036-.017.052-.027l13.57-8.461c.025.143.04.289.04.44v13.578z" fill="#fff"/></svg>