<svg width="36" height="36" fill="none" xmlns="http://www.w3.org/2000/svg"><path d="M1.74 3.352v7.435H.628a.383.383 0 01-.382-.381V.812c0-.325.242-.59.575-.59h4.915c.332 0 .575.264.575.588v.564h7.6a.38.38 0 01.382.38v2.158H7.805v-.565a.572.572 0 00-.575-.587H2.316a.576.576 0 00-.575.593z" fill="#E74D2F"/><path d="M17.281 15.29a.378.378 0 01-.381.38H3.616a.38.38 0 01-.381-.38V5.695c0-.324.242-.589.574-.589h4.915c.332 0 .576.264.576.588v.564h7.6a.38.38 0 01.381.38v8.652zm-5.89-5.462V7.565H9.126v2.263H6.862v2.264h2.265v2.262h2.263v-2.262h2.262V9.828H11.39zm8.605-3.653v28.972H35.92V6.175H19.996zM34.92 31.048H20.991V20.107H34.92v10.942zm0-12.906H20.991V7.2H34.92v10.94z" fill="#E74D2F"/><path d="M33.91 8.134H21.99v9.08h11.92v-9.08zm-4.02 3.043h-3.924a.553.553 0 010-1.105h3.925a.553.553 0 010 1.106zm4.026 9.86H22v9.078h11.918v-9.078zm-4.025 3.046h-3.925a.554.554 0 110-1.107h3.925a.554.554 0 110 1.107z" fill="#E74D2F"/></svg>