<svg width="73" height="64" fill="none" xmlns="http://www.w3.org/2000/svg"><path d="M53.115 46.488c-4.155 4.989-10.414 8.164-17.414 8.164-7 0-13.259-3.175-17.414-8.164h-3.023c4.54 6.391 12.001 10.561 20.437 10.561 8.436 0 15.898-4.17 20.437-10.561h-3.023zM18.212 17.602c4.155-5.04 10.447-8.254 17.489-8.254 7.042 0 13.334 3.213 17.489 8.254h3.012C51.669 11.16 44.177 6.951 35.7 6.951S19.732 11.16 15.2 17.602h3.011z" fill="#37A3DB"/><path d="M56.938 52.717c-5.374 5.483-12.863 8.886-21.147 8.886-8.283 0-15.773-3.403-21.146-8.886h-3.243C17.271 59.62 26.02 64 35.791 64c9.771 0 18.52-4.38 24.39-11.283h-3.245zM14.734 11.193c5.367-5.43 12.82-8.796 21.057-8.796 8.239 0 15.691 3.365 21.058 8.796h3.255C54.235 4.342 45.52 0 35.791 0S17.348 4.342 11.48 11.193h3.255z" fill="#37A3DB"/><path d="M0 32.045c0-.847.687-1.534 1.535-1.534h24.01a1.535 1.535 0 110 3.069H1.536A1.535 1.535 0 010 32.045zm44.996.007c0-.851.69-1.541 1.541-1.541h23.998a1.541 1.541 0 110 3.082H46.537c-.851 0-1.541-.69-1.541-1.541z" fill="#E74D2F"/><path d="M25.32 33.519a1.541 1.541 0 01-1.09-1.888l3.456-12.901a1.541 1.541 0 012.978.798l-3.457 12.901a1.541 1.541 0 01-1.888 1.09zm21.586 0a1.541 1.541 0 01-1.888-1.09l-3.457-12.901a1.541 1.541 0 112.977-.798l3.457 12.901a1.541 1.541 0 01-1.09 1.888z" fill="#E74D2F"/><path d="M36.46 46.417a1.541 1.541 0 01-1.887-1.09L27.66 19.531a1.541 1.541 0 012.977-.798L37.55 44.53a1.541 1.541 0 01-1.09 1.888z" fill="#E74D2F"/><path d="M35.7 46.413a1.541 1.541 0 01-1.09-1.887l6.912-25.796a1.541 1.541 0 012.978.798l-6.912 25.796a1.541 1.541 0 01-1.888 1.09z" fill="#E74D2F"/></svg>