<svg width="36" height="29" fill="none" xmlns="http://www.w3.org/2000/svg"><path d="M13.05 12.6h3.15v3.15a.45.45 0 00.45.45h2.7a.45.45 0 00.45-.45V12.6h3.15a.45.45 0 00.45-.45v-2.7a.45.45 0 00-.45-.45H19.8V5.85a.45.45 0 00-.45-.45h-2.7a.45.45 0 00-.45.45V9h-3.15a.45.45 0 00-.45.45v2.7a.45.45 0 00.45.45zM32.4 2.7A2.708 2.708 0 0029.7 0H6.3a2.708 2.708 0 00-2.7 2.7v18.9h28.8V2.7zM28.8 18H7.2V3.6h21.6V18zm6.3 5.4H21.462c-.042 1.114-.828 1.8-1.842 1.8H16.2c-1.051 0-1.856-.983-1.843-1.8H.9a.9.9 0 00-.9.9v.9a3.61 3.61 0 003.6 3.6h28.8a3.61 3.61 0 003.6-3.6v-.9a.9.9 0 00-.9-.9z" fill="#E74D2F"/></svg>