<svg width="32" height="32" fill="none" xmlns="http://www.w3.org/2000/svg"><path fill-rule="evenodd" clip-rule="evenodd" d="M27.338 4.651a15.834 15.834 0 00-5.167-3.45 15.895 15.895 0 00-6.103-1.2C7.286 0 .137 7.112.133 15.856c0 2.794.733 5.522 2.127 7.928L0 32l8.447-2.206a15.999 15.999 0 007.614 1.93h.007c8.78 0 15.929-7.113 15.932-15.857a15.7 15.7 0 00-1.203-6.072 15.762 15.762 0 00-3.46-5.144zm-11.27 24.397h-.006c-2.372 0-4.7-.634-6.74-1.838l-.483-.287-5.012 1.31 1.336-4.864-.314-.498a13.11 13.11 0 01-2.025-7.014c.003-7.267 5.944-13.18 13.249-13.18 1.74-.003 3.463.337 5.07 1a13.161 13.161 0 014.292 2.866 13.103 13.103 0 012.875 4.276 13.052 13.052 0 011 5.048c-.004 7.267-5.944 13.181-13.242 13.181zm7.264-9.872c-.4-.2-2.355-1.157-2.72-1.29-.365-.132-.63-.197-.895.198-.267.396-1.03 1.288-1.262 1.553-.233.265-.465.297-.863.099-.397-.198-1.68-.617-3.202-1.966-1.183-1.051-1.982-2.348-2.215-2.745-.232-.398-.024-.611.176-.809.18-.177.398-.463.596-.694.2-.232.265-.396.398-.66.133-.266.067-.497-.034-.695-.1-.2-.896-2.15-1.228-2.943-.321-.768-.65-.666-.894-.676-.254-.01-.508-.015-.762-.015a1.472 1.472 0 00-1.063.495c-.366.398-1.393 1.355-1.393 3.305 0 1.95 1.427 3.835 1.626 4.1.198.265 2.807 4.266 6.8 5.983.952.408 1.694.651 2.27.835.954.302 1.822.258 2.508.157.765-.113 2.356-.957 2.688-1.883.332-.925.332-1.718.232-1.884-.1-.166-.367-.267-.763-.465z" fill="#37A3DB"/></svg>