<svg width="36" height="36" fill="none" xmlns="http://www.w3.org/2000/svg"><g clip-path="url(#clip0)" fill="#E74D2F"><path d="M8.4 11.996h.012a9.493 9.493 0 007.263-3.687 2.993 2.993 0 014.648-.005 9.5 9.5 0 007.266 3.692h.011L30 12v-.6a1.2 1.2 0 00-1.2-1.2h-.906a7.999 7.999 0 01-6.174-3.03 4.794 4.794 0 00-7.44 0 7.999 7.999 0 01-6.174 3.03H7.2A1.2 1.2 0 006 11.4v.6l2.4-.004z"/><path d="M27.6 13.196h-.013A10.694 10.694 0 0119.39 9.06a1.794 1.794 0 00-2.787.005A10.63 10.63 0 018.4 13.196L6 13.2V18a12.54 12.54 0 0011.072 12.548c.617.07 1.24.07 1.856 0A12.54 12.54 0 0030 18v-4.8l-2.4-.004zm-17.308 1.811a50.682 50.682 0 0015.416 0 .6.6 0 11.184 1.186c-2.611.404-5.25.606-7.892.604-2.642.002-5.281-.2-7.892-.604a.6.6 0 01.184-1.186zm-.665 4.013a.6.6 0 01.751-.395 25.504 25.504 0 0015.244 0 .6.6 0 11.356 1.146A26.774 26.774 0 0118 20.993a26.778 26.778 0 01-7.98-1.22.6.6 0 01-.393-.753zm16.432 4.92a18.36 18.36 0 01-16.118 0 .6.6 0 11.518-1.08 17.18 17.18 0 0015.082 0 .6.6 0 11.518 1.08zM5.568 22.602C2.46 21.87 0 19.14 0 16.2v-3a2.4 2.4 0 012.4-2.4h2.478c-.054.195-.08.397-.078.6v.6H2.4a1.204 1.204 0 00-1.2 1.2v3c0 2.37 1.848 4.266 3.972 5.028.107.465.24.923.396 1.374zM36 13.2v3c0 2.94-2.46 5.67-5.568 6.402.157-.45.289-.91.396-1.374 2.124-.762 3.972-2.658 3.972-5.028v-3a1.204 1.204 0 00-1.2-1.2h-2.4v-.6a2.195 2.195 0 00-.078-.6H33.6a2.4 2.4 0 012.4 2.4z"/></g><defs><clipPath id="clip0"><path fill="#fff" d="M0 0h36v36H0z"/></clipPath></defs></svg>