<svg width="36" height="36" fill="none" xmlns="http://www.w3.org/2000/svg"><path d="M18 16.875a2.25 2.25 0 100-4.5 2.25 2.25 0 000 4.5z" fill="#E74D2F"/><path d="M28.266 6.188H7.734a.985.985 0 00-.984.984v21.656c0 .543.442.985.984.985h20.532a.986.986 0 00.984-.985V7.172a.985.985 0 00-.984-.984zM11.813 23.625a1.125 1.125 0 11-2.25 0v-4.5a1.125 1.125 0 112.25 0v4.5zm6.187-4.5a4.505 4.505 0 01-4.5-4.5c0-2.481 2.019-4.5 4.5-4.5s4.5 2.019 4.5 4.5-2.019 4.5-4.5 4.5zm17.086-2.25h-3.234a.352.352 0 00-.352.352v1.546c0 .195.157.352.352.352h3.234a.352.352 0 00.352-.352v-1.546a.352.352 0 00-.352-.352zm-3.234-2.25h3.234a.352.352 0 00.352-.352v-2.671a.352.352 0 00-.352-.352h-3.234a.352.352 0 00-.352.352v2.671c0 .195.157.352.352.352z" fill="#E74D2F"/><path d="M31.5 27.352v1.476a3.234 3.234 0 01-3.234 3.235H7.734A3.234 3.234 0 014.5 28.828V7.172a3.234 3.234 0 013.234-3.234h20.532A3.234 3.234 0 0131.5 7.171v1.476c0 .195.157.352.352.352h3.234a.352.352 0 00.352-.352V3.234A3.234 3.234 0 0032.203 0H3.797A3.234 3.234 0 00.562 3.234v29.532A3.234 3.234 0 003.797 36h28.406a3.234 3.234 0 003.234-3.234v-5.414a.352.352 0 00-.351-.352h-3.234a.352.352 0 00-.352.352z" fill="#E74D2F"/><path d="M35.086 21.375h-3.234a.352.352 0 00-.352.352v2.671c0 .195.157.352.352.352h3.234a.352.352 0 00.352-.352v-2.671a.352.352 0 00-.352-.352z" fill="#E74D2F"/></svg>