<svg width="90" height="90" fill="none" xmlns="http://www.w3.org/2000/svg"><path fill-rule="evenodd" clip-rule="evenodd" d="M90 45c0 24.853-20.147 45-45 45S0 69.853 0 45 20.147 0 45 0s45 20.147 45 45zm-36.194-1.689a11.385 11.385 0 0011.297-2.864 11.384 11.384 0 002.853-11.334c-.103.132-.212.26-.333.381l-3.826 3.825a4.153 4.153 0 01-5.874 0l-1.795-1.795a4.153 4.153 0 010-5.874l3.824-3.825c.121-.122.25-.231.381-.334A11.387 11.387 0 0049 24.344a11.388 11.388 0 00-2.864 11.298L35.642 46.134a11.385 11.385 0 00-11.297 2.864 11.388 11.388 0 00-2.854 11.334 4.11 4.11 0 01.334-.38l3.826-3.825a4.152 4.152 0 015.875 0l1.794 1.795a4.153 4.153 0 010 5.874l-3.824 3.825c-.121.122-.25.23-.382.334A11.382 11.382 0 0040.448 65.1a11.384 11.384 0 002.865-11.297L53.806 43.31z" fill="#E74D2F"/></svg>