<svg width="33" height="32" fill="none" xmlns="http://www.w3.org/2000/svg"><path d="M16.076 25.366a1.25 1.25 0 100-2.5 1.25 1.25 0 000 2.5zM19.563 7.28H12.59c-.39 0-.709.303-.709.675v13.183c0 .373.318.675.71.675h6.973c.391 0 .71-.303.71-.675V7.955c0-.372-.319-.675-.71-.675z" fill="#37A3DB"/><path d="M16.077 0c-8.836 0-16 7.164-16 16 0 8.835 7.164 16 16 16s16-7.164 16-16c0-8.837-7.164-16-16-16zm6.225 23.896a2.213 2.213 0 01-2.214 2.213h-8.022a2.213 2.213 0 01-2.214-2.213V8.034c0-1.222.991-2.213 2.214-2.213h8.022c1.223 0 2.214.991 2.214 2.213v15.862z" fill="#37A3DB"/></svg>