<svg xmlns="http://www.w3.org/2000/svg" viewBox="0 0 43.18 54.64"><defs><style>.cls-1{fill:#71bf50;fill-rule:evenodd;}</style></defs><title>Ресурс 3</title><g id="Слой_2" data-name="Слой 2"><g id="Layer_1" data-name="Layer 1"><path class="cls-1" d="M21.59,54.64C16.22,48.36,8.52,40.52,3.93,34A21.59,21.59,0,1,1,43.18,21.59,21.45,21.45,0,0,1,39.25,34C34.66,40.51,27,48.36,21.59,54.64Zm0-49A15.91,15.91,0,1,1,5.68,21.59,15.91,15.91,0,0,1,21.59,5.68Zm0,6.44a9.47,9.47,0,1,1-9.47,9.47,9.46,9.46,0,0,1,9.47-9.47Z"/></g></g></svg>