<?xml version="1.0" encoding="utf-8"?>
<!-- Generator: Adobe Illustrator 21.0.0, SVG Export Plug-In . SVG Version: 6.00 Build 0)  -->
<svg version="1.1" id="Слой_1" xmlns="http://www.w3.org/2000/svg" xmlns:xlink="http://www.w3.org/1999/xlink" x="0px" y="0px"
	 viewBox="0 0 4.6 4.6" style="enable-background:new 0 0 4.6 4.6;" xml:space="preserve">
<style type="text/css">
	.st0{clip-path:url(#SVGID_2_);fill-rule:evenodd;clip-rule:evenodd;fill:#333;}
</style>
<g>
	<defs>
		<rect id="SVGID_1_" y="0" width="4.6" height="4.6"/>
	</defs>
	<clipPath id="SVGID_2_">
		<use xlink:href="#SVGID_1_"  style="overflow:visible;"/>
	</clipPath>
	<path class="st0" d="M2.3,2C2.3,2,2.4,2,2.3,2C2.4,2,2.4,2,2.3,2c0.1,0,0.1,0,0.1,0c0,0,0,0,0,0l0.8-0.8c0,0,0,0,0.1,0
		c0,0,0.1,0,0.1,0c0,0,0,0,0,0.1s0,0.1,0,0.1l-1,1l0.1,0.1c0,0,0,0.1,0.1,0.1c0,0.1,0,0.1-0.1,0.2c0,0-0.1,0-0.1,0L2.3,2.5L1.9,3.7
		c0,0,0,0,0,0c0,0-0.1,0-0.1,0c0,0,0,0,0,0l0.4-1.1c0,0,0,0,0,0c0,0,0,0-0.1,0c0,0,0,0,0-0.1c0,0,0-0.1,0-0.1l0.1-0.1L1.4,1.8
		c0,0,0-0.1-0.1-0.1c0,0,0-0.1,0-0.1c0,0,0.1,0,0.1-0.1c0,0,0.1,0,0.1,0l0.8,0.6L2.3,2z M3.5,1.1c0.2,0.2,0.3,0.4,0.4,0.6
		C4,1.8,4.1,2.1,4.1,2.3S4,2.8,3.9,3C3.8,3.2,3.7,3.4,3.5,3.5C3.4,3.7,3.2,3.8,3,3.9C2.8,4,2.5,4.1,2.3,4.1c-0.2,0-0.5,0-0.7-0.1
		C1.4,3.8,1.2,3.7,1.1,3.5S0.8,3.2,0.7,3C0.6,2.8,0.5,2.5,0.5,2.3s0-0.5,0.1-0.7c0.1-0.2,0.2-0.4,0.4-0.6c0.2-0.2,0.4-0.3,0.6-0.4
		c0.2-0.1,0.4-0.1,0.7-0.1c0.2,0,0.5,0,0.7,0.1C3.2,0.8,3.4,0.9,3.5,1.1 M0.7,0.7C1.1,0.3,1.7,0,2.3,0c0.6,0,1.2,0.3,1.6,0.7
		c0.4,0.4,0.7,1,0.7,1.6c0,0.6-0.3,1.2-0.7,1.6c-0.4,0.4-1,0.7-1.6,0.7c-0.6,0-1.2-0.3-1.6-0.7C0.3,3.5,0,2.9,0,2.3
		C0,1.7,0.3,1.1,0.7,0.7 M1.3,2.2C1.4,2.2,1.4,2.2,1.3,2.2c0.1,0.2,0.1,0.2,0,0.2H0.8c-0.1,0-0.1,0-0.1-0.1c0-0.1,0-0.1,0.1-0.1H1.3
		z M3.3,2.4C3.3,2.4,3.2,2.4,3.3,2.4c-0.1-0.2-0.1-0.2,0-0.2h0.5c0.1,0,0.1,0,0.1,0.1c0,0.1,0,0.1-0.1,0.1H3.3z M2.2,3.3
		C2.2,3.3,2.2,3.2,2.2,3.3c0.2-0.1,0.2-0.1,0.2,0v0.5c0,0.1,0,0.1-0.1,0.1c-0.1,0-0.1,0-0.1-0.1V3.3z M2.4,1.3c0,0.1,0,0.1-0.1,0.1
		c-0.1,0-0.1,0-0.1-0.1V0.8c0-0.1,0-0.1,0.1-0.1c0.1,0,0.1,0,0.1,0.1V1.3z"/>
</g>
</svg>
