<svg width="44" height="44" viewBox="0 0 44 44" fill="none" xmlns="http://www.w3.org/2000/svg">
<path fill-rule="evenodd" clip-rule="evenodd" d="M20.2546 7.85832L36.7474 24.3511L34.2842 26.8144L17.7914 10.3216L20.2546 7.85832ZM33.4834 27.6152C32.7231 28.3754 31.973 29.1256 31.2228 29.8757C28.1872 27.9956 24.8637 27.1658 21.1094 27.75C16.2741 32.5852 11.4114 42.7048 6.00185 43.5597C3.18603 44.008 0.687197 41.6713 1.0046 38.8058C1.60783 33.3269 11.9495 28.4026 16.8456 23.5065C17.4398 19.7622 16.6101 16.4185 14.7199 13.393C15.47 12.6429 16.2303 11.8826 16.9804 11.1325L33.4732 27.6253L33.4834 27.6152ZM7.25384 37.4321C6.43121 36.6095 5.07989 36.6165 4.24867 37.4477C3.41745 38.279 3.41044 39.6303 4.23308 40.4529C5.06574 41.2856 6.40703 41.2685 7.23824 40.4373C8.06946 39.6061 8.07648 38.2548 7.25384 37.4321ZM37.8929 23.2057L42.9207 18.1778C44.0966 17.0019 43.9058 14.9054 42.5214 13.521L41.6987 12.6984L39.423 14.011L40.6754 11.6751L33.362 4.36166L28.7516 8.63103L28.5104 8.47094L32.4892 3.48887L31.8572 2.85684L27.2162 7.1768L27.0056 6.96612L30.9844 1.98405C29.5996 0.680291 27.5734 0.539544 26.4279 1.685L21.4001 6.71286L37.8929 23.2057Z" fill="#969696"/>
</svg>
