<svg width="47" height="49" viewBox="0 0 47 49" fill="none" xmlns="http://www.w3.org/2000/svg">
<path fill-rule="evenodd" clip-rule="evenodd" d="M4.27006 17.6418H24.1826L28.4344 49.0004H0.000549316L4.27006 17.6418ZM38.869 13.0105C39.4891 11.4549 41.0126 10.3766 42.7842 10.3766C45.1227 10.3766 47.0005 12.268 47.0005 14.5837C47.0005 16.8994 45.105 18.7908 42.7842 18.7908C42.5893 18.7908 42.4122 18.7731 42.2173 18.7554C41.9161 20.2756 40.5874 21.4069 38.993 21.4423C38.9576 21.6898 38.8867 21.9196 38.7981 22.1494H31.889C31.7295 21.7251 31.641 21.2655 31.641 20.7882C31.641 18.9145 33.0405 17.359 34.8475 17.1292C34.4046 16.6165 34.1389 15.9625 34.1389 15.2377C34.1389 13.6468 35.4321 12.3564 37.0266 12.3564C37.7175 12.3387 38.3552 12.6039 38.869 13.0105ZM16.99 16.0155H22.6945C22.7653 15.9448 22.8539 15.8741 22.9248 15.8034C24.0586 14.6721 24.7672 13.0989 24.7672 11.3489C24.7672 11.0837 24.7495 10.8185 24.7141 10.5534C25.2633 10.7478 25.8479 10.8362 26.4502 10.8362C27.3006 10.8362 28.1155 10.6241 28.8596 10.2706C29.1962 10.1115 29.5151 9.89936 29.7985 9.66956C30.0111 9.82865 30.2237 9.95239 30.454 10.0761C31.1095 10.4297 31.8181 10.6064 32.5622 10.6064C33.82 10.6064 34.9892 10.0938 35.8219 9.26299C36.6545 8.43218 37.1683 7.2832 37.1683 6.01047C37.1683 4.75542 36.6545 3.58875 35.8219 2.75794C34.9892 1.92713 33.8377 1.41451 32.5622 1.41451C31.9776 1.41451 31.3929 1.53825 30.8615 1.75037C30.7729 1.76804 30.6666 1.82107 30.5603 1.85643C30.206 1.44986 29.7808 1.09633 29.3202 0.813498C28.4875 0.300871 27.5132 0.000366211 26.4679 0.000366211C25.4759 0.000366211 24.5369 0.265518 23.7397 0.74279C23.35 0.972588 22.9956 1.23774 22.6768 1.55592C22.3579 1.32612 22.0036 1.114 21.6492 0.937235C20.852 0.548346 19.9662 0.336225 19.0273 0.336225C17.8935 0.336225 16.8306 0.654407 15.927 1.18471C15.3601 1.52057 14.8641 1.92713 14.4389 2.42208C14.2618 2.3337 14.0846 2.24532 13.8897 2.19229C13.2874 1.96249 12.6496 1.85643 11.9941 1.85643C10.4883 1.85643 9.1419 2.45744 8.14981 3.44734C7.15773 4.43724 6.55539 5.78067 6.55539 7.28319C6.55539 8.23774 6.80341 9.12158 7.22859 9.89936C7.52976 10.4473 7.91951 10.9246 8.3624 11.3312V11.3842C8.32697 11.5963 8.30926 11.8261 8.30926 12.0382C7.60062 12.6216 7.03372 13.3286 6.60854 14.1064C6.28966 14.6898 6.05935 15.3438 5.93534 16.0155H8.45098C8.53956 15.7504 8.64586 15.5029 8.76987 15.2554C9.12418 14.6014 9.60251 14.0534 10.2048 13.6468L10.7895 13.2579L10.754 12.5685V12.4448C10.754 12.4095 10.754 12.4448 10.754 12.3211C10.754 12.1266 10.7718 11.9322 10.7895 11.7377C10.8249 11.5433 10.8603 11.3489 10.9135 11.1721L11.1969 10.2706L10.3997 9.77562C9.97454 9.51047 9.62022 9.13926 9.38992 8.69734C9.1419 8.27309 9.01789 7.77814 9.01789 7.26552C9.01789 6.43471 9.35449 5.69229 9.88596 5.16198C10.4174 4.63168 11.1792 4.29582 11.9941 4.29582C12.3662 4.29582 12.7205 4.36653 13.0394 4.47259C13.376 4.59633 13.6771 4.79077 13.9429 5.00289L15.0944 5.99279L15.8208 4.66703C16.1396 4.10138 16.6002 3.6241 17.1672 3.28825C17.7163 2.97006 18.3364 2.77562 19.0273 2.77562C19.5942 2.77562 20.1257 2.89936 20.604 3.12915C21.1001 3.35895 21.5252 3.71249 21.8618 4.13673L23.8814 3.97764C24.1472 3.51804 24.5192 3.12915 24.9798 2.864C25.4227 2.61653 25.9365 2.45744 26.4857 2.45744C27.0703 2.45744 27.6018 2.61653 28.0624 2.89936C28.5407 3.18218 28.9127 3.60643 29.1785 4.10138L31.1095 4.43723C31.3044 4.24279 31.5347 4.10138 31.8004 3.99532C32.0307 3.90693 32.3142 3.8539 32.5976 3.8539C33.1999 3.8539 33.7314 4.0837 34.1212 4.49027C34.5109 4.87915 34.7412 5.40946 34.7412 6.01047C34.7412 6.61148 34.4932 7.14178 34.1212 7.53067C33.7314 7.91956 33.1999 8.16703 32.5976 8.16703C32.2256 8.16703 31.9067 8.07865 31.6055 7.93723C31.3044 7.77814 31.0386 7.54835 30.826 7.26552L28.8419 7.24784C28.5584 7.60138 28.2041 7.90188 27.7966 8.114C27.4069 8.30845 26.964 8.41451 26.4679 8.41451C26.0428 8.41451 25.653 8.32612 25.3164 8.18471C24.9444 8.02562 24.6078 7.79582 24.342 7.51299L22.3579 7.86653C22.3224 7.97259 22.2693 8.06097 22.2162 8.16703C22.163 8.25542 22.1099 8.3438 22.039 8.43218L21.6315 9.01552L21.9504 9.65188C22.0744 9.89936 22.1807 10.1822 22.2339 10.465C22.3047 10.7478 22.3224 11.0307 22.3224 11.3312C22.3224 12.3918 21.8973 13.3463 21.1886 14.0534C20.4977 14.7428 19.5234 15.1847 18.4604 15.1847H18.425H18.3364L16.866 15.1494L16.99 16.0155ZM30.4008 23.864H42.3944L45.4238 46.1367H33.4303L30.4008 23.864Z" fill="#969696"/>
</svg>
