<svg width="46" height="49" viewBox="0 0 46 49" fill="none" xmlns="http://www.w3.org/2000/svg">
<path d="M-0.000244141 25.8929C4.16248 27.8979 4.25795 34.6575 5.13633 38.4193C6.96945 46.2482 13.5 48.8452 20.9279 48.7115C17.2426 46.7829 12.5643 43.785 11.3231 39.565C11.9915 39.9851 12.9462 39.9469 13.6527 40.3097C13.4809 37.8846 13.309 35.4595 13.1372 33.0345C14.5311 34.1038 15.9441 35.1922 17.3381 36.2615C17.3381 33.0154 17.3381 29.7501 17.3381 26.5039C18.3692 27.8024 19.3812 29.1009 20.4124 30.3993C20.7752 28.7381 20.9852 26.3512 21.9973 24.9191C22.742 26.7713 23.7922 28.9672 23.7922 30.9913C24.9188 29.7501 26.0454 28.4898 27.172 27.2487C27.1911 29.7692 27.2293 32.3088 27.2484 34.8294C28.6233 33.8555 29.9981 32.8817 31.3729 31.9078C31.2966 34.944 29.4061 38.0756 28.0695 40.6916C29.368 40.3861 30.6664 40.0996 31.9649 39.7941C31.3538 43.6895 27.7449 46.592 24.5369 48.4251C30.0554 49.3225 35.4593 46.4965 38.8773 42.2765C41.9325 38.1137 40.3858 30.4566 45.9998 28.2416C43.2692 28.7763 40.5386 29.2918 37.8271 29.8265C38.7818 26.4085 39.8511 21.2337 37.4452 18.1976C36.6432 20.6227 35.3829 23.5824 33.0915 24.9572C32.4614 20.89 30.5709 15.8298 30.991 11.7435C30.0172 14.2831 28.9097 18.0257 26.7137 19.7634C26.4273 16.7082 25.9881 13.6148 25.167 10.636C24.1168 6.93151 21.749 4.04815 22.0546 0C18.9612 4.73558 18.0446 9.39477 18.1592 14.9323C16.0587 13.2711 12.8889 10.4259 10.0629 10.4259C12.3924 13.9394 12.8507 18.484 12.3924 22.5895C10.6739 21.1573 8.01968 18.6941 5.6328 18.6941C7.35135 21.7684 8.17244 25.4728 7.80964 28.9672C5.93832 27.4587 2.55849 24.9191 -0.000244141 25.8929Z" fill="#969696"/>
</svg>
