<svg width="18" height="20" viewBox="0 0 18 20" fill="none" xmlns="http://www.w3.org/2000/svg">
    <path d="M9 0C6.61305 0 4.32387 0.948211 2.63604 2.63604C0.948211 4.32387 0 6.61305 0 9C0 13.17 2.84 16.67 6.69 17.69L9 20L11.31 17.69C15.16 16.67 18 13.17 18 9C18 6.61305 17.0518 4.32387 15.364 2.63604C13.6761 0.948211 11.3869 0 9 0ZM9 2C10.66 2 12 3.34 12 5C12 6.66 10.66 8 9 8C7.34 8 6 6.66 6 5C6 3.34 7.34 2 9 2ZM9 16.3C7.81186 16.3 6.64218 16.006 5.59528 15.4441C4.54837 14.8823 3.65678 14.0701 3 13.08C3.03 11.09 7 10 9 10C10.99 10 14.97 11.09 15 13.08C14.3432 14.0701 13.4516 14.8823 12.4047 15.4441C11.3578 16.006 10.1881 16.3 9 16.3Z" fill="black"/>
</svg>  