<svg width="44" height="44" viewBox="0 0 44 44" fill="none" xmlns="http://www.w3.org/2000/svg">
<path fill-rule="evenodd" clip-rule="evenodd" d="M9.84345 20.2223V24.3933C9.84345 24.9232 9.40447 25.3676 8.88106 25.3676C8.34077 25.3676 7.91867 24.9232 7.91867 24.3933V19.8634C7.5641 20.2394 7.142 20.5471 6.68613 20.7694V31.8634C6.68613 32.889 5.8588 33.7266 4.84576 33.7266C3.83271 33.7266 3.00539 32.889 3.00539 31.8634V20.9232C1.33386 20.2565 0.168856 18.5984 0.168856 16.6839C0.168856 16.53 0.168856 16.3591 0.185741 16.2052H17.779C17.779 16.2736 17.779 16.3249 17.779 16.3933C17.779 18.154 16.3776 19.5728 14.6385 19.5728C13.845 19.5728 13.119 19.2651 12.5618 18.7864C11.9877 19.6582 11.0085 20.2394 9.91099 20.2394L9.84345 20.2223ZM2.90408 0.00012207V4.94029H1.52588e-05V6.54713V6.71807V8.49585H2.90408V10.3078V14.1369H5.82504H38.2257V8.49585H40.4881V17.7266L28.2978 21.0429L19.5518 23.4189L18.2517 23.7779V25.1454V28.4958H13.693V30.9745L16.6646 31.6924V44.0001H23.1819V31.6924L26.086 30.9574V28.4788H21.7468V26.4958L25.056 25.5899L42.6831 20.8035L43.9831 20.4446V19.077V6.73517V4.94029H42.2272H38.2088V0.00012207H2.90408Z" fill="#969696"/>
</svg>
