<?xml version="1.0" encoding="utf-8"?><svg xmlns="http://www.w3.org/2000/svg" xmlns:xlink="http://www.w3.org/1999/xlink"><symbol viewBox="0 0 73 29" id="cardio" xmlns="http://www.w3.org/2000/svg"><path d="M0 14.458c0-.848.687-1.535 1.535-1.535h24.01a1.535 1.535 0 010 3.07H1.536A1.535 1.535 0 010 14.457zm44.996.007c0-.852.69-1.542 1.541-1.542h23.998a1.541 1.541 0 110 3.083H46.537c-.851 0-1.541-.69-1.541-1.541z"/><path d="M25.32 15.932a1.541 1.541 0 01-1.09-1.888l3.456-12.901a1.541 1.541 0 012.978.797l-3.457 12.902a1.541 1.541 0 01-1.888 1.09zm21.586 0a1.541 1.541 0 01-1.888-1.09L41.561 1.94a1.541 1.541 0 112.977-.797l3.457 12.901a1.541 1.541 0 01-1.09 1.888z"/><path d="M36.46 28.83a1.541 1.541 0 01-1.887-1.09L27.66 1.944a1.541 1.541 0 012.977-.798l6.912 25.796a1.541 1.541 0 01-1.09 1.888z"/><path d="M35.7 28.826a1.541 1.541 0 01-1.09-1.887l6.912-25.796a1.541 1.541 0 012.978.797l-6.912 25.797a1.541 1.541 0 01-1.888 1.09z"/></symbol><symbol viewBox="0 0 35 34" id="cardiographs" xmlns="http://www.w3.org/2000/svg"><path d="M3.01 18.22h3.026c.23 0 .443.115.57.304 0 0 .576.871 1.152 1.735l1.43-12.722a.684.684 0 011.086-.47.68.68 0 01.256.389l2.135 8.948.908-2.569a.681.681 0 011.282-.008l1.616 4.394h2.627a.68.68 0 01.568.303s.577.871 1.152 1.735c.32-2.83 1.432-12.722 1.432-12.722a.682.682 0 011.341-.08l2.134 8.948.91-2.57a.68.68 0 011.28-.007s1.349 3.657 1.617 4.393h2.685l.143-.273c1.304-2.243 2.257-6.398 2.257-9.424 0-3.86-2.81-8.524-8.285-8.524-7.824 0-8.83 7.329-8.83 7.329S16.532.035 8.712.035C3.432.035.598 4.53.598 8.524c0 3.45 1.51 7.708 2.284 9.457l.128.24z"/><path d="M29.057 19.585a.681.681 0 01-.64-.446l-1.128-3.065-1.045 2.964a.677.677 0 01-.679.452.676.676 0 01-.627-.522l-1.766-7.404-1.205 10.708a.68.68 0 01-.52.585.68.68 0 01-.727-.284s-1.654-2.489-1.988-2.988h-2.737a.682.682 0 01-.639-.447l-1.128-3.064c-.35.988-.7 1.976-1.048 2.964a.676.676 0 01-.678.452.68.68 0 01-.63-.522l-1.763-7.399-1.204 10.703a.68.68 0 01-.928.558.682.682 0 01-.32-.257s-1.653-2.489-1.986-2.988H3.75C8.64 28.275 17.5 34 17.5 34s9.021-5.725 13.991-14.415h-2.435z"/></symbol><symbol viewBox="0 0 585 415" id="cardiometr_bg" xmlns="http://www.w3.org/2000/svg"><path opacity=".2" d="M366.06 230.182c.764 0 1.519-.038 2.263-.113 10.028.097 19.241-6.567 21.957-16.709l27.454-102.523 76.841 286.953c2.891 10.797 13.146 17.653 23.91 16.605 9.307-.669 17.59-7.127 20.141-16.653l77.295-288.649 27.921 104.267a22.45 22.45 0 008.976 12.725 22.413 22.413 0 0013.216 4.286h342.946c12.44 0 22.52-10.091 22.52-22.538 0-12.446-10.08-22.537-22.52-22.537H682.964L637.953 17.21C635.231 7.042 625.978.37 615.919.502c-10.057-.13-19.307 6.542-22.03 16.708l-77.295 288.65-76.209-284.593c-.73-9.247-7.164-17.455-16.63-19.993a22.438 22.438 0 00-9.083-.538c-.981.128-1.965.322-2.947.585-9.419 2.526-15.836 10.665-16.619 19.857l-43.948 164.118H22.929C10.542 185.296.5 195.344.5 207.739c0 12.394 10.042 22.443 22.43 22.443h343.13z"/></symbol><symbol viewBox="0 0 29 32" id="cleaneq" xmlns="http://www.w3.org/2000/svg"><path d="M26.013 32h-24a1.92 1.92 0 01-1.406-.594A1.922 1.922 0 01.013 30V10c0-.542.198-1.01.594-1.406A1.922 1.922 0 012.013 8h24c.563 0 1.036.198 1.422.594.385.396.578.864.578 1.406v20c0 .563-.193 1.037-.578 1.422-.386.385-.86.578-1.422.578zm-12-20c-2.208 0-4.094.781-5.656 2.344C6.794 15.906 6.013 17.792 6.013 20c0 2.208.781 4.094 2.344 5.656C9.919 27.22 11.805 28 14.013 28c2.208 0 4.094-.781 5.656-2.344 1.563-1.562 2.344-3.448 2.344-5.656 0-2.208-.781-4.094-2.344-5.656C18.107 12.78 16.221 12 14.013 12zm0 14c-1.667 0-3.083-.583-4.25-1.75-1.167-1.167-1.75-2.583-1.75-4.25 0-1.667.583-3.083 1.75-4.25 1.167-1.167 2.583-1.75 4.25-1.75 1.667 0 3.083.583 4.25 1.75 1.167 1.167 1.75 2.583 1.75 4.25 0 1.667-.583 3.083-1.75 4.25-1.167 1.167-2.583 1.75-4.25 1.75zm12-20h-24a1.92 1.92 0 01-1.406-.594A1.922 1.922 0 01.013 4V2c0-.542.198-1.01.594-1.406A1.922 1.922 0 012.013 0h24c.563 0 1.036.198 1.422.594.385.396.578.864.578 1.406v2c0 .563-.193 1.036-.578 1.422-.386.385-.86.578-1.422.578zm-19-4h-2a.961.961 0 00-.703.297.961.961 0 00-.297.703c0 .27.099.505.297.703A.961.961 0 005.013 4h2c.27 0 .505-.099.703-.297A.961.961 0 008.013 3a.961.961 0 00-.297-.703A.961.961 0 007.013 2zm4 0a.961.961 0 00-.703.297.961.961 0 00-.297.703c0 .27.099.505.297.703a.961.961 0 00.703.297c.27 0 .505-.099.703-.297A.961.961 0 0012.013 3a.961.961 0 00-.297-.703.961.961 0 00-.703-.297zm4 0a.961.961 0 00-.703.297.961.961 0 00-.297.703c0 .27.099.505.297.703a.961.961 0 00.703.297c.27 0 .505-.099.703-.297A.961.961 0 0016.013 3a.961.961 0 00-.297-.703.961.961 0 00-.703-.297z"/></symbol><symbol viewBox="0 0 1440 415" id="clients_bg" xmlns="http://www.w3.org/2000/svg"><path opacity=".2" d="M570.06 230.182c.764 0 1.519-.038 2.263-.113 10.028.097 19.241-6.567 21.957-16.709l27.454-102.523 76.841 286.953c2.891 10.797 13.146 17.653 23.91 16.605 9.307-.669 17.59-7.127 20.141-16.653l77.295-288.649 27.921 104.267a22.445 22.445 0 008.976 12.725 22.41 22.41 0 0013.216 4.286H1454.5c12.44 0 22.52-10.091 22.52-22.538 0-12.447-10.08-22.537-22.52-22.537H886.964L841.953 17.21C839.231 7.042 829.978.37 819.919.502c-10.057-.13-19.307 6.542-22.03 16.708l-77.295 288.65-76.209-284.593c-.73-9.247-7.164-17.455-16.63-19.993a22.437 22.437 0 00-9.083-.538c-.981.128-1.965.322-2.947.585-9.419 2.526-15.836 10.665-16.619 19.857l-43.948 164.118H-3.071c-12.387 0-22.429 10.048-22.429 22.443 0 12.394 10.042 22.443 22.43 22.443h573.13z"/></symbol><symbol viewBox="0 0 268 682" id="cloudleft" xmlns="http://www.w3.org/2000/svg"><path fill-rule="evenodd" clip-rule="evenodd" d="M-34.125 547.876c-65.331 23.322-130.71-28.27-197.478-47.089-52.815-14.886-110.904-15.229-152.124-51.449-41.487-36.454-60.02-90.951-71.43-144.986-11.397-53.972-4.751-107.346 6.754-161.295 14.632-68.612 4.917-164.615 68.89-193.411 65.817-29.627 126.241 66.9 198.143 73.21 74.231 6.515 153.528-79.184 214.925-36.957 59.167 40.695 22.327 136.54 33.093 207.54 9.89 65.222 45.397 127.66 27.356 191.113-19.398 68.227-61.327 139.477-128.129 163.324z" fill-opacity=".15"/></symbol><symbol viewBox="0 0 852 714" id="cloudright" xmlns="http://www.w3.org/2000/svg"><path fill-rule="evenodd" clip-rule="evenodd" d="M1040.33 321.13C937.411 499.384 758.32 680.846 580.097 577.949 306.718 420.113 68.4 124.557 226.263-148.869c181.519-314.4 587.989-404.699 902.337-223.212 236.3 136.431 48.18 456.865-88.27 693.211z" fill-opacity=".15"/></symbol><symbol viewBox="0 0 36 36" id="complexeq" xmlns="http://www.w3.org/2000/svg"><path d="M18.845 23.74a.743.743 0 00.741-.742v-.345a.743.743 0 00-.74-.74H6.465a.743.743 0 00-.742.74v.345c0 .408.334.741.742.741h12.38z"/><path d="M26.617 8.458a12.65 12.65 0 00-4.029-2.717l-.007-.004a1.102 1.102 0 00-1.353.42l-.86 1.337a2.75 2.75 0 00-.9-.144c-.2 0-.397.022-.586.063l1.516-2.365.47-.734a1.11 1.11 0 00-.337-1.534L16.481.174a1.113 1.113 0 00-1.538.337L7.895 11.497a1.11 1.11 0 00.338 1.535l.767.493-.348.544-.349.545-.219.341a1.11 1.11 0 00.338 1.535l.66.422a1.11 1.11 0 001.534-.337l.219-.341.348-.545.348-.545.756.486a1.112 1.112 0 001.538-.337l2.892-4.511a2.799 2.799 0 00.7 1.312 2.813 2.813 0 002.135.886 2.83 2.83 0 002.572-3.773 9.36 9.36 0 012.135 1.6 9.272 9.272 0 012.735 6.602 9.272 9.272 0 01-2.735 6.6 9.288 9.288 0 01-3.858 2.328 1.112 1.112 0 01-.33.049h-3.647a1.11 1.11 0 01-1.112-1.112v-.249h-5.311v5.004c.115-.007.233-.011.348-.011h15.945a2.715 2.715 0 002.235-2.669c0-.823-.367-1.56-.945-2.057a12.63 12.63 0 002.747-7.876 12.634 12.634 0 00-3.714-8.958zm-7.15 2.724a1.01 1.01 0 01-1.011-1.015 1.012 1.012 0 011.015-1.012c.56 0 1.012.452 1.012 1.012s-.456 1.015-1.015 1.015zm6.743 17.03a.939.939 0 01-1.242-.445.948.948 0 111.242.445zM10.002 31.33A4.682 4.682 0 005.669 36h19.429a1.11 1.11 0 001.112-1.112V31.32H10.35a5.39 5.39 0 00-.348.011z"/></symbol><symbol viewBox="0 0 29 32" id="complexeqfap" xmlns="http://www.w3.org/2000/svg"><g clip-path="url(#aiclip0)"><path d="M26.013 32h-24a1.92 1.92 0 01-1.406-.594A1.922 1.922 0 01.013 30V10c0-.542.198-1.01.594-1.406A1.922 1.922 0 012.013 8h24c.563 0 1.036.198 1.422.594.385.396.578.864.578 1.406v20c0 .563-.193 1.037-.578 1.422-.386.385-.86.578-1.422.578zm-12-20c-2.208 0-4.094.781-5.656 2.344C6.794 15.906 6.013 17.792 6.013 20c0 2.208.781 4.094 2.344 5.656C9.919 27.22 11.805 28 14.013 28c2.208 0 4.094-.781 5.656-2.344 1.563-1.562 2.344-3.448 2.344-5.656 0-2.208-.781-4.094-2.344-5.656C18.107 12.78 16.221 12 14.013 12zm0 14c-1.667 0-3.083-.583-4.25-1.75-1.167-1.167-1.75-2.583-1.75-4.25 0-1.667.583-3.083 1.75-4.25 1.167-1.167 2.583-1.75 4.25-1.75 1.667 0 3.083.583 4.25 1.75 1.167 1.167 1.75 2.583 1.75 4.25 0 1.667-.583 3.083-1.75 4.25-1.167 1.167-2.583 1.75-4.25 1.75zm12-20h-24a1.92 1.92 0 01-1.406-.594A1.922 1.922 0 01.013 4V2c0-.542.198-1.01.594-1.406A1.922 1.922 0 012.013 0h24c.563 0 1.036.198 1.422.594.385.396.578.864.578 1.406v2c0 .563-.193 1.036-.578 1.422-.386.385-.86.578-1.422.578zm-19-4h-2a.961.961 0 00-.703.297.961.961 0 00-.297.703c0 .27.099.505.297.703A.961.961 0 005.013 4h2c.27 0 .505-.099.703-.297A.961.961 0 008.013 3a.961.961 0 00-.297-.703A.961.961 0 007.013 2zm4 0a.961.961 0 00-.703.297.961.961 0 00-.297.703c0 .27.099.505.297.703a.961.961 0 00.703.297c.27 0 .505-.099.703-.297A.961.961 0 0012.013 3a.961.961 0 00-.297-.703.961.961 0 00-.703-.297zm4 0a.961.961 0 00-.703.297.961.961 0 00-.297.703c0 .27.099.505.297.703a.961.961 0 00.703.297c.27 0 .505-.099.703-.297A.961.961 0 0016.013 3a.961.961 0 00-.297-.703.961.961 0 00-.703-.297z"/></g><defs><clipPath id="aiclip0"><path d="M0 0h28.031v32H0z"/></clipPath></defs></symbol><symbol viewBox="0 0 33 32" id="email_top" xmlns="http://www.w3.org/2000/svg"><path d="M16.077 0c-8.836 0-16 7.164-16 16s7.164 16 16 16 16-7.164 16-16-7.164-16-16-16zm0 5.62l9.468 5.904H6.61l9.468-5.904zm9.586 15.332c0 .947-.768 1.714-1.715 1.714H8.207a1.714 1.714 0 01-1.715-1.714V11.9c0-.1.01-.198.027-.294l9.046 5.641c.011.007.023.012.035.018a.943.943 0 00.233.096l.02.005a.975.975 0 00.224.028h.002c.074 0 .149-.01.223-.028l.02-.005a.954.954 0 00.234-.096c.011-.006.023-.01.034-.018l9.047-5.64c.016.095.026.192.026.293v9.052z"/></symbol><symbol viewBox="0 0 36 36" id="expendable" xmlns="http://www.w3.org/2000/svg"><g clip-path="url(#akclip0)"><path d="M9.37 3.604c3.499 5.175 4.642 18.28 4.688 18.836a1.125 1.125 0 11-2.241.19c-.015-.15-.215-.193-.288-.062-.793 1.413.18 3.342 1.971 3.342h9c1.74 0 2.79-1.884 1.971-3.34a.154.154 0 00-.288.06 1.125 1.125 0 11-2.241-.19c.046-.555 1.19-13.661 4.689-18.836a.899.899 0 01.064-.085.25.25 0 00-.187-.408h-.007c-.22-.014-.247.055-.68-.372-.41-.405-1.032-1.016-2.196-1.016-1.165 0-1.786.611-2.197 1.016-.322.319-.39.37-.616.37-.225 0-.293-.051-.616-.369-.412-.405-1.032-1.017-2.197-1.017-1.164 0-1.785.612-2.196 1.017-.322.318-.39.37-.616.37-.225 0-.293-.052-.616-.37-.41-.405-1.032-1.017-2.196-1.017-1.164 0-1.785.612-2.197 1.017-.322.318-.39.37-.616.37-.028 0-.056 0-.083.002-.202.014-.298.253-.17.41l.06.082zm9.755 18.931a1.125 1.125 0 11-2.25 0V12.41a1.125 1.125 0 112.25 0v10.125z"/><path d="M24.556 19.279a.422.422 0 00.203.42 4.497 4.497 0 01-2.259 8.39h-8.935c-2.473.001-4.533-1.967-4.565-4.44a4.491 4.491 0 012.24-3.952.422.422 0 00.204-.42 83.269 83.269 0 00-.997-5.973.42.42 0 00-.459-.332 8.535 8.535 0 00-3.055.956.349.349 0 00-.183.308v18.712c0 .131.073.25.189.312a8.758 8.758 0 004.118 1.018h13.886a8.8 8.8 0 004.118-1.022.354.354 0 00.189-.313v-18.71a.349.349 0 00-.183-.309 8.709 8.709 0 00-3.052-.957.42.42 0 00-.46.332 83.21 83.21 0 00-1 5.98zm10.18-4.611l-2.92.302a.352.352 0 00-.316.35v16.553c0 .175.128.323.3.348l2.936.43c.67.084 1.264-.44 1.264-1.116v-15.75c0-.676-.593-1.2-1.264-1.117zM0 15.785v15.82c0 .677.593 1.2 1.264 1.117l2.928-.366a.352.352 0 00.308-.35V15.43a.352.352 0 00-.303-.348l-2.915-.41A1.125 1.125 0 000 15.784z"/></g><defs><clipPath id="akclip0"><path d="M0 0h36v36H0z"/></clipPath></defs></symbol><symbol viewBox="0 0 48 48" id="footer_email" xmlns="http://www.w3.org/2000/svg"><path d="M24 0C10.746 0 .001 10.745.001 24c0 13.254 10.745 24 24 24 13.254 0 24-10.746 24-24C48 10.745 37.255 0 24 0zm0 8.43l14.203 8.856H9.8L24 8.43zm14.38 22.998h-.001a2.571 2.571 0 01-2.572 2.571H12.195a2.571 2.571 0 01-2.572-2.571V17.849c0-.15.016-.296.04-.44l13.57 8.462.051.027a1.77 1.77 0 00.35.144l.032.007c.11.026.222.042.334.042h.003c.112 0 .224-.016.335-.042l.03-.007a1.441 1.441 0 00.35-.144c.018-.01.036-.017.052-.027l13.57-8.461c.025.143.04.289.04.44v13.578z"/></symbol><symbol viewBox="0 0 48 48" id="footer_location" xmlns="http://www.w3.org/2000/svg"><circle cx="24" cy="24" r="24"/><path d="M24 23.25a3.75 3.75 0 110-7.5 3.75 3.75 0 010 7.5zM24 9a10.5 10.5 0 00-10.5 10.5C13.5 27.375 24 39 24 39s10.5-11.625 10.5-19.5A10.5 10.5 0 0024 9z"/></symbol><symbol viewBox="0 0 48 48" id="footer_phone" xmlns="http://www.w3.org/2000/svg"><path d="M23.999 38.049a1.875 1.875 0 100-3.75 1.875 1.875 0 000 3.75zM29.23 10.92H18.768c-.586 0-1.063.455-1.063 1.013v19.775c0 .558.477 1.013 1.064 1.013h10.46c.587 0 1.064-.455 1.064-1.013V11.933c0-.559-.477-1.013-1.063-1.013z"/><path d="M24 0C10.744 0 0 10.746 0 24c0 13.253 10.745 24 24 24 13.254 0 24-10.746 24-24C48 10.745 37.254 0 24 0zm9.337 35.843a3.32 3.32 0 01-3.32 3.32H17.983a3.32 3.32 0 01-3.32-3.32V12.052a3.32 3.32 0 013.32-3.32h12.034a3.32 3.32 0 013.32 3.32v23.791z"/></symbol><symbol viewBox="0 0 36 36" id="furniture" xmlns="http://www.w3.org/2000/svg"><path d="M1.74 3.352v7.435H.628a.383.383 0 01-.382-.381V.812c0-.325.242-.59.575-.59h4.915c.332 0 .575.264.575.588v.564h7.6a.38.38 0 01.382.38v2.158H7.805v-.565a.572.572 0 00-.575-.587H2.316a.576.576 0 00-.575.593z"/><path d="M17.281 15.29a.378.378 0 01-.381.38H3.616a.38.38 0 01-.381-.38V5.695c0-.324.242-.589.574-.589h4.915c.332 0 .576.264.576.588v.564h7.6a.38.38 0 01.381.38v8.652zm-5.89-5.462V7.565H9.126v2.263H6.862v2.264h2.265v2.262h2.263v-2.262h2.262V9.828H11.39zm8.605-3.653v28.972H35.92V6.175H19.996zM34.92 31.048H20.991V20.107H34.92v10.942zm0-12.906H20.991V7.2H34.92v10.94z"/><path d="M33.91 8.134H21.99v9.08h11.92v-9.08zm-4.02 3.043h-3.924a.553.553 0 010-1.105h3.925a.553.553 0 010 1.106zm4.026 9.86H22v9.078h11.918v-9.078zm-4.025 3.046h-3.925a.554.554 0 110-1.107h3.925a.554.554 0 110 1.107z"/></symbol><symbol viewBox="0 0 42 50" id="garanty" xmlns="http://www.w3.org/2000/svg"><path d="M21 0L.75 9v13.5c0 12.487 8.64 24.165 20.25 27 11.61-2.835 20.25-14.513 20.25-27V9L21 0zm0 24.727h15.75c-1.193 9.27-7.38 17.528-15.75 20.116V24.75H5.25V11.925L21 4.927v19.8z"/></symbol><symbol viewBox="0 0 48 32" id="geography" xmlns="http://www.w3.org/2000/svg"><path d="M38.7 12.08A14.98 14.98 0 0024 0c-5.78 0-10.8 3.28-13.3 8.08A11.988 11.988 0 000 20c0 6.62 5.38 12 12 12h26c5.52 0 10-4.48 10-10 0-5.28-4.1-9.56-9.3-9.92zM20 26l-7-7 2.82-2.82L20 20.36 30.36 10l2.82 2.82L20 26z"/></symbol><symbol viewBox="0 0 73 64" id="logo" xmlns="http://www.w3.org/2000/svg"><path d="M53.115 46.488c-4.155 4.989-10.414 8.164-17.414 8.164-7 0-13.259-3.175-17.414-8.164h-3.023c4.54 6.391 12.001 10.561 20.437 10.561 8.436 0 15.898-4.17 20.437-10.561h-3.023zM18.212 17.602c4.155-5.04 10.447-8.254 17.489-8.254 7.042 0 13.334 3.213 17.489 8.254h3.012C51.669 11.16 44.177 6.951 35.7 6.951S19.732 11.16 15.2 17.602h3.011z"/><path d="M56.938 52.717c-5.374 5.483-12.863 8.886-21.147 8.886-8.283 0-15.773-3.403-21.146-8.886h-3.243C17.271 59.62 26.02 64 35.791 64c9.771 0 18.52-4.38 24.39-11.283h-3.245zM14.734 11.193c5.367-5.43 12.82-8.796 21.057-8.796 8.239 0 15.691 3.365 21.058 8.796h3.255C54.235 4.342 45.52 0 35.791 0S17.348 4.342 11.48 11.193h3.255zM0 32.045c0-.847.687-1.534 1.535-1.534h24.01a1.535 1.535 0 110 3.069H1.536A1.535 1.535 0 010 32.045zm44.996.007c0-.851.69-1.541 1.541-1.541h23.998a1.541 1.541 0 110 3.082H46.537c-.851 0-1.541-.69-1.541-1.541z"/><path d="M25.32 33.519a1.541 1.541 0 01-1.09-1.888l3.456-12.901a1.541 1.541 0 012.978.798l-3.457 12.901a1.541 1.541 0 01-1.888 1.09zm21.586 0a1.541 1.541 0 01-1.888-1.09l-3.457-12.901a1.541 1.541 0 112.977-.798l3.457 12.901a1.541 1.541 0 01-1.09 1.888z"/><path d="M36.46 46.417a1.541 1.541 0 01-1.887-1.09L27.66 19.531a1.541 1.541 0 012.977-.798L37.55 44.53a1.541 1.541 0 01-1.09 1.888z"/><path d="M35.7 46.413a1.541 1.541 0 01-1.09-1.887l6.912-25.796a1.541 1.541 0 012.978.798l-6.912 25.796a1.541 1.541 0 01-1.888 1.09z"/></symbol><symbol viewBox="0 0 73 65" id="logo_footer" xmlns="http://www.w3.org/2000/svg"><path d="M53.115 46.988c-4.155 4.989-10.414 8.164-17.414 8.164-7 0-13.259-3.175-17.414-8.164h-3.023c4.54 6.391 12.001 10.561 20.437 10.561 8.436 0 15.898-4.17 20.437-10.561h-3.023zM18.212 18.102c4.155-5.04 10.447-8.254 17.489-8.254 7.042 0 13.334 3.213 17.489 8.254h3.012C51.669 11.66 44.177 7.451 35.7 7.451S19.732 11.66 15.2 18.102h3.011z"/><path d="M56.938 53.217c-5.374 5.483-12.863 8.886-21.147 8.886-8.283 0-15.773-3.403-21.146-8.886h-3.243C17.271 60.12 26.02 64.5 35.791 64.5c9.771 0 18.52-4.38 24.39-11.283h-3.245zM14.734 11.693c5.367-5.43 12.82-8.796 21.057-8.796 8.239 0 15.691 3.365 21.058 8.796h3.255C54.235 4.842 45.52.5 35.791.5S17.348 4.842 11.48 11.693h3.255zM0 32.545c0-.848.687-1.535 1.535-1.535h24.01a1.535 1.535 0 010 3.07H1.536A1.535 1.535 0 010 32.544zm44.996.006c0-.85.69-1.54 1.541-1.54h23.998a1.541 1.541 0 110 3.082H46.537c-.851 0-1.541-.69-1.541-1.542z"/><path d="M25.32 34.019a1.541 1.541 0 01-1.09-1.888l3.456-12.901a1.541 1.541 0 112.978.797L27.207 32.93a1.541 1.541 0 01-1.888 1.09zm21.586 0a1.541 1.541 0 01-1.888-1.09l-3.457-12.902a1.541 1.541 0 112.977-.797l3.457 12.901a1.541 1.541 0 01-1.09 1.888z"/><path d="M36.46 46.917a1.541 1.541 0 01-1.887-1.09L27.66 20.03a1.541 1.541 0 012.977-.798l6.912 25.796a1.541 1.541 0 01-1.09 1.888z"/><path d="M35.7 46.913a1.541 1.541 0 01-1.09-1.887l6.912-25.796a1.541 1.541 0 012.978.797l-6.912 25.797a1.541 1.541 0 01-1.888 1.09z"/></symbol><symbol viewBox="0 0 36 29" id="medeq" xmlns="http://www.w3.org/2000/svg"><path d="M13.05 12.6h3.15v3.15a.45.45 0 00.45.45h2.7a.45.45 0 00.45-.45V12.6h3.15a.45.45 0 00.45-.45v-2.7a.45.45 0 00-.45-.45H19.8V5.85a.45.45 0 00-.45-.45h-2.7a.45.45 0 00-.45.45V9h-3.15a.45.45 0 00-.45.45v2.7a.45.45 0 00.45.45zM32.4 2.7A2.708 2.708 0 0029.7 0H6.3a2.708 2.708 0 00-2.7 2.7v18.9h28.8V2.7zM28.8 18H7.2V3.6h21.6V18zm6.3 5.4H21.462c-.042 1.114-.828 1.8-1.842 1.8H16.2c-1.051 0-1.856-.983-1.843-1.8H.9a.9.9 0 00-.9.9v.9a3.61 3.61 0 003.6 3.6h28.8a3.61 3.61 0 003.6-3.6v-.9a.9.9 0 00-.9-.9z"/></symbol><symbol viewBox="0 0 32 32" id="phone" xmlns="http://www.w3.org/2000/svg"><path fill-rule="evenodd" clip-rule="evenodd" d="M27.338 4.651a15.834 15.834 0 00-5.167-3.45 15.895 15.895 0 00-6.103-1.2C7.286 0 .137 7.112.133 15.856c0 2.794.733 5.522 2.127 7.928L0 32l8.447-2.206a15.999 15.999 0 007.614 1.93h.007c8.78 0 15.929-7.113 15.932-15.857a15.7 15.7 0 00-1.203-6.072 15.762 15.762 0 00-3.46-5.144zm-11.27 24.397h-.006c-2.372 0-4.7-.634-6.74-1.838l-.483-.287-5.012 1.31 1.336-4.864-.314-.498a13.11 13.11 0 01-2.025-7.014c.003-7.267 5.944-13.18 13.249-13.18 1.74-.003 3.463.337 5.07 1a13.161 13.161 0 014.292 2.866 13.103 13.103 0 012.875 4.276 13.052 13.052 0 011 5.048c-.004 7.267-5.944 13.181-13.242 13.181zm7.264-9.872c-.4-.2-2.355-1.157-2.72-1.29-.365-.132-.63-.197-.895.198-.267.396-1.03 1.288-1.262 1.553-.233.265-.465.297-.863.099-.397-.198-1.68-.617-3.202-1.966-1.183-1.051-1.982-2.348-2.215-2.745-.232-.398-.024-.611.176-.809.18-.177.398-.463.596-.694.2-.232.265-.396.398-.66.133-.266.067-.497-.034-.695-.1-.2-.896-2.15-1.228-2.943-.321-.768-.65-.666-.894-.676-.254-.01-.508-.015-.762-.015a1.472 1.472 0 00-1.063.495c-.366.398-1.393 1.355-1.393 3.305 0 1.95 1.427 3.835 1.626 4.1.198.265 2.807 4.266 6.8 5.983.952.408 1.694.651 2.27.835.954.302 1.822.258 2.508.157.765-.113 2.356-.957 2.688-1.883.332-.925.332-1.718.232-1.884-.1-.166-.367-.267-.763-.465z"/></symbol><symbol viewBox="0 0 48 48" id="prices" xmlns="http://www.w3.org/2000/svg"><path d="M43 0H30.4C28 0 25.6 1 24 2.6L1.8 24.8C.6 26 0 27.4 0 29s.6 3 1.8 4.2L15 46.4c1 1 2.4 1.6 4 1.6s3-.6 4.2-1.8L45.4 24c1.6-1.6 2.6-4 2.6-6.4V5c0-2.8-2.2-5-5-5zM15 28c-1.6 0-3-1.4-3-3s1.4-3 3-3 3 1.4 3 3-1.4 3-3 3zm7 7c0 .6-.4 1-1 1s-1-.4-1-1V19c0-.6.4-1 1-1s1 .4 1 1v16zm5-3c-1.6 0-3-1.4-3-3s1.4-3 3-3 3 1.4 3 3-1.4 3-3 3zm10-16c-2.8 0-5-2.2-5-5s2.2-5 5-5 5 2.2 5 5-2.2 5-5 5z"/></symbol><symbol viewBox="0 0 36 36" id="protection" xmlns="http://www.w3.org/2000/svg"><g clip-path="url(#awclip0)"><path d="M8.4 11.996h.012a9.493 9.493 0 007.263-3.687 2.993 2.993 0 014.648-.005 9.5 9.5 0 007.266 3.692h.011L30 12v-.6a1.2 1.2 0 00-1.2-1.2h-.906a7.999 7.999 0 01-6.174-3.03 4.794 4.794 0 00-7.44 0 7.999 7.999 0 01-6.174 3.03H7.2A1.2 1.2 0 006 11.4v.6l2.4-.004z"/><path d="M27.6 13.196h-.013A10.694 10.694 0 0119.39 9.06a1.794 1.794 0 00-2.787.005A10.63 10.63 0 018.4 13.196L6 13.2V18a12.54 12.54 0 0011.072 12.548c.617.07 1.24.07 1.856 0A12.54 12.54 0 0030 18v-4.8l-2.4-.004zm-17.308 1.811a50.682 50.682 0 0015.416 0 .6.6 0 11.184 1.186c-2.611.404-5.25.606-7.892.604-2.642.002-5.281-.2-7.892-.604a.6.6 0 01.184-1.186zm-.665 4.013a.6.6 0 01.751-.395 25.504 25.504 0 0015.244 0 .6.6 0 11.356 1.146A26.774 26.774 0 0118 20.993a26.778 26.778 0 01-7.98-1.22.6.6 0 01-.393-.753zm16.432 4.92a18.36 18.36 0 01-16.118 0 .6.6 0 11.518-1.08 17.18 17.18 0 0015.082 0 .6.6 0 11.518 1.08zM5.568 22.602C2.46 21.87 0 19.14 0 16.2v-3a2.4 2.4 0 012.4-2.4h2.478c-.054.195-.08.397-.078.6v.6H2.4a1.204 1.204 0 00-1.2 1.2v3c0 2.37 1.848 4.266 3.972 5.028.107.465.24.923.396 1.374zM36 13.2v3c0 2.94-2.46 5.67-5.568 6.402.157-.45.289-.91.396-1.374 2.124-.762 3.972-2.658 3.972-5.028v-3a1.204 1.204 0 00-1.2-1.2h-2.4v-.6a2.195 2.195 0 00-.078-.6H33.6a2.4 2.4 0 012.4 2.4z"/></g><defs><clipPath id="awclip0"><path d="M0 0h36v36H0z"/></clipPath></defs></symbol><symbol viewBox="0 0 36 36" id="safes" xmlns="http://www.w3.org/2000/svg"><path d="M18 16.875a2.25 2.25 0 100-4.5 2.25 2.25 0 000 4.5z"/><path d="M28.266 6.188H7.734a.985.985 0 00-.984.984v21.656c0 .543.442.985.984.985h20.532a.986.986 0 00.984-.985V7.172a.985.985 0 00-.984-.984zM11.813 23.625a1.125 1.125 0 11-2.25 0v-4.5a1.125 1.125 0 112.25 0v4.5zm6.187-4.5a4.505 4.505 0 01-4.5-4.5c0-2.481 2.019-4.5 4.5-4.5s4.5 2.019 4.5 4.5-2.019 4.5-4.5 4.5zm17.086-2.25h-3.234a.352.352 0 00-.352.352v1.546c0 .195.157.352.352.352h3.234a.352.352 0 00.352-.352v-1.546a.352.352 0 00-.352-.352zm-3.234-2.25h3.234a.352.352 0 00.352-.352v-2.671a.352.352 0 00-.352-.352h-3.234a.352.352 0 00-.352.352v2.671c0 .195.157.352.352.352z"/><path d="M31.5 27.352v1.476a3.234 3.234 0 01-3.234 3.235H7.734A3.234 3.234 0 014.5 28.828V7.172a3.234 3.234 0 013.234-3.234h20.532A3.234 3.234 0 0131.5 7.171v1.476c0 .195.157.352.352.352h3.234a.352.352 0 00.352-.352V3.234A3.234 3.234 0 0032.203 0H3.797A3.234 3.234 0 00.562 3.234v29.532A3.234 3.234 0 003.797 36h28.406a3.234 3.234 0 003.234-3.234v-5.414a.352.352 0 00-.351-.352h-3.234a.352.352 0 00-.352.352z"/><path d="M35.086 21.375h-3.234a.352.352 0 00-.352.352v2.671c0 .195.157.352.352.352h3.234a.352.352 0 00.352-.352v-2.671a.352.352 0 00-.352-.352z"/></symbol><symbol viewBox="0 0 90 90" id="service" xmlns="http://www.w3.org/2000/svg"><path fill-rule="evenodd" clip-rule="evenodd" d="M90 45c0 24.853-20.147 45-45 45S0 69.853 0 45 20.147 0 45 0s45 20.147 45 45zm-36.194-1.689a11.385 11.385 0 0011.297-2.864 11.384 11.384 0 002.853-11.334c-.103.132-.212.26-.333.381l-3.826 3.825a4.153 4.153 0 01-5.874 0l-1.795-1.795a4.153 4.153 0 010-5.874l3.824-3.825c.121-.122.25-.231.381-.334A11.387 11.387 0 0049 24.344a11.388 11.388 0 00-2.864 11.298L35.642 46.134a11.385 11.385 0 00-11.297 2.864 11.388 11.388 0 00-2.854 11.334 4.11 4.11 0 01.334-.38l3.826-3.825a4.152 4.152 0 015.875 0l1.794 1.795a4.153 4.153 0 010 5.874l-3.824 3.825c-.121.122-.25.23-.382.334A11.382 11.382 0 0040.448 65.1a11.384 11.384 0 002.865-11.297L53.806 43.31z"/></symbol><symbol viewBox="0 0 33 32" id="smartphone_top" xmlns="http://www.w3.org/2000/svg"><path d="M16.076 25.366a1.25 1.25 0 100-2.5 1.25 1.25 0 000 2.5zM19.563 7.28H12.59c-.39 0-.709.303-.709.675v13.183c0 .373.318.675.71.675h6.973c.391 0 .71-.303.71-.675V7.955c0-.372-.319-.675-.71-.675z"/><path d="M16.077 0c-8.836 0-16 7.164-16 16 0 8.835 7.164 16 16 16s16-7.164 16-16c0-8.837-7.164-16-16-16zm6.225 23.896a2.213 2.213 0 01-2.214 2.213h-8.022a2.213 2.213 0 01-2.214-2.213V8.034c0-1.222.991-2.213 2.214-2.213h8.022c1.223 0 2.214.991 2.214 2.213v15.862z"/></symbol><symbol viewBox="0 0 107 123" id="subtract" xmlns="http://www.w3.org/2000/svg"><path fill-rule="evenodd" clip-rule="evenodd" d="M99.537 94.262C89.294 108.63 72.491 118 53.5 118s-35.794-9.37-46.037-23.738h-6.02C12.333 111.529 31.577 123 53.5 123c21.923 0 41.167-11.471 52.057-28.738h-6.02zM6.664 29.888C16.82 14.87 34.008 5 53.5 5s36.68 9.871 46.836 24.888h5.928C95.514 11.982 75.906 0 53.5 0 31.094 0 11.487 11.982.736 29.888h5.929z"/></symbol></svg>