<?xml version="1.0" encoding="utf-8"?><svg xmlns="http://www.w3.org/2000/svg" xmlns:xlink="http://www.w3.org/1999/xlink"><symbol viewBox="0 0 6 10" id="arrow-small" xmlns="http://www.w3.org/2000/svg"><path d="M.6 8.587l3-3.25-3-3.25.6-1.3 4.2 4.55-4.2 4.55-.6-1.3z"/></symbol><symbol viewBox="0 0 36.447 36.447" id="calendar" xmlns="http://www.w3.org/2000/svg"><path d="M30.224 3.948h-1.098V2.75c0-1.517-1.197-2.75-2.67-2.75-1.474 0-2.67 1.233-2.67 2.75v1.197h-2.74V2.75c0-1.517-1.197-2.75-2.67-2.75-1.473 0-2.67 1.233-2.67 2.75v1.197h-2.74V2.75c0-1.517-1.197-2.75-2.67-2.75-1.473 0-2.67 1.233-2.67 2.75v1.197H6.224a4.255 4.255 0 00-4.25 4.25v24a4.255 4.255 0 004.25 4.25h24a4.255 4.255 0 004.25-4.25v-24a4.255 4.255 0 00-4.25-4.249zM25.286 2.75c0-.689.525-1.25 1.17-1.25.646 0 1.17.561 1.17 1.25v4.896c0 .689-.524 1.25-1.17 1.25-.645 0-1.17-.561-1.17-1.25V2.75zm-8.08 0c0-.689.525-1.25 1.17-1.25s1.17.561 1.17 1.25v4.896c0 .689-.525 1.25-1.17 1.25s-1.17-.561-1.17-1.25V2.75zm-8.081 0c0-.689.525-1.25 1.17-1.25s1.17.561 1.17 1.25v4.896c0 .689-.525 1.25-1.17 1.25s-1.17-.561-1.17-1.25V2.75zm22.849 29.448c0 .965-.785 1.75-1.75 1.75h-24c-.965 0-1.75-.785-1.75-1.75v-22h27.5v22z"/><path d="M6.724 14.626h4.595v4.089H6.724zm6.133 0h4.596v4.089h-4.596zm6.138 0h4.595v4.089h-4.595zm6.133 0h4.596v4.089h-4.596zM6.724 20.084h4.595v4.086H6.724zm6.133 0h4.596v4.086h-4.596zm6.138 0h4.595v4.086h-4.595zm6.133 0h4.596v4.086h-4.596zM6.724 25.54h4.595v4.086H6.724zm6.133 0h4.596v4.086h-4.596zm6.138 0h4.595v4.086h-4.595zm6.133 0h4.596v4.086h-4.596z"/></symbol><symbol viewBox="0 0 17 13" id="email" xmlns="http://www.w3.org/2000/svg"><path d="M15.281.79H2.094A1.41 1.41 0 00.688 2.198v9.375c0 .772.629 1.406 1.406 1.406H15.28c.773 0 1.406-.629 1.406-1.406V2.197c0-.773-.629-1.406-1.406-1.406zm-.194.938l-6.37 6.37-6.425-6.37h12.795zm-13.462 9.65V2.386L6.14 6.863l-4.515 4.515zm.663.662l4.518-4.517 1.583 1.57a.469.469 0 00.661-.002l1.544-1.544 4.493 4.494h-12.8zm13.462-.662l-4.493-4.494 4.493-4.493v8.987z"/></symbol><symbol viewBox="0 0 33 32" id="facebook" xmlns="http://www.w3.org/2000/svg"><circle cx="16.465" cy="16.107" r="15.564"/><path d="M21.775 5.49l-2.754-.004c-3.095 0-5.095 2.052-5.095 5.228v2.41h-2.77a.433.433 0 00-.433.433v3.493c0 .239.194.433.433.433h2.77v8.812c0 .24.194.433.433.433h3.614a.433.433 0 00.433-.433v-8.812h3.238c.24 0 .433-.194.433-.433l.002-3.493a.434.434 0 00-.434-.433h-3.24v-2.043c0-.982.235-1.48 1.514-1.48l1.856-.002a.433.433 0 00.433-.433V5.924a.433.433 0 00-.433-.434z"/></symbol><symbol viewBox="0 0 15 15" id="phone" xmlns="http://www.w3.org/2000/svg"><g clip-path="url(#eclip0)"><mask id="ea"><path d="M14.568 11.869l-2.32-2.32a1.23 1.23 0 00-1.74 0l-.58.58c-.48.48-1.26.48-1.741-.002l-2.43-2.396a1.233 1.233 0 010-1.74l.58-.58c.48-.48.48-1.26 0-1.74l-2.319-2.32a1.233 1.233 0 00-1.74 0l-.58.58c-.752.753-.973 2.413-.577 4.332.253 1.222.98 3.577 3.008 5.606 2.025 2.025 4.36 2.72 5.572 2.954 1.332.257 3.334.318 4.287-.635l.58-.58c.48-.48.48-1.26 0-1.74zM2.858 1.932a.41.41 0 01.58 0l2.32 2.32c.16.16.16.42 0 .58l-.288.288-2.9-2.9.288-.288zm6.999 12.085c-1.12-.216-3.277-.858-5.148-2.728-1.878-1.878-2.55-4.06-2.785-5.192-.31-1.501-.18-2.63.12-3.243l2.874 2.874a2.055 2.055 0 00.262 2.584l2.429 2.397c.7.7 1.785.787 2.582.26l2.876 2.876c-.876.445-2.24.36-3.21.172zm4.13-.988l-.288.288-2.9-2.9.29-.288a.41.41 0 01.579 0l2.32 2.32c.16.16.16.42 0 .58z"/></mask><path d="M14.568 11.869l-2.32-2.32a1.23 1.23 0 00-1.74 0l-.58.58c-.48.48-1.26.48-1.741-.002l-2.43-2.396a1.233 1.233 0 010-1.74l.58-.58c.48-.48.48-1.26 0-1.74l-2.319-2.32a1.233 1.233 0 00-1.74 0l-.58.58c-.752.753-.973 2.413-.577 4.332.253 1.222.98 3.577 3.008 5.606 2.025 2.025 4.36 2.72 5.572 2.954 1.332.257 3.334.318 4.287-.635l.58-.58c.48-.48.48-1.26 0-1.74zM2.858 1.932a.41.41 0 01.58 0l2.32 2.32c.16.16.16.42 0 .58l-.288.288-2.9-2.9.288-.288zm6.999 12.085c-1.12-.216-3.277-.858-5.148-2.728-1.878-1.878-2.55-4.06-2.785-5.192-.31-1.501-.18-2.63.12-3.243l2.874 2.874a2.055 2.055 0 00.262 2.584l2.429 2.397c.7.7 1.785.787 2.582.26l2.876 2.876c-.876.445-2.24.36-3.21.172zm4.13-.988l-.288.288-2.9-2.9.29-.288a.41.41 0 01.579 0l2.32 2.32c.16.16.16.42 0 .58z"/><path d="M14.568 11.869l.707-.707-.707.707zm-2.32-2.32l-.707.707.707-.707zm-1.74 0l.707.707-.707-.707zm-.58.58l.707.707-.707-.707zm-1.741-.002l.707-.707-.005-.005-.702.712zm-2.43-2.396l-.706.707.005.004.702-.711zm0-1.74l-.706-.707.707.707zm.58-.58l-.706-.707.707.707zm0-1.74l-.706.707.707-.707zm-2.319-2.32l.707-.706-.707.707zm-1.74 0L1.572.646l.708.707zm-.58.58l.708.708-.707-.707zm-.577 4.332l.98-.203-.98.203zm3.008 5.606l.707-.707-.707.707zm5.572 2.954l.19-.982-.19.982zm4.287-.635l.707.708-.707-.708zm.58-.58l.707.708-.707-.708zM2.858 1.932l-.707-.708.707.708zm.58 0l.708-.708-.708.708zm2.32 2.32l.707-.708-.707.707zm0 .58l.707.706-.707-.707zm-.288.288l-.708.707.708.707.707-.707-.707-.707zm-2.9-2.9l-.707-.707-.707.707.707.707.707-.707zm7.287 11.797l-.19.982.19-.982zM4.709 11.29l-.707.707.707-.707zM1.924 6.097l.98-.203-.98.203zm.12-3.243l.707-.707-.988-.989-.617 1.256.898.44zm2.874 2.874l.834.553.452-.682-.578-.578-.708.707zm.262 2.584l-.707.708.005.004.702-.712zm2.429 2.397l.707-.707-.005-.005-.702.712zm2.582.26l.707-.707-.578-.579-.682.452.553.834zm2.876 2.876l.453.892 1.23-.624-.976-.975-.707.707zm.92-.816l-.706-.707.707.707zm-.288.288l-.707.707.707.707.707-.707-.707-.707zm-2.9-2.9l-.707-.706-.707.707.707.707.708-.707zm.29-.288l.706.707-.707-.707zm.579 0l.707-.707-.707.707zm2.32 2.32l-.707.707.707-.707zm1.287-1.287l-2.32-2.32-1.414 1.414 2.32 2.32 1.414-1.414zm-2.32-2.32a2.23 2.23 0 00-3.154 0l1.414 1.414a.23.23 0 01.326 0l1.414-1.414zm-3.154 0l-.58.58 1.414 1.414.58-.58-1.414-1.414zm-.58.58a.232.232 0 01-.327-.002L7.48 10.834a2.232 2.232 0 003.155.002L9.221 9.422zm-.332-.007L6.46 7.02 5.056 8.442l2.428 2.397L8.89 9.415zM6.465 7.024a.232.232 0 010-.326L5.051 5.284c-.87.87-.87 2.284 0 3.154l1.414-1.414zm0-.326l.58-.58-1.414-1.414-.58.58 1.414 1.414zm.58-.58c.87-.87.87-2.284 0-3.154L5.631 4.378a.232.232 0 010 .326l1.414 1.414zm0-3.154L4.725.644 3.311 2.06l2.32 2.32 1.414-1.415zM4.725.644a2.232 2.232 0 00-3.154 0L2.986 2.06a.23.23 0 01.325 0L4.725.645zm-3.154 0l-.58.58L2.407 2.64l.58-.58L1.57.645zm-.58.58C.4 1.816.104 2.664-.011 3.528-.13 4.41-.074 5.42.142 6.465L2.1 6.06c-.18-.873-.212-1.653-.13-2.268.085-.634.275-.992.436-1.153L.992 1.224zm-.85 5.24c.276 1.332 1.064 3.895 3.281 6.112l1.414-1.414C2.996 9.32 2.331 7.175 2.1 6.06l-1.958.405zm3.281 6.112c2.216 2.216 4.765 2.973 6.09 3.229l.379-1.964c-1.099-.212-3.22-.845-5.055-2.68l-1.414 1.415zm6.09 3.229c.73.14 1.662.233 2.566.15.875-.08 1.896-.339 2.617-1.06l-1.414-1.414c-.232.232-.689.419-1.385.482-.668.061-1.404-.006-2.005-.122l-.38 1.964zm5.183-.91l.58-.58-1.415-1.414-.58.58 1.415 1.415zm.58-.58a2.23 2.23 0 000-3.153l-1.415 1.414a.23.23 0 010 .325l1.415 1.415zM3.565 2.64a.59.59 0 01-.834 0l1.414-1.415a1.41 1.41 0 00-1.994 0L3.566 2.64zm-.834 0l2.32 2.32 1.414-1.415-2.32-2.32L2.732 2.64zm2.32 2.32a.59.59 0 010-.835l1.414 1.414a1.41 1.41 0 000-1.994L5.051 4.958zm0-.835l-.289.289 1.415 1.414.288-.289-1.414-1.414zm1.126.289l-2.9-2.9-1.414 1.414 2.9 2.9 1.414-1.414zm-2.9-1.486l.289-.288L2.15 1.224l-.288.289 1.414 1.414zm6.77 10.109c-1.007-.195-2.952-.775-4.63-2.454l-1.415 1.414C6.064 14.059 8.435 14.762 9.667 15l.38-1.963zm-4.63-2.454c-1.69-1.69-2.302-3.662-2.514-4.688L.945 6.3c.256 1.24.991 3.631 3.057 5.697l1.414-1.414zM2.902 5.894c-.286-1.388-.126-2.264.039-2.6l-1.796-.88c-.435.891-.533 2.272-.2 3.885l1.958-.405zM1.337 3.561l2.874 2.875L5.626 5.02 2.75 2.147 1.337 3.561zm2.748 1.615a3.055 3.055 0 00.388 3.844l1.414-1.415a1.055 1.055 0 01-.135-1.324L4.085 5.176zm.393 3.848l2.428 2.397 1.405-1.424-2.429-2.396-1.404 1.423zm2.424 2.392a3.053 3.053 0 003.841.386l-1.105-1.667c-.408.27-.965.224-1.322-.133l-1.414 1.414zm2.582.26l2.876 2.876 1.415-1.414-2.877-2.877-1.414 1.415zm3.131 1.277c-.247.126-.635.206-1.137.216a7.09 7.09 0 01-1.432-.133l-.379 1.963a9.089 9.089 0 001.85.17c.642-.013 1.373-.113 2.003-.432l-.905-1.784zm.666-.631l-.289.288 1.414 1.414.289-.288-1.414-1.415zm1.125.288l-2.9-2.9-1.414 1.415 2.9 2.9 1.414-1.415zm-2.9-1.485l.29-.289-1.415-1.414-.289.289 1.415 1.414zm.29-.289a.59.59 0 01-.835 0l1.414-1.414a1.41 1.41 0 00-1.994 0l1.414 1.414zm-.835 0l2.32 2.32 1.414-1.414-2.32-2.32-1.414 1.414zm2.32 2.32a.59.59 0 010-.835l1.414 1.415a1.41 1.41 0 000-1.994l-1.414 1.414z" mask="url(#ea)"/><mask id="eb"><path d="M8.776.989a.41.41 0 000 .82c2.94 0 5.33 2.391 5.33 5.33a.41.41 0 10.82 0c0-3.39-2.759-6.15-6.15-6.15z"/></mask><path d="M8.776.989a.41.41 0 000 .82c2.94 0 5.33 2.391 5.33 5.33a.41.41 0 10.82 0c0-3.39-2.759-6.15-6.15-6.15z"/><path d="M8.776-.011a1.41 1.41 0 00-1.41 1.41h2a.59.59 0 01-.59.59v-2zm-1.41 1.41c0 .779.631 1.41 1.41 1.41v-2a.59.59 0 01.59.59h-2zm1.41 1.41a4.337 4.337 0 014.33 4.33h2c0-3.49-2.839-6.33-6.33-6.33v2zm4.33 4.33c0 .78.632 1.41 1.41 1.41v-2a.59.59 0 01.59.59h-2zm1.41 1.41a1.41 1.41 0 001.41-1.41h-2a.59.59 0 01.59-.59v2zm1.41-1.41a7.158 7.158 0 00-7.15-7.15v2a5.157 5.157 0 015.15 5.15h2z" mask="url(#eb)"/><mask id="ec"><path d="M8.776 2.63a.41.41 0 000 .82 3.695 3.695 0 013.69 3.69.41.41 0 00.82 0 4.516 4.516 0 00-4.51-4.51z"/></mask><path d="M8.776 2.63a.41.41 0 000 .82 3.695 3.695 0 013.69 3.69.41.41 0 00.82 0 4.516 4.516 0 00-4.51-4.51z"/><path d="M8.776 1.63a1.41 1.41 0 00-1.41 1.41h2a.59.59 0 01-.59.59v-2zm-1.41 1.41c0 .778.631 1.41 1.41 1.41v-2a.59.59 0 01.59.59h-2zm1.41 1.41a2.695 2.695 0 012.69 2.69h2a4.695 4.695 0 00-4.69-4.69v2zm2.69 2.69c0 .778.632 1.41 1.41 1.41v-2a.59.59 0 01.59.59h-2zm1.41 1.41a1.41 1.41 0 001.41-1.41h-2a.59.59 0 01.59-.59v2zm1.41-1.41c0-3.04-2.47-5.51-5.51-5.51v2a3.516 3.516 0 013.51 3.51h2z" mask="url(#ec)"/><path d="M11.326 7.14zm-1.64 0z"/></g><defs><clipPath id="eclip0"><path transform="translate(.927 .986)" d="M0 0h14v14H0z"/></clipPath></defs></symbol><symbol viewBox="0 0 16 17" id="place" xmlns="https://www.w3.org/2000/svg"><g clip-path="url(#fclip0)"><path d="M8 .963a6.1 6.1 0 00-6.094 6.094c0 2.169.66 3.039 3.83 7.219.551.726 1.175 1.548 1.889 2.5a.469.469 0 00.75 0c.71-.947 1.33-1.766 1.879-2.49 3.178-4.191 3.84-5.064 3.84-7.23A6.1 6.1 0 008 .964zm1.507 12.758A529.8 529.8 0 008 15.714c-.561-.746-1.064-1.408-1.516-2.005-3.084-4.066-3.64-4.798-3.64-6.652A5.162 5.162 0 018 1.9a5.162 5.162 0 015.156 5.156c0 1.85-.557 2.585-3.65 6.663z"/><path d="M8 3.776a3.285 3.285 0 00-3.281 3.28A3.285 3.285 0 008 10.339a3.285 3.285 0 003.281-3.281A3.285 3.285 0 008 3.776zM8 9.4a2.346 2.346 0 01-2.344-2.344A2.346 2.346 0 018 4.713a2.346 2.346 0 012.344 2.344A2.346 2.346 0 018 9.4z"/></g><defs><clipPath id="fclip0"><path transform="translate(0 .963)" d="M0 0h16v16H0z"/></clipPath></defs></symbol></svg>