<svg xmlns="http://www.w3.org/2000/svg" viewBox="0 0 105 102" width="105" height="102"><style>tspan { white-space:pre }.shp0 { fill: #ffffff } </style><g ><path fill-rule="evenodd" class="shp0" d="M76.7 62.3C76.1 62.4 74.8 60.6 74.6 60.8C74 61.3 73.7 60.8 72.9 60.5C72.2 60.2 71.2 59.7 70.4 59.8C69 60 67.9 62.1 67.2 63.2C63.8 68.1 61.9 73.8 58.7 78.8C56.2 82.8 52.7 85.9 48.1 87C46.9 87.3 45.6 87.5 44.4 87.6C43.3 87.7 39.4 87.5 38.3 87.8C38.2 87.9 38.1 87.9 37.9 88C37.8 88 37.6 88.1 37.4 88.3C37.1 88.5 36.9 88.8 36.8 89.1C35.6 90.7 34.1 93.5 33.8 93.9C32.8 95.1 31.7 96.2 30.6 97.3C29.6 98.2 28.5 99.2 27.2 99.5C25.3 100 25.5 98.8 24.6 97.6C23.6 96.3 22.4 98.1 21.4 99C20.7 99.7 20 100.3 19.1 100.8C18.2 101.3 16.9 101.6 15.9 101.1C14.7 100.6 14.8 98.7 13.8 98.3C12.4 97.8 7.7 101.5 7.6 98C7.6 96.8 8.4 96.6 7.2 96.2C6.7 96 5.7 96.2 5.1 96.1C4.1 95.9 3.2 95.6 2.2 95.3C1.3 95 -0.4 94.6 0.9 93.7C2.2 92.9 5 93 6.5 92.8C9.6 92.3 12.6 91.5 15.5 90.2C20.3 88.1 24.4 84.9 28.2 81.4C30.3 79.5 32.3 77.5 34.1 75.3C35.3 73.9 36.4 72.4 37.4 70.9C38.5 69.2 37.3 69.3 35.7 69.7C29.6 71.1 20.8 70.1 16.3 65.3C15.5 64.5 14.5 63.3 15.1 62.1C15.3 61.6 16.3 61.2 16.3 60.8C16.4 60.2 15.6 60 15.2 59.7C13.5 58.7 10 56.8 10.3 54.3C10.5 52.8 11.9 52.9 11 51.2C10.5 50.3 9.8 49.4 9.3 48.5C7.9 45.8 5.5 40.8 8.9 38.5C10.1 37.7 11.1 38.5 10.7 36.8C10.4 35.4 9.7 34.1 9.2 32.8C8.3 30.3 8 28.3 8 25.5C7.9 25.8 7.7 26 7.6 26.2C7.8 25.6 8.3 24.7 8.8 24.3C9.3 23.9 10.3 24.1 10.7 23.7C11.3 23.1 11 21.4 10.4 20.8C10.5 20.8 10.1 19.3 10 19.1C9.5 17.4 9.1 15.4 9.1 13.7C9.1 11.4 9.8 8.4 12.6 9.6C13.3 9.9 15.1 12 15.8 11.8C16.4 11.6 15.9 7.7 15.9 7C15.9 5.1 16.2 3.4 16.7 1.6C16.8 1.3 16.9 0.2 17.3 0.1C18 -0.2 18.7 1.3 18.9 1.8C20.5 5.2 20.4 9.7 21.1 13.3C21.9 17.1 23 20.7 24.6 24.2C28 31.5 33.3 37.4 38.8 43.1C41.5 45.9 44.5 48.5 46.8 51.7C47.7 53 48.5 54.3 49 55.8C49.6 57.5 49.2 58.8 49.3 60.4C49.4 61.1 49.5 61.5 49.7 61.5C49.9 61.6 50.4 60.6 50.7 60C51.4 58.4 51.1 56.3 50.5 54.7C49.2 51.2 46.5 48.5 43.9 46C38.1 40.4 33.6 34.5 29.2 27.7C29.1 27.6 29.1 27.5 29 27.4C29.1 25.7 29 22.7 29.1 22.4C29.2 21.9 29.4 21.2 30 21C30.7 20.7 31.3 21.6 31.9 21.4C32.5 21.2 32.2 17.8 32.2 17.2C32.3 15.5 32.5 13.3 33.5 11.8C35.4 9 37.3 13.6 38.6 12.5C39.2 12 40 1.9 42.5 4.6C43.5 5.7 43 8.1 42.7 9.4C42.3 11.1 42.3 12.9 42.1 14.6C41.8 17.4 42.2 20.2 42.6 22.8C43.6 28.6 45.9 33.9 48.6 39.2C49.6 41.4 50.5 43.5 51.5 45.7C51.9 46.5 53.7 52.2 54.9 54.3C54.9 54.4 54.9 54.4 54.9 54.4C55.9 56.5 57.4 54.7 58.8 53.7C62.9 50.7 65.7 48.2 71 49.8C73.4 50.5 75.3 52.2 75.8 54.8C76.1 56.4 75.7 57.3 75.6 58.7C75.5 59.9 76.6 61.4 76.7 62.3ZM72.2 53.7C70.6 53.1 69.8 55.6 71.4 56.1C73 56.6 73.8 54.1 72.2 53.7Z" /><g ><path class="shp0" d="M85 59.6C87.5 59.5 89.8 58.9 92.1 58C93.2 57.5 94.2 57 95.2 56.3C95.8 55.9 97.5 54.9 97.3 54C95.5 55.5 93.4 56.8 91.2 57.6C90.2 58 89.1 58.3 88 58.5C87.4 58.6 86.9 58.7 86.3 58.7C85.7 58.8 85.2 58.9 85.4 58.3C85.6 57.8 86.2 57.3 86.4 56.9C86.7 56.4 86.9 55.8 87.1 55.3C87.4 54.2 87.6 53 87.4 51.8C87.3 51.3 86.9 49.6 86.3 49.4C85.6 49.1 84.9 51.5 84.7 52C84.3 53.1 83.8 54.4 83.6 55.6C83.5 56.1 83.6 56.6 83.8 57C83.9 57.4 84.8 58.1 84.7 58.4C84.6 59.3 79.3 59.3 78.4 59.4C76.1 59.8 74.3 60.6 72.3 61.9C71.2 62.6 70.2 63.8 70 65.1C69.9 65.7 70.2 67 71 66.5C71.3 66.2 71.6 65.2 71.8 64.8C72.2 64.2 72.6 63.7 73.1 63.2C74 62.3 75.2 61.6 76.4 61.1C77.8 60.6 79.3 60.3 80.7 60.2C81.5 60.1 82.3 60 83.1 59.9C83.5 59.8 84.6 59.9 85 59.6Z" /><path class="shp0" d="M93.7 64.3C92.3 62.9 91 61.2 89.1 60.4C88.5 60.1 87 59.6 86.4 60.1C85.8 60.6 86.4 61.6 86.7 62.1C87.7 63.8 89.4 64.8 91.2 65.2C91.8 65.4 94.9 65.6 93.7 64.3Z" /><path class="shp0" d="M85.3 63.4C84.9 62.6 84.3 62 83.5 61.5C83.1 61.3 81.7 60.6 81.4 61C81.2 61.3 81.7 62.9 81.8 63.3C82.1 64.1 82.4 64.9 82.9 65.6C83.6 66.7 85.5 68.1 87 67.7C87.9 67.5 87.2 66.7 86.9 66.1C86.3 65.3 85.8 64.3 85.3 63.4Z" /><path class="shp0" d="M78.9 57.7C79.4 59.5 81.1 57.3 81.5 56.5C82.3 55.1 82.6 53.1 82.1 51.6C81.9 50.9 81.7 50.4 81 50.8C80.5 51.1 79.8 52.5 79.6 53C78.9 54.4 78.4 56.2 78.9 57.7Z" /><path class="shp0" d="M79.8 62C78.8 60.4 77.8 63 77.6 63.9C77.2 65.4 77.5 67.5 78.3 68.8C78.7 69.4 79 69.8 79.6 69.3C80 68.9 80.3 67.4 80.4 66.8C80.7 65.3 80.6 63.4 79.8 62Z" /><path class="shp0" d="M89.4 56.8C91.6 55.7 94 51.4 91.7 49.4C91 51 89.7 52.3 89 53.9C88.7 54.3 88 57.5 89.4 56.8Z" /><path class="shp0" d="M94.1 49.9C93.9 51 93.6 53 94.6 53.9C95.7 54.9 97.1 53 97.2 52C97.3 50.5 96.4 48.9 95.7 47.7C95.4 47.2 95.2 46.8 94.8 47.4C94.4 47.9 94.2 49.2 94.1 49.9Z" /><path class="shp0" d="M99.5 58.4C98 58 96.4 57.4 94.8 57.5C94.3 57.5 93.1 57.6 92.8 58.2C92.5 59 93.2 59.2 93.8 59.4C95 59.8 96.8 60.5 98.1 60.4C98.8 60.4 101.3 58.9 99.5 58.4Z" /><path class="shp0" d="M99.1 50.7C99.9 51.9 101 49.6 101.2 49C101.5 48 101.9 45.9 101.4 44.9C100.8 43.6 99.3 46.2 99.1 46.9C98.5 48.2 98.3 49.5 99.1 50.7Z" /><path class="shp0" d="M103.8 52.2C102.3 52.3 100.8 52.5 99.5 53.2C98.3 53.8 96.7 55.1 98.9 55.3C100.3 55.5 101.6 55.4 102.8 54.5C103.2 54.3 105.1 52.1 103.8 52.2Z" /></g></g></svg>