<svg xmlns="http://www.w3.org/2000/svg" viewBox="0 0 269 37" width="269" height="37"><style>tspan { white-space:pre }.shp0 { fill: #ffffff } </style><g ><g ><path fill-rule="evenodd" class="shp0" d="M4.1 26.7L4.1 27.3L1.6 27.3L1.6 28.9C1.8 28.9 2.1 28.9 2.3 28.9C2.9 28.9 3.4 29 3.8 29.3C4.2 29.6 4.5 30 4.5 30.7C4.5 31.2 4.3 31.7 4 32C3.5 32.5 2.7 32.6 1.9 32.6C1.4 32.6 1 32.6 0.7 32.5L0.7 26.7L4.1 26.7ZM2.2 31.9C2.7 31.9 3.1 31.8 3.4 31.5C3.6 31.3 3.7 31 3.7 30.6C3.7 30.2 3.5 29.8 3.2 29.7C2.9 29.5 2.5 29.4 2.1 29.4C1.9 29.4 1.7 29.4 1.5 29.4L1.5 31.9C1.7 31.9 2 31.9 2.2 31.9Z" /><path class="shp0" d="M9.4 26.7L9.4 32.5L8.6 32.5L8.6 27.3L6.7 27.3L6.7 29C6.7 30.3 6.6 31.7 5.8 32.2C5.6 32.3 5.2 32.5 4.9 32.5L4.8 31.9C5 31.9 5.3 31.7 5.4 31.6C5.9 31.1 5.9 30 5.9 29.1L5.9 26.7L9.4 26.7Z" /><path fill-rule="evenodd" class="shp0" d="M11.6 30.6L11 32.4L10.2 32.4L12.2 26.6L13.1 26.6L15.1 32.4L14.3 32.4L13.7 30.6L11.6 30.6ZM13.6 30.1L13 28.4C12.9 28 12.8 27.7 12.7 27.3C12.6 27.6 12.5 28 12.4 28.4L11.8 30.1L13.6 30.1Z" /><path class="shp0" d="M19.1 26.7L19.1 27.3L16.8 27.3L16.8 32.5L16 32.5L16 26.7L19.1 26.7Z" /><path fill-rule="evenodd" class="shp0" d="M24.4 29.5C24.4 31.5 23.2 32.6 21.7 32.6C20.2 32.6 19.1 31.4 19.1 29.7C19.1 27.9 20.2 26.6 21.8 26.6C23.4 26.6 24.4 27.8 24.4 29.5ZM19.9 29.6C19.9 30.8 20.6 32 21.8 32C23 32 23.7 30.9 23.7 29.6C23.7 28.4 23.1 27.2 21.8 27.2C20.5 27.2 19.9 28.3 19.9 29.6Z" /><path class="shp0" d="M26.4 27.3L24.6 27.3L24.6 26.7L28.9 26.7L28.9 27.3L27.1 27.3L27.1 32.5L26.3 32.5L26.3 27.3L26.4 27.3Z" /><path fill-rule="evenodd" class="shp0" d="M29.6 26.7C29.9 26.6 30.4 26.6 31 26.6C31.8 26.6 32.2 26.7 32.6 27C32.9 27.2 33.1 27.6 33.1 28C33.1 28.6 32.7 29.1 32.1 29.3C32.7 29.4 33.3 29.9 33.3 30.8C33.3 31.3 33.1 31.7 32.8 32C32.4 32.4 31.7 32.5 30.8 32.5C30.3 32.5 29.9 32.5 29.6 32.4L29.6 26.7ZM30.3 29.1L31 29.1C31.8 29.1 32.3 28.7 32.3 28.1C32.3 27.4 31.8 27.2 31 27.2C30.7 27.2 30.5 27.2 30.3 27.3L30.3 29.1ZM30.3 31.9C30.4 31.9 30.7 31.9 30.9 31.9C31.7 31.9 32.4 31.6 32.4 30.8C32.4 30 31.7 29.7 30.9 29.7L30.3 29.7L30.3 31.9Z" /><path fill-rule="evenodd" class="shp0" d="M39.2 29.5C39.2 31.5 38 32.6 36.5 32.6C35 32.6 33.9 31.4 33.9 29.7C33.9 27.9 35 26.6 36.6 26.6C38.1 26.6 39.2 27.8 39.2 29.5ZM34.6 29.6C34.6 30.8 35.3 32 36.5 32C37.7 32 38.4 30.9 38.4 29.6C38.4 28.4 37.8 27.2 36.5 27.2C35.3 27.2 34.6 28.3 34.6 29.6Z" /><path fill-rule="evenodd" class="shp0" d="M40.1 26.7C40.5 26.6 40.9 26.6 41.5 26.6C42.2 26.6 42.8 26.8 43.1 27.1C43.4 27.4 43.6 27.8 43.6 28.3C43.6 28.8 43.4 29.2 43.2 29.5C42.8 29.9 42.2 30.1 41.4 30.1C41.2 30.1 41 30.1 40.8 30L40.8 32.3L40 32.3L40 26.7L40.1 26.7ZM40.9 29.5C41.1 29.5 41.3 29.6 41.5 29.6C42.4 29.6 43 29.2 43 28.4C43 27.6 42.5 27.3 41.6 27.3C41.3 27.3 41 27.3 40.9 27.4L40.9 29.5Z" /><path class="shp0" d="M45.4 26.7L45.4 29.1C45.4 30 45.4 30.8 45.3 31.6L45.3 31.6C45.6 31 46 30.4 46.4 29.7L48.3 26.7L49.1 26.7L49.1 32.5L48.4 32.5L48.4 30C48.4 29.1 48.4 28.4 48.5 27.6L48.5 27.6C48.2 28.2 47.8 28.9 47.4 29.6L45.6 32.5L44.8 32.5L44.8 26.7L45.4 26.7Z" /><path class="shp0" d="M51.5 27.3L49.7 27.3L49.7 26.7L54 26.7L54 27.3L52.2 27.3L52.2 32.5L51.4 32.5L51.4 27.3L51.5 27.3Z" /><path class="shp0" d="M57.7 29.7L55.4 29.7L55.4 31.8L57.9 31.8L57.9 32.4L54.6 32.4L54.6 26.6L57.7 26.6L57.7 27.2L55.3 27.2L55.3 29L57.6 29L57.6 29.7L57.7 29.7Z" /><path class="shp0" d="M63 26.7L63 32.5L62.2 32.5L62.2 27.3L60.3 27.3L60.3 29C60.3 30.3 60.2 31.7 59.4 32.2C59.2 32.3 58.8 32.5 58.5 32.5L58.4 31.9C58.6 31.9 58.9 31.7 59 31.6C59.5 31.1 59.5 30 59.5 29.1L59.5 26.7L63 26.7Z" /><path fill-rule="evenodd" class="shp0" d="M65 28.9C65.2 28.9 65.5 28.9 65.7 28.9C66.9 28.9 67.9 29.4 67.9 30.7C67.9 31.2 67.7 31.6 67.5 31.9C67 32.4 66.2 32.6 65.4 32.6C64.9 32.6 64.5 32.6 64.2 32.5L64.2 26.7L65 26.7L65 28.9ZM65 31.9C65.2 31.9 65.4 31.9 65.6 31.9C66.4 31.9 67.2 31.5 67.2 30.6C67.2 29.7 66.5 29.3 65.6 29.3C65.4 29.3 65.2 29.3 65 29.3L65 31.9Z" /><path class="shp0" d="M69.7 26.7L69.7 29.1L72.5 29.1L72.5 26.7L73.3 26.7L73.3 32.5L72.5 32.5L72.5 29.8L69.7 29.8L69.7 32.5L69 32.5L69 26.7L69.7 26.7Z" /><path fill-rule="evenodd" class="shp0" d="M75.3 28.9C75.5 28.9 75.8 28.9 76 28.9C77.2 28.9 78.2 29.4 78.2 30.7C78.2 31.2 78 31.6 77.8 31.9C77.3 32.4 76.5 32.6 75.7 32.6C75.2 32.6 74.8 32.6 74.5 32.5L74.5 26.7L75.3 26.7L75.3 28.9ZM75.9 31.9C76.7 31.9 77.4 31.5 77.4 30.6C77.4 29.7 76.6 29.3 75.8 29.3C75.5 29.3 75.3 29.3 75.2 29.3L75.2 31.9C75.4 31.9 75.6 31.9 75.9 31.9ZM79.7 26.7L79.7 32.5L78.9 32.5L78.9 26.7L79.7 26.7Z" /><path class="shp0" d="M81.7 26.7L81.7 29.1C81.7 30 81.7 30.8 81.6 31.6L81.6 31.6C81.9 31 82.3 30.4 82.7 29.7L84.6 26.7L85.4 26.7L85.4 32.5L84.7 32.5L84.7 30C84.7 29.1 84.7 28.4 84.8 27.6L84.8 27.6C84.5 28.2 84.1 28.9 83.7 29.6L81.9 32.5L81 32.5L81 26.7L81.7 26.7ZM82.7 25.4C82.7 25.7 82.8 25.9 83.2 25.9C83.6 25.9 83.7 25.6 83.7 25.4L84.3 25.4C84.3 26 83.9 26.3 83.2 26.3C82.5 26.3 82.2 25.9 82.1 25.4L82.7 25.4Z" /><path fill-rule="evenodd" class="shp0" d="M92.1 26.9C93.3 27 94.5 27.7 94.5 29.5C94.5 31.3 93.3 32 92 32.1L92 32.6L91.3 32.6L91.3 32.1C90.1 32 88.9 31.4 88.9 29.5C88.9 27.6 90.2 26.9 91.4 26.8L91.4 26.3L92.1 26.3L92.1 26.9ZM91.4 27.5C90.6 27.5 89.7 28.1 89.7 29.6C89.7 31 90.5 31.6 91.4 31.7L91.4 27.5ZM92.1 31.6C92.9 31.5 93.8 31 93.8 29.5C93.8 28 93 27.5 92.1 27.4L92.1 31.6Z" /><path fill-rule="evenodd" class="shp0" d="M100.5 29.5C100.5 31.5 99.3 32.6 97.8 32.6C96.3 32.6 95.2 31.4 95.2 29.7C95.2 27.9 96.3 26.6 97.9 26.6C99.5 26.6 100.5 27.8 100.5 29.5ZM96 29.6C96 30.8 96.7 32 97.9 32C99.1 32 99.8 30.9 99.8 29.6C99.8 28.4 99.2 27.2 97.9 27.2C96.6 27.2 96 28.3 96 29.6Z" /><path class="shp0" d="M102.2 26.7L102.2 29.1L105 29.1L105 26.7L105.8 26.7L105.8 32.5L105 32.5L105 29.8L102.2 29.8L102.2 32.5L101.4 32.5L101.4 26.7L102.2 26.7Z" /><path fill-rule="evenodd" class="shp0" d="M111.1 26.7L111.1 31.9L111.6 31.9L111.5 33.9L111 33.9L110.9 32.5L107.2 32.5L107.1 33.9L106.5 33.9L106.4 31.9L106.8 31.9C107 31.5 107.2 31.1 107.4 30.6C107.6 29.9 107.7 29.2 107.7 28.2L107.7 26.7L111.1 26.7ZM108.2 30.8C108.1 31.2 107.9 31.6 107.7 31.9L110.3 31.9L110.3 27.3L108.5 27.3L108.5 28.4C108.5 29.3 108.4 30.1 108.2 30.8Z" /><path class="shp0" d="M119.2 32.3C118.9 32.4 118.4 32.6 117.7 32.6C116.1 32.6 114.8 31.6 114.8 29.7C114.8 27.9 116 26.6 117.8 26.6C118.5 26.6 119 26.8 119.2 26.9L119 27.5C118.7 27.4 118.3 27.3 117.8 27.3C116.4 27.3 115.5 28.2 115.5 29.7C115.5 31.1 116.3 32 117.7 32C118.2 32 118.6 31.9 118.9 31.8L119.2 32.3Z" /><path fill-rule="evenodd" class="shp0" d="M125 29.5C125 31.5 123.8 32.6 122.3 32.6C120.8 32.6 119.7 31.4 119.7 29.7C119.7 27.9 120.8 26.6 122.4 26.6C123.9 26.6 125 27.8 125 29.5ZM120.4 29.6C120.4 30.8 121.1 32 122.3 32C123.5 32 124.2 30.9 124.2 29.6C124.2 28.4 123.6 27.2 122.3 27.2C121.1 27.2 120.4 28.3 120.4 29.6Z" /><path class="shp0" d="M126.7 26.7L126.7 31.9L129.4 31.9L129.4 26.7L130.2 26.7L130.2 31.9L130.7 31.9L130.6 33.9L130 33.9L129.9 32.5L125.9 32.5L125.9 26.7L126.7 26.7Z" /><path class="shp0" d="M132.3 26.7L132.3 29.1C132.3 30 132.3 30.8 132.2 31.6L132.2 31.6C132.5 31 132.9 30.4 133.3 29.7L135.2 26.7L136 26.7L136 32.5L135.3 32.5L135.3 30C135.3 29.1 135.3 28.4 135.4 27.6L135.4 27.6C135.1 28.2 134.7 28.9 134.3 29.6L132.5 32.5L131.7 32.5L131.7 26.7L132.3 26.7Z" /><path fill-rule="evenodd" class="shp0" d="M138.2 30.6L137.6 32.4L136.8 32.4L138.8 26.6L139.7 26.6L141.7 32.4L140.9 32.4L140.3 30.6L138.2 30.6ZM140.1 30.1L139.5 28.4C139.4 28 139.3 27.7 139.2 27.3C139.1 27.6 139 28 138.9 28.4L138.3 30.1L140.1 30.1Z" /><path class="shp0" d="M146.6 26.7L146.6 32.5L145.8 32.5L145.8 27.3L143.9 27.3L143.9 29C143.9 30.3 143.8 31.7 143 32.2C142.8 32.3 142.4 32.5 142.1 32.5L142 31.9C142.2 31.9 142.5 31.7 142.6 31.6C143.1 31.1 143.1 30 143.1 29.1L143.1 26.7L146.6 26.7Z" /><path fill-rule="evenodd" class="shp0" d="M148.7 28.9C148.9 28.9 149.2 28.9 149.4 28.9C150.6 28.9 151.6 29.4 151.6 30.7C151.6 31.2 151.4 31.6 151.2 31.9C150.7 32.4 149.9 32.6 149.1 32.6C148.6 32.6 148.2 32.6 147.9 32.5L147.9 26.7L148.7 26.7L148.7 28.9ZM148.7 31.9C148.9 31.9 149.1 31.9 149.3 31.9C150.1 31.9 150.9 31.5 150.9 30.6C150.9 29.7 150.2 29.3 149.3 29.3C149.1 29.3 148.9 29.3 148.7 29.3L148.7 31.9Z" /><path class="shp0" d="M153.4 26.7L153.4 29.1L156.2 29.1L156.2 26.7L157 26.7L157 32.5L156.2 32.5L156.2 29.8L153.4 29.8L153.4 32.5L152.6 32.5L152.6 26.7L153.4 26.7Z" /><path fill-rule="evenodd" class="shp0" d="M163.2 29.5C163.2 31.5 162 32.6 160.5 32.6C159 32.6 157.9 31.4 157.9 29.7C157.9 27.9 159 26.6 160.6 26.6C162.2 26.6 163.2 27.8 163.2 29.5ZM158.7 29.6C158.7 30.8 159.4 32 160.6 32C161.8 32 162.5 30.9 162.5 29.6C162.5 28.4 161.9 27.2 160.6 27.2C159.3 27.2 158.7 28.3 158.7 29.6Z" /><path class="shp0" d="M164.9 26.7L164.9 29.1C164.9 30 164.9 30.8 164.8 31.6L164.8 31.6C165.1 31 165.5 30.4 165.9 29.7L167.8 26.7L168.6 26.7L168.6 32.5L167.9 32.5L167.9 30C167.9 29.1 167.9 28.4 168 27.6L168 27.6C167.7 28.2 167.3 28.9 166.9 29.6L165.1 32.5L164.3 32.5L164.3 26.7L164.9 26.7ZM165.8 25.4C165.8 25.7 165.9 25.9 166.3 25.9C166.7 25.9 166.8 25.6 166.8 25.4L167.4 25.4C167.4 26 167 26.3 166.3 26.3C165.6 26.3 165.3 25.9 165.2 25.4L165.8 25.4Z" /><path class="shp0" d="M172.2 27C172.6 26.7 173.1 26.6 173.7 26.6C174.7 26.6 175.4 27.1 175.4 28C175.4 28.7 174.9 29.3 174.2 29.4L174.2 29.4C175 29.5 175.6 30 175.6 30.9C175.6 32.1 174.6 32.6 173.5 32.6C173 32.6 172.4 32.5 172 32.2L172.2 31.6C172.5 31.8 173 32 173.5 32C174.4 32 174.8 31.5 174.8 30.9C174.8 30 174 29.8 173.2 29.8L173 29.8L173 29.2L173.3 29.2C174.1 29.2 174.7 28.7 174.7 28.1C174.7 27.5 174.3 27.2 173.7 27.2C173.3 27.2 172.8 27.4 172.5 27.6L172.2 27Z" /><path fill-rule="evenodd" class="shp0" d="M177.6 30.6L177 32.4L176.2 32.4L178.2 26.6L179.1 26.6L181.1 32.4L180.3 32.4L179.7 30.6L177.6 30.6ZM179.5 30.1L178.9 28.4C178.8 28 178.7 27.7 178.6 27.3C178.5 27.6 178.4 28 178.3 28.4L177.7 30.1L179.5 30.1Z" /><path class="shp0" d="M182.7 26.7L182.7 31.9L184.6 31.9L184.6 26.7L185.3 26.7L185.3 31.9L187.2 31.9L187.2 26.7L188 26.7L188 31.9L188.5 31.9L188.4 33.9L187.8 33.9L187.8 32.5L182 32.5L182 26.7L182.7 26.7Z" /><path class="shp0" d="M190.1 26.7L190.1 29.1C190.1 30 190.1 30.8 190 31.6L190 31.6C190.3 31 190.7 30.4 191.1 29.7L193 26.7L193.8 26.7L193.8 32.5L193.1 32.5L193.1 30C193.1 29.1 193.1 28.4 193.2 27.6L193.2 27.6C192.9 28.2 192.5 28.9 192.1 29.6L190.3 32.5L189.5 32.5L189.5 26.7L190.1 26.7Z" /><path class="shp0" d="M196.2 27.3L194.4 27.3L194.4 26.7L198.7 26.7L198.7 27.3L197 27.3L197 32.5L196.2 32.5L196.2 27.3Z" /><path fill-rule="evenodd" class="shp0" d="M200.1 28.9C200.3 28.9 200.6 28.9 200.8 28.9C202 28.9 203 29.4 203 30.7C203 31.2 202.8 31.6 202.6 31.9C202.1 32.4 201.3 32.6 200.5 32.6C200 32.6 199.6 32.6 199.3 32.5L199.3 26.7L200.1 26.7L200.1 28.9ZM200.7 31.9C201.5 31.9 202.2 31.5 202.2 30.6C202.2 29.7 201.4 29.3 200.6 29.3C200.3 29.3 200.1 29.3 200 29.3L200 31.9C200.2 31.9 200.4 31.9 200.7 31.9ZM204.5 26.7L204.5 32.5L203.7 32.5L203.7 26.7L204.5 26.7Z" /></g><g ><g ><g ><path fill-rule="evenodd" class="shp0" d="M7.8 17.1L7.8 18.7L6.5 18.7L6.5 17.1C3.4 17.1 0.6 15.4 0.6 11.8C0.6 8.4 3.4 6.6 6.5 6.6L6.5 5.1L7.8 5.1L7.8 6.6C10.9 6.6 13.7 8.4 13.7 11.8C13.8 15.4 10.9 17.1 7.8 17.1ZM6.5 7.8C3.8 7.9 1.8 9.1 1.8 11.9C1.8 14.7 3.9 15.9 6.5 16.1L6.5 7.8ZM7.8 7.8L7.8 16C10.4 15.8 12.5 14.6 12.5 11.8C12.5 9 10.5 7.9 7.8 7.8Z" /></g><g ><path fill-rule="evenodd" class="shp0" d="M27.9 12C27.9 16.2 25.3 19.1 21.5 19.1C17.7 19.1 15.1 16.2 15.1 12C15.1 7.8 17.7 4.9 21.5 4.9C25.3 4.9 27.9 7.8 27.9 12ZM16.4 11.9C16.4 15.5 18.4 17.9 21.5 17.9C24.6 17.9 26.6 15.5 26.6 11.9C26.6 8.3 24.5 5.9 21.5 5.9C18.4 6 16.4 8.4 16.4 11.9Z" /></g><g ><path class="shp0" d="M40.7 18.8L39.4 18.8L39.4 12.2L31.3 12.2L31.3 18.8L30 18.8L30 5.2L31.3 5.2L31.3 11.1L39.4 11.1L39.4 5.2L40.7 5.2L40.7 18.8L40.7 18.8Z" /></g><g ><path fill-rule="evenodd" class="shp0" d="M54.1 22.4L54.1 18.7L43.6 18.7L43.6 22.4L42.3 22.4L42.3 17.6L43.5 17.6C45.6 13.6 45.5 9.1 45.5 5.9L45.5 5.1L53.9 5.1L53.9 17.6L55.3 17.6L55.3 22.4L54.1 22.4ZM46.9 6.3L46.9 6.5C46.9 9.5 46.9 13.9 45 17.6L52.8 17.6L52.8 6.3L46.9 6.3Z" /></g></g><g ><g ><path class="shp0" d="M76.6 18.7L72.7 18.7L72.7 16.7C72.7 14.1 72.8 11.6 72.9 9L70.4 18.7L67.3 18.7L64.7 9C64.8 12.2 64.8 13 64.9 16.1L64.9 18.7L61 18.7L61 5.2L67 5.2L67.9 8.7C68.3 10.4 68.7 12.1 68.9 13.8C69.2 12 69.6 10.3 70 8.6L70.8 5.2L76.6 5.2L76.6 18.7Z" /></g><g ><path class="shp0" d="M91.2 18.7L87.2 18.7L87.2 13.6C87.2 12.7 87.2 11.1 87.3 10.3L83.4 18.7L79 18.7L79 5.2L83 5.2L83 10.3C83 11.1 83 12.5 82.9 13.5L86.8 5.1L91.2 5.1L91.2 18.7L91.2 18.7Z" /></g><g ><path class="shp0" d="M105.8 5.2L105.8 18.7L101.7 18.7L101.7 8.7L99.2 8.7L99.2 9.5C99.2 13.3 99.3 19 94.5 19C94 19 93.4 18.9 92.8 18.7L92.8 15.5C93 15.6 93.3 15.7 93.6 15.7C95 15.7 95.1 13.2 95.1 11L95.1 5.2L105.8 5.2Z" /></g><g ><path fill-rule="evenodd" class="shp0" d="M121.7 11.9C121.7 16.1 119 19 114.9 19C110.8 19 108 16.2 108 11.9C108 7.6 110.8 4.8 115 4.8C119 4.8 121.7 7.7 121.7 11.9ZM112.2 11.9C112.2 14.3 113.2 15.7 114.9 15.7C116.6 15.7 117.5 14.3 117.5 11.8C117.5 9.5 116.5 8.2 114.9 8.2C113.2 8.1 112.2 9.5 112.2 11.9Z" /></g><g ><path class="shp0" d="M130.1 19C126 19 123.3 15.9 123.3 11.9C123.3 7.9 126.1 4.8 130.2 4.8C133.5 4.8 136.2 7.1 136.3 10.1L132.3 10.1C132.1 8.9 131.3 8.2 130.1 8.2C128.1 8.2 127.5 10.2 127.5 11.8C127.5 14 128.5 15.4 130.1 15.4C131.3 15.4 132.1 14.6 132.3 13.2L136.4 13.2C136.1 17.1 133.4 19 130.1 19Z" /></g><g ><path class="shp0" d="M149.4 8.5L142.3 8.5L142.3 10.2L148.8 10.2L148.8 13.3L142.3 13.3L142.3 15.3L149.6 15.3L149.6 18.7L138.2 18.7L138.2 5.2L149.4 5.2L149.4 8.5Z" /></g><g ><path fill-rule="evenodd" class="shp0" d="M157.5 5.2C160.5 5.2 163.4 6.1 163.4 10C163.4 13.1 161.2 14.5 158.3 14.5L155.7 14.5L155.7 18.7L151.6 18.7L151.6 5.2L157.5 5.2ZM157.8 11.4C158.8 11.4 159.5 11.1 159.5 10C159.5 9 158.9 8.6 157.7 8.6L155.8 8.6L155.8 11.4L157.8 11.4Z" /></g><g ><path fill-rule="evenodd" class="shp0" d="M176.7 15.3L178.4 15.3L178.4 21.9L174.6 21.9L174.6 18.7L167.1 18.7L167.1 21.9L163.3 21.9L163.3 15.3L164.7 15.3C165.8 13.3 166.3 9.8 166.3 6.4L166.3 5.2L176.7 5.2L176.7 15.3ZM170 8.6L170 9.7C170 11.3 169.3 14.2 168.8 15.2L172.6 15.2L172.6 8.6L170 8.6Z" /></g><g ><path class="shp0" d="M192 18.7L188 18.7L188 13.6C188 12.7 188 11.1 188.1 10.3L184.2 18.7L179.7 18.7L179.7 5.2L183.7 5.2L183.7 10.3C183.7 11.1 183.7 12.5 183.6 13.5L187.5 5.1L191.9 5.1L191.9 18.7L192 18.7Z" /></g><g ><path class="shp0" d="M205.5 8.5L198.4 8.5L198.4 10.2L204.9 10.2L204.9 13.3L198.4 13.3L198.4 15.3L205.7 15.3L205.7 18.7L194.3 18.7L194.3 5.2L205.5 5.2L205.5 8.5Z" /></g></g></g><path class="shp0" d="M211.7 0.4L212.4 0.4L212.4 36.5L211.7 36.5L211.7 0.4Z" /><g ><g ><path fill-rule="evenodd" class="shp0" d="M268.7 18.4C268.7 26.7 258.4 32.4 242.7 32.4C227 32.4 216.7 26.7 216.7 18.4C216.7 10.1 227 4.4 242.7 4.4C258.4 4.4 268.7 10 268.7 18.4ZM267.2 18.4C267.2 10.7 257.5 5.7 242.7 5.7C228 5.7 218.2 10.7 218.2 18.4C218.2 26 228 31.1 242.7 31.1C257.5 31.1 267.2 26 267.2 18.4ZM265.7 18.4C265.7 25.3 256.5 29.9 242.7 29.9C228.9 29.9 219.7 25.3 219.7 18.4C219.7 11.5 228.9 6.9 242.7 6.9C256.5 6.9 265.7 11.5 265.7 18.4ZM265.5 18.4C265.5 11.7 256.4 7.2 242.7 7.2C229 7.2 219.9 11.7 219.9 18.4C219.9 25.1 229 29.6 242.7 29.6C256.3 29.6 265.5 25.1 265.5 18.4ZM224.1 13.8L226.7 13.8L226.7 17L229.5 17L229.5 13.8L232.1 13.8L232.1 22.6L229.5 22.6L229.5 19.1L226.7 19.1L226.7 22.6L224.1 22.6L224.1 13.8ZM241.4 13.8L241.4 22.6L238.9 22.6L238.9 15.9L237.2 15.9L237.2 18.4C237.2 19.5 237.1 20.9 236.4 21.7C235.7 22.6 234.4 22.8 232.9 22.6L232.9 20.4C234.3 20.7 234.6 20.1 234.6 18.4L234.6 13.8L241.4 13.8ZM243.6 13.8L246.2 13.8L247.7 19L249.2 13.8L251.8 13.8L253 22.6L250.6 22.6L250 17.9L248.6 22.6L246.9 22.6L245.5 17.9L244.9 22.6L242.5 22.6L243.6 13.8ZM256.5 13.8L256.5 17.4L259 13.8L261.9 13.8L258.6 18.1L262 22.5L258.9 22.5L256.6 18.9L256.6 22.5L254 22.5L254 13.8L256.5 13.8Z" /></g></g></g></svg>