<svg xmlns="http://www.w3.org/2000/svg" viewBox="0 0 304 42" width="304" height="42"><style>tspan { white-space:pre }.shp0 { fill: #ffffff } </style><g ><g ><path class="shp0" d="M44.3 5.6C44.3 5.6 44.3 6.1 44.3 7C44.3 8.1 43.8 9.4 42.8 11C42.1 11.7 41.7 12.3 41.7 12.8C41.1 13.6 40.2 14.6 39.2 15.8C38.2 17 37.6 17.7 37.4 17.8C36.7 18.4 36 19.1 35.2 19.9C34.5 20.6 34 21.1 33.8 21.4C33.7 21.5 33.6 21.7 33.3 22C33.1 22.3 32.9 22.4 32.7 22.5L32.5 22.9C32.9 24.4 33.2 25.6 33.6 26.6C34 27.6 34.5 28.7 35.2 30C35.6 30.7 36 31.4 36.4 32C36.8 32.6 37.3 33 37.6 33.2C37.7 33.3 37.9 33.3 38.1 33.3C38.4 33.3 38.5 33.2 38.5 33.2C39.2 33 39.7 33.6 39.8 34.9C39.9 35.2 39.7 35.5 39.3 35.7C38.9 36 38.3 36.1 37.7 36.1L37.2 36.1C36.6 36.1 36 35.8 35.4 35.2C34.8 34.7 34.2 33.8 33.5 32.6C32 30.6 30.8 28.3 29.9 25.5C29.3 26.1 28.9 26.5 28.8 26.6C27.9 27.5 26.3 29.3 23.8 32.1C21.3 34.9 20 36.5 19.9 36.8C19.7 37.2 19.4 37.4 19 37.4C18.8 37.4 18.7 37.4 18.6 37.4C18.5 37.5 18.4 37.5 18.3 37.5C18.1 37.5 18 37.5 17.9 37.4C17.9 37.4 17.8 37.3 17.8 37.1C17.8 37 17.7 36.7 17.6 36.4C17.5 36.3 17.4 36.1 17.4 35.8C17.4 35.6 17.4 35.4 17.5 35.1C17.6 34.9 17.7 34.7 17.7 34.6C17.9 34.1 18.1 33.8 18.4 33.5C18.6 33.2 19.2 32.6 20.1 31.8L21.6 30.3L22.9 29.1L23.8 28.1C23.8 28 23.9 27.8 24.2 27.6C24.4 27.4 24.6 27.1 24.8 26.8C25.5 26.3 26.8 24.9 28.9 22.7C29 22 28.8 21.2 28.6 20C28.4 19 28.2 18.1 28 17.3C27.8 16.5 27.7 16.1 27.6 16C27.6 15.9 27.6 15.8 27.6 15.8C27.7 15.7 27.7 15.7 27.7 15.7C27.8 15.6 27.8 15.6 27.8 15.5C27.8 15.4 27.8 15.4 27.7 15.3C27.6 15.2 27.6 15.1 27.6 15C27.5 14.8 27.4 14.4 27.3 13.7C27.2 13 27 12.3 26.9 11.4C26.6 8.8 26.4 7.4 26.3 7C26.2 6.9 26.2 6.9 26.2 6.8C26.2 6.7 26.2 6.6 26.2 6.6C26.3 6.4 26.5 6.1 26.8 5.8C27.1 5.6 27.3 5.5 27.6 5.5C28.1 5.5 28.6 5.8 29 6.4C29.4 7 29.6 7.7 29.7 8.6C29.7 9.4 29.8 9.9 30 10C29.9 10.1 30 10.8 30.1 12C30.2 13.2 30.3 14 30.4 14.3C30.3 14.7 30.3 14.9 30.4 15.1C30.4 15.3 30.5 15.6 30.6 16C30.7 16.4 30.7 16.7 30.7 16.9C30.7 17.1 30.7 17.4 30.9 17.8C31 18.3 31.1 18.6 31.2 18.8L31.6 20.1L32.3 19.3L33.3 18.2C34.7 16.7 35.8 15.5 36.7 14.5C38.3 12.5 39.5 11 40.2 10C41 9 41.5 8.1 41.9 7.3C42 7.1 42.1 6.9 42.2 6.5C42.4 6.1 42.5 5.9 42.6 5.8C42.7 5.7 42.9 5.6 43 5.6C43.8 5.6 44.3 5.6 44.3 5.6Z" /><path fill-rule="evenodd" class="shp0" d="M44.6 33.7C44.4 33.6 44.1 33.4 43.7 33C42.7 32 42.2 31 42.1 30.1C42.1 29.9 42.1 29.7 42.1 29.6C42.2 29.4 42.2 29.2 42.2 29C42.2 28.8 42.2 28.7 42.2 28.6C42.1 28.5 42 28.4 42 28.4C42 28.4 42 28.3 42.1 28.3C42.2 28.3 42.2 28.2 42.2 28.1C42.4 28.1 42.4 27.9 42.4 27.6C42.3 27.4 42.4 26.8 42.7 26C43 25.2 43.3 24.4 43.8 23.7C44.1 23.2 44.6 22.5 45.2 21.6C45.8 20.8 46.4 20.1 46.9 19.7C47.6 19.1 48.2 18.6 48.8 18.3C49.4 18 50 17.7 50.7 17.6C51.3 17.4 51.7 17.4 51.9 17.3C52.1 17.3 52.3 17.3 52.5 17.4C52.7 17.5 52.9 17.7 53.2 17.9C54 18.2 54.6 18.7 54.9 19.2C55.2 19.8 55.4 20.6 55.4 21.8C55.4 23.8 54.7 25.9 53.1 28.2C52.4 29.2 51.8 30 51.2 30.5C50.6 31 49.8 31.6 48.8 32.2C48.2 32.7 47.6 33 47.1 33.2C46.6 33.4 46 33.5 45.3 33.6C45.1 33.9 44.8 33.8 44.6 33.7ZM51.3 26.6C51.7 25.9 52.1 24.9 52.5 23.8C52.6 23.3 52.7 22.7 52.7 21.9C52.7 21 52.5 20.5 52.3 20.4C52 20.3 51.7 20.2 51.4 20.2C50.7 20.2 50.1 20.5 49.3 21.1C48.4 21.9 47.7 22.8 47 23.9C46.3 25 45.7 26.4 45 28C44.7 28.6 44.6 29.3 44.6 29.9C44.6 30.4 44.7 30.7 45 31C45.2 31.3 45.5 31.4 45.9 31.4C46.9 31.4 48.1 30.5 49.6 28.9C50.4 28.2 50.9 27.4 51.3 26.6Z" /><path fill-rule="evenodd" class="shp0" d="M76.8 33C76.6 32.9 76.3 32.7 75.9 32.3C74.9 31.3 74.4 30.3 74.3 29.4C74.3 29.2 74.3 29 74.3 28.9C74.4 28.7 74.4 28.5 74.4 28.3C74.4 28.1 74.4 28 74.4 27.9C74.3 27.8 74.2 27.7 74.2 27.7C74.2 27.7 74.2 27.6 74.3 27.6C74.4 27.6 74.4 27.5 74.4 27.4C74.6 27.4 74.6 27.2 74.6 26.9C74.5 26.7 74.6 26.1 74.9 25.3C75.2 24.5 75.5 23.7 76 23C76.3 22.5 76.8 21.8 77.4 20.9C78 20.1 78.6 19.4 79.1 19C79.8 18.4 80.4 17.9 81 17.6C81.6 17.3 82.2 17 82.9 16.9C83.5 16.7 83.9 16.7 84.1 16.6C84.3 16.6 84.5 16.6 84.7 16.7C84.9 16.8 85.1 17 85.4 17.2C86.2 17.5 86.8 18 87.1 18.5C87.4 19.1 87.6 19.9 87.6 21.1C87.6 23.1 86.9 25.2 85.3 27.5C84.6 28.5 84 29.3 83.4 29.8C82.8 30.3 82 30.9 81 31.5C80.4 32 79.8 32.3 79.3 32.5C78.8 32.7 78.2 32.8 77.5 32.9C77.3 33.2 77 33.1 76.8 33ZM83.6 25.9C84 25.2 84.4 24.2 84.8 23.1C84.9 22.6 85 22 85 21.2C85 20.3 84.8 19.8 84.6 19.7C84.3 19.6 84 19.5 83.7 19.5C83 19.5 82.4 19.8 81.6 20.4C80.7 21.2 80 22.1 79.3 23.2C78.6 24.3 78 25.7 77.3 27.3C77 27.9 76.9 28.6 76.9 29.2C76.9 29.7 77 30 77.3 30.3C77.6 30.6 77.8 30.7 78.2 30.7C79.2 30.7 80.4 29.8 81.9 28.2C82.6 27.4 83.2 26.7 83.6 25.9Z" /><path fill-rule="evenodd" class="shp0" d="M181.6 30.7C181.4 30.6 181.1 30.4 180.7 30C179.7 29 179.2 28 179.1 27.1C179.1 26.9 179.1 26.7 179.1 26.6C179.2 26.4 179.2 26.2 179.2 26C179.2 25.8 179.2 25.7 179.2 25.6C179.1 25.5 179 25.4 179 25.4C179 25.4 179 25.3 179.1 25.3C179.2 25.3 179.2 25.2 179.2 25.1C179.4 25.1 179.4 24.9 179.4 24.6C179.3 24.4 179.4 23.8 179.7 23C180 22.2 180.3 21.4 180.8 20.7C181.1 20.2 181.6 19.5 182.2 18.6C182.8 17.8 183.4 17.1 183.9 16.7C184.6 16.1 185.2 15.6 185.8 15.3C186.4 15 187 14.7 187.7 14.6C188.3 14.4 188.7 14.4 188.9 14.3C189.1 14.3 189.3 14.3 189.5 14.4C189.7 14.5 189.9 14.7 190.2 14.9C191 15.2 191.6 15.7 191.9 16.2C192.2 16.8 192.4 17.6 192.4 18.8C192.4 20.8 191.7 22.9 190.1 25.2C189.4 26.2 188.8 27 188.2 27.5C187.6 28 186.8 28.6 185.8 29.2C185.2 29.7 184.6 30 184.1 30.2C183.6 30.4 183 30.5 182.3 30.6C182.1 30.9 181.8 30.8 181.6 30.7ZM188.4 23.6C188.8 22.9 189.2 21.9 189.6 20.8C189.7 20.3 189.8 19.7 189.8 18.9C189.8 18 189.6 17.5 189.4 17.4C189.1 17.3 188.8 17.2 188.5 17.2C187.8 17.2 187.2 17.5 186.4 18.1C185.5 18.9 184.8 19.8 184.1 20.9C183.4 22 182.8 23.4 182.1 25C181.8 25.6 181.7 26.3 181.7 26.9C181.7 27.4 181.8 27.7 182.1 28C182.3 28.3 182.6 28.4 183 28.4C184 28.4 185.2 27.5 186.7 25.9C187.4 25.2 188 24.4 188.4 23.6Z" /><path fill-rule="evenodd" class="shp0" d="M56.6 41C56.4 41 56.2 40.9 56 40.6C55.8 40.4 55.8 40.1 55.8 39.8C55.8 39.6 55.9 39.1 56 38.3C56.3 37 57.1 33.1 57.1 32.9C57.2 32.1 57.8 30.1 58.7 27.1C59.7 24 60.5 21.6 61.2 19.7C61.5 18.9 62.8 14.7 63 14.1C63.1 13.5 63.2 13 63.2 12.6C63.2 12.5 63.2 12.4 63.3 12.3C63.4 12.2 63.5 12 63.7 11.9C63.9 11.7 64.1 11.6 64.3 11.6C64.4 11.6 64.6 11.7 64.8 11.8C65 11.9 65.2 12 65.3 12.2C65.5 12.5 65.6 12.7 65.7 13C65.8 13.2 65.9 13.5 65.9 13.8C65.9 13.9 65.9 14.2 65.8 14.7C65.8 15.3 64.6 19.4 64.3 19.8C64 20.2 63.9 20.4 64 20.4C65.3 19.7 66.5 19.4 67.6 19.4C68.9 19.4 69.9 19.8 70.6 20.6C71.3 21.4 71.7 22.4 71.7 23.7C71.7 24.2 71.6 24.9 71.3 25.7C71 26.5 70.7 27 70.4 27.3C70.2 27.3 70 27.6 69.7 28.3C69.3 28.8 68.7 29.3 67.8 29.9C66.9 30.4 66.3 30.7 65.9 30.6L65.8 30.6C65.7 30.6 65.7 30.7 65.7 30.8C65.7 30.9 65.2 31.2 64.2 31.5C63.2 31.9 62.3 32 61.7 32.1C61.3 32.1 61.1 32.1 60.9 32.1C60.7 32.1 60.5 32 60.4 31.8C60.2 32 60.1 32.2 60.1 32.4C60.1 32.7 60 33.3 59.7 34.2C59.4 35.1 58.4 38.2 58.4 39C58.4 39.8 58.2 40.3 58 40.8C57.7 41.2 57.4 41.4 57.1 41.5L56.6 41ZM64.1 28.5C65.5 28 66.4 27.5 66.9 27.1C67.5 26.5 68 26 68.4 25.3C68.8 24.7 69 24 68.9 23.4C68.9 22.9 68.7 22.5 68.5 22.1C68.3 21.8 67.9 21.6 67.4 21.6C66.8 21.6 66.1 21.8 65.3 22.3C64.5 22.7 63.7 23.3 63.1 24C62.6 24.6 62.1 25.3 61.7 26.4C61.3 27.4 61.1 28.2 61.1 28.8C61.1 29.1 61.2 29.3 61.4 29.3C61.8 29.2 62.8 29 64.1 28.5Z" /><path class="shp0" d="M91.2 31.4C90.8 31 90.5 30.6 90.4 30.1C90.4 30 90.3 29.8 90.2 29.5C90.1 29.2 90.1 29.1 90.1 28.9C90.5 27.4 90.8 26.2 91.2 25.1C91.6 24 92 22.9 92.5 21.9L92.7 21.4C93 20.4 93.4 19.3 93.9 18.3C94 18.1 94.1 17.8 94.3 17.3C94.4 17.2 94.4 17 94.5 16.7C94.6 16.4 94.7 16.3 94.7 16.2C94.9 16 95.1 15.8 95.3 15.8C95.7 15.8 96.1 16.1 96.5 16.7C96.9 17.3 97.1 17.8 97.3 18.3C96.5 19.5 95.6 21.2 94.7 23.5C93.8 25.8 93.1 27.7 92.8 29.3C93 29.5 93.4 29.6 93.9 29.6C94.4 29.6 94.8 29.5 95.1 29.4C95.4 29.4 95.9 29.3 96.5 29.2C97.4 29 98.1 29 98.6 29C98.7 28.9 98.7 28.7 98.7 28.5L98.7 28.2C98.7 27.9 98.7 27.7 98.8 27.6C99.2 27 99.5 26.1 99.8 25C100 24.2 100.4 23 100.8 21.4C101.2 19.9 101.5 19 101.7 18.8C101.8 18.7 102.1 18.6 102.5 18.4C102.8 18.5 103.1 18.7 103.2 18.7C103.3 18.7 103.4 18.9 103.5 19.1C103.6 19.3 103.7 19.5 103.9 19.7L104 20.6C104 20.8 104 21 104 21.1C103.9 21.2 103.6 21.8 103.3 23C102.9 24.2 102.7 24.9 102.7 25.2C102.5 25.6 102.3 26 102.1 26.6C101.9 27.3 101.7 27.8 101.5 28.1L101.4 28.5L102.6 28.3C103.5 28.1 104.2 28 104.8 28C105.5 27.5 105.8 26.9 105.8 26.3C105.9 26.1 106.3 25.2 106.8 23.6C107.4 22 107.6 21.1 107.6 21C107.9 20.6 108.1 20.1 108.2 19.6C108.3 19 108.4 18.7 108.4 18.5C108.9 18.3 109.2 18.1 109.3 18C110 18.3 110.6 18.8 111 19.4L111.1 20.5C110.6 21.4 110.3 22.3 110 23.2C109.7 24.1 109.4 25.3 108.9 26.6C108.4 27.9 108 29 107.6 29.9C107.6 30 107.5 30 107.5 30.1C107.5 30.2 107.4 30.3 107.3 30.4C107.1 30.7 106.9 30.9 106.7 30.9C106.5 31 106.2 30.9 106 30.8C105.8 30.7 105.6 30.6 105.4 30.5C105.2 30.4 105.1 30.3 105.1 30.3L105.1 30.3C104.9 30.3 104.6 30.4 104.2 30.7C104 30.7 103.9 30.7 103.7 30.7C103.5 30.7 103.3 30.7 103.1 30.8C102.9 30.8 102.7 30.9 102.5 30.9C101.9 30.9 100.5 31.1 98.4 31.4C98.1 31.4 97.4 31.5 96.4 31.7C95.3 31.9 94.5 32 93.8 32C93.3 32 92.9 32 92.6 31.9C92.2 32 91.7 31.8 91.2 31.4Z" /><path class="shp0" d="M124.2 32.7C123.8 32.4 123.5 32.1 123.3 31.8C123.1 31.5 122.9 31 122.7 30.4C122.6 29.8 122.5 29.2 122.5 28.7C122.5 28.2 122.5 27.8 122.4 27.6C122.4 27.4 122.3 27.3 122.2 27.3C122 27.3 121.7 27.6 121.3 28.1L120.6 28.9C120.2 29.4 119.5 29.9 118.6 30.5C117.7 31.1 117 31.4 116.4 31.4C116 31.4 115.6 31.2 115.2 30.6C114.8 30.1 114.5 29.6 114.4 29.2C114.3 29.1 114.3 28.8 114.3 28.3C114.3 27.1 114.5 25.5 115 23.5C115.5 21.4 116.1 19.6 116.8 18C117.5 16.4 118.2 15.6 118.9 15.6C119.2 15.6 119.4 15.7 119.6 16C119.8 16.3 120 16.6 120.2 17.1C120.3 17.3 120.3 17.5 120.3 17.6C120.3 17.7 120.3 17.8 120.2 17.9C120.1 18 120.1 18.1 119.9 18.2C119.5 18.8 118.9 19.9 118.2 21.8C117.5 23.6 117 25.1 116.7 26.2C116.5 27.2 116.3 27.9 116.4 28.2L116.4 28.2C116.4 28.4 116.5 28.5 116.8 28.5C117.9 28.5 119 27.7 120.2 26.2C121.3 24.7 122.6 22.7 124 20.1C124.7 18.8 125.3 17.9 125.7 17.3C126.1 16.7 126.4 16.4 126.6 16.4C127 16.3 127.4 16.4 127.8 16.6C128.2 16.8 128.4 17.1 128.4 17.4C128.1 18.2 127.7 19.4 127 21.1C126.5 22.5 126 23.6 125.7 24.6C125.4 25.6 125.1 26.6 125 27.6C125 27.8 125 28 125 28.3C125 29.5 125.5 30.6 126.4 31.5C126.5 31.6 126.6 31.7 126.6 31.9C126.6 32.1 126.5 32.4 126.2 32.5C125.9 32.6 125.7 32.8 125.4 32.8C124.9 33 124.6 32.9 124.2 32.7Z" /><path fill-rule="evenodd" class="shp0" d="M134.5 32C133.7 32 133 31.9 132.3 31.5C131.6 31.2 131 30.7 130.6 30C130.2 29.5 129.9 29 129.7 28.4C129.5 27.8 129.4 27.1 129.4 26.2C129.4 25.9 129.4 25.3 129.5 24.4C129.6 23.3 129.9 22.1 130.5 20.9C131.1 19.7 131.9 18.6 132.8 17.6C133.7 16.6 134.7 16 135.6 15.6C136.1 15.3 136.5 15.1 136.9 15.1C137.1 15.1 137.3 15.1 137.5 15.1C137.7 15.1 137.9 15.2 138.2 15.2C138.9 15.3 139.4 15.4 139.7 15.6C140 15.8 140.3 16 140.6 16.3C141.4 17 141.8 17.9 141.8 18.9C141.7 19.6 141.2 20.5 140.5 21.4C139.7 22.4 138.7 23.1 137.6 23.7C137.1 23.9 136.4 24 135.8 24C134.9 24 134.1 23.8 133.5 23.5C133.2 23.4 133 23.4 132.9 23.4C132.6 23.4 132.4 23.6 132.3 24C132.2 24.4 132.1 25 132 26C132 26.2 132 26.5 132 26.9C132 28.4 132.6 29.3 133.6 29.4C134.3 29.5 134.8 29.6 135.1 29.6C135.5 29.6 135.9 29.5 136.3 29.2L137.1 28.7C137.3 28.6 137.4 28.5 137.6 28.3C137.7 28.1 137.9 28 138 27.9C138.1 27.8 138.1 27.7 138.3 27.6C138.4 27.5 138.5 27.4 138.6 27.3C138.7 27.3 138.8 27.2 138.9 27.2C139 27.2 139.2 27.3 139.3 27.4C139.5 27.5 139.6 27.6 139.7 27.7C140 27.7 140 27.9 139.9 28.3C139.8 28.7 139.4 29.1 139 29.6C138.5 30.1 138 30.6 137.3 31C136.4 31.6 135.5 32 134.5 32ZM138.4 20.2C138.9 19.6 139.2 19.2 139.2 18.8C139.2 18.4 139.1 18.1 138.8 17.9C138.5 17.7 138.1 17.6 137.7 17.6C137.3 17.6 137.1 17.6 136.9 17.7C136.5 17.8 136 18.2 135.4 18.7C134.8 19.2 134.4 19.8 133.9 20.3C133.5 20.9 133.3 21.2 133.4 21.3C133.6 21.6 134.1 21.7 135.2 21.7C135.9 21.7 136.5 21.6 136.9 21.4C137.4 21.2 137.9 20.8 138.4 20.2Z" /><path class="shp0" d="M155 35.8C154.8 35.7 154.6 35.7 154.4 35.7C154 35.6 153.7 35.4 153.5 35.1C153.3 34.8 153.1 34.5 153.1 34.1C153.1 33.9 153.1 33.7 153.1 33.6C153.2 33.5 153.3 33.3 153.3 32.9C153.4 32.5 153.4 32.2 153.4 31.9C153.5 31.7 153.6 31.5 153.6 31.3C153.7 31.1 153.7 30.8 153.8 30.5C154 29.2 154.5 26.9 155.3 23.8C156.1 20.7 156.6 19 156.8 18.8L156.8 18.3C156.8 18.2 156.8 18 156.9 17.8C157 17.5 157.1 17.2 157.3 16.9C157.4 16.5 157.5 16.2 157.6 15.8C157.7 15.5 157.7 15.2 157.7 15C157.8 14.8 158 14.4 158.3 13.6C158.6 12.8 158.7 12.3 158.8 12.1C159 11.5 159.2 10.8 159.5 10.1C159.8 9.3 160 8.8 160.1 8.6L160.1 8.4C160.2 8.3 160.3 8 160.6 7.5C160.8 6.9 161.1 6.5 161.2 6.1C161.4 5.6 161.9 4.4 162.8 2.3C162.9 2.1 163 1.8 163.2 1.5C163.4 1.2 163.5 1 163.5 0.8C163.6 0.6 163.8 0.5 164.1 0.5C164.4 0.5 164.7 0.6 164.9 0.8C165.2 1 165.4 1.2 165.6 1.5L166.1 2.2L164.5 5.5C164.1 6.3 163.7 7.1 163.4 7.8C163.1 8.5 162.9 9 162.9 9.1C162.8 9.4 162.6 10 162.2 11C161.9 11.9 161.6 12.7 161.4 13.4C161.3 13.9 161.1 14.3 160.9 14.8C160.7 15.3 160.6 15.7 160.5 15.9C160.3 16.4 160.2 16.8 160.2 16.8C160.2 16.7 162 16.6 165.6 16.5C166.2 16.5 167.2 16.5 168.6 16.4C170.1 16.3 171 16.3 171.3 16.2L173.6 15.9L175 11.2C175.3 10.1 175.9 8.1 176.9 5C177.3 3.7 177.7 2.9 177.9 2.5C178.2 2.1 178.5 1.9 178.9 1.9C179 1.9 179.3 2 179.6 2.1C179.9 2.2 180.1 2.4 180.2 2.6C180.5 2.9 180.7 3.3 180.7 3.6C180.7 4 180.5 4.6 180 5.4C179.7 6 179.2 7.2 178.5 9C178.2 9.8 178.1 10.3 178 10.4C178 11 177.9 11.5 177.6 11.8C177.5 11.9 177.3 12.4 177 13.1C176.7 13.8 176.6 14.3 176.6 14.4C176.6 14.6 176.6 14.9 176.5 15.2C176.4 15.5 176.3 15.7 176.2 15.8L175.9 16.9C174.9 20.7 174.2 23.4 173.6 24.9C173.6 25.1 173.5 25.3 173.4 25.7C173.3 26.1 173.2 26.4 173.2 26.5C173.1 26.7 173 27.1 172.8 27.8C172.6 28.4 172.5 28.8 172.5 28.9C172.4 29.2 172.3 29.8 172.2 30.5C171.8 32.6 171.6 33.7 171.6 33.9C171.5 34 171.5 34 171.3 34C171.2 34 171 34 170.7 33.9C170.4 33.8 170.3 33.7 170.1 33.7C169.4 33.3 169 32.9 169 32.4C169 32.1 169.1 31.6 169.4 31.1C169.5 30.9 169.8 30 170.2 28.1L170.6 26.4C170.8 25.9 171.1 24.5 171.7 22.1C172.2 20.3 172.4 19.3 172.5 19.2L172.5 18.7C172.4 18.6 171.3 18.5 169.2 18.5C166.8 18.6 164.6 18.7 162.7 19L160.6 19L159.4 19C159.3 19.3 158.8 20.7 158.1 23.2C157.4 25.7 157 27.2 156.9 27.9C156.7 28.9 156.4 30.3 156 32.1C155.6 33.9 155.3 35.2 155 36C155.3 35.8 155.2 35.8 155 35.8Z" /><path fill-rule="evenodd" class="shp0" d="M200.7 18.8C200.9 18.8 201 18.8 201.3 18.7C201.6 18.7 201.9 18.8 202.3 18.9C202.7 19 202.9 19 203.1 19.1C203.2 19.3 203.4 19.6 203.7 19.9C203.9 20.3 204.1 20.6 204.2 20.9L204.5 22.2C204.5 22.3 204.5 22.4 204.5 22.7L204.5 23.4C204.5 23.9 204.5 24.3 204.4 24.5L204.1 25.5C203.8 26.7 203.5 27.5 203.2 28C202.4 29.3 201.7 30.1 201.1 30.5C201 30.6 200.7 30.7 200.4 30.8C200.1 30.9 199.9 31 199.7 31C199.6 31.1 199.5 31.1 199.3 31.1C199 31.1 198.6 31 198.2 30.8C197.8 30.6 197.5 30.5 197.3 30.5C197 30.5 196.7 30.3 196.4 29.9C196 29.5 195.7 29 195.5 28.5C195.3 27.9 195.2 27.5 195.2 27.1C195.2 27 195.2 26.8 195.1 26.7C195 26.5 195 26.4 195 26.3C194.9 25.2 195 24 195.1 22.8C195.2 21.5 195.4 20.5 195.7 19.8C195.4 19.6 195.2 19.4 195 19.1C194.8 18.8 194.7 18.6 194.7 18.5C194.8 18.4 194.9 18.1 195 17.6C195.5 17.5 195.9 17.4 196.2 17.3C197 14.6 198.1 12 199.4 9.7C200.7 7.4 202.4 5.5 204.3 4.3C204.9 3.9 205.4 3.6 205.9 3.4C206.3 3.2 206.7 3.1 207.1 3.2C207.2 3.2 207.3 3.2 207.4 3.2C207.5 3.2 207.6 3.2 207.6 3.1L208 3.3C208.1 3.4 208.5 3.7 209.1 4.2C209.7 4.7 210.2 5.1 210.6 5.7C210.7 5.9 210.8 6.2 210.8 6.5C210.8 6.9 210.7 7.4 210.5 8C210.3 8.6 210.1 9 210 9.2C209.9 9.5 209.7 9.9 209.3 10.5C209.1 10.9 208.9 11.2 208.7 11.6C208.7 11.7 208.6 11.9 208.4 12C208.2 12.2 208.1 12.3 208.1 12.5C207.9 12.6 207.7 12.8 207.5 13.1C207.3 13.4 207.2 13.6 207.1 13.7C206.6 14.2 206.2 14.5 206 14.8C205.7 15.2 205.4 15.5 204.9 15.8C204.4 16.1 204.1 16.4 203.8 16.7C203.7 16.7 203.4 17 202.6 17.5C201.9 18 201.4 18.4 200.9 18.5C200.5 18.7 199.8 18.9 199 19.3C198.7 19.4 198.4 19.9 198.2 20.8C198 21.6 197.8 22.6 197.8 23.5C197.7 24.5 197.7 25 197.7 25.2C197.6 25.6 197.7 26.1 197.8 26.8C197.9 27.5 198.1 28.1 198.2 28.4C198.3 28.5 198.4 28.6 198.5 28.7C198.6 28.8 198.8 28.8 198.9 28.8C199 28.8 199.1 28.8 199.1 28.7C199.2 28.6 199.5 28.3 199.9 27.7C200.3 27.2 200.5 26.8 200.6 26.6C201 25.7 201.3 24.9 201.5 24.1C201.6 23.7 201.7 23.3 201.7 22.9C201.7 22.5 201.6 22.1 201.5 21.8C201.4 21.5 201.2 21.1 201 20.6C200.8 20.3 200.7 20.1 200.6 19.8C200.7 19.3 200.7 19 200.7 18.8ZM199.5 16C200.2 15.8 201 15.2 202.1 14.3C203.2 13.4 204.1 12.6 204.6 11.9L205.4 10.8L206.2 9.7C206.7 9.1 207.1 8.4 207.5 7.6C207.9 6.8 208.1 6 208.1 5.4C208.1 5.2 208 5.1 207.9 5C207.8 4.9 207.7 4.8 207.5 4.8L207.3 4.8C206.7 5 206.3 5.3 206 5.6C206 5.6 205.7 5.9 205 6.5C204.2 7.2 203.7 7.7 203.5 8L203.4 8.3C203.2 8.6 202.8 9.3 202.1 10.5L201.6 11.3C201.4 11.7 201 12.5 200.5 13.7C200 14.9 199.7 15.7 199.5 16Z" /><path fill-rule="evenodd" class="shp0" d="M211.4 30.6C211.2 30.5 210.8 30.4 210.4 30.1C209.1 29.1 208.4 28.1 208.4 27C208.4 26.9 208.4 26.8 208.4 26.6C208.4 26.4 208.4 26.3 208.3 26.2C208.3 26.1 208.3 26 208.3 26C208.2 25.9 208.1 25.8 208.1 25.8C208.1 25.8 208.1 25.7 208.1 25.6C208.1 25.5 208.2 25.5 208.2 25.4C208.3 25.4 208.4 25.3 208.4 25.2C208.4 25.1 208.4 25 208.3 24.9C208.2 24.7 208.2 24.1 208.4 23.2C208.6 22.3 208.8 21.5 209.1 20.8C209.3 20.2 209.7 19.5 210.2 18.6C210.7 17.7 211.2 17 211.6 16.5C212.2 15.8 212.8 15.2 213.3 14.8C213.8 14.4 214.4 14.1 215.1 13.8C215.7 13.5 216.2 13.4 216.4 13.4C216.7 13.4 217.1 13.6 217.5 13.9C218.2 14.1 218.8 14.4 219.2 14.7C219.6 15.1 219.9 15.6 220.1 16.4C220.3 17 220.4 17.7 220.4 18.5C220.4 20.2 220 22 218.9 24.1C218.4 25.2 217.9 26 217.4 26.6C216.9 27.2 216.2 27.9 215.3 28.7C214.7 29.2 214.1 29.6 213.7 29.9C213.2 30.2 212.7 30.4 212 30.5C211.9 30.7 211.6 30.6 211.4 30.6ZM217.2 22.6C217.5 21.8 217.8 20.9 217.9 19.7C217.9 19.6 217.9 19.3 217.9 19C217.9 18.4 217.8 17.8 217.7 17.3C217.6 16.8 217.4 16.5 217.2 16.5C217 16.4 216.7 16.4 216.5 16.4C215.8 16.4 215.1 16.8 214.3 17.7C213.6 18.6 213 19.6 212.5 20.8C212 22 211.5 23.5 211 25.2C210.9 25.8 210.8 26.3 210.8 26.6C210.8 27.1 210.9 27.6 211.1 27.9C211.3 28.2 211.6 28.4 212 28.4C212.5 28.4 213 28.1 213.7 27.6C214.3 27.1 215 26.3 215.6 25.3C216.4 24.2 216.8 23.4 217.2 22.6Z" /><path class="shp0" d="M227.2 30.2C226.1 30.2 225.2 29.9 224.4 29.2C223.7 28.5 223.3 27.6 223.3 26.3C223.2 25 223.4 23.3 224.1 21.4C224.8 19.4 225.6 17.8 226.7 16.4C227.4 15.5 228.1 14.8 228.6 14.2C229.1 13.6 229.6 13.3 230.1 13.1C230.7 12.8 231.4 12.7 232.2 12.6C232.7 12.7 233.3 12.9 233.8 13.2C234.3 13.5 234.6 13.8 234.6 14.2L234.8 14.4C235 14.4 235.2 14.6 235.3 15C235.5 15.4 235.5 15.9 235.6 16.4C235.6 16.8 235.5 17.2 235.4 17.5C235.3 18.1 235.1 18.6 234.8 19C234.5 19.4 234.2 19.6 234 19.7C233.7 19.7 233.5 19.8 233.5 20C233.5 20.1 233.4 20.2 233.3 20.2C233.1 20.2 233 20.1 232.8 19.9C232.6 19.7 232.4 19.5 232.3 19.3C232.3 19.2 232.4 19 232.5 18.5C232.6 18.1 232.7 17.6 232.8 17.1C232.9 16.7 232.9 16.4 232.9 16.1C232.9 15.5 232.7 15.2 232.2 15.2C232 15.2 231.7 15.3 231.5 15.4C230.3 16.1 229.3 17.2 228.4 18.6C227.5 20.1 226.8 22.1 226.2 24.6C226.1 25.3 226 25.8 226 26.2C226 26.5 226 26.7 226.1 26.9C226.1 27.1 226.2 27.2 226.3 27.2C226.5 27.3 226.8 27.3 227.2 27.3C228.3 27.3 229.1 27.1 229.5 26.8C230.5 26.3 231.5 25.6 232.7 24.7C232.8 24.6 233 24.4 233.2 24.2C233.4 24 233.7 23.8 233.9 23.7C234.1 23.4 234.3 23.2 234.5 23.1C234.7 23 235 23 235.4 23C235.8 23.1 236.1 23.3 236.4 23.5C236.6 23.7 236.6 23.8 236.4 24C236.3 24 236.2 24 236.2 24.1C236.2 24.2 236.2 24.2 236.2 24.2C236.3 24.3 236 24.7 235.5 25.3C235 25.9 234.4 26.5 233.7 27C233 27.5 232.6 27.8 232.4 27.8C232.3 27.8 232.2 27.8 232.1 27.9C232 27.9 232 28 232 28.1C232 28.2 231.5 28.5 230.6 29C229.7 29.5 229 29.8 228.4 29.9C227.7 30.1 227.4 30.1 227.2 30.2Z" /><path class="shp0" d="M239.6 27.7C239.6 27.5 239.5 27.3 239.4 27.3C239.2 27.1 239.5 26.1 240.4 24.2C241.2 22.3 242 20.8 242.6 19.8C242.7 19.7 242.8 19.6 242.9 19.4C243 19.2 243 19.2 242.9 19.2C243 19.1 243 19 243.2 18.7C243.3 18.5 243.4 18.3 243.5 18.2C244 17.2 244.2 16.4 244.1 15.8C244 15.7 243.8 15.6 243.7 15.7C243.6 15.7 243.5 15.8 243.5 15.8C243.4 15.8 243.3 15.9 243 16C242.7 16.1 242.5 16.2 242.4 16.3C241.7 16.8 241.3 17 241.1 17C240.9 17 240.8 16.9 240.6 16.7C240.5 16.5 240.3 16.2 240.2 15.8C240.1 15.5 240.1 15.3 240.1 15.2C240.1 15 240.2 14.8 240.4 14.6C240.6 14.4 240.8 14.3 241 14.2C241.3 14.1 241.4 14 241.5 13.9C242.1 13.5 242.6 13.3 242.8 13.2C243.3 13 243.8 13 244.1 12.9C245 12.9 245.6 13.3 246 14.1C246.4 14.6 246.7 15.2 246.7 15.8C246.7 16.4 246.5 17.1 246.1 18L245.7 18.7C245.6 18.9 245.6 19 245.6 19.1C245.6 19.2 245.6 19.2 245.6 19.2C245.7 19.2 245.9 19.1 246 18.9C246.1 18.7 246.3 18.6 246.6 18.3C246.8 18.1 247 18 247.1 18C247.1 18 247.2 18 247.2 17.9C247.3 17.9 247.3 17.7 247.3 17.6L247.7 17.2C247.8 17.2 248.2 16.9 248.8 16.4L249.6 15.7C249.9 15.5 250.2 15.3 250.5 15.3C250.6 15.3 250.7 15.2 250.9 15.2C251.5 15.2 251.9 15.5 252.3 16.1C252.7 16.7 252.9 17.5 252.9 18.5L252 21L253.6 19C253.9 18.7 254.2 18.3 254.7 17.9C254.8 17.7 254.8 17.6 254.9 17.6C255 17.6 255.1 17.5 255.1 17.5L255.2 17.5L255.3 17.4C255.4 17.3 255.6 17.2 255.8 17.1C256 17 256.1 16.8 256.2 16.8C256.5 16.7 256.8 16.6 257.1 16.6C257.7 16.6 258.3 17 258.7 17.8C258.9 18.1 259 18.4 259.1 18.7C259.2 19 259.2 19.4 259.2 20C259.1 20.7 259 21.4 258.9 22.1C258.9 22.2 258.9 22.5 258.8 23C258.7 23.3 258.6 23.8 258.6 24.5C258.6 24.9 258.6 25.2 258.7 25.3C258.7 25.4 258.9 25.5 259 25.5C259.4 25.4 260 25.2 260.8 24.8C261.5 24.4 262.1 24.1 262.4 23.7C262.8 23.2 263.2 23 263.6 23C263.9 23 264.1 23.2 264.2 23.5C264.3 23.7 264.1 24.2 263.5 25C263 25.8 262.6 26.2 262.4 26.2C262.3 26.2 262.2 26.3 262.1 26.5C261.9 26.7 261.8 26.8 261.7 26.9C261.2 27.5 260.8 27.8 260.5 27.8C260.4 27.8 260.2 27.8 260 27.9C259.8 28 259.6 28 259.5 28C259.4 28 259.3 28 259 28.1C258.5 28.1 258.1 28 257.7 27.8C257.3 27.6 257 27.2 256.9 26.7C256.6 26.1 256.5 25.3 256.5 24.2C256.5 23.9 256.5 23.5 256.6 22.9L256.8 21.5C256.8 20.9 256.9 20.6 257 20.5L257 20.1C257 19.6 256.9 19.3 256.8 19.3C256.6 19.3 255.8 20.1 254.5 21.7C253.2 23.3 252.2 24.6 251.5 25.8C251.3 26.1 251.1 26.5 250.8 27C250.6 27.5 250.4 27.8 250.3 27.8C250.2 27.9 250 28 249.9 28C249.7 28 249.5 27.9 249.3 27.7C249.1 27.5 248.9 27.3 248.7 27C248.6 26.7 248.5 26.5 248.5 26.3C248.5 26.1 248.6 25.7 248.7 25.1C248.9 24.5 249.1 23.7 249.4 22.6C249.7 21.6 250 20.7 250.2 20C250.4 19.3 250.5 18.8 250.6 18.5C250.6 18.3 249.9 18.8 248.4 20.2C248.1 20.6 247.8 21 247.4 21.4C246.7 22.1 246 23 245.1 24C244.3 25 243.5 25.9 242.9 26.8C242.3 27.7 241.8 28.4 241.5 28.7C241.2 29.1 240.9 29.3 240.7 29.3C240.5 29.3 240.4 29.2 240.1 28.9C239.7 28.3 239.6 28 239.6 27.7Z" /><path class="shp0" d="M275 26.3C274.9 26.1 274.9 25.8 274.9 25.4C274.9 24.9 274.9 24.6 274.9 24.5C274.7 25 274.4 25.4 273.9 25.7C273.2 26.4 272.5 26.9 271.9 27.3C270.9 28 270 28.4 269.4 28.4C268.8 28.4 268.2 28.1 267.7 27.4C267.3 27.1 267 26.8 266.8 26.4C266.6 26.1 266.5 25.7 266.5 25.2C266.5 24.9 266.5 24.5 266.6 24.1C266.6 23 266.8 21.9 267 20.9C267.2 19.9 267.7 18.6 268.4 16.9C269.3 15 270 13.7 270.4 13.1C270.5 13 270.7 13 271 13C271.3 13 271.6 13.1 271.8 13.3C272 13.5 272.1 13.7 272.2 14C272.3 14.1 272.3 14.3 272.3 14.5C272.3 15.3 271.9 16.5 271 18.2C269.9 21.1 269.3 23 269.4 24.1C269.4 24.7 269.6 25.1 270 25.2C270.2 25.3 270.3 25.3 270.5 25.3C271.3 25.3 272.1 24.8 273.2 23.7C274.2 22.7 275.2 21 276.1 18.7C276.5 17.7 276.7 16.6 276.8 15.5C276.8 15.4 276.7 15.3 276.7 15.1C276.7 14.6 276.9 14.1 277.5 13.8C277.6 13.6 277.8 13.5 278 13.4C278.2 13.3 278.3 13.3 278.4 13.4L279.1 13.3C279.2 13.3 279.3 13.3 279.4 13.5C279.5 13.7 279.6 13.8 279.7 13.9C279.9 14.1 280 14.4 280 14.9C280 15.9 279.6 17.4 278.8 19.5C278.3 20.7 277.9 21.6 277.7 22.3C277.5 23 277.4 23.6 277.4 24.2C277.4 25.3 277.9 26.3 278.8 27C279.1 27.2 279.3 27.4 279.4 27.7C279.5 27.9 279.5 28.3 279.5 28.7C279.4 29 279.3 29.2 279 29.4C278.7 29.6 278.4 29.7 278.1 29.7C277.7 29.7 277.4 29.6 277.1 29.4C276 28.7 275.4 27.7 275 26.3Z" /></g><path class="shp0" d="M296.7 19.6C298.2 19.8 299.6 19.5 300.9 18.7C301.5 18.3 303.7 17.1 303.4 16.2C303.2 15.6 300.6 15.6 299.9 15.4C298.6 15 297.1 14.7 295.7 14.8C293.6 14.8 289.9 15.5 289.1 17.8C288.6 19.3 290.3 19 291.4 19.1C293.2 19.3 295 19.5 296.7 19.6Z" /><path class="shp0" d="M7.6 19.8C9 19.5 10.5 19.6 11.9 20.1C12.6 20.4 14.9 21.4 14.7 22.3C14.6 22.9 12 24 11.4 24.2C10.1 24.7 8.7 25.2 7.3 25.4C5.2 25.6 1.4 24.7 0.4 22.5C-0.3 21.1 1.4 21.2 2.5 20.9C4.2 20.5 5.9 20.2 7.6 19.8Z" /></g></svg>