<svg height="448pt" viewBox="0 -56 448 448" width="448pt" xmlns="http://www.w3.org/2000/svg"><path d="m224 280c39.765625 0 72-32.234375 72-72s-32.234375-72-72-72-72 32.234375-72 72c.042969 39.746094 32.253906 71.957031 72 72zm0-104c17.671875 0 32 14.328125 32 32s-14.328125 32-32 32-32-14.328125-32-32 14.328125-32 32-32zm0 0"/><path d="m240 208c0 8.835938-7.164062 16-16 16s-16-7.164062-16-16 7.164062-16 16-16 16 7.164062 16 16zm0 0"/><path d="m224 304c53.019531 0 96-42.980469 96-96s-42.980469-96-96-96-96 42.980469-96 96c.058594 52.996094 43.003906 95.941406 96 96zm0-184c48.601562 0 88 39.398438 88 88s-39.398438 88-88 88-88-39.398438-88-88c.058594-48.578125 39.421875-87.941406 88-88zm0 0"/><path d="m176 32h96v16h-96zm0 0"/><path d="m368 112h48v16h-48zm0 0"/><path d="m8 336h432c4.417969 0 8-3.582031 8-8v-240c0-4.417969-3.582031-8-8-8h-128c-4.417969 0-8-3.582031-8-8v-64c0-4.417969-3.582031-8-8-8h-144c-4.417969 0-8 3.582031-8 8v64c0 4.417969-3.582031 8-8 8h-32c-4.417969 0-8-3.582031-8-8v-16c0-4.417969-3.582031-8-8-8h-48c-4.417969 0-8 3.582031-8 8v16c0 4.417969-3.582031 8-8 8h-16c-4.417969 0-8 3.582031-8 8v240c0 4.417969 3.582031 8 8 8zm344-232c0-4.417969 3.582031-8 8-8h64c4.417969 0 8 3.582031 8 8v32c0 4.417969-3.582031 8-8 8h-64c-4.417969 0-8-3.582031-8-8zm-192-80c0-4.417969 3.582031-8 8-8h112c4.417969 0 8 3.582031 8 8v32c0 4.417969-3.582031 8-8 8h-112c-4.417969 0-8-3.582031-8-8zm64 72c61.855469 0 112 50.144531 112 112s-50.144531 112-112 112-112-50.144531-112-112c.066406-61.828125 50.171875-111.933594 112-112zm-184 0c13.253906 0 24 10.746094 24 24s-10.746094 24-24 24-24-10.746094-24-24 10.746094-24 24-24zm0 0"/><path d="m48 120c0 4.417969-3.582031 8-8 8s-8-3.582031-8-8 3.582031-8 8-8 8 3.582031 8 8zm0 0"/></svg>