<svg xmlns="http://www.w3.org/2000/svg" viewBox="0 0 15 15" width="15" height="15">
	<style>
		tspan { white-space:pre }
		.shp0 { fill: #ffffff } 
	</style>
	<path id="user copy 4 копия 14" class="shp0" d="M7.51 8.57C9.6 8.57 11.31 6.88 11.31 4.79C11.31 2.71 9.6 1.02 7.51 1.02C5.41 1.02 3.7 2.71 3.7 4.79C3.7 6.88 5.41 8.57 7.51 8.57ZM7.51 2.15C8.97 2.15 10.17 3.34 10.17 4.79C10.17 6.25 8.97 7.44 7.51 7.44C6.04 7.44 4.85 6.25 4.85 4.79C4.85 3.34 6.04 2.15 7.51 2.15ZM9.27 8.92C9.08 8.86 8.87 8.9 8.72 9.03L7.51 10.05L6.29 9.03C6.14 8.9 5.94 8.86 5.75 8.92C4.96 9.17 1.02 10.51 1.02 12.45C1.02 12.76 1.27 13.01 1.59 13.01L13.43 13.01C13.74 13.01 14 12.76 14 12.45C14 10.51 10.06 9.17 9.27 8.92ZM2.47 11.88C3.1 11.24 4.57 10.52 5.8 10.1L7.14 11.23C7.35 11.4 7.66 11.4 7.88 11.23L9.22 10.1C10.45 10.52 11.92 11.24 12.54 11.88L2.47 11.88Z" />
</svg>