<svg width="17" height="13" viewBox="0 0 17 13" fill="none" xmlns="http://www.w3.org/2000/svg">
<mask id="path-1-inside-1" fill="white">
<path d="M15.2812 0.790527H2.09375C1.31931 0.790527 0.6875 1.42165 0.6875 2.19678V11.5718C0.6875 12.3443 1.3165 12.978 2.09375 12.978H15.2812C16.0538 12.978 16.6875 12.349 16.6875 11.5718V2.19678C16.6875 1.42428 16.0585 0.790527 15.2812 0.790527ZM15.0871 1.72803L8.71731 8.09781L2.29247 1.72803H15.0871ZM1.625 11.3777V2.38643L6.13997 6.86268L1.625 11.3777ZM2.28791 12.0405L6.80572 7.52271L8.38875 9.09215C8.572 9.27384 8.86772 9.27325 9.05022 9.09071L10.5938 7.54718L15.0871 12.0405H2.28791ZM15.75 11.3776L11.2567 6.88428L15.75 2.3909V11.3776Z"/>
</mask>
<path d="M15.2812 0.790527H2.09375C1.31931 0.790527 0.6875 1.42165 0.6875 2.19678V11.5718C0.6875 12.3443 1.3165 12.978 2.09375 12.978H15.2812C16.0538 12.978 16.6875 12.349 16.6875 11.5718V2.19678C16.6875 1.42428 16.0585 0.790527 15.2812 0.790527ZM15.0871 1.72803L8.71731 8.09781L2.29247 1.72803H15.0871ZM1.625 11.3777V2.38643L6.13997 6.86268L1.625 11.3777ZM2.28791 12.0405L6.80572 7.52271L8.38875 9.09215C8.572 9.27384 8.86772 9.27325 9.05022 9.09071L10.5938 7.54718L15.0871 12.0405H2.28791ZM15.75 11.3776L11.2567 6.88428L15.75 2.3909V11.3776Z" fill="#007092"/>
</svg>
