<svg width="33" height="32" viewBox="0 0 33 32" fill="none" xmlns="http://www.w3.org/2000/svg">
<circle cx="16.4654" cy="16.107" r="15.564" fill="#107BB1"/>
<path d="M21.7752 5.49044L19.0206 5.48602C15.9259 5.48602 13.926 7.5379 13.926 10.7137V13.124H11.1564C10.9171 13.124 10.7233 13.3181 10.7233 13.5574V17.0497C10.7233 17.289 10.9173 17.4828 11.1564 17.4828H13.926V26.295C13.926 26.5343 14.1198 26.7281 14.3592 26.7281H17.9727C18.212 26.7281 18.4059 26.5341 18.4059 26.295V17.4828H21.6442C21.8835 17.4828 22.0773 17.289 22.0773 17.0497L22.0786 13.5574C22.0786 13.4425 22.0329 13.3324 21.9518 13.2511C21.8707 13.1698 21.7602 13.124 21.6453 13.124H18.4059V11.0808C18.4059 10.0987 18.6399 9.60016 19.9192 9.60016L21.7748 9.5995C22.0139 9.5995 22.2077 9.40547 22.2077 9.16636V5.92358C22.2077 5.68469 22.0141 5.49088 21.7752 5.49044Z" fill="white"/>
</svg>
