<svg width="15" height="15" viewBox="0 0 15 15" fill="none" xmlns="http://www.w3.org/2000/svg">
<g clip-path="url(#clip0)">
<mask id="path-1-inside-1" fill="white">
<path d="M14.5676 11.8688L12.2479 9.54919C11.7672 9.06843 10.989 9.06835 10.5082 9.54919L9.9283 10.1291C9.44858 10.6088 8.66819 10.6087 8.18666 10.1272L5.75794 7.73064C5.27827 7.25098 5.27827 6.47059 5.75794 5.99092L6.33784 5.41102C6.81751 4.93138 6.81751 4.15096 6.33784 3.6713L4.01824 1.35167C3.53858 0.872007 2.75811 0.872061 2.27853 1.35167L1.69868 1.93158C0.945957 2.68427 0.724582 4.34382 1.12093 6.26253C1.37353 7.48537 2.10025 9.83975 4.12929 11.8688C6.15423 13.8938 8.48952 14.5887 9.70131 14.8227C11.0333 15.0799 13.0351 15.141 13.9876 14.1884L14.5676 13.6085C15.0472 13.1289 15.0472 12.3485 14.5676 11.8688ZM2.85849 1.93158C3.01839 1.7717 3.27849 1.77167 3.43842 1.93158L5.75805 4.2512C5.91795 4.41111 5.91795 4.67123 5.75805 4.83114L5.46954 5.11964L2.56996 2.22011L2.85849 1.93158ZM9.85684 14.0175C8.73717 13.8013 6.57956 13.1593 4.70919 11.2889C2.83123 9.41089 2.15816 7.22968 1.9241 6.09663C1.61405 4.59579 1.74314 3.46761 2.04419 2.85413L4.91848 5.72845C4.391 6.52429 4.47767 7.61016 5.18 8.31246L7.60873 10.709C8.30903 11.4093 9.39427 11.4965 10.1908 10.9686L13.0674 13.8453C12.1908 14.2898 10.8276 14.2049 9.85684 14.0175ZM13.9877 13.0286L13.6991 13.3171L10.7996 10.4176L11.0881 10.1291C11.2483 9.96887 11.5077 9.96887 11.668 10.1291L13.9876 12.4488C14.1475 12.6086 14.1475 12.8688 13.9877 13.0286Z"/>
</mask>
<path d="M14.5676 11.8688L12.2479 9.54919C11.7672 9.06843 10.989 9.06835 10.5082 9.54919L9.9283 10.1291C9.44858 10.6088 8.66819 10.6087 8.18666 10.1272L5.75794 7.73064C5.27827 7.25098 5.27827 6.47059 5.75794 5.99092L6.33784 5.41102C6.81751 4.93138 6.81751 4.15096 6.33784 3.6713L4.01824 1.35167C3.53858 0.872007 2.75811 0.872061 2.27853 1.35167L1.69868 1.93158C0.945957 2.68427 0.724582 4.34382 1.12093 6.26253C1.37353 7.48537 2.10025 9.83975 4.12929 11.8688C6.15423 13.8938 8.48952 14.5887 9.70131 14.8227C11.0333 15.0799 13.0351 15.141 13.9876 14.1884L14.5676 13.6085C15.0472 13.1289 15.0472 12.3485 14.5676 11.8688ZM2.85849 1.93158C3.01839 1.7717 3.27849 1.77167 3.43842 1.93158L5.75805 4.2512C5.91795 4.41111 5.91795 4.67123 5.75805 4.83114L5.46954 5.11964L2.56996 2.22011L2.85849 1.93158ZM9.85684 14.0175C8.73717 13.8013 6.57956 13.1593 4.70919 11.2889C2.83123 9.41089 2.15816 7.22968 1.9241 6.09663C1.61405 4.59579 1.74314 3.46761 2.04419 2.85413L4.91848 5.72845C4.391 6.52429 4.47767 7.61016 5.18 8.31246L7.60873 10.709C8.30903 11.4093 9.39427 11.4965 10.1908 10.9686L13.0674 13.8453C12.1908 14.2898 10.8276 14.2049 9.85684 14.0175ZM13.9877 13.0286L13.6991 13.3171L10.7996 10.4176L11.0881 10.1291C11.2483 9.96887 11.5077 9.96887 11.668 10.1291L13.9876 12.4488C14.1475 12.6086 14.1475 12.8688 13.9877 13.0286Z" fill="#007092"/>
<path d="M14.5676 11.8688L15.2747 11.1618L15.2747 11.1617L14.5676 11.8688ZM12.2479 9.54919L11.5408 10.2563L11.5408 10.2563L12.2479 9.54919ZM10.5082 9.54919L11.2153 10.2563L11.2154 10.2563L10.5082 9.54919ZM9.9283 10.1291L10.6354 10.8363L10.6354 10.8362L9.9283 10.1291ZM8.18666 10.1272L8.89378 9.42009L8.88904 9.41541L8.18666 10.1272ZM5.75794 7.73064L5.05081 8.43776L5.05556 8.44244L5.75794 7.73064ZM5.75794 5.99092L5.05083 5.28382H5.05083L5.75794 5.99092ZM6.33784 5.41102L5.63076 4.70389L5.63074 4.70391L6.33784 5.41102ZM6.33784 3.6713L5.63073 4.3784L5.63074 4.3784L6.33784 3.6713ZM4.01824 1.35167L4.72536 0.644569L4.72535 0.644564L4.01824 1.35167ZM2.27853 1.35167L1.5714 0.644585L1.57139 0.644598L2.27853 1.35167ZM1.69868 1.93158L2.40577 2.6387L2.40582 2.63865L1.69868 1.93158ZM1.12093 6.26253L2.10025 6.06023L1.12093 6.26253ZM4.12929 11.8688L4.8364 11.1617L4.83639 11.1617L4.12929 11.8688ZM9.70131 14.8227L9.89092 13.8408H9.89092L9.70131 14.8227ZM13.9876 14.1884L14.6947 14.8956L14.6947 14.8956L13.9876 14.1884ZM14.5676 13.6085L15.2747 14.3156L15.2748 14.3156L14.5676 13.6085ZM2.85849 1.93158L2.15144 1.22441L2.15138 1.22447L2.85849 1.93158ZM3.43842 1.93158L4.14553 1.22447L4.14547 1.22441L3.43842 1.93158ZM5.75805 4.2512L6.46515 3.5441L5.75805 4.2512ZM5.75805 4.83114L6.46515 5.53824L6.46515 5.53824L5.75805 4.83114ZM5.46954 5.11964L4.76244 5.82675L5.46955 6.53385L6.17665 5.82675L5.46954 5.11964ZM2.56996 2.22011L1.86285 1.513L1.15574 2.22012L1.86286 2.92722L2.56996 2.22011ZM9.85684 14.0175L9.66725 14.9994L9.66726 14.9994L9.85684 14.0175ZM4.70919 11.2889L4.00208 11.996L4.00209 11.996L4.70919 11.2889ZM1.9241 6.09663L2.90342 5.89433L2.90342 5.89432L1.9241 6.09663ZM2.04419 2.85413L2.7513 2.14703L1.7625 1.15822L1.14646 2.41359L2.04419 2.85413ZM4.91848 5.72845L5.75202 6.28092L6.2037 5.59945L5.62559 5.02135L4.91848 5.72845ZM5.18 8.31246L4.47289 9.0196L4.47762 9.02426L5.18 8.31246ZM7.60873 10.709L8.31585 10.0019L8.3111 9.99723L7.60873 10.709ZM10.1908 10.9686L10.8979 10.2615L10.3198 9.68344L9.63836 10.1351L10.1908 10.9686ZM13.0674 13.8453L13.5197 14.7372L14.7497 14.1134L13.7745 13.1382L13.0674 13.8453ZM13.9877 13.0286L13.2806 12.3215L13.9877 13.0286ZM13.6991 13.3171L12.992 14.0242L13.6991 14.7313L14.4062 14.0242L13.6991 13.3171ZM10.7996 10.4176L10.0925 9.71052L9.38539 10.4176L10.0925 11.1247L10.7996 10.4176ZM11.0881 10.1291L11.7952 10.8362L11.7953 10.8362L11.0881 10.1291ZM11.668 10.1291L12.3751 9.42202L12.3751 9.42196L11.668 10.1291ZM13.9876 12.4488L13.2805 13.1559L13.2806 13.1559L13.9876 12.4488ZM15.2747 11.1617L12.955 8.84208L11.5408 10.2563L13.8605 12.5759L15.2747 11.1617ZM12.955 8.84211C12.0838 7.97084 10.6725 7.97067 9.8011 8.84211L11.2154 10.2563C11.3056 10.166 11.4505 10.166 11.5408 10.2563L12.955 8.84211ZM9.80112 8.84209L9.22119 9.42202L10.6354 10.8362L11.2153 10.2563L9.80112 8.84209ZM9.22123 9.42198C9.13304 9.51015 8.98579 9.51212 8.89377 9.42011L7.47956 10.8343C8.35058 11.7053 9.76411 11.7074 10.6354 10.8363L9.22123 9.42198ZM8.88904 9.41541L6.46032 7.01884L5.05556 8.44244L7.48428 10.839L8.88904 9.41541ZM6.46504 7.02354C6.3759 6.9344 6.3759 6.78717 6.46504 6.69803L5.05083 5.28382C4.18064 6.154 4.18064 7.56756 5.05083 8.43775L6.46504 7.02354ZM6.46504 6.69803L7.04495 6.11812L5.63074 4.70391L5.05083 5.28382L6.46504 6.69803ZM7.04493 6.11814C7.91516 5.24797 7.91513 3.83437 7.04495 2.96419L5.63074 4.3784C5.71989 4.46755 5.71986 4.61479 5.63076 4.70389L7.04493 6.11814ZM7.04495 2.96419L4.72536 0.644569L3.31113 2.05877L5.63073 4.3784L7.04495 2.96419ZM4.72535 0.644564C3.85515 -0.225642 2.44149 -0.225559 1.5714 0.644585L2.98565 2.05876C3.07472 1.96968 3.22202 1.96966 3.31114 2.05878L4.72535 0.644564ZM1.57139 0.644598L0.991535 1.2245L2.40582 2.63865L2.98567 2.05874L1.57139 0.644598ZM0.991581 1.22446C0.399787 1.81623 0.102869 2.66409 -0.0123171 3.52757C-0.130037 4.41004 -0.0742595 5.41983 0.141605 6.46483L2.10025 6.06023C1.91977 5.18652 1.88806 4.40717 1.97012 3.79202C2.05472 3.15788 2.24484 2.79962 2.40577 2.6387L0.991581 1.22446ZM0.141605 6.46483C0.416527 7.79572 1.20525 10.359 3.42218 12.5759L4.83639 11.1617C2.99524 9.32053 2.33053 7.17502 2.10025 6.06023L0.141605 6.46483ZM3.42218 12.5759C5.63826 14.792 8.18708 15.5488 9.51171 15.8046L9.89092 13.8408C8.79196 13.6286 6.6702 12.9955 4.8364 11.1617L3.42218 12.5759ZM9.51171 15.8046C10.2429 15.9458 11.1738 16.0375 12.0775 15.9551C12.9534 15.8753 13.974 15.6162 14.6947 14.8956L13.2806 13.4813C13.0487 13.7132 12.5921 13.8999 11.896 13.9634C11.2277 14.0243 10.4918 13.9569 9.89092 13.8408L9.51171 15.8046ZM14.6947 14.8956L15.2747 14.3156L13.8605 12.9014L13.2805 13.4813L14.6947 14.8956ZM15.2748 14.3156C16.1448 13.4454 16.1448 12.0319 15.2747 11.1618L13.8604 12.5759C13.9495 12.665 13.9495 12.8123 13.8604 12.9015L15.2748 14.3156ZM3.56553 2.63874C3.33497 2.86927 2.96199 2.86933 2.73137 2.63874L4.14547 1.22441C3.59498 0.674017 2.70181 0.674131 2.15144 1.22441L3.56553 2.63874ZM2.73131 2.63868L5.05094 4.95831L6.46515 3.5441L4.14553 1.22447L2.73131 2.63868ZM5.05094 4.95831C4.82032 4.72769 4.82032 4.35465 5.05094 4.12403L6.46515 5.53824C7.01558 4.98781 7.01558 4.09453 6.46515 3.5441L5.05094 4.95831ZM5.05094 4.12403L4.76244 4.41253L6.17665 5.82675L6.46515 5.53824L5.05094 4.12403ZM6.17664 4.41253L3.27706 1.513L1.86286 2.92722L4.76244 5.82675L6.17664 4.41253ZM3.27706 2.92722L3.56559 2.63868L2.15138 1.22447L1.86285 1.513L3.27706 2.92722ZM10.0464 13.0356C9.03954 12.8412 7.09549 12.261 5.4163 10.5818L4.00209 11.996C6.06363 14.0576 8.43481 14.7614 9.66725 14.9994L10.0464 13.0356ZM5.41631 10.5818C3.72635 8.8918 3.11521 6.91958 2.90342 5.89433L0.944775 6.29894C1.20111 7.53978 1.9361 9.92997 4.00208 11.996L5.41631 10.5818ZM2.90342 5.89432C2.61654 4.50565 2.7773 3.63013 2.94192 3.29467L1.14646 2.41359C0.708971 3.30509 0.611553 4.68593 0.944776 6.29895L2.90342 5.89432ZM1.33708 3.56123L4.21137 6.43555L5.62559 5.02135L2.7513 2.14703L1.33708 3.56123ZM4.08495 5.17598C3.29987 6.36047 3.4276 7.97432 4.47291 9.01958L5.88709 7.60534C5.52775 7.24601 5.48212 6.68811 5.75202 6.28092L4.08495 5.17598ZM4.47762 9.02426L6.90635 11.4208L8.3111 9.99723L5.88238 7.60066L4.47762 9.02426ZM6.90162 11.4161C7.94526 12.4598 9.55853 12.5874 10.7432 11.8022L9.63836 10.1351C9.23001 10.4057 8.67279 10.3589 8.31583 10.0019L6.90162 11.4161ZM9.48368 11.6757L12.3603 14.5524L13.7745 13.1382L10.8979 10.2615L9.48368 11.6757ZM12.6151 12.9534C12.3681 13.0787 11.9797 13.159 11.4784 13.1686C10.9922 13.1778 10.4802 13.1194 10.0464 13.0356L9.66726 14.9994C10.2042 15.103 10.8593 15.1807 11.5165 15.1682C12.1587 15.1559 12.8901 15.0564 13.5197 14.7372L12.6151 12.9534ZM13.2806 12.3215L12.992 12.61L14.4062 14.0242L14.6948 13.7357L13.2806 12.3215ZM14.4062 12.61L11.5067 9.71052L10.0925 11.1247L12.992 14.0242L14.4062 12.61ZM11.5067 11.1247L11.7952 10.8362L10.381 9.42202L10.0925 9.71052L11.5067 11.1247ZM11.7953 10.8362C11.5649 11.0666 11.1911 11.0664 10.961 10.8363L12.3751 9.42196C11.8243 8.87132 10.9318 8.87115 10.3809 9.42208L11.7953 10.8362ZM10.9609 10.8362L13.2805 13.1559L14.6947 11.7416L12.3751 9.42202L10.9609 10.8362ZM13.2806 13.1559C13.0499 12.9252 13.0499 12.5522 13.2806 12.3215L14.6948 13.7357C15.2452 13.1853 15.2452 12.292 14.6947 11.7416L13.2806 13.1559Z" fill="#007092" mask="url(#path-1-inside-1)"/>
<mask id="path-3-inside-2" fill="white">
<path d="M8.77577 0.989014C8.54931 0.989014 8.36572 1.1726 8.36572 1.39906C8.36572 1.62552 8.54931 1.80911 8.77577 1.80911C11.7151 1.80911 14.1065 4.20045 14.1065 7.1398C14.1065 7.36626 14.29 7.54985 14.5165 7.54985C14.743 7.54985 14.9266 7.36626 14.9266 7.1398C14.9266 3.74824 12.1673 0.989014 8.77577 0.989014Z"/>
</mask>
<path d="M8.77577 0.989014C8.54931 0.989014 8.36572 1.1726 8.36572 1.39906C8.36572 1.62552 8.54931 1.80911 8.77577 1.80911C11.7151 1.80911 14.1065 4.20045 14.1065 7.1398C14.1065 7.36626 14.29 7.54985 14.5165 7.54985C14.743 7.54985 14.9266 7.36626 14.9266 7.1398C14.9266 3.74824 12.1673 0.989014 8.77577 0.989014Z" fill="#007092"/>
<path d="M8.77577 -0.0109863C7.99702 -0.0109863 7.36572 0.620314 7.36572 1.39906H9.36572C9.36572 1.72488 9.10159 1.98901 8.77577 1.98901V-0.0109863ZM7.36572 1.39906C7.36572 2.17781 7.99702 2.80911 8.77577 2.80911V0.809107C9.10159 0.809107 9.36572 1.07324 9.36572 1.39906H7.36572ZM8.77577 2.80911C11.1628 2.80911 13.1065 4.75274 13.1065 7.1398H15.1065C15.1065 3.64817 12.2674 0.809107 8.77577 0.809107V2.80911ZM13.1065 7.1398C13.1065 7.91854 13.7378 8.54985 14.5165 8.54985V6.54985C14.8423 6.54985 15.1065 6.81397 15.1065 7.1398H13.1065ZM14.5165 8.54985C15.2953 8.54985 15.9266 7.91854 15.9266 7.1398H13.9266C13.9266 6.81397 14.1907 6.54985 14.5165 6.54985V8.54985ZM15.9266 7.1398C15.9266 3.19596 12.7196 -0.0109863 8.77577 -0.0109863V1.98901C11.615 1.98901 13.9266 4.30053 13.9266 7.1398H15.9266Z" fill="#007092" mask="url(#path-3-inside-2)"/>
<mask id="path-5-inside-3" fill="white">
<path d="M8.77577 2.62915C8.54931 2.62915 8.36572 2.81274 8.36572 3.0392C8.36572 3.26566 8.54931 3.44924 8.77577 3.44924C10.8107 3.44924 12.4662 5.1048 12.4662 7.13972C12.4662 7.36618 12.6498 7.54977 12.8763 7.54977C13.1028 7.54977 13.2863 7.36618 13.2863 7.13972C13.2863 4.65259 11.2629 2.62915 8.77577 2.62915Z"/>
</mask>
<path d="M8.77577 2.62915C8.54931 2.62915 8.36572 2.81274 8.36572 3.0392C8.36572 3.26566 8.54931 3.44924 8.77577 3.44924C10.8107 3.44924 12.4662 5.1048 12.4662 7.13972C12.4662 7.36618 12.6498 7.54977 12.8763 7.54977C13.1028 7.54977 13.2863 7.36618 13.2863 7.13972C13.2863 4.65259 11.2629 2.62915 8.77577 2.62915Z" fill="#007092"/>
<path d="M8.77577 1.62915C7.99702 1.62915 7.36572 2.26045 7.36572 3.0392H9.36572C9.36572 3.36502 9.10159 3.62915 8.77577 3.62915V1.62915ZM7.36572 3.0392C7.36572 3.81794 7.99702 4.44924 8.77577 4.44924V2.44924C9.10159 2.44924 9.36572 2.71337 9.36572 3.0392H7.36572ZM8.77577 4.44924C10.2584 4.44924 11.4662 5.65708 11.4662 7.13972H13.4662C13.4662 4.55252 11.363 2.44924 8.77577 2.44924V4.44924ZM11.4662 7.13972C11.4662 7.91847 12.0975 8.54977 12.8763 8.54977V6.54977C13.2021 6.54977 13.4662 6.8139 13.4662 7.13972H11.4662ZM12.8763 8.54977C13.655 8.54977 14.2863 7.91847 14.2863 7.13972H12.2863C12.2863 6.8139 12.5505 6.54977 12.8763 6.54977V8.54977ZM14.2863 7.13972C14.2863 4.1003 11.8152 1.62915 8.77577 1.62915V3.62915C10.7106 3.62915 12.2863 5.20487 12.2863 7.13972H14.2863Z" fill="#007092" mask="url(#path-5-inside-3)"/>
<path d="M11.326 7.13989C11.326 7.13988 11.326 7.13988 11.326 7.13988V7.13989Z" fill="#007092" stroke="#007092"/>
<path d="M9.68582 7.13981C9.68582 7.1398 9.68582 7.1398 9.68582 7.1398V7.13981Z" fill="#007092" stroke="#007092"/>
</g>
<defs>
<clipPath id="clip0">
<rect width="14" height="14" fill="white" transform="translate(0.927246 0.98584)"/>
</clipPath>
</defs>
</svg>
