<svg width="16" height="17" viewBox="0 0 16 17" fill="none" xmlns="https://www.w3.org/2000/svg">
<g clip-path="url(#clip0)">
<path d="M8 0.963135C4.63991 0.963135 1.90625 3.69679 1.90625 7.05688C1.90625 9.22601 2.56609 10.0959 5.73691 14.2759C6.28731 15.0015 6.91119 15.8239 7.625 16.7756C7.71353 16.8937 7.85247 16.9631 8.00003 16.9631C8.14759 16.9631 8.2865 16.8936 8.37503 16.7756C9.08466 15.829 9.70581 15.0097 10.2539 14.2869C13.4323 10.0947 14.0938 9.22226 14.0938 7.05688C14.0938 3.69679 11.3601 0.963135 8 0.963135ZM9.50684 13.7205C9.05672 14.3142 8.55737 14.9728 7.99991 15.7139C7.43862 14.968 6.93644 14.306 6.48381 13.7093C3.3995 9.64332 2.84375 8.91067 2.84375 7.05688C2.84375 4.21373 5.15684 1.90063 8 1.90063C10.8432 1.90063 13.1562 4.21373 13.1562 7.05688C13.1562 8.90704 12.5991 9.64195 9.50684 13.7205Z" fill="#007092"/>
<path d="M8 3.77563C6.19072 3.77563 4.71875 5.2476 4.71875 7.05688C4.71875 8.86617 6.19072 10.3381 8 10.3381C9.80928 10.3381 11.2812 8.86617 11.2812 7.05688C11.2812 5.2476 9.80928 3.77563 8 3.77563ZM8 9.40063C6.70766 9.40063 5.65625 8.34923 5.65625 7.05688C5.65625 5.76454 6.70766 4.71313 8 4.71313C9.29234 4.71313 10.3438 5.76454 10.3438 7.05688C10.3438 8.34923 9.29234 9.40063 8 9.40063Z" fill="#007092"/>
</g>
<defs>
<clipPath id="clip0">
<rect width="16" height="16" fill="white" transform="translate(0 0.963135)"/>
</clipPath>
</defs>
</svg>
