<svg width="23" height="30" viewBox="0 0 23 30" fill="none" xmlns="http://www.w3.org/2000/svg">
<path d="M11.4286 0C16.1571 0 20 3.8 20 8.5C20 14.8714 11.4286 24.2857 11.4286 24.2857C11.4286 24.2857 2.85714 14.8714 2.85714 8.5C2.85714 3.8 6.7 0 11.4286 0ZM11.4286 5.71429C10.6708 5.71429 9.94409 6.01531 9.40827 6.55112C8.87245 7.08694 8.57143 7.81367 8.57143 8.57143C8.57143 9.32919 8.87245 10.0559 9.40827 10.5917C9.94409 11.1276 10.6708 11.4286 11.4286 11.4286C12.1863 11.4286 12.9131 11.1276 13.4489 10.5917C13.9847 10.0559 14.2857 9.32919 14.2857 8.57143C14.2857 7.81367 13.9847 7.08694 13.4489 6.55112C12.9131 6.01531 12.1863 5.71429 11.4286 5.71429ZM22.8571 24.2857C22.8571 27.4429 17.7429 30 11.4286 30C5.11429 30 0 27.4429 0 24.2857C0 22.4429 1.74286 20.8 4.44286 19.7571L5.35714 21.0571C3.81429 21.7 2.85714 22.5857 2.85714 23.5714C2.85714 25.5429 6.7 27.1429 11.4286 27.1429C16.1571 27.1429 20 25.5429 20 23.5714C20 22.5857 19.0429 21.7 17.5 21.0571L18.4143 19.7571C21.1143 20.8 22.8571 22.4429 22.8571 24.2857Z" fill="#E3CBA1"/>
</svg>
