<svg width="16" height="26" viewBox="0 0 16 26" fill="none" xmlns="http://www.w3.org/2000/svg">
<path d="M13.0833 0.166656H3.75C2.97645 0.166656 2.23458 0.473947 1.6876 1.02093C1.14062 1.56791 0.833328 2.30977 0.833328 3.08332V22.9167C0.833328 23.6902 1.14062 24.4321 1.6876 24.979C2.23458 25.526 2.97645 25.8333 3.75 25.8333H13.0833C13.8569 25.8333 14.5987 25.526 15.1457 24.979C15.6927 24.4321 16 23.6902 16 22.9167V3.08332C16 2.30977 15.6927 1.56791 15.1457 1.02093C14.5987 0.473947 13.8569 0.166656 13.0833 0.166656ZM8.41666 24.6667C7.44833 24.6667 6.66666 23.885 6.66666 22.9167C6.66666 21.9483 7.44833 21.1667 8.41666 21.1667C9.385 21.1667 10.1667 21.9483 10.1667 22.9167C10.1667 23.885 9.385 24.6667 8.41666 24.6667ZM13.6667 20H3.16666V3.66666H13.6667V20Z" fill="white"/>
</svg>
