<svg width="30" height="30" viewBox="0 0 30 30" fill="none" xmlns="http://www.w3.org/2000/svg">
<path d="M29.1439 21.1994L22.5814 18.3869C22.3011 18.2674 21.9895 18.2423 21.6936 18.3152C21.3977 18.3881 21.1336 18.5552 20.9408 18.7912L18.0346 22.342C13.4735 20.1915 9.80285 16.5209 7.65234 11.9598L11.2031 9.05352C11.4397 8.86114 11.6071 8.59694 11.68 8.30091C11.753 8.00488 11.7275 7.69315 11.6074 7.4129L8.79492 0.850396C8.66315 0.548292 8.4301 0.301634 8.13595 0.152954C7.8418 0.0042745 7.50499 -0.0371077 7.18359 0.0359433L1.08984 1.44219C0.779982 1.51375 0.503523 1.68822 0.305587 1.93713C0.107651 2.18603 -7.13795e-05 2.49468 3.54856e-08 2.8127C3.54856e-08 17.842 12.1816 30.0002 27.1875 30.0002C27.5056 30.0004 27.8144 29.8927 28.0634 29.6948C28.3125 29.4968 28.487 29.2203 28.5586 28.9104L29.9648 22.8166C30.0374 22.4936 29.9952 22.1555 29.8453 21.8603C29.6955 21.5652 29.4475 21.3315 29.1439 21.1994Z" fill="#E3CBA1"/>
</svg>
