<svg width="17" height="13" fill="none" xmlns="http://www.w3.org/2000/svg"><mask id="path-1-inside-1" fill="#fff"><path d="M15.281.79H2.094A1.41 1.41 0 00.688 2.198v9.375c0 .772.629 1.406 1.406 1.406H15.28c.773 0 1.406-.629 1.406-1.406V2.197c0-.773-.629-1.406-1.406-1.406zm-.194.938l-6.37 6.37-6.425-6.37h12.795zm-13.462 9.65V2.386L6.14 6.863l-4.515 4.515zm.663.662l4.518-4.517 1.583 1.57a.469.469 0 00.661-.002l1.544-1.544 4.493 4.494h-12.8zm13.462-.662l-4.493-4.494 4.493-4.493v8.987z"/></mask><path d="M15.281.79H2.094A1.41 1.41 0 00.688 2.198v9.375c0 .772.629 1.406 1.406 1.406H15.28c.773 0 1.406-.629 1.406-1.406V2.197c0-.773-.629-1.406-1.406-1.406zm-.194.938l-6.37 6.37-6.425-6.37h12.795zm-13.462 9.65V2.386L6.14 6.863l-4.515 4.515zm.663.662l4.518-4.517 1.583 1.57a.469.469 0 00.661-.002l1.544-1.544 4.493 4.494h-12.8zm13.462-.662l-4.493-4.494 4.493-4.493v8.987z" fill="#007092"/></svg>