<svg width="33" height="32" fill="none" xmlns="http://www.w3.org/2000/svg"><circle cx="16.465" cy="16.107" r="15.564" fill="#107BB1"/><path d="M21.775 5.49l-2.754-.004c-3.095 0-5.095 2.052-5.095 5.228v2.41h-2.77a.433.433 0 00-.433.433v3.493c0 .239.194.433.433.433h2.77v8.812c0 .24.194.433.433.433h3.614a.433.433 0 00.433-.433v-8.812h3.238c.24 0 .433-.194.433-.433l.002-3.493a.434.434 0 00-.434-.433h-3.24v-2.043c0-.982.235-1.48 1.514-1.48l1.856-.002a.433.433 0 00.433-.433V5.924a.433.433 0 00-.433-.434z" fill="#fff"/></svg>