<svg width="16" height="17" fill="none" xmlns="https://www.w3.org/2000/svg"><g clip-path="url(#clip0)" fill="#007092"><path d="M8 .963a6.1 6.1 0 00-6.094 6.094c0 2.169.66 3.039 3.83 7.219.551.726 1.175 1.548 1.889 2.5a.469.469 0 00.75 0c.71-.947 1.33-1.766 1.879-2.49 3.178-4.191 3.84-5.064 3.84-7.23A6.1 6.1 0 008 .964zm1.507 12.758A529.8 529.8 0 008 15.714c-.561-.746-1.064-1.408-1.516-2.005-3.084-4.066-3.64-4.798-3.64-6.652A5.162 5.162 0 018 1.9a5.162 5.162 0 015.156 5.156c0 1.85-.557 2.585-3.65 6.663z"/><path d="M8 3.776a3.285 3.285 0 00-3.281 3.28A3.285 3.285 0 008 10.339a3.285 3.285 0 003.281-3.281A3.285 3.285 0 008 3.776zM8 9.4a2.346 2.346 0 01-2.344-2.344A2.346 2.346 0 018 4.713a2.346 2.346 0 012.344 2.344A2.346 2.346 0 018 9.4z"/></g><defs><clipPath id="clip0"><path fill="#fff" transform="translate(0 .963)" d="M0 0h16v16H0z"/></clipPath></defs></svg>