<svg width="18" height="18" viewBox="0 0 18 18" fill="none" xmlns="http://www.w3.org/2000/svg">
<path d="M16.9733 0.333339H1.02659C0.643085 0.333339 0.333252 0.643172 0.333252 1.02667V16.9733C0.333252 17.3568 0.643085 17.6667 1.02659 17.6667H16.9733C17.3568 17.6667 17.6666 17.3568 17.6666 16.9733V1.02667C17.6666 0.643172 17.3568 0.333339 16.9733 0.333339ZM14.9713 5.39251H13.5868C12.5013 5.39251 12.2911 5.90817 12.2911 6.66651V8.33701H14.8824L14.5444 10.9522H12.2911V17.6667H9.58925V10.9543H7.32942V8.33701H9.58925V6.40867C9.58925 4.17051 10.9564 2.95067 12.9541 2.95067C13.9118 2.95067 14.7329 3.02217 14.9734 3.05467V5.39251H14.9713Z" fill="white"/>
</svg>
