<svg width="44" height="44" viewBox="0 0 44 44" fill="none" xmlns="http://www.w3.org/2000/svg">
<path d="M21.9973 11.7105C17.9078 11.6548 13.9753 14.3198 12.4701 18.115C10.9282 21.7666 11.7806 26.2612 14.5534 29.0942C17.2493 31.9964 21.6914 33.0659 25.4121 31.7057C29.3112 30.3774 32.1756 26.5206 32.2788 22.3966C32.4865 18.3901 30.0786 14.4285 26.4532 12.727C25.0697 12.0572 23.5341 11.7085 21.9973 11.7105ZM21.9973 13.5855C25.7351 13.5148 29.2771 16.2584 30.1471 19.8931C31.101 23.3857 29.4939 27.3681 26.3652 29.1981C23.1707 31.203 18.6667 30.6687 16.0435 27.9534C13.2752 25.2828 12.7822 20.6623 14.906 17.4596C16.4102 15.0702 19.1728 13.558 21.9973 13.5855ZM24.6556 15.9766L21.8454 21.0749C20.9774 21.1672 20.7712 22.4839 21.572 22.8351C22.101 23.2023 22.5153 22.5916 22.9969 22.6126H27.2928V21.4408H22.9817L25.6819 16.5422L24.6556 15.9766ZM21.9927 4.77348L21.7933 4.77473L21.786 4.77477L21.7787 4.77491L21.5795 4.77862L21.5723 4.77876L21.565 4.77899L21.3661 4.78518L21.3589 4.78541L21.3516 4.78574L21.1531 4.79434L21.1458 4.79465L21.1386 4.79502L20.9404 4.80611L20.9331 4.80651L20.9259 4.80702L20.728 4.82052L20.7208 4.82099L20.7136 4.82158L20.5161 4.83752L20.5089 4.8381L20.5017 4.83873L20.3046 4.85709L20.2974 4.85779L20.2902 4.85852L20.2226 4.86566L20.0085 4.90874L19.8061 4.99077L19.6224 5.10902L19.4638 5.25925L19.3359 5.43625L19.243 5.63402L19.1885 5.84549L19.1742 6.06348L19.2006 6.28033L19.2667 6.48845L19.3703 6.68078L19.5078 6.85047L19.6745 6.99175L19.8644 7.09959L20.0711 7.17032L20.2873 7.20149L20.4686 7.19645L20.5294 7.19008L20.713 7.17297L20.8927 7.15844L21.0768 7.14592L21.2609 7.13561L21.4454 7.12757L21.6299 7.12183L21.8148 7.11841L22 7.11726L22.1852 7.11841L22.3701 7.12183L22.5546 7.12757L22.7391 7.13561L22.9232 7.14592L23.1073 7.15846L23.287 7.17297L23.4704 7.19005L23.653 7.20932L23.8356 7.23088L24.018 7.25463L24.1962 7.28013L24.3777 7.30837L24.5587 7.33877L24.7384 7.37132L24.9185 7.40615L25.0946 7.4425L25.2735 7.48169L25.4527 7.52324L25.627 7.5659L25.8044 7.6117L25.9777 7.65862L26.1525 7.70828L26.3287 7.76069L26.5 7.81389L26.6739 7.87019L26.8447 7.92787L27.0171 7.98843L27.1898 8.05148L27.3607 8.11623L27.5241 8.18045L27.6945 8.24983L27.8614 8.32007L27.8693 8.32342L27.8695 8.32279L28.0689 8.3883L28.2855 8.41684L28.5036 8.40466L28.7156 8.35225L28.9143 8.26141L29.0925 8.13524L29.2444 7.97819L29.3644 7.7957L29.4485 7.59412L29.4937 7.38037L29.4985 7.16202L29.4626 6.94656L29.3874 6.74149L29.2754 6.55394L29.1306 6.39041L28.9579 6.25661L28.7977 6.17148L28.7925 6.16919L28.7859 6.16635L28.7794 6.16354L28.5989 6.08753L28.5923 6.08477L28.5857 6.08207L28.4044 6.00824L28.3978 6.00557L28.3911 6.00292L28.2089 5.93132L28.2022 5.92874L28.1956 5.92621L28.0124 5.85681L28.0058 5.85428L27.999 5.85182L27.8151 5.78467L27.8084 5.78223L27.8016 5.77987L27.6169 5.71495L27.6101 5.71255L27.6033 5.71028L27.4177 5.64761L27.4109 5.64531L27.4041 5.64313L27.2177 5.58271L27.211 5.58051L27.2042 5.5784L27.017 5.52023L27.0101 5.51812L27.0033 5.51606L26.8153 5.4602L26.8085 5.45814L26.8016 5.45622L26.613 5.40262L26.6061 5.40065L26.5992 5.39877L26.4098 5.34745L26.4029 5.34562L26.396 5.34379L26.2059 5.29481L26.199 5.29302L26.1921 5.29134L26.0014 5.24465L25.9944 5.24289L25.9874 5.2413L25.7961 5.19691L25.7891 5.19529L25.7821 5.19374L25.5901 5.15172L25.5831 5.15015L25.5761 5.14874L25.3835 5.10902L25.3765 5.10754L25.3694 5.10616L25.1763 5.06882L25.1692 5.06744L25.1621 5.06615L24.9684 5.03113L24.9613 5.02987L24.9542 5.02867L24.76 4.99598L24.7528 4.9948L24.7458 4.9937L24.5509 4.9634L24.5438 4.96223L24.5367 4.96124L24.3414 4.9333L24.3343 4.9323L24.3271 4.93136L24.1314 4.90581L24.1242 4.90488L24.117 4.90401L23.9208 4.8809L23.9137 4.88003L23.9065 4.8793L23.7098 4.85852L23.7026 4.85779L23.6954 4.85709L23.4983 4.83873L23.4911 4.8381L23.4839 4.83749L23.2864 4.82155L23.2792 4.82097L23.272 4.8205L23.0741 4.80702L23.0669 4.80651L23.0596 4.80611L22.8614 4.79502L22.8542 4.79465L22.8469 4.79434L22.6484 4.78572L22.6411 4.78541L22.6339 4.78518L22.435 4.77899L22.4277 4.77876L22.4204 4.77862L22.2213 4.77491L22.214 4.77477L22.2067 4.77473L22.0073 4.77348L22 4.77344L21.9927 4.77348ZM14.3545 6.63407L14.1422 6.68516L13.9756 6.75688L13.8945 6.79952L13.8882 6.80284L13.8819 6.80624L13.7095 6.89962L13.7032 6.90302L13.697 6.90648L13.5257 7.00202L13.5194 7.00551L13.5132 7.00902L13.3431 7.10666L13.3369 7.11023L13.3307 7.11386L13.1617 7.21361L13.1555 7.21722L13.1494 7.22092L12.9815 7.32278L12.9754 7.32648L12.9693 7.33028L12.8026 7.4342L12.7965 7.438L12.7905 7.44189L12.625 7.54785L12.619 7.55174L12.613 7.55568L12.4487 7.66377L12.4427 7.66771L12.4368 7.67172L12.2737 7.78192L12.2678 7.78591L12.2619 7.79001L12.1001 7.9022L12.0942 7.90633L12.0884 7.9105L11.9279 8.02476L11.922 8.02893L11.9162 8.03317L11.757 8.14949L11.7512 8.15376L11.7455 8.15805L11.5876 8.27641L11.5818 8.28074L11.5761 8.28513L11.4196 8.40548L11.4139 8.40988L11.4083 8.41436L11.2531 8.5367L11.2475 8.5412L11.2419 8.54573L11.0881 8.67018L11.0825 8.67468L11.0769 8.67932L10.9246 8.8057L10.919 8.81034L10.9135 8.815L10.7626 8.94339L10.7571 8.94808L10.7516 8.95284L10.6022 9.08319L10.5967 9.08795L10.5914 9.09281L10.4433 9.22516L10.438 9.23001L10.4326 9.23491L10.2861 9.3692L10.2808 9.37413L10.2754 9.37905L10.1305 9.51534L10.1252 9.52031L10.1199 9.52534L9.97649 9.6636L9.9712 9.66864L9.96604 9.6737L9.82413 9.81386L9.81897 9.81902L9.81388 9.82417L9.67373 9.96609L9.66857 9.97124L9.66355 9.97647L9.5253 10.1199L9.52026 10.1252L9.51534 10.1305L9.37905 10.2755L9.37405 10.2808L9.36916 10.2861L9.23486 10.4326L9.22994 10.438L9.22511 10.4433L9.09276 10.5914L9.08795 10.5967L9.08319 10.6022L8.95281 10.7517L8.94806 10.7571L8.94334 10.7626L8.81498 10.9136L8.81029 10.9191L8.80565 10.9246L8.67925 11.077L8.67463 11.0825L8.67011 11.0882L8.54573 11.2419L8.54116 11.2475L8.5367 11.2532L8.41431 11.4083L8.40986 11.414L8.40548 11.4197L8.28508 11.5762L8.2807 11.5819L8.27638 11.5877L8.15802 11.7455L8.15371 11.7513L8.14945 11.7571L8.03312 11.9163L8.02891 11.9221L8.02469 11.9279L7.91045 12.0884L7.90628 12.0942L7.9022 12.1001L7.78996 12.2619L7.78588 12.2678L7.78185 12.2738L7.67172 12.4368L7.66769 12.4427L7.6637 12.4487L7.57192 12.5883L7.46938 12.7811L7.40444 12.9897L7.37931 13.2067L7.39487 13.4245L7.45059 13.6357L7.54457 13.8329L7.67348 14.0092L7.8329 14.1586L8.01723 14.2758L8.22013 14.3567L8.43454 14.3985L8.65293 14.3999L8.86785 14.3606L9.07171 14.2822L9.2575 14.1673L9.41868 14.0199L9.52982 13.8766L9.61764 13.7432L9.71929 13.5927L9.8245 13.4411L9.92814 13.2955L10.0372 13.1462L10.1462 13.0008L10.259 12.8542L10.3713 12.7117L10.4878 12.5678L10.6042 12.4275L10.724 12.2866L10.8443 12.1488L10.9675 12.0109L11.093 11.8741L11.2184 11.7407L11.3456 11.6086L11.4745 11.4781L11.6069 11.3474L11.7407 11.2184L11.874 11.093L12.0107 10.9678L12.149 10.8441L12.2863 10.7243L12.4274 10.6043L12.5678 10.4878L12.7112 10.3717L12.8546 10.2586L12.999 10.1476L13.1463 10.0371L13.2931 9.92983L13.441 9.8245L13.5903 9.72095L13.7431 9.61764L13.8946 9.51798L14.0474 9.42011L14.2012 9.32416L14.3571 9.22959L14.5131 9.13752L14.6729 9.04579L14.8308 8.95774L14.9927 8.8701L15.0665 8.83124L15.2495 8.71199L15.4072 8.56089L15.5341 8.38309L15.6259 8.18484L15.6792 7.97303L15.6922 7.75499L15.6646 7.53829L15.5974 7.33052L15.4926 7.1388L15.3541 6.96988L15.1867 6.82959L14.9961 6.72283L14.7891 6.65324L14.5727 6.62336L14.3545 6.63407ZM33.2006 9.50146L32.9882 9.55232L32.7888 9.64171L32.6096 9.76659L32.4566 9.92252L32.3353 10.1042L32.2498 10.3051L32.203 10.5185L32.1966 10.7368L32.2309 10.9526L32.3047 11.1582L32.4153 11.3465L32.5324 11.485L32.6544 11.6086L32.7817 11.7407L32.9071 11.8741L33.0325 12.0109L33.1557 12.1488L33.276 12.2866L33.3958 12.4275L33.5123 12.5678L33.6287 12.7117L33.741 12.8542L33.8538 13.0008L33.9628 13.1462L34.0719 13.2955L34.1755 13.4411L34.2807 13.5927L34.3824 13.7431L34.4837 13.8972L34.5815 14.0498L34.6774 14.2038L34.7714 14.3586L34.8649 14.5172L34.955 14.6743L35.0438 14.8336L35.1299 14.9927L35.2134 15.1513L35.297 15.3152L35.3765 15.4758L35.4562 15.6417L35.5324 15.8055L35.606 15.9688L35.6794 16.1374L35.7495 16.3037L35.8184 16.4728L35.8839 16.6395L35.949 16.8114L36.0116 16.9829L36.071 17.152L36.1295 17.3252L36.1862 17.5001L36.2394 17.6712L36.2915 17.8466L36.3209 17.95L36.3999 18.1536L36.5154 18.3391L36.6632 18.4999L36.8383 18.6304L37.0346 18.7263L37.2453 18.7839L37.463 18.8015L37.6802 18.7784L37.8893 18.7154L38.0832 18.6146L38.2549 18.4797L38.3987 18.3152L38.5093 18.1269L38.5832 17.9213L38.6176 17.7056L38.6113 17.4873L38.5754 17.3095L38.5438 17.1984L38.5419 17.1915L38.5399 17.1847L38.484 16.9968L38.482 16.9899L38.4798 16.9831L38.4217 16.7959L38.4196 16.7891L38.4174 16.7823L38.3569 16.5959L38.3547 16.5891L38.3524 16.5823L38.2898 16.3967L38.2875 16.3899L38.2851 16.3832L38.2202 16.1984L38.2178 16.1917L38.2154 16.1849L38.1482 16.001L38.1457 15.9943L38.1432 15.9876L38.0738 15.8045L38.0713 15.7978L38.0687 15.7912L37.9971 15.6089L37.9945 15.6023L37.9918 15.5957L37.918 15.4143L37.9153 15.4077L37.9124 15.4011L37.8364 15.2207L37.8337 15.2141L37.8308 15.2076L37.7526 15.0281L37.7497 15.0215L37.7468 15.015L37.6664 14.8365L37.6634 14.83L37.6605 14.8235L37.5778 14.6459L37.5748 14.6395L37.5718 14.633L37.487 14.4564L37.4839 14.45L37.4807 14.4436L37.3938 14.268L37.3906 14.2616L37.3874 14.2552L37.2983 14.0807L37.295 14.0743L37.2917 14.068L37.2005 13.8946L37.1972 13.8882L37.1937 13.8819L37.1004 13.7095L37.097 13.7033L37.0935 13.697L36.998 13.5258L36.9945 13.5195L36.9909 13.5133L36.8933 13.3431L36.8898 13.3369L36.8862 13.3307L36.7864 13.1617L36.7828 13.1555L36.779 13.1494L36.6772 12.9816L36.6735 12.9754L36.6697 12.9693L36.5658 12.8027L36.562 12.7966L36.5581 12.7905L36.4521 12.6251L36.4483 12.619L36.4443 12.613L36.3363 12.4487L36.3323 12.4427L36.3282 12.4368L36.2181 12.2738L36.2141 12.2678L36.21 12.2619L36.0978 12.1001L36.0937 12.0942L36.0895 12.0884L35.9753 11.9279L35.971 11.9221L35.9668 11.9163L35.8505 11.7571L35.8463 11.7513L35.842 11.7455L35.7236 11.5877L35.7193 11.5819L35.7149 11.5762L35.5945 11.4197L35.5901 11.4139L35.5856 11.4083L35.4632 11.2532L35.4588 11.2475L35.4542 11.2419L35.3298 11.0882L35.3253 11.0825L35.3207 11.077L35.1943 10.9246L35.1897 10.9191L35.185 10.9136L35.0566 10.7626L35.0519 10.7571L35.0471 10.7517L34.9168 10.6022L34.912 10.5967L34.9072 10.5914L34.7749 10.4433L34.77 10.438L34.7651 10.4326L34.6308 10.2861L34.6259 10.2808L34.6209 10.2755L34.4846 10.1305L34.4797 10.1252L34.4747 10.1199L34.3364 9.97649L34.3314 9.97127L34.3263 9.96609L34.1998 9.83812L34.0326 9.69766L33.8421 9.59071L33.6351 9.52101L33.4187 9.49089L33.2006 9.50146ZM6.13136 17.7024L5.91721 17.7454L5.71473 17.8274L5.53098 17.9455L5.37238 18.0956L5.24439 18.2727L5.15146 18.4703L5.1033 18.6452L5.06875 18.8238L5.06737 18.8309L5.06608 18.8379L5.03106 19.0316L5.02977 19.0387L5.0286 19.0458L4.99591 19.2401L4.99473 19.2472L4.99361 19.2543L4.9633 19.4491L4.96223 19.4562L4.96117 19.4634L4.93323 19.6586L4.93223 19.6658L4.93131 19.6729L4.90577 19.8687L4.90483 19.8758L4.90398 19.883L4.88083 20.0792L4.87996 20.0864L4.87923 20.0936L4.85849 20.2903L4.85772 20.2975L4.85702 20.3046L4.83871 20.5017L4.83801 20.5089L4.83742 20.5161L4.82148 20.7137L4.82095 20.7208L4.82045 20.7281L4.80695 20.926L4.80644 20.9332L4.80602 20.9404L4.795 21.1386L4.79458 21.1459L4.79425 21.1531L4.78565 21.3517L4.78534 21.3589L4.78511 21.3662L4.77892 21.5651L4.77869 21.5723L4.77855 21.5796L4.77484 21.7788L4.77475 21.786L4.7747 21.7933L4.77341 21.9928V22.0073L4.7747 22.2068L4.77475 22.2141L4.77484 22.2213L4.77855 22.4205L4.77869 22.4277L4.77892 22.435L4.78511 22.6339L4.78534 22.6411L4.78565 22.6484L4.79425 22.847L4.79458 22.8542L4.795 22.8614L4.80602 23.0597L4.80644 23.0669L4.80695 23.0741L4.82045 23.272L4.82095 23.2792L4.82151 23.2865L4.83745 23.4839L4.83803 23.4911L4.83871 23.4984L4.85702 23.6954L4.85772 23.7026L4.85849 23.7098L4.87923 23.9065L4.87994 23.9137L4.88083 23.9208L4.90398 24.1171L4.90481 24.1243L4.90577 24.1314L4.93131 24.3272L4.93225 24.3343L4.93323 24.3415L4.96117 24.5368L4.96223 24.5439L4.9633 24.551L4.99361 24.7458L4.99471 24.7529L4.99591 24.76L5.0286 24.9542L5.02977 24.9613L5.03106 24.9684L5.06608 25.1621L5.06737 25.1692L5.06875 25.1763L5.10613 25.3694L5.10747 25.3765L5.10892 25.3835L5.14867 25.5761L5.15012 25.5831L5.15165 25.5902L5.19372 25.7821L5.19522 25.7891L5.19686 25.7961L5.24123 25.9874L5.24287 25.9945L5.24458 26.0014L5.29127 26.1921L5.29295 26.1991L5.29473 26.206L5.34377 26.3961L5.34555 26.403L5.34742 26.4099L5.3987 26.5992L5.40058 26.6061L5.40255 26.613L5.45615 26.8017L5.45812 26.8085L5.46013 26.8154L5.51603 27.0033L5.51805 27.0102L5.52018 27.017L5.5783 27.2041L5.58041 27.211L5.58262 27.2178L5.60652 27.2915L5.69294 27.4921L5.81507 27.6732L5.96875 27.8284L6.14852 27.9525L6.3482 28.041L6.56083 28.091L6.77908 28.1006L6.99529 28.0695L7.20196 27.9989L7.39199 27.8912L7.55863 27.75L7.69626 27.5803L7.79999 27.3881L7.86623 27.18L7.89271 26.9631L7.87848 26.7452L7.83611 26.5688L7.81377 26.4999L7.76066 26.3289L7.70852 26.1535L7.65923 25.98L7.61134 25.8034L7.56677 25.6306L7.52216 25.4485L7.48166 25.2736L7.44238 25.0945L7.40627 24.9193L7.37139 24.7392L7.33865 24.5581L7.3083 24.3777L7.28062 24.1999L7.25411 24.0144L7.23081 23.8357L7.2093 23.6535L7.18996 23.4704L7.17323 23.2907L7.15811 23.1033L7.14585 22.9233L7.13554 22.7391L7.12741 22.5512L7.1218 22.3702L7.11838 22.1852L7.11723 22.0001L7.11838 21.8149L7.1218 21.6299L7.12741 21.4489L7.13554 21.2608L7.14585 21.0766L7.15816 20.8965L7.17327 20.7091L7.18996 20.5297L7.20925 20.347L7.23086 20.164L7.25411 19.9858L7.28059 19.8002L7.30816 19.623L7.33874 19.4414L7.3713 19.2614L7.40434 19.0905L7.42567 18.8732L7.40631 18.6556L7.3469 18.4454L7.24949 18.2499L7.11752 18.0758L6.95552 17.9293L6.76914 17.8154L6.56486 17.7381L6.34975 17.6999L6.13136 17.7024ZM37.6845 23.3964L37.4721 23.4472L37.2728 23.5366L37.0935 23.6614L36.9405 23.8173L36.8191 23.9989L36.7336 24.1999L36.6931 24.3713L36.6928 24.3713L36.692 24.3763V24.377L36.6615 24.5581L36.6287 24.7392L36.5939 24.9193L36.5578 25.0945L36.5185 25.2736L36.478 25.4485L36.4334 25.6306L36.3888 25.8034L36.3409 25.98L36.2916 26.1535L36.2395 26.329L36.1864 26.5L36.13 26.6738L36.0716 26.847L36.0118 27.0171L35.9492 27.1887L35.8845 27.3593L35.818 27.5285L35.7492 27.6976L35.6796 27.8627L35.6067 28.03L35.5325 28.1946L35.457 28.357L35.3773 28.5229L35.2971 28.6848L35.2135 28.8487L35.1292 29.0089L35.0439 29.1664L34.9543 29.3273L34.8642 29.4844L34.7715 29.6414L34.6776 29.7963L34.5817 29.9501L34.4838 30.1029L34.3836 30.2553L34.2808 30.4074L34.1756 30.559L34.072 30.7047L33.963 30.8538L33.854 30.9992L33.7398 31.1476L33.6798 31.2237L33.5611 31.407L33.4785 31.6092L33.4348 31.8232L33.4316 32.0417L33.469 32.2568L33.5457 32.4614L33.659 32.6481L33.805 32.8106L33.9786 32.9432L34.1738 33.0412L34.3838 33.1013L34.6013 33.1214L34.8188 33.1007L35.0286 33.0401L35.2236 32.9416L35.3969 32.8086L35.5199 32.6753L35.5858 32.5918L35.5903 32.5861L35.5947 32.5804L35.7151 32.4239L35.7194 32.4182L35.7238 32.4124L35.8421 32.2546L35.8464 32.2488L35.8507 32.243L35.967 32.0838L35.9712 32.078L35.9754 32.0722L36.0897 31.9117L36.0939 31.9058L36.0979 31.8999L36.2102 31.7381L36.2142 31.7323L36.2183 31.7263L36.3284 31.5633L36.3324 31.5573L36.3364 31.5513L36.4445 31.3871L36.4484 31.3811L36.4523 31.375L36.5583 31.2096L36.5622 31.2035L36.566 31.1974L36.6699 31.0308L36.6737 31.0247L36.6774 31.0185L36.7792 30.8507L36.7829 30.8446L36.7866 30.8384L36.8863 30.6694L36.8899 30.6632L36.8935 30.657L36.9911 30.4868L36.9947 30.4806L36.9982 30.4744L37.0937 30.3031L37.0971 30.2968L37.1006 30.2905L37.1939 30.1181L37.1973 30.1119L37.2006 30.1055L37.2919 29.932L37.2952 29.9257L37.2985 29.9194L37.3875 29.7448L37.3908 29.7385L37.3939 29.7321L37.4809 29.5565L37.4841 29.5501L37.4871 29.5437L37.5719 29.3671L37.575 29.3607L37.578 29.3542L37.6606 29.1766L37.6636 29.1701L37.6665 29.1636L37.747 28.9851L37.7499 28.9786L37.7528 28.972L37.831 28.7925L37.8339 28.786L37.8366 28.7794L37.9126 28.5989L37.9154 28.5924L37.9181 28.5858L37.9919 28.4044L37.9946 28.3978L37.9972 28.3911L38.0689 28.2089L38.0715 28.2022L38.074 28.1956L38.1434 28.0125L38.1459 28.0058L38.1484 27.9991L38.2155 27.8151L38.218 27.8084L38.2203 27.8016L38.2853 27.6169L38.2876 27.6101L38.2899 27.6033L38.3526 27.4177L38.3549 27.411L38.3571 27.4042L38.4175 27.2178L38.4197 27.211L38.4218 27.2041L38.48 27.017L38.4821 27.0102L38.4842 27.0033L38.54 26.8154L38.542 26.8085L38.544 26.8017L38.5976 26.613L38.5996 26.6061L38.6015 26.5992L38.6527 26.4099L38.6546 26.403L38.6564 26.3961L38.7054 26.206L38.7072 26.1991L38.7089 26.1921L38.7556 26.0014L38.7573 25.9945L38.7589 25.9874L38.8033 25.7961L38.8049 25.7891L38.8064 25.7821L38.8485 25.5902L38.85 25.5831L38.8515 25.5761L38.8912 25.3835L38.8927 25.3765L38.894 25.3694L38.9314 25.1763L38.9328 25.1692L38.9341 25.1622L38.9691 24.9684L38.9704 24.9613L38.9715 24.9542L39.0042 24.76L39.0054 24.7529L39.0065 24.7458L39.008 24.7367L39.0213 24.5187L38.9939 24.302L38.9268 24.0941L38.8223 23.9023L38.684 23.7332L38.5167 23.5927L38.3262 23.4858L38.1193 23.416L37.9029 23.3858L37.6845 23.3964ZM9.37328 31.1247L9.16696 31.1966L8.97763 31.3054L8.81174 31.4476L8.67515 31.618L8.57249 31.8108L8.5075 32.0193L8.48228 32.2363L8.4978 32.4542L8.55346 32.6654L8.64735 32.8626L8.752 33.0108L8.80565 33.0755L8.81027 33.081L8.81498 33.0865L8.94334 33.2374L8.94806 33.243L8.95281 33.2484L9.08319 33.3979L9.08795 33.4033L9.09276 33.4087L9.22511 33.5567L9.22996 33.5621L9.23486 33.5675L9.36916 33.714L9.37405 33.7193L9.37905 33.7246L9.51531 33.8696L9.52026 33.8749L9.5253 33.8801L9.66355 34.0236L9.66857 34.0288L9.67373 34.034L9.81388 34.1759L9.81894 34.181L9.82413 34.1862L9.96604 34.3263L9.9712 34.3315L9.97647 34.3365L10.1199 34.4747L10.1252 34.4797L10.1305 34.4847L10.2754 34.621L10.2808 34.6259L10.2861 34.6309L10.4326 34.7652L10.438 34.7701L10.4433 34.7749L10.5913 34.9073L10.5967 34.9121L10.6022 34.9169L10.7516 35.0472L10.7571 35.052L10.7626 35.0567L10.9135 35.1851L10.919 35.1897L10.9246 35.1944L11.0769 35.3208L11.0825 35.3254L11.0881 35.3299L11.2419 35.4543L11.2475 35.4588L11.2531 35.4633L11.4083 35.5857L11.4139 35.5902L11.4196 35.5946L11.5761 35.715L11.5818 35.7194L11.5876 35.7237L11.7455 35.842L11.7512 35.8464L11.757 35.8506L11.9162 35.9669L11.922 35.9711L11.9279 35.9753L12.0884 36.0896L12.0942 36.0938L12.1001 36.0978L12.2618 36.21L12.2678 36.2142L12.2737 36.2182L12.4368 36.3284L12.4427 36.3324L12.4487 36.3363L12.613 36.4444L12.619 36.4484L12.625 36.4522L12.7905 36.5582L12.7965 36.5621L12.8026 36.5659L12.9693 36.6698L12.9754 36.6736L12.9815 36.6773L13.1494 36.7791L13.1555 36.7829L13.1617 36.7865L13.3307 36.8862L13.3369 36.8899L13.3431 36.8934L13.5132 36.991L13.5194 36.9946L13.5257 36.9981L13.697 37.0936L13.7032 37.0971L13.7095 37.1004L13.8819 37.1938L13.8882 37.1972L13.8945 37.2006L14.068 37.2918L14.0743 37.2951L14.0807 37.2984L14.2552 37.3874L14.2615 37.3907L14.268 37.3939L14.4435 37.4808L14.4499 37.484L14.4564 37.4871L14.6329 37.5718L14.6394 37.5749L14.6459 37.5779L14.8235 37.6605L14.8299 37.6635L14.8364 37.6665L15.015 37.7469L15.0215 37.7498L15.028 37.7527L15.2075 37.8309L15.2141 37.8337L15.2207 37.8365L15.4011 37.9126L15.4077 37.9153L15.4143 37.918L15.5956 37.9918L15.6022 37.9945L15.6089 37.9971L15.7835 38.0658L15.9934 38.1264L16.2109 38.1469L16.4283 38.1268L16.6383 38.0667L16.8335 37.9686L17.0071 37.836L17.1531 37.6736L17.2664 37.4868L17.343 37.2822L17.3804 37.067L17.3771 36.8486L17.3334 36.6346L17.2507 36.4324L17.132 36.2491L16.9813 36.091L16.8039 35.9636L16.6407 35.8844L16.4727 35.8184L16.3024 35.749L16.1373 35.6795L15.9718 35.6073L15.8084 35.5338L15.6386 35.4548L15.4772 35.3773L15.3152 35.2971L15.1527 35.2141L14.9926 35.1299L14.8336 35.0438L14.6728 34.9542L14.5157 34.8641L14.3597 34.772L14.2037 34.6775L14.05 34.5816L13.8946 34.4821L13.743 34.3824L13.5927 34.2808L13.4434 34.1773L13.2931 34.0702L13.144 33.9613L12.9968 33.8509L12.8525 33.7398L12.7113 33.6283L12.5678 33.5123L12.4253 33.3941L12.2884 33.2776L12.147 33.1542L12.0107 33.0323L11.876 32.9088L11.7406 32.7816L11.6087 32.6545L11.4744 32.5219L11.3474 32.3933L11.2166 32.2576L11.0914 32.1243L10.9659 31.9874L10.8459 31.8532L10.724 31.7134L10.6042 31.5726L10.5557 31.5142L10.4012 31.3598L10.2207 31.2368L10.0205 31.1494L9.80755 31.1007L9.5893 31.0924L9.37328 31.1247ZM29.7826 34.7711L29.5722 34.8298L29.4084 34.9077L29.3274 34.9541L29.1664 35.0438L29.0074 35.1299L28.8473 35.2141L28.6848 35.2971L28.5228 35.3773L28.3614 35.4548L28.1916 35.5338L28.0282 35.6073L27.8627 35.6795L27.6976 35.749L27.5273 35.8184L27.3573 35.8852L27.1898 35.9487L27.0171 36.0117L26.8481 36.0711L26.6738 36.1299L26.5033 36.1852L26.3255 36.2404L26.1525 36.2918L25.9809 36.3406L25.8043 36.3884L25.6271 36.4341L25.4527 36.4768L25.2734 36.5184L25.0981 36.5569L24.9151 36.5946L24.7351 36.6294L24.5587 36.6613L24.3812 36.6912L24.1962 36.7199L24.0179 36.7454L23.8355 36.7693L23.6566 36.7904L23.4704 36.8101L23.287 36.8271L23.1073 36.8416L22.9197 36.8544L22.7357 36.8646L22.5547 36.8725L22.3701 36.8782L22.1796 36.8818L21.9625 36.9062L21.7538 36.9704L21.5606 37.0723L21.3896 37.2083L21.2469 37.3736L21.1373 37.5626L21.0647 37.7686L21.0316 37.9845L21.0391 38.2028L21.087 38.4159L21.1736 38.6165L21.296 38.7974L21.4498 38.9525L21.6297 39.0764L21.8295 39.1647L22.0422 39.2144L22.2232 39.2251L22.4205 39.2215L22.4277 39.2213L22.435 39.2211L22.6339 39.2149L22.6411 39.2147L22.6484 39.2144L22.8469 39.2058L22.8542 39.2054L22.8614 39.205L23.0596 39.194L23.0669 39.1935L23.0741 39.1931L23.272 39.1796L23.2792 39.1791L23.2864 39.1785L23.4839 39.1626L23.4911 39.162L23.4983 39.1613L23.6954 39.143L23.7026 39.1423L23.7098 39.1416L23.9064 39.1208L23.9136 39.12L23.9208 39.1192L24.117 39.096L24.1242 39.0952L24.1314 39.0943L24.3271 39.0687L24.3343 39.0678L24.3414 39.0667L24.5367 39.0388L24.5438 39.0378L24.5509 39.0367L24.7458 39.0064L24.7528 39.0053L24.76 39.0041L24.9542 38.9714L24.9613 38.9702L24.9684 38.969L25.1621 38.9339L25.1692 38.9327L25.1762 38.9313L25.3694 38.8939L25.3765 38.8925L25.3835 38.8911L25.576 38.8514L25.5831 38.8499L25.5901 38.8484L25.7821 38.8063L25.7891 38.8048L25.7961 38.8032L25.9874 38.7587L25.9944 38.7572L26.0014 38.7555L26.1921 38.7088L26.199 38.7071L26.2059 38.7052L26.396 38.6563L26.4029 38.6545L26.4098 38.6526L26.5992 38.6013L26.6061 38.5994L26.613 38.5975L26.8016 38.5439L26.8085 38.5419L26.8153 38.5399L27.0033 38.484L27.0101 38.482L27.0169 38.4798L27.2041 38.4217L27.211 38.4196L27.2177 38.4174L27.4041 38.357L27.4109 38.3547L27.4177 38.3524L27.6033 38.2898L27.6101 38.2875L27.6168 38.2851L27.8016 38.2202L27.8084 38.2179L27.8151 38.2154L27.999 38.1482L28.0058 38.1458L28.0124 38.1432L28.1956 38.0739L28.2022 38.0713L28.2089 38.0687L28.3911 37.9971L28.3978 37.9945L28.4044 37.9918L28.5857 37.918L28.5923 37.9153L28.5989 37.9125L28.7793 37.8365L28.7859 37.8337L28.7925 37.8309L28.972 37.7526L28.9785 37.7498L28.985 37.7469L29.1636 37.6664L29.1701 37.6635L29.1765 37.6605L29.3541 37.5779L29.3606 37.5749L29.3671 37.5718L29.5436 37.487L29.5501 37.4839L29.5565 37.4808L29.732 37.3938L29.7385 37.3907L29.7448 37.3874L29.9193 37.2984L29.9257 37.2951L29.932 37.2917L30.1055 37.2005L30.1118 37.1972L30.1181 37.1938L30.2905 37.1004L30.2968 37.097L30.303 37.0935L30.4743 36.9981L30.4806 36.9946L30.4868 36.991L30.5746 36.9406L30.7531 36.8148L30.9051 36.658L31.0255 36.4756L31.1099 36.2742L31.1554 36.0605L31.1605 35.8422L31.125 35.6267L31.0501 35.4214L30.9384 35.2337L30.7938 35.07L30.6213 34.9359L30.427 34.8362L30.2175 34.7742L30.0002 34.7523L29.7826 34.7711ZM21.9927 0.32036L21.7379 0.321977L21.7307 0.322024L21.7234 0.322164L21.469 0.326852L21.4617 0.327016L21.4544 0.32725L21.2004 0.335125L21.1932 0.33536L21.1859 0.335664L20.9323 0.34668L20.925 0.346984L20.9178 0.347406L20.6646 0.361539L20.6573 0.361961L20.6501 0.36243L20.3973 0.379656L20.3901 0.380172L20.3829 0.380711L20.1306 0.401102L20.1235 0.401688L20.1162 0.40232L19.8644 0.425758L19.8573 0.426461L19.8501 0.427164L19.5988 0.453695L19.5917 0.454469L19.5845 0.455289L19.3338 0.484867L19.3266 0.485735L19.3195 0.486648L19.0694 0.519274L19.0623 0.520235L19.0552 0.521242L18.8057 0.556914L18.7986 0.557922L18.7915 0.55907L18.5426 0.597742L18.5355 0.598891L18.5284 0.600063L18.2803 0.641781L18.2732 0.642953L18.2661 0.644266L18.0187 0.689031L18.0116 0.690297L18.0045 0.69168L17.7578 0.739422L17.7507 0.740805L17.7437 0.742211L17.4977 0.792977L17.4907 0.794383L17.4836 0.795953L17.2384 0.849649L17.2314 0.851219L17.2245 0.852813L16.98 0.909531L16.9731 0.911125L16.9661 0.912836L16.7225 0.972531L16.7155 0.974219L16.7086 0.976L16.4781 1.03541L16.2726 1.10943L16.0844 1.22029L15.92 1.3642L15.7852 1.53606L15.6846 1.72998L15.6218 1.93919L15.5989 2.15638L15.6167 2.37412L15.6746 2.58473L15.7706 2.78097L15.9013 2.95598L16.0622 3.10363L16.2478 3.2189L16.4515 3.29774L16.6663 3.33742L16.8847 3.33648L17.0633 3.30491L17.2875 3.24714L17.5156 3.19129L17.747 3.13757L17.9791 3.08676L18.2121 3.03871L18.4415 2.99432L18.6765 2.9518L18.9072 2.91302L19.1462 2.87582L19.3786 2.84259L19.6152 2.81172L19.8519 2.7838L20.0895 2.75873L20.3275 2.73655L20.5656 2.71738L20.8045 2.70112L21.0435 2.6878L21.2832 2.67742L21.5192 2.67009L21.7595 2.66563L22 2.66413L22.2405 2.66566L22.4807 2.67011L22.7168 2.67742L22.9565 2.6878L23.1955 2.70112L23.4344 2.71738L23.6725 2.73655L23.9105 2.7587L24.1481 2.78378L24.3848 2.81172L24.6214 2.84259L24.8538 2.87582L25.0928 2.91302L25.3235 2.9518L25.5585 2.99432L25.7879 3.03873L26.0209 3.08676L26.2293 3.13239L26.4461 3.15906L26.6641 3.145L26.8756 3.09077L27.0735 2.99819L27.2507 2.8705L27.4011 2.71216L27.5196 2.52859L27.6019 2.32633L27.6453 2.1122L27.6482 1.89377L27.6104 1.67861L27.5335 1.47423L27.4199 1.28765L27.2736 1.12541L27.0998 0.993063L26.9045 0.895328L26.7309 0.842922L26.5163 0.795953L26.5093 0.794406L26.5023 0.793L26.2563 0.742211L26.2493 0.740805L26.2422 0.739422L25.9954 0.69168L25.9884 0.69032L25.9814 0.689031L25.7339 0.644266L25.7268 0.642977L25.7197 0.641805L25.4716 0.600086L25.4645 0.598914L25.4574 0.597742L25.2085 0.55907L25.2014 0.557922L25.1943 0.556914L24.9448 0.521266L24.9377 0.520258L24.9306 0.519297L24.6805 0.486648L24.6733 0.485711L24.6662 0.484867L24.4155 0.455289L24.4083 0.454469L24.4011 0.453695L24.1499 0.427188L24.1427 0.426461L24.1356 0.425758L23.8838 0.40232L23.8765 0.401688L23.8694 0.401102L23.6171 0.380711L23.6099 0.380172L23.6027 0.37968L23.3499 0.362406L23.3427 0.361938L23.3354 0.361539L23.0823 0.347406L23.075 0.346984L23.0677 0.346656L22.8141 0.335688L22.8069 0.33536L22.7996 0.335125L22.5456 0.32725L22.5383 0.327016L22.531 0.326875L22.2766 0.322164L22.2693 0.322024L22.2621 0.321977L22.0073 0.32036L22 0.320312L21.9927 0.32036ZM33.9976 4.30251L33.7839 4.34781L33.5823 4.432L33.3999 4.55212L33.2429 4.70399L33.1169 4.8824L33.0261 5.0811L32.9738 5.29314L32.9617 5.51127L32.9904 5.72779L33.0587 5.93531L33.1644 6.12646L33.3036 6.29474L33.4413 6.41275L33.5031 6.45787L33.6948 6.60154L33.88 6.74404L34.0701 6.89404L34.2544 7.04313L34.437 7.1946L34.6197 7.34999L34.8009 7.50812L34.9761 7.66485L35.1554 7.8292L35.3291 7.99244L35.5009 8.15791L35.6726 8.32748L35.8404 8.4974L36.0077 8.67098L36.1725 8.84641L36.3317 9.02008L36.492 9.19923L36.65 9.38033L36.8036 9.56087L36.9569 9.74568L37.1061 9.93002L37.2528 10.116L37.4003 10.3077L37.5423 10.4971L37.6817 10.6879L37.8188 10.8804L37.9535 11.0745L38.0873 11.2725L38.2171 11.4697L38.3443 11.6683L38.4706 11.8709L38.5943 12.0749L38.7131 12.2762L38.8303 12.4806L38.9449 12.6861L39.0585 12.8958L39.1672 13.1025L39.2741 13.312L39.3287 13.4222L39.4435 13.6081L39.5907 13.7694L39.7653 13.9006L39.9613 13.9971L40.1717 14.0556L40.3894 14.074L40.6067 14.0517L40.8161 13.9895L41.0103 13.8895L41.1825 13.7551L41.3268 13.5912L41.4382 13.4032L41.5128 13.1979L41.548 12.9824L41.5426 12.764L41.4967 12.5504L41.4291 12.3822L41.3724 12.2676L41.3692 12.2612L41.3659 12.2548L41.2522 12.0319L41.2489 12.0255L41.2456 12.0192L41.129 11.7977L41.1257 11.7913L41.1223 11.785L41.0031 11.5648L40.9996 11.5585L40.9961 11.5523L40.8742 11.3335L40.8707 11.3272L40.8671 11.321L40.7425 11.1036L40.7389 11.0975L40.7352 11.0913L40.6079 10.8753L40.6042 10.8692L40.6005 10.8631L40.4704 10.6487L40.4667 10.6425L40.4629 10.6364L40.3302 10.4235L40.3264 10.4174L40.3225 10.4114L40.1871 10.2L40.1832 10.194L40.1792 10.188L40.0412 9.97813L40.0373 9.97213L40.0332 9.96618L39.8926 9.75794L39.8885 9.75199L39.8844 9.74608L39.7411 9.53945L39.737 9.53355L39.7328 9.52769L39.5869 9.32275L39.5826 9.31684L39.5784 9.31108L39.4298 9.10773L39.4256 9.10192L39.4213 9.09616L39.2701 8.89455L39.2658 8.88878L39.2614 8.88306L39.1076 8.68314L39.1032 8.67744L39.0988 8.67175L38.9425 8.47359L38.938 8.46796L38.9335 8.46234L38.7745 8.26595L38.77 8.26033L38.7654 8.25477L38.6039 8.06019L38.5993 8.05459L38.5946 8.04911L38.4306 7.85634L38.4259 7.85081L38.4212 7.84537L38.2546 7.65442L38.2499 7.64898L38.2451 7.64359L38.076 7.45452L38.0712 7.44913L38.0663 7.44381L37.8947 7.25666L37.8898 7.25132L37.8848 7.246L37.7107 7.0608L37.7058 7.05552L37.7007 7.05027L37.5242 6.86702L37.5191 6.86181L37.514 6.85666L37.335 6.67537L37.3299 6.67019L37.3247 6.66505L37.1434 6.48604L37.1383 6.48088L37.133 6.47587L36.9497 6.29931L36.9445 6.29427L36.9392 6.28928L36.754 6.11523L36.7487 6.11024L36.7434 6.10534L36.5562 5.93378L36.5509 5.92888L36.5455 5.92403L36.3564 5.75498L36.3511 5.75017L36.3456 5.74541L36.1547 5.57889L36.1492 5.57411L36.1437 5.56942L35.9509 5.40543L35.9455 5.40072L35.9399 5.3961L35.7453 5.23464L35.7397 5.23007L35.7341 5.22548L35.5377 5.06659L35.5321 5.06207L35.5264 5.05757L35.3283 4.90124L35.3226 4.89677L35.3169 4.89238L35.117 4.73861L35.1113 4.7342L35.1055 4.72991L34.9039 4.57874L34.8981 4.57441L34.8923 4.57019L34.8242 4.52038L34.6366 4.40852L34.4314 4.3334L34.216 4.29766L33.9976 4.30251ZM9.09102 4.77395L8.87847 4.82434L8.67902 4.91338L8.52838 5.01438L8.47359 5.05757L8.46791 5.06207L8.46229 5.06659L8.26588 5.2255L8.26026 5.23007L8.25473 5.23464L8.06012 5.3961L8.05455 5.40072L8.04906 5.40543L7.85629 5.5694L7.8508 5.57411L7.8453 5.57889L7.65442 5.74541L7.64894 5.75017L7.64357 5.75498L7.45452 5.92403L7.44913 5.92888L7.44374 5.9338L7.25662 6.10537L7.25127 6.11024L7.246 6.11523L7.06075 6.28928L7.05548 6.29427L7.05027 6.29931L6.86699 6.47587L6.86177 6.48091L6.85659 6.48604L6.6753 6.66505L6.67014 6.67019L6.66501 6.67534L6.48597 6.85663L6.48086 6.86179L6.47582 6.86702L6.29927 7.05027L6.29423 7.05552L6.28928 7.0608L6.11519 7.246L6.1102 7.25132L6.1053 7.25666L5.93373 7.44381L5.92881 7.44911L5.92403 7.4545L5.75493 7.64357L5.75012 7.64896L5.74537 7.65442L5.57882 7.84537L5.57406 7.85081L5.56938 7.85634L5.40538 8.04911L5.4007 8.05459L5.39608 8.06019L5.23464 8.25477L5.23 8.26033L5.22548 8.26595L5.06655 8.46234L5.06202 8.46796L5.05752 8.47359L4.9012 8.67175L4.89674 8.67744L4.89236 8.68316L4.73861 8.88309L4.7342 8.88878L4.72987 8.89455L4.5787 9.09616L4.57441 9.10192L4.57014 9.10773L4.42155 9.31108L4.41733 9.31684L4.41313 9.32275L4.26719 9.52769L4.26304 9.53355L4.25891 9.53945L4.11559 9.74608L4.11147 9.75199L4.10744 9.75794L3.96677 9.96618L3.96273 9.97213L3.9588 9.97813L3.82075 10.188L3.81677 10.194L3.81292 10.2L3.6775 10.4114L3.67361 10.4174L3.66981 10.4235L3.53706 10.6364L3.53331 10.6425L3.52956 10.6487L3.39948 10.8631L3.3958 10.8692L3.39212 10.8753L3.26479 11.0913L3.26113 11.0975L3.25755 11.1036L3.13286 11.321L3.12934 11.3272L3.12583 11.3335L3.00386 11.5523L3.00039 11.5585L2.99695 11.5648L2.8777 11.785L2.87427 11.7913L2.87099 11.7977L2.75441 12.0192L2.75109 12.0255L2.74783 12.0319L2.63409 12.2548L2.63083 12.2612L2.62762 12.2676L2.51662 12.4919L2.51341 12.4983L2.51036 12.5047L2.40203 12.7303L2.39898 12.7367L2.39594 12.7431L2.29045 12.97L2.28747 12.9765L2.28449 12.983L2.22355 13.1183L2.15277 13.325L2.1216 13.5412L2.13114 13.7594L2.18095 13.9721L2.26938 14.1718L2.39336 14.3517L2.54852 14.5054L2.72957 14.6276L2.93013 14.7141L3.14324 14.762L3.36156 14.7694L3.57742 14.7362L3.78344 14.6635L3.97234 14.5538L4.1376 14.411L4.27347 14.24L4.36054 14.0808L4.41852 13.952L4.51907 13.736L4.62079 13.5242L4.72593 13.3119L4.8328 13.1025L4.94153 12.8958L5.05511 12.6861L5.16967 12.4806L5.28691 12.2762L5.40566 12.0749L5.52941 11.8709L5.65574 11.6683L5.78294 11.4698L5.91266 11.2725L6.04652 11.0745L6.18123 10.8804L6.31825 10.6879L6.45773 10.497L6.59973 10.3077L6.74716 10.1159L6.89387 9.93002L7.04308 9.74568L7.19636 9.56087L7.35002 9.38033L7.50798 9.19923L7.66825 9.02008L7.82751 8.84641L7.99234 8.67098L8.15962 8.4974L8.32743 8.32748L8.49913 8.15793L8.67088 7.99246L8.84455 7.8292L9.02385 7.66485L9.19909 7.50812L9.38034 7.35002L9.56298 7.1946L9.74556 7.04313L9.93002 6.8939L9.98003 6.85438L10.1382 6.70375L10.2656 6.52633L10.3579 6.32833L10.4118 6.11666L10.4255 5.8987L10.3986 5.68192L10.3318 5.47391L10.2276 5.28194L10.0896 5.1126L9.92263 4.97184L9.73239 4.86449L9.52553 4.79437L9.30923 4.76378L9.09102 4.77395ZM42.307 19.8821L42.0951 19.9353L41.8968 20.0268L41.719 20.1536L41.5677 20.3112L41.4483 20.4941L41.365 20.696L41.3205 20.9099L41.3143 21.0912L41.3225 21.2795L41.3299 21.5194L41.3344 21.7596L41.3359 22L41.3344 22.2405L41.3299 22.4806L41.3225 22.7204L41.3121 22.9598L41.2987 23.1991L41.2824 23.4376L41.2632 23.6764L41.2414 23.9106L41.2163 24.1477L41.1883 24.3853L41.1575 24.6213L41.1237 24.8574L41.0877 25.0887L41.0481 25.3242L41.0058 25.5579L40.9612 25.7886L40.9132 26.0216L40.8625 26.253L40.8094 26.4818L40.7521 26.716L40.6936 26.9425L40.6327 27.1674L40.5676 27.3966L40.5 27.6238L40.4297 27.8504L40.3577 28.0726L40.2814 28.2982L40.2024 28.5231L40.1228 28.7411L40.0384 28.9639L39.9543 29.178L39.8637 29.4005L39.7725 29.6168L39.6773 29.8353L39.5814 30.0481L39.481 30.2642L39.3799 30.4745L39.2741 30.6881L39.1648 30.9022L39.0841 31.1052L39.0424 31.3196L39.0412 31.5381L39.0806 31.7529L39.1592 31.9567L39.2743 32.1424L39.4218 32.3035L39.5966 32.4344L39.7927 32.5306L40.0033 32.5888L40.221 32.6068L40.4382 32.5842L40.6475 32.5216L40.8415 32.4213L41.0136 32.2867L41.1576 32.1225L41.2523 31.9678L41.3659 31.7452L41.3692 31.7389L41.3724 31.7325L41.4834 31.5082L41.4866 31.5018L41.4896 31.4954L41.598 31.2698L41.601 31.2634L41.6041 31.2569L41.7096 31.0301L41.7125 31.0236L41.7155 31.0171L41.8182 30.789L41.8212 30.7825L41.824 30.776L41.9239 30.5467L41.9268 30.5401L41.9296 30.5335L42.0267 30.3031L42.0295 30.2965L42.0321 30.2899L42.1264 30.0583L42.1291 30.0516L42.1318 30.045L42.2232 29.8122L42.2258 29.8056L42.2283 29.7989L42.317 29.565L42.3195 29.5583L42.322 29.5516L42.4077 29.3166L42.4102 29.3099L42.4126 29.3031L42.4955 29.0671L42.4979 29.0603L42.5002 29.0536L42.5802 28.8165L42.5825 28.8097L42.5847 28.8029L42.6619 28.5648L42.6641 28.558L42.6663 28.5512L42.7405 28.3121L42.7427 28.3053L42.7447 28.2984L42.816 28.0584L42.8181 28.0516L42.82 28.0446L42.8885 27.8037L42.8905 27.7968L42.8923 27.7899L42.9578 27.5481L42.9597 27.5411L42.9615 27.5342L43.0241 27.2914L43.0259 27.2845L43.0276 27.2776L43.0872 27.034L43.0889 27.027L43.0906 27.02L43.1472 26.7756L43.1489 26.7686L43.1504 26.7616L43.2041 26.5164L43.2056 26.5093L43.2071 26.5023L43.2578 26.2563L43.2592 26.2493L43.2606 26.2423L43.3084 25.9955L43.3097 25.9885L43.311 25.9814L43.3558 25.7339L43.357 25.7268L43.3582 25.7197L43.4 25.4716L43.4012 25.4645L43.4023 25.4574L43.441 25.2086L43.4421 25.2015L43.4431 25.1943L43.4788 24.9449L43.4798 24.9377L43.4808 24.9306L43.5134 24.6805L43.5144 24.6734L43.5152 24.6662L43.5447 24.4155L43.5456 24.4083L43.5463 24.4012L43.5728 24.1499L43.5736 24.1427L43.5743 24.1356L43.5977 23.8838L43.5984 23.8766L43.5989 23.8694L43.6193 23.6171L43.6199 23.6099L43.6204 23.6027L43.6376 23.35L43.6381 23.3427L43.6385 23.3355L43.6527 23.0822L43.653 23.075L43.6534 23.0678L43.6644 22.8141L43.6647 22.8069L43.6649 22.7996L43.6728 22.5456L43.6731 22.5383L43.6733 22.5311L43.678 22.2766L43.6782 22.2694V22.2621L43.6798 22.0073L43.6792 22.0008L43.6798 21.9928L43.6782 21.738V21.7307L43.678 21.7234L43.6733 21.469L43.6731 21.4618L43.6728 21.4545L43.6649 21.2004L43.6647 21.1932L43.6644 21.186L43.6559 20.9895L43.6261 20.7731L43.5567 20.566L43.45 20.3754L43.3099 20.2079L43.141 20.0692L42.9494 19.9644L42.7417 19.8969L42.525 19.8692L42.307 19.8821ZM1.37284 20.6455L1.15863 20.6882L0.956008 20.7698L0.77207 20.8876L0.613188 21.0375L0.484914 21.2143L0.391633 21.4118L0.336648 21.6232L0.321508 21.8039L0.320312 21.9928V22.0073L0.321906 22.2621L0.321953 22.2693L0.322094 22.2766L0.326805 22.5311L0.326945 22.5383L0.32718 22.5456L0.335055 22.7996L0.335289 22.8069L0.335617 22.8141L0.346633 23.0678L0.346961 23.075L0.347336 23.0823L0.361469 23.3355L0.361891 23.3427L0.362383 23.35L0.379609 23.6027L0.380102 23.6099L0.380687 23.6171L0.401031 23.8694L0.401617 23.8766L0.40232 23.8838L0.425688 24.1356L0.426391 24.1427L0.427164 24.1499L0.453649 24.4012L0.454398 24.4083L0.455266 24.4155L0.484844 24.6662L0.485664 24.6734L0.486625 24.6805L0.519203 24.9306L0.520187 24.9377L0.521195 24.9449L0.556891 25.1943L0.557898 25.2015L0.559 25.2086L0.597719 25.4574L0.59882 25.4645L0.600016 25.4716L0.641758 25.7197L0.642953 25.7268L0.644242 25.7339L0.688961 25.9814L0.69025 25.9885L0.691609 25.9955L0.739352 26.2422L0.740734 26.2493L0.742188 26.2563L0.792906 26.5023L0.794383 26.5093L0.795883 26.5164L0.849625 26.7616L0.851148 26.7686L0.852789 26.7756L0.909461 27.02L0.911102 27.027L0.912812 27.034L0.972461 27.2776L0.974149 27.2845L0.97593 27.2914L1.03855 27.5342L1.04034 27.5411L1.04221 27.5481L1.10772 27.7899L1.10959 27.7968L1.11156 27.8037L1.18 28.0446L1.18197 28.0516L1.18403 28.0584L1.2554 28.2984L1.25741 28.3053L1.25957 28.3121L1.33382 28.5512L1.33598 28.558L1.33816 28.5648L1.41534 28.8029L1.41754 28.8097L1.41984 28.8165L1.49985 29.0536L1.50212 29.0603L1.50452 29.0671L1.58748 29.3031L1.5898 29.3099L1.59227 29.3166L1.67805 29.5516L1.68048 29.5583L1.68306 29.565L1.77166 29.7989L1.77419 29.8056L1.77679 29.8122L1.86827 30.045L1.87091 30.0516L1.87356 30.0583L1.96788 30.2899L1.97057 30.2965L1.97336 30.3031L2.07046 30.5335L2.07325 30.5401L2.07606 30.5467L2.176 30.776L2.17886 30.7825L2.18181 30.789L2.28449 31.0171L2.28747 31.0236L2.29045 31.0301L2.39596 31.2569L2.39901 31.2634L2.40205 31.2698L2.51036 31.4954L2.51341 31.5018L2.51664 31.5082L2.62764 31.7325L2.63085 31.7389L2.63409 31.7452L2.66184 31.7996L2.77884 31.984L2.92802 32.1436L3.10427 32.2726L3.30137 32.3668L3.5125 32.4227L3.7304 32.4384L3.94738 32.4135L4.15598 32.3487L4.34891 32.2463L4.51954 32.1099L4.66185 31.9442L4.77093 31.7549L4.84302 31.5487L4.8756 31.3328L4.86752 31.1145L4.81905 30.9015L4.74932 30.7341L4.72593 30.6882L4.62011 30.4745L4.51909 30.2642L4.41859 30.0481L4.32273 29.8353L4.22753 29.6168L4.13634 29.4005L4.04575 29.178L3.96166 28.9639L3.87719 28.7411L3.79759 28.5231L3.71859 28.2982L3.64237 28.0726L3.57037 27.8504L3.50001 27.6238L3.43239 27.3966L3.3673 27.1674L3.30641 26.9425L3.24796 26.716L3.19059 26.4818L3.13755 26.253L3.08683 26.0215L3.03878 25.7886L2.99418 25.5579L2.95192 25.3243L2.91227 25.0887L2.87629 24.8574L2.84252 24.6213L2.8117 24.3853L2.78369 24.1477L2.75866 23.9106L2.73686 23.6764L2.71759 23.4376L2.7013 23.1991L2.68795 22.9598L2.67754 22.7204L2.67009 22.4806L2.66559 22.2405L2.66413 22L2.66523 21.8185L2.64623 21.6008L2.58716 21.3905L2.49009 21.1949L2.35837 21.0206L2.19665 20.8738L2.01048 20.7596L1.80632 20.6819L1.5913 20.6434L1.37284 20.6455ZM8.6811 36.6902L8.47473 36.7618L8.28522 36.8705L8.11923 37.0124L7.98241 37.1827L7.87959 37.3754L7.81436 37.5839L7.78891 37.8009L7.80414 38.0188L7.85964 38.23L7.9533 38.4274L8.08197 38.6039L8.21216 38.7301L8.25473 38.7654L8.26026 38.77L8.26588 38.7746L8.46229 38.9335L8.46791 38.938L8.47359 38.9425L8.67175 39.0988L8.67737 39.1033L8.68312 39.1077L8.88302 39.2614L8.88873 39.2658L8.8945 39.2702L9.09611 39.4213L9.10188 39.4256L9.10769 39.4299L9.31103 39.5785L9.31684 39.5827L9.3227 39.5869L9.52769 39.7329L9.53355 39.737L9.53945 39.7411L9.74608 39.8845L9.75194 39.8885L9.75794 39.8926L9.96618 40.0333L9.97213 40.0373L9.97811 40.0413L10.1879 40.1793L10.1939 40.1833L10.1999 40.1871L10.4114 40.3225L10.4174 40.3264L10.4235 40.3302L10.6364 40.4629L10.6425 40.4667L10.6486 40.4705L10.863 40.6005L10.8692 40.6043L10.8753 40.6079L11.0912 40.7353L11.0974 40.7389L11.1036 40.7425L11.321 40.8671L11.3272 40.8707L11.3334 40.8742L11.5522 40.9962L11.5585 40.9997L11.5648 41.0031L11.785 41.1224L11.7913 41.1257L11.7976 41.1291L12.0191 41.2456L12.0255 41.2489L12.0319 41.2522L12.2548 41.366L12.2612 41.3692L12.2676 41.3724L12.4918 41.4834L12.4982 41.4866L12.5046 41.4897L12.7302 41.598L12.7367 41.6011L12.7431 41.6041L12.9699 41.7096L12.9764 41.7126L12.9829 41.7155L13.211 41.8182L13.2175 41.8212L13.2241 41.824L13.4533 41.9239L13.4599 41.9268L13.4665 41.9296L13.6969 42.0267L13.7035 42.0295L13.7101 42.0321L13.9418 42.1265L13.9484 42.1292L13.9551 42.1318L14.1879 42.2232L14.1945 42.2259L14.2012 42.2284L14.4351 42.317L14.4417 42.3195L14.4485 42.322L14.6834 42.4078L14.6901 42.4102L14.6969 42.4126L14.933 42.4956L14.9397 42.4979L14.9465 42.5002L15.1835 42.5802L15.1903 42.5825L15.1971 42.5847L15.4352 42.6619L15.442 42.6641L15.4488 42.6662L15.6879 42.7405L15.6948 42.7426L15.7016 42.7447L15.9416 42.816L15.9485 42.8181L15.9554 42.82L16.1963 42.8885L16.2032 42.8904L16.2102 42.8923L16.452 42.9578L16.4589 42.9597L16.4659 42.9615L16.7086 43.0241L16.7155 43.0259L16.7225 43.0276L16.9661 43.0873L16.9731 43.0889L16.98 43.0906L17.2245 43.1473L17.2314 43.1489L17.2384 43.1504L17.4536 43.1976L17.6705 43.2242L17.8884 43.2102L18.1 43.1559L18.2979 43.0634L18.4751 42.9356L18.6255 42.7773L18.744 42.5938L18.8263 42.3915L18.8697 42.1774L18.8725 41.959L18.8348 41.7438L18.7578 41.5394L18.6442 41.3528L18.498 41.1906L18.3242 41.0583L18.1288 40.9605L17.9552 40.9081L17.747 40.8625L17.519 40.8096L17.2874 40.7529L17.0584 40.6939L16.8293 40.6318L16.6035 40.5677L16.3761 40.5001L16.152 40.4304L15.9274 40.3577L15.7018 40.2815L15.4815 40.2041L15.2577 40.1223L15.0393 40.0396L14.8176 39.9525L14.5996 39.8637L14.3832 39.7726L14.1647 39.6773L13.952 39.5815L13.7389 39.4824L13.5255 39.3799L13.3148 39.2756L13.1068 39.1694L12.8957 39.0585L12.6889 38.9465L12.4804 38.8303L12.2763 38.7132L12.0706 38.5918L11.8708 38.4707L11.6708 38.3459L11.4696 38.217L11.2725 38.0874L11.0769 37.9552L10.8804 37.8189L10.6878 37.6818L10.4969 37.5422L10.3076 37.4003L10.1177 37.2543L9.92992 37.1061L9.74561 36.957L9.70877 36.9264L9.52837 36.8032L9.32828 36.7156L9.11542 36.6667L8.89715 36.6581L8.6811 36.6902ZM34.7157 36.7892L34.5038 36.8423L34.3055 36.9337L34.156 37.0365L34.0701 37.1061L33.8823 37.2543L33.6924 37.4003L33.5032 37.5422L33.3122 37.6818L33.1196 37.8189L32.9231 37.9552L32.7275 38.0874L32.5304 38.217L32.3292 38.3459L32.1292 38.4707L31.9294 38.5918L31.7237 38.7132L31.5196 38.8303L31.3111 38.9465L31.1043 39.0585L30.8932 39.1694L30.6852 39.2756L30.4745 39.3799L30.2611 39.4824L30.048 39.5815L29.8353 39.6773L29.6168 39.7725L29.4004 39.8637L29.1824 39.9525L28.9607 40.0396L28.7424 40.1223L28.5185 40.2041L28.2982 40.2815L28.0726 40.3577L27.848 40.4304L27.6239 40.5001L27.3965 40.5677L27.1707 40.6318L26.9416 40.6939L26.7126 40.753L26.481 40.8097L26.253 40.8625L26.0242 40.9127L25.874 40.9436L25.6651 41.0075L25.4717 41.109L25.3005 41.2447L25.1574 41.4098L25.0475 41.5985L24.9745 41.8044L24.941 42.0203L24.9481 42.2386L24.9956 42.4518L25.0819 42.6525L25.2039 42.8336L25.3574 42.989L25.537 43.1132L25.7367 43.2019L25.9493 43.252L26.1675 43.2618L26.3474 43.2391L26.5023 43.2071L26.5093 43.2057L26.5164 43.2041L26.7616 43.1504L26.7686 43.1489L26.7755 43.1473L27.02 43.0906L27.0269 43.089L27.0339 43.0873L27.2775 43.0276L27.2845 43.0259L27.2914 43.0241L27.5341 42.9615L27.5411 42.9597L27.548 42.9578L27.7898 42.8923L27.7967 42.8904L27.8037 42.8885L28.0446 42.82L28.0515 42.8181L28.0584 42.816L28.2984 42.7447L28.3052 42.7426L28.3121 42.7405L28.5512 42.6662L28.558 42.6641L28.5648 42.6619L28.8029 42.5847L28.8097 42.5825L28.8165 42.5802L29.0535 42.5002L29.0603 42.4979L29.067 42.4955L29.3031 42.4126L29.3099 42.4102L29.3166 42.4078L29.5515 42.322L29.5583 42.3195L29.5649 42.317L29.7988 42.2284L29.8055 42.2259L29.8121 42.2232L30.0449 42.1318L30.0516 42.1292L30.0582 42.1265L30.2899 42.0321L30.2965 42.0295L30.3031 42.0267L30.5335 41.9296L30.5401 41.9268L30.5467 41.9239L30.7759 41.824L30.7825 41.8212L30.789 41.8182L31.0171 41.7155L31.0236 41.7126L31.0301 41.7096L31.2569 41.6041L31.2633 41.6011L31.2698 41.598L31.4954 41.4897L31.5018 41.4866L31.5082 41.4834L31.7324 41.3724L31.7388 41.3692L31.7452 41.366L31.9681 41.2522L31.9745 41.2489L31.9809 41.2456L32.2024 41.1291L32.2087 41.1257L32.215 41.1224L32.4352 41.0031L32.4415 40.9997L32.4478 40.9962L32.6666 40.8742L32.6728 40.8707L32.679 40.8671L32.8964 40.7425L32.9026 40.7389L32.9088 40.7353L33.1247 40.6079L33.1308 40.6042L33.137 40.6005L33.3514 40.4705L33.3575 40.4667L33.3636 40.4629L33.5765 40.3302L33.5826 40.3264L33.5886 40.3225L33.8001 40.1871L33.8061 40.1832L33.8121 40.1793L34.0219 40.0413L34.0279 40.0373L34.0338 40.0333L34.2421 39.8926L34.2481 39.8885L34.2539 39.8845L34.4605 39.7411L34.4665 39.737L34.4723 39.7329L34.6773 39.5869L34.6832 39.5827L34.689 39.5785L34.8923 39.4299L34.8981 39.4256L34.9039 39.4213L35.1055 39.2701L35.1113 39.2658L35.117 39.2614L35.3169 39.1077L35.3226 39.1033L35.3283 39.0988L35.5264 38.9425L35.5321 38.938L35.5377 38.9335L35.6303 38.8586L35.7865 38.7059L35.9118 38.527L36.0016 38.3279L36.0529 38.1156L36.064 37.8974L36.0343 37.681L35.965 37.4739L35.8585 37.2832L35.7184 37.1155L35.5497 36.9768L35.3581 36.8719L35.1504 36.8043L34.9338 36.7764L34.7157 36.7892Z" fill="white"/>
</svg>
