<svg width="30" height="30" viewBox="0 0 30 30" fill="none" xmlns="http://www.w3.org/2000/svg">
<path d="M14.9983 8.56909C12.4424 8.53422 9.98458 10.1999 9.04384 12.5719C8.08012 14.8541 8.61289 17.6632 10.3459 19.4338C12.0308 21.2478 14.8071 21.9162 17.1326 21.0661C19.5695 20.2359 21.3597 17.8254 21.4242 15.2479C21.5541 12.7438 20.0491 10.2678 17.7832 9.2044C16.9186 8.78575 15.9588 8.56781 14.9983 8.56909ZM14.9983 9.74096C17.3344 9.69672 19.5482 11.4115 20.092 13.6832C20.6881 15.8661 19.6837 18.3551 17.7283 19.4988C15.7317 20.7519 12.9167 20.418 11.2772 18.7209C9.54699 17.0518 9.23889 14.1639 10.5663 12.1622C11.5064 10.6689 13.233 9.72377 14.9983 9.74096ZM16.6597 11.2354L14.9033 14.4218C14.3609 14.4795 14.232 15.3025 14.7325 15.522C15.0631 15.7515 15.3221 15.3697 15.623 15.3829H18.308V14.6505H15.6136L17.3012 11.5889L16.6597 11.2354ZM14.9954 4.23343L14.8708 4.2342L14.8662 4.23423L14.8617 4.23432L14.7372 4.23664L14.7327 4.23672L14.7282 4.23687L14.6038 4.24074L14.5993 4.24088L14.5948 4.24109L14.4707 4.24646L14.4661 4.24666L14.4616 4.24689L14.3377 4.25382L14.3332 4.25407L14.3287 4.25439L14.205 4.26283L14.2005 4.26312L14.196 4.26349L14.0726 4.27345L14.068 4.27381L14.0636 4.27421L13.9404 4.28568L13.9359 4.28612L13.9314 4.28657L13.8892 4.29104L13.7553 4.31796L13.6288 4.36923L13.514 4.44313L13.4149 4.53703L13.3349 4.64766L13.2769 4.77126L13.2428 4.90343L13.2339 5.03968L13.2503 5.1752L13.2917 5.30528L13.3565 5.42549L13.4424 5.53154L13.5466 5.61984L13.6652 5.68724L13.7944 5.73145L13.9296 5.75093L14.0429 5.74778L14.0809 5.7438L14.1957 5.73311L14.3079 5.72402L14.423 5.7162L14.5381 5.70976L14.6534 5.70473L14.7687 5.70114L14.8843 5.699L15 5.69829L15.1157 5.699L15.2313 5.70114L15.3466 5.70473L15.4619 5.70976L15.577 5.7162L15.6921 5.72404L15.8043 5.73311L15.919 5.74378L16.0331 5.75583L16.1473 5.7693L16.2612 5.78414L16.3726 5.80008L16.4861 5.81773L16.5992 5.83673L16.7115 5.85708L16.8241 5.87884L16.9341 5.90156L17.0459 5.92605L17.1579 5.95203L17.2669 5.97869L17.3777 6.00731L17.4861 6.03664L17.5953 6.06768L17.7055 6.10043L17.8125 6.13368L17.9212 6.16887L18.028 6.20492L18.1357 6.24277L18.2436 6.28217L18.3504 6.32265L18.4526 6.36278L18.5591 6.40614L18.6634 6.45004L18.6683 6.45214L18.6685 6.45174L18.7931 6.49269L18.9284 6.51053L19.0647 6.50291L19.1972 6.47016L19.3214 6.41338L19.4328 6.33453L19.5278 6.23637L19.6028 6.12231L19.6553 5.99632L19.6836 5.86273L19.6865 5.72626L19.6641 5.5916L19.6171 5.46343L19.5471 5.34621L19.4566 5.24401L19.3487 5.16038L19.2486 5.10718L19.2453 5.10574L19.2412 5.10397L19.2371 5.10221L19.1243 5.05471L19.1202 5.05298L19.1161 5.05129L19.0027 5.00515L18.9986 5.00348L18.9945 5.00183L18.8805 4.95708L18.8764 4.95546L18.8722 4.95388L18.7578 4.91051L18.7536 4.90893L18.7494 4.90739L18.6344 4.86542L18.6302 4.8639L18.626 4.86242L18.5105 4.82184L18.5063 4.82035L18.5021 4.81893L18.3861 4.77976L18.3818 4.77832L18.3776 4.77696L18.2611 4.73919L18.2568 4.73782L18.2526 4.7365L18.1356 4.70014L18.1313 4.69882L18.127 4.69753L18.0096 4.66263L18.0053 4.66134L18.001 4.66014L17.8831 4.62664L17.8788 4.62541L17.8745 4.62423L17.7561 4.59215L17.7518 4.59101L17.7475 4.58987L17.6287 4.55925L17.6244 4.55814L17.6201 4.55709L17.5009 4.52791L17.4965 4.52681L17.4921 4.52581L17.3725 4.49807L17.3682 4.49706L17.3638 4.49609L17.2438 4.46982L17.2394 4.46884L17.235 4.46796L17.1147 4.44313L17.1103 4.44221L17.1059 4.44135L16.9852 4.41801L16.9808 4.41715L16.9763 4.41634L16.8552 4.39446L16.8508 4.39367L16.8464 4.39292L16.725 4.37249L16.7205 4.37175L16.7161 4.37106L16.5943 4.35212L16.5899 4.35139L16.5854 4.35078L16.4634 4.33332L16.4589 4.33269L16.4545 4.3321L16.3321 4.31613L16.3276 4.31555L16.3231 4.315L16.2005 4.30056L16.196 4.30002L16.1915 4.29957L16.0686 4.28657L16.0641 4.28612L16.0596 4.28568L15.9364 4.27421L15.9319 4.27381L15.9274 4.27343L15.804 4.26347L15.7995 4.26311L15.795 4.26281L15.6713 4.25439L15.6668 4.25407L15.6623 4.25382L15.5384 4.24689L15.5339 4.24666L15.5293 4.24646L15.4052 4.24107L15.4007 4.24088L15.3962 4.24074L15.2719 4.23687L15.2673 4.23672L15.2628 4.23664L15.1383 4.23432L15.1338 4.23423L15.1292 4.2342L15.0046 4.23343L15 4.2334L14.9954 4.23343ZM10.2216 5.39629L10.0889 5.42823L9.98474 5.47305L9.93407 5.4997L9.93012 5.50178L9.92621 5.5039L9.81845 5.56226L9.8145 5.56438L9.81061 5.56655L9.70356 5.62626L9.69964 5.62844L9.69577 5.63064L9.58941 5.69167L9.58554 5.69389L9.58167 5.69616L9.47606 5.75851L9.47219 5.76076L9.46835 5.76308L9.36344 5.82674L9.3596 5.82905L9.3558 5.83143L9.25165 5.89638L9.24784 5.89875L9.24406 5.90118L9.14062 5.96741L9.13685 5.96984L9.1331 5.9723L9.03045 6.03986L9.0267 6.04232L9.02298 6.04482L8.92107 6.1137L8.91735 6.11619L8.91366 6.11876L8.81259 6.18888L8.8089 6.19145L8.80523 6.19406L8.70492 6.26547L8.70126 6.26808L8.69763 6.27073L8.59815 6.34343L8.59452 6.3461L8.59091 6.34878L8.49226 6.42275L8.48865 6.42546L8.48508 6.4282L8.38726 6.50342L8.38371 6.50618L8.38017 6.50897L8.28319 6.58544L8.27966 6.58825L8.27616 6.59108L8.18007 6.66886L8.17655 6.67167L8.17308 6.67458L8.07787 6.75356L8.07438 6.75646L8.07095 6.75938L7.97662 6.83962L7.97319 6.84255L7.96978 6.84552L7.87636 6.927L7.87296 6.92997L7.8696 6.933L7.77709 7.01572L7.77372 7.01876L7.77037 7.02182L7.67878 7.10575L7.67547 7.10883L7.67215 7.1119L7.58153 7.19708L7.57822 7.20019L7.57496 7.20334L7.48531 7.28975L7.482 7.2929L7.47877 7.29606L7.39008 7.38366L7.38686 7.38689L7.38368 7.39011L7.29608 7.4788L7.29286 7.48203L7.28972 7.48529L7.20331 7.57496L7.20016 7.57825L7.19709 7.58155L7.1119 7.67218L7.10878 7.67547L7.10572 7.67881L7.02179 7.7704L7.01871 7.77372L7.01569 7.77709L6.93297 7.8696L6.92997 7.87296L6.927 7.87638L6.84551 7.96982L6.84253 7.97322L6.83959 7.97665L6.75936 8.07098L6.75643 8.07441L6.75353 8.0779L6.67453 8.17311L6.67165 8.17658L6.66882 8.1801L6.59108 8.27618L6.58822 8.27969L6.58544 8.28324L6.50895 8.38021L6.50616 8.38373L6.50342 8.3873L6.42817 8.48511L6.42543 8.48868L6.42274 8.4923L6.34876 8.59094L6.34607 8.59455L6.3434 8.59818L6.2707 8.69766L6.26807 8.70129L6.26543 8.70495L6.19403 8.80523L6.19143 8.8089L6.18888 8.81259L6.11873 8.91369L6.11618 8.91738L6.11366 8.9211L6.04482 9.02298L6.0423 9.0267L6.03981 9.03045L5.98245 9.11766L5.91836 9.23821L5.87777 9.36854L5.86207 9.50418L5.8718 9.64034L5.90662 9.77234L5.96536 9.89559L6.04592 10.0058L6.14556 10.0991L6.26077 10.1723L6.38758 10.2229L6.52159 10.2491L6.65808 10.2499L6.79241 10.2254L6.91982 10.1764L7.03594 10.1046L7.13667 10.0124L7.20614 9.92287L7.26103 9.83949L7.32456 9.74544L7.39031 9.65067L7.45509 9.5597L7.52323 9.46636L7.59135 9.37551L7.66185 9.28389L7.73209 9.19479L7.80485 9.10485L7.87762 9.01718L7.9525 8.92915L8.02768 8.84297L8.1047 8.75679L8.1831 8.6713L8.26147 8.58794L8.34103 8.50537L8.42156 8.4238L8.50428 8.34209L8.58792 8.2615L8.67127 8.18313L8.75667 8.10485L8.8431 8.02758L8.92894 7.95268L9.01714 7.87767L9.10487 7.80486L9.1945 7.73233L9.28415 7.66162L9.37437 7.59224L9.46646 7.5232L9.55819 7.45614L9.65065 7.39031L9.74394 7.3256L9.83946 7.26102L9.93413 7.19874L10.0296 7.13757L10.1258 7.0776L10.2232 7.01849L10.3207 6.96095L10.4205 6.90362L10.5193 6.84858L10.6204 6.79381L10.6666 6.76953L10.781 6.69499L10.8795 6.60056L10.9588 6.48943L11.0162 6.36552L11.0495 6.23314L11.0577 6.09687L11.0404 5.96143L10.9984 5.83157L10.9329 5.71175L10.8463 5.60618L10.7417 5.51849L10.6226 5.45177L10.4932 5.40828L10.3579 5.3896L10.2216 5.39629ZM22.0004 7.18841L21.8676 7.2202L21.743 7.27607L21.631 7.35412L21.5354 7.45157L21.4596 7.5651L21.4061 7.69069L21.3769 7.82404L21.3729 7.96052L21.3943 8.09536L21.4404 8.22387L21.5095 8.34157L21.5827 8.42814L21.659 8.50537L21.7385 8.58794L21.8169 8.6713L21.8953 8.75679L21.9723 8.84297L22.0475 8.92915L22.1224 9.01718L22.1952 9.10487L22.2679 9.19479L22.3382 9.28389L22.4087 9.37551L22.4768 9.46636L22.5449 9.55972L22.6097 9.65067L22.6754 9.74544L22.739 9.83946L22.8023 9.93577L22.8634 10.0311L22.9234 10.1274L22.9821 10.2242L23.0406 10.3233L23.0969 10.4214L23.1524 10.521L23.2062 10.6205L23.2584 10.7196L23.3106 10.822L23.3603 10.9224L23.4101 11.026L23.4577 11.1284L23.5037 11.2305L23.5496 11.3359L23.5934 11.4398L23.6365 11.5455L23.6775 11.6497L23.7181 11.7571L23.7573 11.8643L23.7944 11.97L23.8309 12.0782L23.8664 12.1876L23.8996 12.2945L23.9322 12.4041L23.9506 12.4688L24 12.596L24.0721 12.7119L24.1645 12.8124L24.274 12.894L24.3966 12.9539L24.5283 12.99L24.6644 13.0009L24.8001 12.9865L24.9308 12.9471L25.052 12.8842L25.1593 12.7998L25.2492 12.697L25.3183 12.5793L25.3645 12.4508L25.386 12.316L25.3821 12.1795L25.3597 12.0684L25.3399 11.999L25.3387 11.9947L25.3374 11.9904L25.3025 11.873L25.3012 11.8687L25.2999 11.8644L25.2635 11.7474L25.2622 11.7432L25.2608 11.7389L25.2231 11.6224L25.2217 11.6182L25.2203 11.614L25.1811 11.4979L25.1797 11.4937L25.1782 11.4895L25.1376 11.374L25.1361 11.3698L25.1346 11.3656L25.0926 11.2506L25.0911 11.2464L25.0895 11.2423L25.0461 11.1278L25.0446 11.1236L25.0429 11.1195L24.9982 11.0056L24.9965 11.0014L24.9948 10.9973L24.9487 10.884L24.947 10.8798L24.9453 10.8757L24.8978 10.7629L24.8961 10.7588L24.8942 10.7547L24.8454 10.6426L24.8436 10.6385L24.8417 10.6344L24.7915 10.5228L24.7897 10.5187L24.7878 10.5147L24.7361 10.4037L24.7343 10.3997L24.7323 10.3956L24.6794 10.2853L24.6774 10.2812L24.6754 10.2772L24.6211 10.1675L24.6191 10.1635L24.6171 10.1595L24.5614 10.0505L24.5594 10.0465L24.5573 10.0425L24.5003 9.9341L24.4982 9.93015L24.4961 9.92621L24.4377 9.81847L24.4356 9.81454L24.4334 9.81063L24.3737 9.70359L24.3716 9.69967L24.3693 9.69579L24.3083 9.58944L24.3061 9.58554L24.3039 9.58172L24.2415 9.47606L24.2392 9.47219L24.2369 9.46838L24.1733 9.36347L24.171 9.35963L24.1686 9.35583L24.1036 9.25167L24.1013 9.24787L24.0988 9.24409L24.0326 9.14067L24.0302 9.13688L24.0277 9.13314L23.9602 9.03045L23.9577 9.0267L23.9551 9.02298L23.8863 8.9211L23.8838 8.91738L23.8812 8.91369L23.8111 8.81259L23.8085 8.8089L23.806 8.80523L23.7345 8.70495L23.7319 8.70129L23.7293 8.69766L23.6566 8.59818L23.6539 8.59455L23.6512 8.59094L23.5772 8.4923L23.5746 8.48868L23.5718 8.48511L23.4965 8.3873L23.4938 8.38371L23.491 8.3802L23.4145 8.28324L23.4117 8.27969L23.4089 8.27618L23.3312 8.1801L23.3283 8.17658L23.3254 8.17311L23.2464 8.0779L23.2436 8.07441L23.2406 8.07098L23.1604 7.97665L23.1574 7.97322L23.1545 7.96982L23.073 7.87636L23.07 7.87296L23.067 7.8696L22.9843 7.77709L22.9813 7.77372L22.9782 7.7704L22.8942 7.67881L22.8912 7.67547L22.8881 7.67218L22.8029 7.58155L22.7998 7.57825L22.7967 7.57496L22.7103 7.48531L22.7071 7.48204L22.7039 7.4788L22.6249 7.39882L22.5203 7.31103L22.4013 7.24419L22.2719 7.20063L22.1367 7.18181L22.0004 7.18841ZM5.0821 12.314L4.94826 12.3409L4.82171 12.3921L4.70687 12.4659L4.60774 12.5598L4.52774 12.6704L4.46966 12.794L4.43956 12.9032L4.41797 13.0149L4.4171 13.0193L4.4163 13.0237L4.39441 13.1448L4.39361 13.1492L4.39288 13.1536L4.37244 13.2751L4.37171 13.2795L4.37101 13.2839L4.35207 13.4057L4.35139 13.4101L4.35073 13.4146L4.33327 13.5367L4.33264 13.5411L4.33207 13.5456L4.3161 13.6679L4.31552 13.6724L4.31499 13.6769L4.30052 13.7995L4.29998 13.804L4.29952 13.8085L4.28656 13.9314L4.28607 13.9359L4.28563 13.9404L4.27419 14.0636L4.27376 14.0681L4.27339 14.0726L4.26343 14.196L4.26309 14.2005L4.26278 14.205L4.25435 14.3287L4.25402 14.3332L4.25376 14.3378L4.24688 14.4616L4.24661 14.4662L4.24641 14.4707L4.24103 14.5948L4.24084 14.5993L4.24069 14.6039L4.23683 14.7282L4.23668 14.7327L4.23659 14.7372L4.23428 14.8617L4.23422 14.8663L4.23419 14.8708L4.23338 14.9955V15.0046L4.23419 15.1292L4.23422 15.1338L4.23428 15.1383L4.23659 15.2628L4.23668 15.2673L4.23683 15.2719L4.24069 15.3962L4.24084 15.4007L4.24103 15.4052L4.24641 15.5294L4.24661 15.5339L4.24688 15.5384L4.25376 15.6623L4.25402 15.6668L4.25435 15.6713L4.26278 15.795L4.26309 15.7995L4.26344 15.804L4.2734 15.9275L4.27377 15.9319L4.27419 15.9365L4.28563 16.0596L4.28607 16.0641L4.28656 16.0686L4.29952 16.1916L4.29996 16.1961L4.30052 16.2005L4.31499 16.3232L4.3155 16.3277L4.3161 16.3321L4.33207 16.4545L4.33266 16.459L4.33327 16.4634L4.35073 16.5855L4.35139 16.5899L4.35207 16.5944L4.37101 16.7161L4.37169 16.7206L4.37244 16.725L4.39288 16.8464L4.39361 16.8508L4.39441 16.8553L4.4163 16.9763L4.4171 16.9807L4.41797 16.9852L4.44133 17.1059L4.44217 17.1103L4.44308 17.1147L4.46792 17.2351L4.46883 17.2395L4.46978 17.2438L4.49607 17.3638L4.49701 17.3682L4.49804 17.3726L4.52577 17.4922L4.52679 17.4965L4.52786 17.5009L4.55704 17.6201L4.5581 17.6244L4.55921 17.6287L4.58985 17.7475L4.59097 17.7519L4.59214 17.7562L4.62419 17.8745L4.62536 17.8788L4.62659 17.8832L4.66009 18.001L4.66132 18.0053L4.66258 18.0096L4.69752 18.1271L4.69878 18.1314L4.70011 18.1356L4.73644 18.2526L4.73776 18.2569L4.73914 18.2611L4.75408 18.3072L4.80809 18.4325L4.88442 18.5457L4.98047 18.6428L5.09282 18.7203L5.21763 18.7756L5.35052 18.8069L5.48692 18.8129L5.62206 18.7935L5.75123 18.7493L5.87 18.682L5.97415 18.5937L6.06016 18.4877L6.125 18.3676L6.16639 18.2375L6.18294 18.102L6.17405 17.9657L6.14757 17.8555L6.13361 17.8124L6.10041 17.7056L6.06782 17.596L6.03702 17.4875L6.00709 17.3771L5.97923 17.2691L5.95135 17.1553L5.92604 17.046L5.90149 16.9341L5.87892 16.8245L5.85712 16.712L5.83666 16.5988L5.81769 16.4861L5.80039 16.3749L5.78382 16.259L5.76926 16.1473L5.75581 16.0334L5.74373 15.919L5.73327 15.8067L5.72382 15.6896L5.71616 15.5771L5.70971 15.4619L5.70463 15.3445L5.70113 15.2314L5.69899 15.1158L5.69827 15L5.69899 14.8843L5.70113 14.7687L5.70463 14.6555L5.70971 14.538L5.71616 14.4229L5.72385 14.3103L5.7333 14.1932L5.74373 14.081L5.75578 13.9669L5.76929 13.8525L5.78382 13.7411L5.80037 13.6251L5.8176 13.5144L5.83671 13.4008L5.85706 13.2884L5.87772 13.1816L5.89104 13.0457L5.87895 12.9097L5.84181 12.7784L5.78093 12.6562L5.69845 12.5474L5.5972 12.4558L5.48071 12.3846L5.35304 12.3363L5.21859 12.3125L5.0821 12.314ZM24.8028 15.8727L24.6701 15.9045L24.5455 15.9604L24.4334 16.0384L24.3378 16.1358L24.262 16.2493L24.2085 16.3749L24.1832 16.4821L24.183 16.482L24.1825 16.4852V16.4856L24.1634 16.5988L24.143 16.712L24.1212 16.8245L24.0986 16.9341L24.074 17.046L24.0487 17.1553L24.0209 17.2691L23.993 17.3771L23.9631 17.4875L23.9323 17.596L23.8997 17.7056L23.8665 17.8125L23.8313 17.9211L23.7947 18.0294L23.7574 18.1357L23.7182 18.2429L23.6778 18.3496L23.6362 18.4553L23.5932 18.561L23.5497 18.6642L23.5042 18.7687L23.4578 18.8717L23.4106 18.9731L23.3608 19.0768L23.3107 19.178L23.2584 19.2805L23.2058 19.3805L23.1525 19.479L23.0964 19.5796L23.0401 19.6777L22.9822 19.7759L22.9235 19.8727L22.8635 19.9688L22.8024 20.0643L22.7397 20.1596L22.6755 20.2546L22.6098 20.3494L22.545 20.4404L22.4769 20.5337L22.4087 20.6245L22.3374 20.7172L22.2999 20.7648L22.2257 20.8794L22.174 21.0058L22.1468 21.1395L22.1448 21.276L22.1681 21.4105L22.2161 21.5384L22.2869 21.6551L22.3781 21.7566L22.4866 21.8395L22.6086 21.9007L22.7399 21.9383L22.8758 21.9509L23.0118 21.938L23.1429 21.9001L23.2648 21.8385L23.373 21.7554L23.4499 21.6721L23.4911 21.6199L23.4939 21.6163L23.4967 21.6127L23.5719 21.5149L23.5747 21.5114L23.5773 21.5078L23.6513 21.4091L23.654 21.4055L23.6567 21.4019L23.7294 21.3024L23.732 21.2988L23.7346 21.2951L23.8061 21.1948L23.8087 21.1911L23.8112 21.1875L23.8814 21.0863L23.8839 21.0827L23.8864 21.0789L23.9553 20.9771L23.9578 20.9733L23.9603 20.9696L24.0278 20.8669L24.0303 20.8632L24.0327 20.8594L24.0989 20.756L24.1014 20.7522L24.1037 20.7484L24.1687 20.6442L24.1711 20.6404L24.1734 20.6366L24.237 20.5317L24.2393 20.5279L24.2416 20.524L24.304 20.4184L24.3062 20.4145L24.3085 20.4106L24.3694 20.3043L24.3717 20.3004L24.3739 20.2965L24.4335 20.1894L24.4357 20.1855L24.4379 20.1816L24.4962 20.0738L24.4983 20.0699L24.5004 20.0659L24.5574 19.9575L24.5595 19.9536L24.5615 19.9496L24.6172 19.8405L24.6192 19.8365L24.6212 19.8325L24.6756 19.7228L24.6775 19.7188L24.6795 19.7148L24.7325 19.6044L24.7344 19.6004L24.7363 19.5964L24.7879 19.4854L24.7898 19.4813L24.7916 19.4772L24.8419 19.3657L24.8437 19.3616L24.8455 19.3575L24.8944 19.2453L24.8962 19.2412L24.8979 19.2371L24.9454 19.1243L24.9472 19.1202L24.9488 19.1161L24.995 19.0027L24.9966 18.9986L24.9983 18.9945L25.043 18.8805L25.0447 18.8764L25.0462 18.8722L25.0896 18.7578L25.0912 18.7536L25.0927 18.7494L25.1347 18.6344L25.1362 18.6302L25.1377 18.626L25.1783 18.5105L25.1798 18.5063L25.1812 18.5021L25.2204 18.3861L25.2218 18.3819L25.2232 18.3776L25.261 18.2611L25.2623 18.2569L25.2636 18.2526L25.3 18.1356L25.3013 18.1314L25.3026 18.1271L25.3375 18.0096L25.3388 18.0053L25.34 18.001L25.3735 17.8832L25.3748 17.8788L25.3759 17.8745L25.408 17.7562L25.4091 17.7519L25.4102 17.7475L25.4409 17.6287L25.442 17.6244L25.4431 17.6201L25.4722 17.5009L25.4733 17.4965L25.4743 17.4922L25.5021 17.3726L25.5031 17.3682L25.504 17.3638L25.5303 17.2438L25.5313 17.2395L25.5322 17.2351L25.557 17.1147L25.5579 17.1103L25.5587 17.1059L25.5821 16.9852L25.583 16.9807L25.5838 16.9764L25.6057 16.8553L25.6065 16.8508L25.6072 16.8464L25.6276 16.725L25.6284 16.7206L25.6291 16.7161L25.63 16.7104L25.6383 16.5742L25.6212 16.4387L25.5792 16.3088L25.5139 16.1889L25.4275 16.0833L25.3229 15.9955L25.2039 15.9286L25.0745 15.885L24.9393 15.8661L24.8028 15.8727ZM7.1083 20.7029L6.97935 20.7479L6.86102 20.8159L6.75734 20.9047L6.67197 21.0112L6.60781 21.1318L6.56719 21.2621L6.55143 21.3977L6.56112 21.5339L6.59591 21.6659L6.65459 21.7892L6.72 21.8817L6.75353 21.9222L6.75642 21.9256L6.75936 21.9291L6.83959 22.0234L6.84253 22.0269L6.84551 22.0303L6.927 22.1237L6.92997 22.1271L6.93297 22.1304L7.01569 22.2229L7.01873 22.2263L7.02179 22.2297L7.10572 22.3212L7.10878 22.3246L7.1119 22.3279L7.19707 22.4185L7.20016 22.4218L7.20331 22.4251L7.28972 22.5147L7.29286 22.518L7.29608 22.5212L7.38368 22.6099L7.38684 22.6131L7.39008 22.6164L7.47877 22.704L7.482 22.7072L7.48529 22.7103L7.57496 22.7967L7.57822 22.7998L7.58153 22.803L7.67215 22.8881L7.67547 22.8912L7.67878 22.8943L7.77037 22.9782L7.77372 22.9813L7.77709 22.9843L7.86958 23.0671L7.87295 23.0701L7.87636 23.073L7.96978 23.1545L7.97319 23.1575L7.97662 23.1604L8.07095 23.2407L8.07438 23.2436L8.07787 23.2465L8.17308 23.3255L8.17655 23.3284L8.18007 23.3312L8.27616 23.4089L8.27966 23.4118L8.28321 23.4146L8.38017 23.4911L8.38371 23.4939L8.38726 23.4966L8.48508 23.5719L8.48865 23.5746L8.49226 23.5773L8.59091 23.6513L8.59452 23.654L8.59815 23.6566L8.69761 23.7293L8.70126 23.732L8.70492 23.7346L8.80523 23.806L8.8089 23.8086L8.81257 23.8112L8.91365 23.8813L8.91735 23.8839L8.92107 23.8864L9.02298 23.9552L9.0267 23.9577L9.03045 23.9602L9.1331 24.0277L9.13685 24.0302L9.14062 24.0326L9.24404 24.0989L9.24782 24.1013L9.25163 24.1037L9.3558 24.1686L9.3596 24.171L9.36344 24.1733L9.46835 24.237L9.47219 24.2393L9.47604 24.2416L9.58167 24.3039L9.58554 24.3062L9.58941 24.3084L9.69577 24.3694L9.69964 24.3716L9.70356 24.3738L9.81061 24.4335L9.81451 24.4357L9.81847 24.4378L9.92621 24.4961L9.93012 24.4983L9.93407 24.5003L10.0425 24.5574L10.0465 24.5595L10.0504 24.5615L10.1595 24.6172L10.1635 24.6192L10.1675 24.6212L10.2772 24.6755L10.2812 24.6775L10.2852 24.6794L10.3956 24.7324L10.3996 24.7343L10.4037 24.7362L10.5147 24.7878L10.5187 24.7897L10.5228 24.7915L10.6344 24.8418L10.6384 24.8436L10.6425 24.8454L10.7547 24.8943L10.7588 24.8961L10.7629 24.8978L10.8757 24.9454L10.8798 24.9471L10.8839 24.9487L10.9973 24.9949L11.0014 24.9966L11.0056 24.9982L11.1147 25.0411L11.2459 25.079L11.3818 25.0918L11.5177 25.0793L11.649 25.0417L11.7709 24.9804L11.8795 24.8975L11.9707 24.796L12.0415 24.6792L12.0894 24.5514L12.1127 24.4169L12.1107 24.2804L12.0834 24.1466L12.0317 24.0203L11.9575 23.9057L11.8633 23.8069L11.7524 23.7272L11.6504 23.6777L11.5455 23.6365L11.439 23.5932L11.3358 23.5497L11.2323 23.5046L11.1303 23.4586L11.0241 23.4092L10.9233 23.3608L10.822 23.3107L10.7204 23.2588L10.6204 23.2062L10.521 23.1524L10.4205 23.0964L10.3223 23.04L10.2248 22.9825L10.1273 22.9234L10.0312 22.8635L9.93412 22.8013L9.8394 22.739L9.74541 22.6755L9.65215 22.6108L9.55819 22.5439L9.46502 22.4758L9.37299 22.4068L9.28282 22.3374L9.19453 22.2677L9.10487 22.1952L9.01582 22.1213L8.93027 22.0485L8.84186 21.9714L8.75667 21.8952L8.67248 21.818L8.58788 21.7385L8.50541 21.6591L8.4215 21.5762L8.34211 21.4958L8.2604 21.411L8.18212 21.3277L8.10371 21.2421L8.02869 21.1582L7.95248 21.0709L7.87762 20.9829L7.84733 20.9464L7.75074 20.8499L7.63793 20.773L7.51282 20.7184L7.37972 20.6879L7.24332 20.6827L7.1083 20.7029ZM19.8641 22.9819L19.7326 23.0187L19.6303 23.0673L19.5796 23.0963L19.479 23.1524L19.3796 23.2062L19.2796 23.2588L19.178 23.3107L19.0767 23.3608L18.9759 23.4092L18.8697 23.4586L18.7677 23.5046L18.6642 23.5497L18.561 23.5931L18.4545 23.6365L18.3483 23.6782L18.2436 23.7179L18.1357 23.7573L18.0301 23.7944L17.9211 23.8312L17.8146 23.8657L17.7034 23.9003L17.5953 23.9324L17.4881 23.9629L17.3777 23.9928L17.267 24.0213L17.1579 24.048L17.0459 24.074L16.9363 24.098L16.8219 24.1216L16.7094 24.1434L16.5992 24.1633L16.4883 24.182L16.3726 24.2L16.2612 24.2159L16.1472 24.2308L16.0354 24.244L15.919 24.2563L15.8044 24.2669L15.6921 24.276L15.5748 24.284L15.4598 24.2904L15.3467 24.2953L15.2313 24.2989L15.1123 24.3011L14.9766 24.3163L14.8461 24.3565L14.7254 24.4202L14.6185 24.5052L14.5293 24.6085L14.4608 24.7266L14.4154 24.8554L14.3947 24.9903L14.3994 25.1268L14.4294 25.2599L14.4835 25.3853L14.56 25.4984L14.6561 25.5953L14.7686 25.6727L14.8934 25.728L15.0264 25.759L15.1395 25.7657L15.2628 25.7634L15.2673 25.7633L15.2718 25.7632L15.3962 25.7593L15.4007 25.7592L15.4052 25.759L15.5293 25.7536L15.5339 25.7534L15.5384 25.7532L15.6623 25.7462L15.6668 25.746L15.6713 25.7457L15.795 25.7372L15.7995 25.7369L15.804 25.7366L15.9274 25.7266L15.9319 25.7263L15.9364 25.7258L16.0596 25.7143L16.0641 25.714L16.0686 25.7135L16.1915 25.7005L16.196 25.7L16.2005 25.6995L16.3231 25.685L16.3276 25.6845L16.3321 25.6839L16.4545 25.668L16.4589 25.6674L16.4634 25.6667L16.5854 25.6493L16.5899 25.6486L16.5943 25.6479L16.7161 25.629L16.7205 25.6283L16.725 25.6276L16.8464 25.6072L16.8508 25.6064L16.8552 25.6056L16.9763 25.5837L16.9807 25.5829L16.9851 25.5821L17.1059 25.5587L17.1103 25.5578L17.1147 25.5569L17.235 25.5321L17.2394 25.5312L17.2438 25.5302L17.3638 25.504L17.3682 25.503L17.3725 25.502L17.4921 25.4742L17.4965 25.4732L17.5009 25.4722L17.62 25.443L17.6244 25.4419L17.6287 25.4408L17.7475 25.4102L17.7518 25.409L17.7561 25.4079L17.8745 25.3758L17.8788 25.3746L17.8831 25.3734L18.001 25.3399L18.0053 25.3387L18.0096 25.3374L18.127 25.3025L18.1313 25.3012L18.1356 25.2999L18.2526 25.2636L18.2568 25.2622L18.2611 25.2608L18.3776 25.2231L18.3818 25.2217L18.3861 25.2203L18.5021 25.1811L18.5063 25.1797L18.5105 25.1782L18.626 25.1376L18.6302 25.1362L18.6344 25.1346L18.7494 25.0926L18.7536 25.0911L18.7578 25.0895L18.8722 25.0462L18.8764 25.0446L18.8805 25.043L18.9944 24.9982L18.9986 24.9966L19.0027 24.9949L19.1161 24.9487L19.1202 24.9471L19.1243 24.9453L19.2371 24.8978L19.2412 24.8961L19.2453 24.8943L19.3575 24.8454L19.3616 24.8436L19.3656 24.8418L19.4773 24.7915L19.4813 24.7897L19.4853 24.7878L19.5963 24.7362L19.6004 24.7343L19.6044 24.7324L19.7148 24.6794L19.7188 24.6775L19.7228 24.6755L19.8325 24.6211L19.8365 24.6192L19.8405 24.6172L19.9496 24.5615L19.9535 24.5594L19.9575 24.5573L20.0659 24.5003L20.0699 24.4982L20.0738 24.4961L20.1815 24.4378L20.1855 24.4356L20.1894 24.4335L20.2964 24.3738L20.3004 24.3716L20.3042 24.3694L20.3591 24.3379L20.4707 24.2592L20.5657 24.1612L20.6409 24.0473L20.6937 23.9214L20.7221 23.7878L20.7253 23.6514L20.7031 23.5167L20.6563 23.3884L20.5865 23.2711L20.4961 23.1687L20.3883 23.0849L20.2669 23.0226L20.136 22.9839L20.0001 22.9702L19.8641 22.9819ZM14.9955 1.45022L14.8362 1.45124L14.8317 1.45126L14.8271 1.45135L14.6681 1.45428L14.6636 1.45438L14.659 1.45453L14.5003 1.45945L14.4957 1.4596L14.4912 1.45979L14.3327 1.46667L14.3281 1.46687L14.3236 1.46713L14.1653 1.47596L14.1608 1.47623L14.1563 1.47652L13.9983 1.48729L13.9938 1.48761L13.9893 1.48794L13.8316 1.50069L13.8272 1.50105L13.8226 1.50145L13.6653 1.5161L13.6608 1.51654L13.6563 1.51698L13.4993 1.53356L13.4948 1.53404L13.4903 1.53456L13.3337 1.55304L13.3292 1.55358L13.3247 1.55416L13.1684 1.57455L13.1639 1.57515L13.1595 1.57578L13.0036 1.59807L12.9991 1.5987L12.9947 1.59942L12.8392 1.62359L12.8347 1.62431L12.8303 1.62504L12.6752 1.65111L12.6708 1.65185L12.6663 1.65267L12.5117 1.68064L12.5073 1.68144L12.5028 1.6823L12.3486 1.71214L12.3442 1.713L12.3398 1.71388L12.1861 1.74561L12.1817 1.74649L12.1773 1.74747L12.024 1.78103L12.0196 1.78201L12.0153 1.78301L11.8625 1.81846L11.8582 1.81945L11.8538 1.82052L11.7016 1.85783L11.6972 1.85889L11.6929 1.86L11.5488 1.89713L11.4204 1.94339L11.3027 2.01268L11.2 2.10262L11.1158 2.21004L11.0529 2.33124L11.0136 2.46199L10.9993 2.59774L11.0105 2.73382L11.0466 2.86545L11.1066 2.98811L11.1883 3.09749L11.2889 3.18977L11.4049 3.26181L11.5322 3.31109L11.6664 3.33589L11.8029 3.3353L11.9146 3.31557L12.0547 3.27946L12.1972 3.24456L12.3419 3.21098L12.487 3.17922L12.6326 3.14919L12.776 3.12145L12.9228 3.09488L13.067 3.07063L13.2163 3.04739L13.3616 3.02662L13.5095 3.00732L13.6574 2.98988L13.8059 2.9742L13.9547 2.96035L14.1035 2.94836L14.2528 2.9382L14.4022 2.92988L14.552 2.92339L14.6995 2.9188L14.8497 2.91602L15 2.91508L15.1503 2.91604L15.3005 2.91882L15.448 2.92339L15.5978 2.92988L15.7472 2.9382L15.8965 2.94836L16.0453 2.96035L16.1941 2.97419L16.3426 2.98986L16.4905 3.00732L16.6384 3.02662L16.7837 3.04739L16.933 3.07063L17.0772 3.09488L17.224 3.12145L17.3674 3.14921L17.513 3.17922L17.6433 3.20774L17.7788 3.22441L17.915 3.21563L18.0473 3.18173L18.1709 3.12387L18.2817 3.04406L18.3757 2.9451L18.4498 2.83037L18.5012 2.70396L18.5283 2.57013L18.5301 2.4336L18.5065 2.29913L18.4584 2.1714L18.3874 2.05478L18.296 1.95338L18.1874 1.87066L18.0653 1.80958L17.9568 1.77683L17.8227 1.74747L17.8183 1.7465L17.8139 1.74563L17.6602 1.71388L17.6558 1.713L17.6514 1.71214L17.4971 1.6823L17.4928 1.68145L17.4884 1.68064L17.3337 1.65267L17.3292 1.65186L17.3248 1.65113L17.1697 1.62505L17.1653 1.62432L17.1609 1.62359L17.0053 1.59942L17.0009 1.5987L16.9964 1.59807L16.8405 1.57579L16.8361 1.57516L16.8316 1.57456L16.6753 1.55416L16.6708 1.55357L16.6663 1.55304L16.5097 1.53456L16.5052 1.53404L16.5007 1.53356L16.3437 1.51699L16.3392 1.51654L16.3347 1.5161L16.1774 1.50145L16.1728 1.50105L16.1684 1.50069L16.0107 1.48794L16.0062 1.48761L16.0017 1.4873L15.8437 1.4765L15.8392 1.47621L15.8347 1.47596L15.6764 1.46713L15.6719 1.46687L15.6673 1.46666L15.5088 1.4598L15.5043 1.4596L15.4997 1.45945L15.341 1.45453L15.3364 1.45438L15.3319 1.4543L15.1729 1.45135L15.1683 1.45126L15.1638 1.45124L15.0046 1.45022L15 1.4502L14.9955 1.45022ZM22.4985 3.93907L22.3649 3.96738L22.2389 4.02L22.125 4.09507L22.0268 4.19L21.948 4.3015L21.8913 4.42569L21.8586 4.55821L21.8511 4.69455L21.869 4.82987L21.9117 4.95957L21.9777 5.07904L22.0648 5.18421L22.1508 5.25797L22.1894 5.28617L22.3092 5.37596L22.425 5.46502L22.5438 5.55877L22.659 5.65195L22.7731 5.74663L22.8873 5.84374L23.0006 5.94258L23.1101 6.04053L23.2221 6.14325L23.3307 6.24527L23.438 6.34869L23.5454 6.45467L23.6502 6.56087L23.7548 6.66936L23.8578 6.779L23.9573 6.88755L24.0575 6.99952L24.1562 7.11271L24.2523 7.22555L24.3481 7.34105L24.4413 7.45626L24.533 7.57248L24.6252 7.6923L24.7139 7.81066L24.8011 7.92996L24.8867 8.05022L24.9709 8.17154L25.0546 8.29534L25.1357 8.41859L25.2152 8.54268L25.2941 8.66928L25.3715 8.79683L25.4457 8.92266L25.519 9.05039L25.5906 9.1788L25.6615 9.30989L25.7295 9.43906L25.7963 9.57001L25.8305 9.63885L25.9022 9.75504L25.9942 9.85585L26.1033 9.93785L26.2258 9.9982L26.3573 10.0348L26.4934 10.0463L26.6292 10.0323L26.7601 9.99341L26.8814 9.93091L26.9891 9.84693L27.0793 9.74448L27.1489 9.62703L27.1955 9.49871L27.2175 9.36399L27.2141 9.22749L27.1855 9.09403L27.1432 8.98885L27.1077 8.91724L27.1057 8.91324L27.1037 8.90925L27.0326 8.76993L27.0306 8.76595L27.0285 8.76199L26.9556 8.62354L26.9536 8.61955L26.9514 8.61563L26.8769 8.47802L26.8748 8.47406L26.8726 8.47018L26.7964 8.33342L26.7942 8.32953L26.792 8.32564L26.714 8.18977L26.7118 8.18591L26.7095 8.18205L26.6299 8.04709L26.6276 8.04325L26.6253 8.03943L26.544 7.90541L26.5417 7.90157L26.5393 7.89776L26.4564 7.76471L26.454 7.7609L26.4516 7.75712L26.3669 7.625L26.3645 7.62123L26.362 7.61748L26.2758 7.48633L26.2733 7.48258L26.2708 7.47886L26.1829 7.34871L26.1803 7.34499L26.1778 7.3413L26.0882 7.21216L26.0856 7.20847L26.083 7.2048L25.9918 7.07672L25.9892 7.07303L25.9865 7.06942L25.8936 6.94233L25.891 6.9387L25.8883 6.9351L25.7938 6.80909L25.7911 6.80549L25.7884 6.80191L25.6923 6.67696L25.6895 6.6734L25.6867 6.66984L25.589 6.54599L25.5863 6.54248L25.5834 6.53896L25.4841 6.41622L25.4813 6.4127L25.4783 6.40923L25.3775 6.28762L25.3745 6.28412L25.3716 6.28069L25.2691 6.16021L25.2662 6.15675L25.2632 6.15336L25.1591 6.03401L25.1562 6.03062L25.1532 6.02725L25.0475 5.90908L25.0445 5.90571L25.0414 5.90238L24.9342 5.78541L24.9311 5.78208L24.928 5.77875L24.8192 5.663L24.8161 5.6597L24.813 5.65642L24.7026 5.54188L24.6995 5.53863L24.6963 5.53541L24.5844 5.4221L24.5812 5.41887L24.5779 5.41566L24.4646 5.30377L24.4614 5.30055L24.4581 5.29742L24.3436 5.18707L24.3403 5.18392L24.337 5.1808L24.2213 5.07202L24.218 5.0689L24.2146 5.06584L24.0976 4.95861L24.0943 4.95555L24.0909 4.95252L23.9728 4.84686L23.9694 4.84386L23.966 4.84088L23.8467 4.73681L23.8432 4.73382L23.8398 4.73089L23.7193 4.62839L23.7159 4.62545L23.7124 4.62256L23.5908 4.52165L23.5873 4.51879L23.5838 4.51592L23.4611 4.41662L23.4576 4.41379L23.454 4.41098L23.3302 4.31328L23.3266 4.31048L23.3231 4.30774L23.1981 4.21163L23.1945 4.20888L23.1909 4.2062L23.0649 4.11171L23.0613 4.109L23.0577 4.10637L23.0151 4.07524L22.8979 4.00532L22.7696 3.95837L22.635 3.93604L22.4985 3.93907ZM6.93189 4.23372L6.79904 4.26521L6.67438 4.32086L6.58024 4.38398L6.54599 4.41098L6.54245 4.41379L6.53893 4.41662L6.41618 4.51594L6.41266 4.51879L6.4092 4.52165L6.28758 4.62256L6.28409 4.62545L6.28066 4.62839L6.16018 4.73087L6.15675 4.73382L6.15331 4.73681L6.03401 4.84088L6.03059 4.84386L6.02723 4.84686L5.90908 4.95252L5.90571 4.95555L5.90234 4.95863L5.78539 5.06585L5.78205 5.0689L5.77875 5.07202L5.66297 5.1808L5.65967 5.18392L5.65642 5.18707L5.54187 5.29742L5.5386 5.30057L5.53537 5.30377L5.42206 5.41566L5.41884 5.41887L5.41563 5.42209L5.30373 5.5354L5.30054 5.53862L5.29739 5.54188L5.18704 5.65642L5.18389 5.6597L5.1808 5.663L5.07199 5.77875L5.06887 5.78208L5.06581 5.78541L4.95858 5.90238L4.95551 5.90569L4.95252 5.90906L4.84683 6.02723L4.84383 6.0306L4.84085 6.03401L4.73676 6.15336L4.73379 6.15675L4.73086 6.16021L4.62836 6.28069L4.62543 6.28412L4.62255 6.28762L4.52165 6.40923L4.51875 6.4127L4.51592 6.41622L4.41659 6.53896L4.41376 6.54248L4.41095 6.54599L4.31325 6.66984L4.31046 6.6734L4.30772 6.67698L4.21163 6.80193L4.20888 6.80549L4.20617 6.80909L4.11168 6.9351L4.109 6.9387L4.10634 6.94233L4.01347 7.06942L4.01083 7.07303L4.00821 7.07672L3.91699 7.2048L3.9144 7.20847L3.91182 7.21216L3.82225 7.3413L3.81967 7.34499L3.81715 7.34871L3.72923 7.47886L3.72671 7.48258L3.72425 7.48633L3.63797 7.61748L3.63548 7.62123L3.63308 7.625L3.54844 7.75712L3.54601 7.7609L3.54363 7.76471L3.46066 7.89778L3.45832 7.90159L3.45598 7.90541L3.37468 8.03943L3.37238 8.04325L3.37008 8.04709L3.29049 8.18205L3.28821 8.18591L3.28597 8.18977L3.20804 8.32564L3.20584 8.32953L3.20364 8.33342L3.12741 8.47018L3.12524 8.47406L3.12309 8.47802L3.04856 8.61563L3.04642 8.61955L3.04437 8.62354L2.97151 8.76201L2.96943 8.76596L2.96739 8.76992L2.8963 8.90925L2.89427 8.91324L2.89226 8.91724L2.82289 9.05741L2.82088 9.06141L2.81897 9.06543L2.75127 9.20641L2.74937 9.21044L2.74746 9.21447L2.68153 9.35624L2.67967 9.36029L2.67781 9.36437L2.63972 9.44896L2.59548 9.57812L2.576 9.71323L2.58196 9.84965L2.61309 9.98254L2.66836 10.1074L2.74585 10.2198L2.84282 10.3159L2.95598 10.3923L3.08133 10.4463L3.21453 10.4762L3.35098 10.4809L3.48589 10.4601L3.61465 10.4147L3.73271 10.3461L3.836 10.2569L3.92092 10.15L3.97534 10.0505L4.01158 9.97001L4.07442 9.83498L4.13799 9.7026L4.20371 9.56996L4.2705 9.43906L4.33846 9.30989L4.40944 9.17878L4.48105 9.05039L4.55432 8.92266L4.62854 8.79683L4.70588 8.66928L4.78484 8.54268L4.86434 8.4186L4.94542 8.29534L5.02907 8.17156L5.11327 8.05024L5.19891 7.92996L5.28608 7.81065L5.37483 7.69229L5.46697 7.57247L5.55867 7.45626L5.65192 7.34105L5.74772 7.22555L5.84376 7.11271L5.94249 6.99952L6.04266 6.88755L6.14219 6.779L6.24521 6.66936L6.34976 6.56087L6.45464 6.45467L6.56196 6.34871L6.6693 6.24529L6.77785 6.14325L6.88991 6.04053L6.99943 5.94258L7.11271 5.84376L7.22687 5.74663L7.34098 5.65195L7.45626 5.55869L7.48752 5.53399L7.58635 5.43984L7.666 5.32895L7.72368 5.2052L7.75737 5.07291L7.76596 4.93668L7.74911 4.8012L7.70739 4.6712L7.64228 4.55121L7.55602 4.44538L7.45165 4.3574L7.33274 4.29031L7.20346 4.24648L7.06827 4.22736L6.93189 4.23372ZM27.6919 13.6763L27.5594 13.7095L27.4355 13.7668L27.3243 13.846L27.2298 13.9445L27.1552 14.0588L27.1031 14.185L27.0753 14.3187L27.0715 14.432L27.0766 14.5497L27.0812 14.6996L27.084 14.8497L27.0849 15L27.084 15.1503L27.0812 15.3004L27.0766 15.4503L27.07 15.5999L27.0617 15.7494L27.0515 15.8985L27.0395 16.0478L27.0259 16.1941L27.0102 16.3423L26.9927 16.4908L26.9734 16.6383L26.9523 16.7858L26.9298 16.9304L26.9051 17.0776L26.8787 17.2237L26.8508 17.3679L26.8207 17.5135L26.789 17.6581L26.7559 17.8011L26.72 17.9475L26.6835 18.0891L26.6454 18.2296L26.6048 18.3729L26.5625 18.5149L26.5185 18.6565L26.4735 18.7954L26.4259 18.9364L26.3765 19.0769L26.3268 19.2132L26.274 19.3524L26.2214 19.4862L26.1648 19.6253L26.1078 19.7605L26.0483 19.8971L25.9884 20.0301L25.9256 20.1651L25.8624 20.2966L25.7963 20.4301L25.728 20.5639L25.6775 20.6907L25.6515 20.8248L25.6508 20.9613L25.6754 21.0956L25.7245 21.223L25.7964 21.339L25.8886 21.4397L25.9979 21.5215L26.1204 21.5816L26.2521 21.618L26.3881 21.6293L26.5239 21.6151L26.6547 21.576L26.7759 21.5133L26.8835 21.4292L26.9735 21.3266L27.0327 21.2299L27.1037 21.0908L27.1057 21.0868L27.1077 21.0828L27.1771 20.9426L27.1791 20.9386L27.181 20.9346L27.2487 20.7936L27.2506 20.7896L27.2525 20.7856L27.3185 20.6438L27.3203 20.6398L27.3222 20.6357L27.3864 20.4931L27.3882 20.4891L27.39 20.485L27.4525 20.3417L27.4542 20.3376L27.456 20.3335L27.5167 20.1894L27.5184 20.1853L27.5201 20.1812L27.579 20.0364L27.5807 20.0322L27.5823 20.0281L27.6395 19.8826L27.6411 19.8785L27.6427 19.8743L27.6981 19.7281L27.6997 19.7239L27.7012 19.7197L27.7548 19.5729L27.7564 19.5687L27.7579 19.5644L27.8097 19.4169L27.8112 19.4127L27.8126 19.4085L27.8626 19.2603L27.8641 19.2561L27.8654 19.2518L27.9137 19.103L27.9151 19.0988L27.9164 19.0945L27.9628 18.9451L27.9642 18.9408L27.9654 18.9365L28.01 18.7865L28.0113 18.7822L28.0125 18.7779L28.0553 18.6273L28.0565 18.623L28.0577 18.6187L28.0986 18.4675L28.0998 18.4632L28.1009 18.4589L28.1401 18.3071L28.1412 18.3028L28.1422 18.2985L28.1795 18.1462L28.1806 18.1419L28.1816 18.1375L28.217 17.9847L28.218 17.9804L28.219 17.976L28.2526 17.8227L28.2535 17.8183L28.2544 17.814L28.2861 17.6602L28.287 17.6558L28.2879 17.6514L28.3177 17.4972L28.3186 17.4928L28.3194 17.4884L28.3473 17.3337L28.3482 17.3293L28.3489 17.3248L28.375 17.1697L28.3757 17.1653L28.3764 17.1609L28.4006 17.0054L28.4013 17.0009L28.402 16.9965L28.4243 16.8406L28.4249 16.8361L28.4255 16.8316L28.4459 16.6753L28.4465 16.6708L28.447 16.6664L28.4655 16.5097L28.466 16.5052L28.4665 16.5007L28.483 16.3437L28.4835 16.3392L28.4839 16.3347L28.4986 16.1774L28.499 16.1729L28.4993 16.1684L28.5121 16.0107L28.5124 16.0062L28.5127 16.0017L28.5235 15.8437L28.5238 15.8392L28.5241 15.8347L28.5329 15.6764L28.5331 15.6719L28.5334 15.6674L28.5402 15.5088L28.5404 15.5043L28.5406 15.4998L28.5455 15.341L28.5457 15.3365L28.5458 15.3319L28.5487 15.1729L28.5489 15.1684V15.1638L28.5499 15.0046L28.5495 15.0005L28.5499 14.9955L28.5489 14.8362V14.8317L28.5487 14.8271L28.5458 14.6681L28.5457 14.6636L28.5455 14.6591L28.5406 14.5003L28.5404 14.4957L28.5402 14.4912L28.5349 14.3685L28.5163 14.2332L28.4729 14.1038L28.4063 13.9846L28.3187 13.8799L28.2131 13.7933L28.0934 13.7277L27.9635 13.6856L27.8281 13.6682L27.6919 13.6763ZM2.10803 14.1535L1.97414 14.1801L1.8475 14.2311L1.73254 14.3047L1.63324 14.3984L1.55307 14.5089L1.49477 14.6324L1.46041 14.7645L1.45094 14.8774L1.4502 14.9955V15.0046L1.45119 15.1638L1.45122 15.1683L1.45131 15.1729L1.45425 15.3319L1.45434 15.3365L1.45449 15.341L1.45941 15.4998L1.45956 15.5043L1.45976 15.5088L1.46665 15.6674L1.46685 15.6719L1.46708 15.6764L1.47592 15.8347L1.47618 15.8392L1.47649 15.8437L1.48726 16.0017L1.48756 16.0062L1.48793 16.0107L1.50064 16.1684L1.50101 16.1729L1.50145 16.1774L1.51605 16.3347L1.51649 16.3392L1.51698 16.3437L1.53353 16.5007L1.534 16.5052L1.53454 16.5097L1.55303 16.6664L1.55354 16.6708L1.55414 16.6753L1.5745 16.8316L1.57512 16.8361L1.57575 16.8406L1.59806 16.9965L1.59869 17.0009L1.59937 17.0054L1.62357 17.1609L1.62426 17.1653L1.62501 17.1697L1.6511 17.3248L1.65185 17.3293L1.65265 17.3337L1.6806 17.4884L1.68141 17.4928L1.68226 17.4972L1.71209 17.6514L1.71296 17.6558L1.71387 17.6602L1.74557 17.814L1.74649 17.8183L1.74743 17.8227L1.78102 17.976L1.78197 17.9804L1.78299 17.9847L1.81841 18.1375L1.81944 18.1419L1.82051 18.1462L1.85779 18.2985L1.85884 18.3028L1.85996 18.3071L1.8991 18.4589L1.90021 18.4632L1.90138 18.4675L1.94232 18.6187L1.9435 18.623L1.94473 18.6273L1.9875 18.7779L1.98873 18.7822L1.99002 18.7865L2.03462 18.9365L2.03588 18.9408L2.03723 18.9451L2.08364 19.0945L2.08499 19.0987L2.08635 19.103L2.13458 19.2518L2.13596 19.2561L2.1374 19.2603L2.18741 19.4085L2.18883 19.4127L2.19032 19.4169L2.24218 19.5645L2.24363 19.5687L2.24517 19.5729L2.29878 19.7197L2.3003 19.7239L2.30191 19.7281L2.35729 19.8743L2.35887 19.8785L2.36049 19.8826L2.41767 20.0281L2.41932 20.0322L2.42098 20.0364L2.47992 20.1812L2.48161 20.1853L2.48335 20.1894L2.54404 20.3335L2.54578 20.3376L2.54754 20.3417L2.61 20.485L2.61179 20.4891L2.61363 20.4931L2.67781 20.6357L2.67967 20.6398L2.68153 20.6438L2.74748 20.7856L2.74938 20.7896L2.75128 20.7936L2.81897 20.9346L2.82088 20.9386L2.8229 20.9426L2.89228 21.0828L2.89428 21.0868L2.8963 21.0908L2.91365 21.1247L2.98677 21.24L3.08001 21.3397L3.19017 21.4204L3.31336 21.4792L3.44531 21.5142L3.5815 21.524L3.71711 21.5084L3.84749 21.4679L3.96807 21.4039L4.07471 21.3187L4.16366 21.2151L4.23183 21.0968L4.27689 20.9679L4.29725 20.833L4.2922 20.6966L4.2619 20.5634L4.21833 20.4588L4.20371 20.4301L4.13757 20.2966L4.07443 20.1651L4.01162 20.0301L3.95171 19.8971L3.89221 19.7605L3.83521 19.6253L3.77859 19.4862L3.72604 19.3524L3.67324 19.2132L3.6235 19.0769L3.57412 18.9364L3.52648 18.7954L3.48148 18.6565L3.43751 18.5149L3.39524 18.3729L3.35457 18.2296L3.31651 18.0891L3.27998 17.9475L3.24412 17.8011L3.21097 17.6581L3.17927 17.5135L3.14924 17.3679L3.12136 17.2237L3.09495 17.0777L3.07017 16.9304L3.04768 16.7858L3.02657 16.6383L3.00731 16.4908L2.9898 16.3423L2.97416 16.1941L2.96054 16.0478L2.9485 15.8985L2.93832 15.7494L2.92997 15.5999L2.92346 15.4503L2.9188 15.3004L2.91599 15.1503L2.91508 15L2.91577 14.8865L2.90389 14.7505L2.86698 14.6191L2.8063 14.4968L2.72398 14.3879L2.62291 14.2961L2.50655 14.2247L2.37895 14.1762L2.24457 14.1521L2.10803 14.1535ZM6.67569 24.1814L6.54671 24.2261L6.42826 24.294L6.32452 24.3828L6.239 24.4892L6.17474 24.6096L6.13397 24.7399L6.11807 24.8755L6.12759 25.0117L6.16228 25.1438L6.22081 25.2671L6.30123 25.3774L6.3826 25.4563L6.4092 25.4784L6.41266 25.4813L6.41618 25.4841L6.53893 25.5834L6.54245 25.5863L6.54599 25.5891L6.66984 25.6868L6.67336 25.6896L6.67695 25.6923L6.80189 25.7884L6.80546 25.7912L6.80906 25.7938L6.93507 25.8883L6.93867 25.891L6.9423 25.8937L7.06939 25.9865L7.07303 25.9892L7.07669 25.9918L7.2048 26.083L7.20847 26.0856L7.21216 26.0882L7.3413 26.1778L7.34496 26.1803L7.34871 26.1829L7.47886 26.2708L7.48258 26.2733L7.48632 26.2758L7.61745 26.3621L7.62119 26.3645L7.62497 26.367L7.7571 26.4516L7.76087 26.454L7.76468 26.4564L7.89773 26.5393L7.90154 26.5417L7.90538 26.544L8.03938 26.6253L8.04322 26.6277L8.04709 26.6299L8.182 26.7095L8.18587 26.7118L8.18977 26.7141L8.3256 26.792L8.3295 26.7942L8.33339 26.7964L8.47015 26.8726L8.47406 26.8748L8.47799 26.8769L8.6156 26.9515L8.61955 26.9536L8.62351 26.9557L8.76196 27.0285L8.76595 27.0306L8.76992 27.0326L8.90925 27.1037L8.91324 27.1058L8.91724 27.1077L9.05736 27.1771L9.06138 27.1791L9.0654 27.1811L9.20637 27.2487L9.21041 27.2507L9.21444 27.2526L9.35621 27.3185L9.36026 27.3204L9.36432 27.3222L9.50687 27.3864L9.51097 27.3882L9.51505 27.39L9.65832 27.4525L9.66245 27.4543L9.66655 27.456L9.81059 27.5167L9.81472 27.5184L9.81882 27.5201L9.96363 27.579L9.96773 27.5807L9.97192 27.5823L10.1174 27.6395L10.1216 27.6412L10.1257 27.6427L10.2719 27.6981L10.2761 27.6997L10.2803 27.7013L10.4271 27.7549L10.4313 27.7564L10.4355 27.7579L10.5831 27.8097L10.5873 27.8112L10.5915 27.8126L10.7397 27.8626L10.744 27.8641L10.7482 27.8655L10.897 27.9137L10.9013 27.9151L10.9055 27.9164L11.0549 27.9628L11.0592 27.9641L11.0635 27.9654L11.2135 28.01L11.2178 28.0113L11.2221 28.0125L11.3727 28.0553L11.377 28.0565L11.3814 28.0577L11.5325 28.0986L11.5368 28.0998L11.5412 28.1009L11.6929 28.1401L11.6972 28.1412L11.7016 28.1423L11.8538 28.1795L11.8582 28.1806L11.8625 28.1816L12.0153 28.2171L12.0196 28.218L12.024 28.219L12.1585 28.2485L12.294 28.2651L12.4303 28.2564L12.5625 28.2225L12.6862 28.1646L12.7969 28.0848L12.891 27.9858L12.965 27.8711L13.0165 27.7447L13.0436 27.6109L13.0453 27.4744L13.0218 27.3399L12.9737 27.2121L12.9026 27.0955L12.8113 26.9941L12.7026 26.9114L12.5805 26.8503L12.472 26.8176L12.3419 26.789L12.1994 26.756L12.0546 26.7206L11.9115 26.6837L11.7683 26.6449L11.6272 26.6048L11.4851 26.5625L11.345 26.519L11.2046 26.4735L11.0636 26.4259L10.9259 26.3776L10.786 26.3265L10.6496 26.2747L10.511 26.2203L10.3747 26.1648L10.2395 26.1078L10.103 26.0483L9.96998 25.9884L9.83679 25.9265L9.70342 25.8624L9.57173 25.7973L9.44172 25.7309L9.3098 25.6616L9.18054 25.5915L9.05027 25.519L8.9227 25.4458L8.79413 25.3699L8.66927 25.2942L8.54427 25.2162L8.41847 25.1356L8.29531 25.0546L8.17308 24.972L8.05025 24.8868L7.9299 24.8011L7.81053 24.7139L7.69226 24.6252L7.57358 24.5339L7.4562 24.4413L7.34101 24.3481L7.31798 24.329L7.20523 24.252L7.08018 24.1973L6.94714 24.1667L6.81072 24.1613L6.67569 24.1814ZM22.9473 24.2433L22.8149 24.2764L22.6909 24.3336L22.5975 24.3978L22.5438 24.4413L22.4264 24.5339L22.3077 24.6252L22.1895 24.7139L22.0701 24.8011L21.9497 24.8868L21.8269 24.972L21.7047 25.0546L21.5815 25.1356L21.4557 25.2162L21.3307 25.2942L21.2059 25.3699L21.0773 25.4458L20.9497 25.519L20.8195 25.5915L20.6902 25.6616L20.5583 25.7309L20.4283 25.7973L20.2966 25.8624L20.1632 25.9265L20.03 25.9884L19.897 26.0483L19.7605 26.1078L19.6253 26.1648L19.489 26.2203L19.3504 26.2748L19.214 26.3265L19.0741 26.3775L18.9364 26.4259L18.7954 26.4735L18.655 26.519L18.5149 26.5625L18.3728 26.6048L18.2317 26.6449L18.0885 26.6837L17.9454 26.7206L17.8006 26.756L17.6581 26.7891L17.5152 26.8204L17.4212 26.8398L17.2907 26.8797L17.1698 26.9431L17.0628 27.0279L16.9734 27.1311L16.9047 27.2491L16.8591 27.3778L16.8381 27.5127L16.8426 27.6491L16.8723 27.7824L16.9262 27.9078L17.0024 28.021L17.0984 28.1181L17.2107 28.1958L17.3354 28.2512L17.4683 28.2825L17.6047 28.2887L17.7171 28.2744L17.8139 28.2545L17.8183 28.2536L17.8227 28.2526L17.976 28.219L17.9804 28.218L17.9847 28.217L18.1375 28.1816L18.1418 28.1806L18.1462 28.1795L18.2984 28.1423L18.3028 28.1412L18.3071 28.1401L18.4588 28.1009L18.4632 28.0998L18.4675 28.0986L18.6186 28.0577L18.623 28.0565L18.6273 28.0553L18.7779 28.0125L18.7822 28.0113L18.7865 28.01L18.9365 27.9654L18.9408 27.9641L18.9451 27.9628L19.0945 27.9164L19.0987 27.9151L19.103 27.9137L19.2518 27.8654L19.256 27.8641L19.2603 27.8626L19.4085 27.8126L19.4127 27.8112L19.4169 27.8097L19.5645 27.7579L19.5687 27.7564L19.5729 27.7549L19.7197 27.7013L19.7239 27.6997L19.7281 27.6981L19.8743 27.6427L19.8784 27.6412L19.8826 27.6395L20.0281 27.5823L20.0323 27.5807L20.0364 27.579L20.1812 27.5201L20.1853 27.5184L20.1894 27.5167L20.3335 27.456L20.3376 27.4543L20.3417 27.4525L20.485 27.39L20.489 27.3882L20.4931 27.3864L20.6357 27.3222L20.6397 27.3204L20.6438 27.3185L20.7856 27.2526L20.7896 27.2507L20.7936 27.2487L20.9346 27.1811L20.9386 27.1791L20.9426 27.1771L21.0828 27.1077L21.0868 27.1058L21.0907 27.1037L21.2301 27.0326L21.2341 27.0306L21.238 27.0285L21.3765 26.9557L21.3805 26.9536L21.3844 26.9515L21.522 26.8769L21.5259 26.8748L21.5299 26.8726L21.6666 26.7964L21.6705 26.7942L21.6744 26.792L21.8102 26.7141L21.8141 26.7118L21.818 26.7095L21.9529 26.6299L21.9568 26.6277L21.9606 26.6253L22.0946 26.544L22.0985 26.5417L22.1023 26.5393L22.2353 26.4564L22.2391 26.454L22.2429 26.4516L22.375 26.367L22.3788 26.3645L22.3825 26.3621L22.5137 26.2758L22.5174 26.2733L22.5211 26.2708L22.6513 26.1829L22.655 26.1803L22.6587 26.1778L22.7878 26.0882L22.7915 26.0856L22.7952 26.083L22.9233 25.9918L22.927 25.9892L22.9306 25.9865L23.0577 25.8937L23.0613 25.891L23.0649 25.8883L23.1909 25.7938L23.1945 25.7912L23.1981 25.7884L23.3231 25.6923L23.3266 25.6896L23.3302 25.6868L23.454 25.589L23.4576 25.5863L23.4611 25.5834L23.5189 25.5366L23.6166 25.4412L23.6948 25.3294L23.751 25.2049L23.7831 25.0722L23.79 24.9359L23.7714 24.8006L23.7281 24.6712L23.6615 24.552L23.574 24.4472L23.4685 24.3605L23.3488 24.2949L23.219 24.2527L23.0836 24.2352L22.9473 24.2433Z" fill="white"/>
</svg>
