<svg width="20" height="20" viewBox="0 0 20 20" fill="none" xmlns="http://www.w3.org/2000/svg">
<g clip-path="url(#clip0)">
<path d="M9.99745 5.21105C7.34738 5.21105 5.20864 7.34983 5.20864 9.99995C5.20864 12.6501 7.34738 14.7889 9.99745 14.7889C12.6475 14.7889 14.7863 12.6501 14.7863 9.99995C14.7863 7.34983 12.6475 5.21105 9.99745 5.21105ZM9.99745 13.1124C8.28366 13.1124 6.88507 11.7138 6.88507 9.99995C6.88507 8.28613 8.28366 6.88751 9.99745 6.88751C11.7112 6.88751 13.1098 8.28613 13.1098 9.99995C13.1098 11.7138 11.7112 13.1124 9.99745 13.1124ZM14.9824 3.89883C14.3637 3.89883 13.864 4.3985 13.864 5.01725C13.864 5.636 14.3637 6.13567 14.9824 6.13567C15.6011 6.13567 16.1008 5.63834 16.1008 5.01725C16.101 4.87033 16.0722 4.72481 16.016 4.58903C15.9599 4.45325 15.8775 4.32989 15.7736 4.226C15.6697 4.1221 15.5464 4.03973 15.4106 3.98359C15.2748 3.92745 15.1293 3.89864 14.9824 3.89883V3.89883ZM19.3323 9.99995C19.3323 8.71108 19.3439 7.43388 19.2715 6.14735C19.1992 4.653 18.8583 3.32677 17.7656 2.23404C16.6705 1.13896 15.3466 0.800402 13.8523 0.72802C12.5635 0.655637 11.2863 0.667312 9.99978 0.667312C8.71094 0.667312 7.43377 0.655637 6.14725 0.72802C4.65294 0.800402 3.32673 1.1413 2.23402 2.23404C1.13896 3.32911 0.800408 4.653 0.728027 6.14735C0.655646 7.43622 0.66732 8.71341 0.66732 9.99995C0.66732 11.2865 0.655646 12.566 0.728027 13.8526C0.800408 15.3469 1.1413 16.6731 2.23402 17.7659C3.32907 18.8609 4.65294 19.1995 6.14725 19.2719C7.4361 19.3443 8.71327 19.3326 9.99978 19.3326C11.2886 19.3326 12.5658 19.3443 13.8523 19.2719C15.3466 19.1995 16.6728 18.8586 17.7656 17.7659C18.8606 16.6708 19.1992 15.3469 19.2715 13.8526C19.3463 12.566 19.3323 11.2888 19.3323 9.99995V9.99995ZM17.2776 15.5057C17.1071 15.9306 16.9017 16.2482 16.5724 16.5751C16.2432 16.9043 15.928 17.1098 15.5031 17.2802C14.2749 17.7682 11.3587 17.6585 9.99745 17.6585C8.63622 17.6585 5.71764 17.7682 4.4895 17.2825C4.06455 17.1121 3.74701 16.9066 3.42013 16.5774C3.09091 16.2482 2.88544 15.933 2.715 15.508C2.22935 14.2775 2.33909 11.3612 2.33909 9.99995C2.33909 8.6387 2.22935 5.72006 2.715 4.4919C2.88544 4.06694 3.09091 3.74939 3.42013 3.42251C3.74935 3.09562 4.06455 2.88781 4.4895 2.71736C5.71764 2.2317 8.63622 2.34144 9.99745 2.34144C11.3587 2.34144 14.2773 2.2317 15.5054 2.71736C15.9303 2.88781 16.2479 3.09328 16.5748 3.42251C16.904 3.75173 17.1095 4.06694 17.2799 4.4919C17.7656 5.72006 17.6558 8.6387 17.6558 9.99995C17.6558 11.3612 17.7656 14.2775 17.2776 15.5057Z" fill="white"/>
</g>
<defs>
<clipPath id="clip0">
<rect width="18.6667" height="18.6667" fill="white" transform="translate(0.666626 0.666667)"/>
</clipPath>
</defs>
</svg>
