<svg width="48" height="43" viewBox="0 0 48 43" fill="none" xmlns="http://www.w3.org/2000/svg">
<path d="M24 0C18.2008 0 13.5 4.70083 13.5 10.5C13.5 15.1883 20.3625 23.7333 22.9917 26.835C23.5242 27.4633 24.4767 27.4633 25.0083 26.835C27.6375 23.7333 34.5 15.1883 34.5 10.5C34.5 4.70083 29.7992 0 24 0ZM24 14C22.0667 14 20.5 12.4333 20.5 10.5C20.5 8.56667 22.0667 7 24 7C25.9333 7 27.5 8.56667 27.5 10.5C27.5 12.4333 25.9333 14 24 14ZM1.67667 17.9958C1.18182 18.1938 0.757609 18.5354 0.458758 18.9767C0.159907 19.418 0.000118517 19.9387 0 20.4717L0 41.3317C0 42.275 0.9525 42.92 1.82833 42.57L13.3333 37.3333V17.91C12.5967 16.5783 11.9942 15.2817 11.5625 14.0417L1.67667 17.9958ZM24 29.9725C22.8275 29.9725 21.7183 29.4575 20.9575 28.5592C19.3192 26.6258 17.5767 24.4242 16 22.1658V37.3325L32 42.6658V22.1667C30.4233 24.4242 28.6817 26.6267 27.0425 28.56C26.2817 29.4575 25.1725 29.9725 24 29.9725ZM46.1717 13.43L34.6667 18.6667V42.6667L46.3233 38.0042C46.8183 37.8063 47.2425 37.4647 47.5414 37.0234C47.8403 36.5821 48 36.0613 48 35.5283V14.6683C48 13.725 47.0475 13.08 46.1717 13.43Z" fill="white"/>
</svg>
