<svg width="30" height="30" viewBox="0 0 30 30" fill="none" xmlns="http://www.w3.org/2000/svg">
<path d="M28.3333 20.8333C26.25 20.8333 24.25 20.5 22.3833 19.8833C22.0903 19.79 21.7774 19.7779 21.478 19.8483C21.1787 19.9188 20.904 20.0691 20.6833 20.2833L17.0167 23.95C12.2853 21.5437 8.43963 17.698 6.03333 12.9667L9.7 9.28333C9.92074 9.0739 10.0772 8.80587 10.151 8.51066C10.2248 8.21546 10.2129 7.90534 10.1167 7.61667C9.48442 5.69676 9.16369 3.688 9.16667 1.66667C9.16667 0.75 8.41667 0 7.5 0H1.66667C0.75 0 0 0.75 0 1.66667C0 17.3167 12.6833 30 28.3333 30C29.25 30 30 29.25 30 28.3333V22.5C30 21.5833 29.25 20.8333 28.3333 20.8333ZM26.6667 15H30C30 11.0218 28.4196 7.20644 25.6066 4.3934C22.7936 1.58035 18.9782 0 15 0V3.33333C21.45 3.33333 26.6667 8.55 26.6667 15ZM20 15H23.3333C23.3333 10.4 19.6 6.66667 15 6.66667V10C17.7667 10 20 12.2333 20 15Z" fill="white"/>
</svg>
