<svg width="18" height="18" viewBox="0 0 18 18" fill="none" xmlns="http://www.w3.org/2000/svg">
<path d="M18 16V2.00001C18 0.90001 17.097 1.04904e-05 15.995 1.04904e-05H2.005C0.855 1.04904e-05 0 0.853011 0 2.00001V16C0 17.148 0.855 18 2.005 18H15.995C16.5257 17.9992 17.0344 17.7884 17.4101 17.4137C17.7858 17.0389 17.9979 16.5307 18 16ZM14.184 10.607C14.184 10.607 15.316 11.724 15.595 12.242C15.603 12.253 15.606 12.263 15.609 12.267C15.722 12.457 15.751 12.607 15.694 12.717C15.6 12.9 15.28 12.992 15.171 13H13.172C13.032 13 12.742 12.964 12.39 12.721C12.12 12.533 11.853 12.222 11.593 11.919C11.205 11.469 10.869 11.079 10.531 11.079C10.4881 11.0789 10.4455 11.086 10.405 11.1C10.148 11.182 9.822 11.547 9.822 12.522C9.822 12.827 9.582 13.001 9.412 13.001H8.496C8.184 13.001 6.559 12.892 5.12 11.373C3.354 9.51301 1.768 5.78201 1.754 5.74901C1.654 5.50801 1.861 5.37701 2.086 5.37701H4.106C4.377 5.37701 4.464 5.54101 4.526 5.68801C4.596 5.85501 4.86 6.52901 5.292 7.28701C5.995 8.52001 6.428 9.02201 6.773 9.02201C6.83751 9.02165 6.90085 9.00478 6.957 8.97301C7.408 8.72401 7.324 7.11601 7.304 6.78401C7.304 6.72101 7.303 6.06501 7.073 5.75001C6.907 5.52201 6.626 5.43501 6.456 5.40201C6.52532 5.30649 6.61654 5.22899 6.722 5.17601C7.031 5.02201 7.588 5.00001 8.142 5.00001H8.45C9.051 5.00801 9.207 5.04701 9.424 5.10201C9.863 5.20701 9.872 5.49201 9.833 6.46201C9.822 6.73801 9.81 7.05101 9.81 7.41801C9.81 7.49701 9.807 7.58401 9.807 7.67401C9.793 8.17001 9.777 8.73101 10.127 8.96101C10.1723 8.98936 10.2246 9.00459 10.278 9.00501C10.4 9.00501 10.765 9.00501 11.754 7.30801C12.189 6.55901 12.524 5.67501 12.547 5.60901C12.5819 5.53765 12.6325 5.4751 12.695 5.42601C12.7462 5.39941 12.8033 5.386 12.861 5.38701H15.236C15.496 5.38701 15.672 5.42601 15.705 5.52501C15.762 5.68401 15.694 6.16901 14.609 7.63501L14.126 8.27501C13.142 9.56301 13.142 9.62901 14.184 10.607V10.607Z" fill="white"/>
</svg>
