<svg width="73" height="29" viewBox="0 0 73 29" fill="none" xmlns="http://www.w3.org/2000/svg">
<path d="M0 14.458C0 13.6105 0.687044 12.9234 1.53456 12.9234H25.5458C26.3933 12.9234 27.0804 13.6105 27.0804 14.458C27.0804 15.3055 26.3933 15.9925 25.5458 15.9925H1.53456C0.687044 15.9925 0 15.3055 0 14.458Z" fill="#E74D2F"/>
<path d="M44.996 14.4646C44.996 13.6134 45.686 12.9234 46.5371 12.9234H70.5352C71.3864 12.9234 72.0764 13.6134 72.0764 14.4646C72.0764 15.3157 71.3864 16.0058 70.5352 16.0058H46.5371C45.686 16.0058 44.996 15.3157 44.996 14.4646Z" fill="#E74D2F"/>
<path d="M25.3193 15.9318C24.4972 15.7115 24.0093 14.8664 24.2296 14.0443L27.6865 1.14267C27.9068 0.320516 28.7519 -0.167387 29.5741 0.0529093C30.3962 0.273206 30.8841 1.11828 30.6638 1.94044L27.2069 14.842C26.9866 15.6642 26.1415 16.1521 25.3193 15.9318Z" fill="#E74D2F"/>
<path d="M46.9055 15.9318C46.0834 16.1521 45.2383 15.6642 45.018 14.842L41.561 1.94042C41.3407 1.11827 41.8286 0.273193 42.6508 0.0528963C43.4729 -0.1674 44.318 0.320504 44.5383 1.14266L47.9953 14.0443C48.2156 14.8664 47.7277 15.7115 46.9055 15.9318Z" fill="#E74D2F"/>
<path d="M36.4602 28.8297C35.6381 29.05 34.793 28.5621 34.5727 27.7399L27.6606 1.94378C27.4403 1.12162 27.9283 0.276544 28.7504 0.0562475C29.5726 -0.164049 30.4176 0.323856 30.6379 1.14601L37.55 26.9421C37.7703 27.7643 37.2824 28.6094 36.4602 28.8297Z" fill="#E74D2F"/>
<path d="M35.7002 28.8263C34.878 28.606 34.3901 27.7609 34.6104 26.9388L41.5224 1.14267C41.7427 0.32051 42.5878 -0.167397 43.41 0.0528994C44.2321 0.273196 44.72 1.11827 44.4997 1.94043L37.5877 27.7365C37.3674 28.5587 36.5223 29.0466 35.7002 28.8263Z" fill="#E74D2F"/>
</svg>
