<svg width="585" height="415" viewBox="0 0 585 415" fill="none" xmlns="http://www.w3.org/2000/svg">
<path opacity="0.2" d="M366.06 230.182C366.824 230.182 367.579 230.144 368.323 230.069C378.351 230.166 387.564 223.502 390.28 213.36L417.734 110.837L494.575 397.79C497.466 408.587 507.721 415.443 518.485 414.395C527.792 413.726 536.075 407.268 538.626 397.742L615.921 109.093L643.842 213.36C645.285 218.747 648.561 223.153 652.818 226.085C656.53 228.781 661.097 230.371 666.034 230.371H1008.98C1021.42 230.371 1031.5 220.28 1031.5 207.833C1031.5 195.387 1021.42 185.296 1008.98 185.296H682.964L637.953 17.2099C635.231 7.04249 625.978 0.370448 615.919 0.501774C605.862 0.37211 596.612 7.04379 593.889 17.21L516.594 305.86L440.385 21.2675C439.655 12.0199 433.221 3.81161 423.755 1.27362C420.697 0.453736 417.617 0.304625 414.672 0.73614C413.691 0.86407 412.707 1.05815 411.725 1.32136C402.306 3.84674 395.889 11.9863 395.106 21.1775L351.158 185.296H22.9294C10.5417 185.296 0.5 195.344 0.5 207.739C0.5 220.133 10.5417 230.182 22.9294 230.182H366.06Z" fill="#94CDEA" stroke="#94CDEA"/>
</svg>
