<svg width="35" height="34" viewBox="0 0 35 34" fill="none" xmlns="http://www.w3.org/2000/svg">
<path d="M3.00925 18.2207H6.03612C6.26586 18.2207 6.47867 18.3353 6.60527 18.5241C6.60527 18.5241 7.18205 19.3951 7.75774 20.2589C8.07696 17.429 9.18851 7.53691 9.18851 7.53691C9.22671 7.21059 9.49463 6.95303 9.8275 6.93394C9.98725 6.92423 10.1453 6.97125 10.2738 7.06668C10.4023 7.16212 10.4929 7.29986 10.5298 7.4556C10.5298 7.4556 11.9791 13.5328 12.665 16.4042L13.5725 13.8351C13.619 13.7027 13.7053 13.5878 13.8196 13.5063C13.9339 13.4248 14.0706 13.3806 14.211 13.3798C14.3514 13.3789 14.4886 13.4215 14.6038 13.5017C14.7191 13.5818 14.8067 13.6956 14.8548 13.8275C14.8548 13.8275 16.201 17.4841 16.4706 18.2207H19.0975C19.3272 18.2207 19.54 18.3353 19.6661 18.5241C19.6661 18.5241 20.2434 19.3951 20.818 20.2594C21.1383 17.4295 22.2499 7.53746 22.2499 7.53746C22.2679 7.37798 22.3417 7.22999 22.4581 7.1195C22.5745 7.00902 22.7262 6.94313 22.8864 6.93342C23.0466 6.92371 23.2051 6.9708 23.334 7.06641C23.4629 7.16202 23.5539 7.30003 23.5911 7.45615L25.7253 16.4047L26.6344 13.8357C26.6809 13.7034 26.7671 13.5886 26.8813 13.5072C26.9955 13.4258 27.1321 13.3816 27.2723 13.3808C27.4126 13.3799 27.5497 13.4225 27.6648 13.5025C27.78 13.5826 27.8676 13.6963 27.9156 13.828C27.9156 13.828 29.2635 17.4846 29.5325 18.2213H32.2172L32.3602 17.9485C33.6644 15.7046 34.6166 11.5498 34.6166 8.52404C34.6166 4.66337 31.8069 0 26.3315 0C18.5076 0 17.5019 7.32901 17.5019 7.32901C17.5019 7.32901 16.5317 0.0354691 8.71268 0.0354691C3.43051 0.0354691 0.596802 4.52968 0.596802 8.52404C0.596802 11.9738 2.10724 16.2323 2.88101 17.9812L3.00925 18.2207Z" fill="#E74D2F"/>
<path d="M29.0567 19.5854C28.7696 19.5854 28.5148 19.4058 28.4171 19.139L27.2887 16.0739L26.2437 19.038C26.1427 19.3234 25.8672 19.5084 25.5654 19.4904C25.4182 19.4836 25.2772 19.4288 25.164 19.3344C25.0508 19.2401 24.9716 19.1113 24.9384 18.9677L23.1715 11.5644L21.9667 22.2723C21.9508 22.4113 21.8925 22.5421 21.7996 22.6467C21.7067 22.7514 21.5839 22.8249 21.4477 22.8572C21.3119 22.8903 21.1691 22.8808 21.0389 22.8299C20.9087 22.779 20.7973 22.6893 20.7198 22.5729C20.7198 22.5729 19.0664 20.0841 18.7324 19.5848H15.9953C15.8559 19.5846 15.72 19.5417 15.6058 19.4619C15.4915 19.3821 15.4045 19.2692 15.3563 19.1384L14.2278 16.0739C13.878 17.0618 13.5288 18.0498 13.1801 19.038C13.1316 19.1769 13.0392 19.2962 12.9168 19.3778C12.7944 19.4595 12.6487 19.499 12.5019 19.4904C12.3545 19.4832 12.2135 19.4283 12.1001 19.334C11.9866 19.2397 11.9068 19.1112 11.8727 18.9677L10.1091 11.5693L8.90476 22.2723C8.88886 22.4112 8.83058 22.5419 8.73784 22.6465C8.64509 22.7512 8.52238 22.8248 8.38636 22.8572C8.25044 22.8903 8.10764 22.8807 7.97734 22.8299C7.84703 22.779 7.7355 22.6893 7.65788 22.5729C7.65788 22.5729 6.00448 20.0841 5.67052 19.5848H3.75028C8.64174 28.2758 17.5019 34 17.5019 34C17.5019 34 26.5225 28.2747 31.492 19.5848L29.0567 19.5854Z" fill="#E74D2F"/>
</svg>
