<svg width="29" height="32" viewBox="0 0 29 32" fill="none" xmlns="http://www.w3.org/2000/svg">
<path d="M26.0131 32H2.01306C1.47139 32 1.00264 31.8021 0.606812 31.4062C0.210978 31.0104 0.0130615 30.5417 0.0130615 30V10C0.0130615 9.45833 0.210978 8.98958 0.606812 8.59375C1.00264 8.19792 1.47139 8 2.01306 8H26.0131C26.5756 8 27.0495 8.19792 27.4349 8.59375C27.8204 8.98958 28.0131 9.45833 28.0131 10V30C28.0131 30.5625 27.8204 31.0365 27.4349 31.4219C27.0495 31.8073 26.5756 32 26.0131 32ZM14.0131 12C11.8047 12 9.91931 12.7812 8.35681 14.3438C6.79431 15.9062 6.01306 17.7917 6.01306 20C6.01306 22.2083 6.79431 24.0938 8.35681 25.6562C9.91931 27.2188 11.8047 28 14.0131 28C16.2214 28 18.1068 27.2188 19.6693 25.6562C21.2318 24.0938 22.0131 22.2083 22.0131 20C22.0131 17.7917 21.2318 15.9062 19.6693 14.3438C18.1068 12.7812 16.2214 12 14.0131 12ZM14.0131 26C12.3464 26 10.9297 25.4167 9.76306 24.25C8.59639 23.0833 8.01306 21.6667 8.01306 20C8.01306 18.3333 8.59639 16.9167 9.76306 15.75C10.9297 14.5833 12.3464 14 14.0131 14C15.6797 14 17.0964 14.5833 18.2631 15.75C19.4297 16.9167 20.0131 18.3333 20.0131 20C20.0131 21.6667 19.4297 23.0833 18.2631 24.25C17.0964 25.4167 15.6797 26 14.0131 26ZM26.0131 6H2.01306C1.47139 6 1.00264 5.80208 0.606812 5.40625C0.210978 5.01042 0.0130615 4.54167 0.0130615 4V2C0.0130615 1.45833 0.210978 0.989583 0.606812 0.59375C1.00264 0.197917 1.47139 0 2.01306 0H26.0131C26.5756 0 27.0495 0.197917 27.4349 0.59375C27.8204 0.989583 28.0131 1.45833 28.0131 2V4C28.0131 4.5625 27.8204 5.03646 27.4349 5.42188C27.0495 5.80729 26.5756 6 26.0131 6ZM7.01306 2H5.01306C4.74223 2 4.50785 2.09896 4.30994 2.29688C4.11202 2.49479 4.01306 2.72917 4.01306 3C4.01306 3.27083 4.11202 3.50521 4.30994 3.70312C4.50785 3.90104 4.74223 4 5.01306 4H7.01306C7.2839 4 7.51827 3.90104 7.71619 3.70312C7.9141 3.50521 8.01306 3.27083 8.01306 3C8.01306 2.72917 7.9141 2.49479 7.71619 2.29688C7.51827 2.09896 7.2839 2 7.01306 2ZM11.0131 2C10.7422 2 10.5079 2.09896 10.3099 2.29688C10.112 2.49479 10.0131 2.72917 10.0131 3C10.0131 3.27083 10.112 3.50521 10.3099 3.70312C10.5079 3.90104 10.7422 4 11.0131 4C11.2839 4 11.5183 3.90104 11.7162 3.70312C11.9141 3.50521 12.0131 3.27083 12.0131 3C12.0131 2.72917 11.9141 2.49479 11.7162 2.29688C11.5183 2.09896 11.2839 2 11.0131 2ZM15.0131 2C14.7422 2 14.5079 2.09896 14.3099 2.29688C14.112 2.49479 14.0131 2.72917 14.0131 3C14.0131 3.27083 14.112 3.50521 14.3099 3.70312C14.5079 3.90104 14.7422 4 15.0131 4C15.2839 4 15.5183 3.90104 15.7162 3.70312C15.9141 3.50521 16.0131 3.27083 16.0131 3C16.0131 2.72917 15.9141 2.49479 15.7162 2.29688C15.5183 2.09896 15.2839 2 15.0131 2Z" fill="#E74D2F"/>
</svg>
