<svg width="1440" height="415" viewBox="0 0 1440 415" fill="none" xmlns="http://www.w3.org/2000/svg">
<path opacity="0.2" d="M570.06 230.182C570.824 230.182 571.579 230.144 572.323 230.069C582.351 230.166 591.564 223.502 594.28 213.36L621.734 110.837L698.575 397.79C701.466 408.587 711.721 415.443 722.485 414.395C731.792 413.726 740.075 407.268 742.626 397.742L819.921 109.093L847.842 213.36C849.285 218.747 852.56 223.153 856.818 226.085C860.53 228.781 865.096 230.371 870.034 230.371H1454.5C1466.94 230.371 1477.02 220.28 1477.02 207.833C1477.02 195.386 1466.94 185.296 1454.5 185.296H886.964L841.953 17.2099C839.231 7.04248 829.978 0.370444 819.919 0.501774C809.862 0.3721 800.612 7.04378 797.889 17.21L720.594 305.86L644.385 21.2674C643.655 12.0199 637.221 3.8116 627.755 1.27362C624.697 0.453723 621.617 0.304621 618.672 0.736161C617.691 0.864091 616.707 1.05816 615.725 1.32136C606.306 3.84674 599.889 11.9863 599.106 21.1776L555.158 185.296H-3.07059C-15.4583 185.296 -25.5 195.344 -25.5 207.739C-25.5 220.133 -15.4583 230.182 -3.07059 230.182H570.06Z" fill="#94CDEA" stroke="#94CDEA"/>
</svg>
