<svg width="268" height="682" viewBox="0 0 268 682" fill="none" xmlns="http://www.w3.org/2000/svg">
<path fill-rule="evenodd" clip-rule="evenodd" d="M-34.1249 547.876C-99.4561 571.198 -164.835 519.606 -231.603 500.787C-284.418 485.901 -342.507 485.558 -383.727 449.338C-425.214 412.884 -443.747 358.387 -455.157 304.352C-466.554 250.38 -459.908 197.006 -448.403 143.057C-433.771 74.4451 -443.486 -21.5582 -379.513 -50.3545C-313.696 -79.9814 -253.272 16.5452 -181.37 22.8558C-107.139 29.3708 -27.8419 -56.3284 33.5549 -14.1007C92.7224 26.5937 55.8822 122.439 66.6482 193.439C76.5381 258.661 112.045 321.099 94.0042 384.552C74.606 452.779 32.6772 524.029 -34.1249 547.876Z" fill="#37A3DB" fill-opacity="0.15"/>
</svg>
