<svg width="36" height="36" viewBox="0 0 36 36" fill="none" xmlns="http://www.w3.org/2000/svg">
<path d="M18.8451 23.7394C19.2528 23.7394 19.5864 23.4058 19.5864 22.9981V22.6534C19.5864 22.2457 19.2528 21.9121 18.8451 21.9121H6.46576C6.05806 21.9121 5.72449 22.2457 5.72449 22.6534V22.9981C5.72449 23.4058 6.05806 23.7394 6.46576 23.7394H18.8451Z" fill="#E74D2F"/>
<path d="M26.6173 8.45794C25.4535 7.29414 24.1007 6.38237 22.5885 5.74117L22.581 5.73747C22.0881 5.52991 21.5174 5.70781 21.2282 6.15629L20.3684 7.49429C20.1534 7.42016 19.9236 7.37568 19.6864 7.35715C19.616 7.35344 19.5419 7.34974 19.4677 7.34974C19.2676 7.34974 19.0712 7.37198 18.8821 7.41275L20.398 5.04808L20.8687 4.31422C21.1986 3.79903 21.0503 3.10965 20.5314 2.77978L16.4804 0.1742C16.295 0.0555956 16.0875 0 15.8799 0C15.513 0 15.1535 0.181612 14.9422 0.511479L7.89642 11.4972C7.56655 12.0124 7.7148 12.7017 8.2337 13.0316L9.00091 13.5246L8.65252 14.0694L8.30412 14.6142L8.08544 14.9552C7.75557 15.4704 7.90383 16.1598 8.42272 16.4896L9.08245 16.9121C9.59764 17.242 10.287 17.0938 10.6169 16.5749L10.8356 16.2339L11.1839 15.689L11.5323 15.1442L12.2884 15.6298C12.4737 15.7483 12.6813 15.8039 12.8888 15.8039C13.2558 15.8039 13.6153 15.6224 13.8266 15.2925L16.7175 10.7818C16.7768 11.0487 16.8732 11.3007 17.0066 11.5342C17.1215 11.738 17.2587 11.9271 17.418 12.0939C17.9518 12.6572 18.7116 13.0056 19.5529 12.9797C21.0392 12.9352 22.2474 11.7269 22.2882 10.2407C22.2994 9.87745 22.2401 9.52905 22.1252 9.20659C22.8998 9.62912 23.6188 10.1665 24.2601 10.8077C26.0243 12.572 26.9954 14.9144 26.9954 17.4088C26.9954 19.9032 26.0243 22.2456 24.2601 24.0099C23.1629 25.107 21.8435 25.8964 20.4017 26.3375C20.2943 26.3708 20.1831 26.3857 20.0719 26.3857H16.4248C15.8095 26.3857 15.3129 25.8891 15.3129 25.2738V25.0254H10.0017V26.3856V28.1425V30.029C10.1166 30.0216 10.2352 30.0178 10.35 30.0178H17.6553H18.9858H25.3349H26.2096H26.2948C27.5624 29.7918 28.5298 28.6835 28.5298 27.3493C28.5298 26.5265 28.1629 25.7889 27.5846 25.2922C28.2963 24.3953 28.8856 23.4094 29.334 22.3494C29.9938 20.7853 30.3311 19.1248 30.3311 17.4162C30.3311 15.7075 29.9975 14.0471 29.334 12.483C28.6928 10.9746 27.7811 9.61804 26.6173 8.45794ZM19.4677 11.1821C18.997 11.1821 18.6041 10.8634 18.4893 10.426C18.467 10.3445 18.4559 10.2555 18.4559 10.1666C18.4559 9.66622 18.8191 9.25111 19.2972 9.16957C19.3528 9.15845 19.4121 9.15474 19.4714 9.15474C20.0311 9.15474 20.4833 9.60692 20.4833 10.1666C20.4833 10.7262 20.0274 11.1821 19.4677 11.1821ZM26.2096 28.2129C26.091 28.2685 25.9575 28.2982 25.8167 28.2982C25.4423 28.2982 25.1199 28.0832 24.9679 27.7681C24.9049 27.6421 24.8716 27.4975 24.8716 27.3493C24.8716 26.8267 25.2941 26.4005 25.8204 26.4005C25.9613 26.4005 26.0947 26.4301 26.2133 26.4857C26.2763 26.5154 26.3393 26.5524 26.3949 26.5932C26.621 26.7674 26.7692 27.038 26.7692 27.3456C26.7655 27.7348 26.5357 28.0647 26.2096 28.2129Z" fill="#E74D2F"/>
<path d="M10.0016 31.33C7.57767 31.5079 5.66888 33.5316 5.66888 36H25.0977C25.7129 36 26.2096 35.5033 26.2096 34.8881V33.1053V31.3188H10.35C10.2314 31.3188 10.1165 31.3226 10.0016 31.33Z" fill="#E74D2F"/>
</svg>
