<svg width="29" height="32" viewBox="0 0 29 32" fill="none" xmlns="http://www.w3.org/2000/svg">
<g clip-path="url(#clip0)">
<path d="M26.013 32H2.01303C1.47136 32 1.00261 31.8021 0.606781 31.4062C0.210948 31.0104 0.013031 30.5417 0.013031 30V10C0.013031 9.45833 0.210948 8.98958 0.606781 8.59375C1.00261 8.19792 1.47136 8 2.01303 8H26.013C26.5755 8 27.0495 8.19792 27.4349 8.59375C27.8203 8.98958 28.013 9.45833 28.013 10V30C28.013 30.5625 27.8203 31.0365 27.4349 31.4219C27.0495 31.8073 26.5755 32 26.013 32ZM14.013 12C11.8047 12 9.91928 12.7812 8.35678 14.3438C6.79428 15.9062 6.01303 17.7917 6.01303 20C6.01303 22.2083 6.79428 24.0938 8.35678 25.6562C9.91928 27.2188 11.8047 28 14.013 28C16.2214 28 18.1068 27.2188 19.6693 25.6562C21.2318 24.0938 22.013 22.2083 22.013 20C22.013 17.7917 21.2318 15.9062 19.6693 14.3438C18.1068 12.7812 16.2214 12 14.013 12ZM14.013 26C12.3464 26 10.9297 25.4167 9.76303 24.25C8.59636 23.0833 8.01303 21.6667 8.01303 20C8.01303 18.3333 8.59636 16.9167 9.76303 15.75C10.9297 14.5833 12.3464 14 14.013 14C15.6797 14 17.0964 14.5833 18.263 15.75C19.4297 16.9167 20.013 18.3333 20.013 20C20.013 21.6667 19.4297 23.0833 18.263 24.25C17.0964 25.4167 15.6797 26 14.013 26ZM26.013 6H2.01303C1.47136 6 1.00261 5.80208 0.606781 5.40625C0.210948 5.01042 0.013031 4.54167 0.013031 4V2C0.013031 1.45833 0.210948 0.989583 0.606781 0.59375C1.00261 0.197917 1.47136 0 2.01303 0H26.013C26.5755 0 27.0495 0.197917 27.4349 0.59375C27.8203 0.989583 28.013 1.45833 28.013 2V4C28.013 4.5625 27.8203 5.03646 27.4349 5.42188C27.0495 5.80729 26.5755 6 26.013 6ZM7.01303 2H5.01303C4.7422 2 4.50782 2.09896 4.30991 2.29688C4.11199 2.49479 4.01303 2.72917 4.01303 3C4.01303 3.27083 4.11199 3.50521 4.30991 3.70312C4.50782 3.90104 4.7422 4 5.01303 4H7.01303C7.28386 4 7.51824 3.90104 7.71616 3.70312C7.91407 3.50521 8.01303 3.27083 8.01303 3C8.01303 2.72917 7.91407 2.49479 7.71616 2.29688C7.51824 2.09896 7.28386 2 7.01303 2ZM11.013 2C10.7422 2 10.5078 2.09896 10.3099 2.29688C10.112 2.49479 10.013 2.72917 10.013 3C10.013 3.27083 10.112 3.50521 10.3099 3.70312C10.5078 3.90104 10.7422 4 11.013 4C11.2839 4 11.5182 3.90104 11.7162 3.70312C11.9141 3.50521 12.013 3.27083 12.013 3C12.013 2.72917 11.9141 2.49479 11.7162 2.29688C11.5182 2.09896 11.2839 2 11.013 2ZM15.013 2C14.7422 2 14.5078 2.09896 14.3099 2.29688C14.112 2.49479 14.013 2.72917 14.013 3C14.013 3.27083 14.112 3.50521 14.3099 3.70312C14.5078 3.90104 14.7422 4 15.013 4C15.2839 4 15.5182 3.90104 15.7162 3.70312C15.9141 3.50521 16.013 3.27083 16.013 3C16.013 2.72917 15.9141 2.49479 15.7162 2.29688C15.5182 2.09896 15.2839 2 15.013 2Z" fill="#E74D2F"/>
</g>
<defs>
<clipPath id="clip0">
<rect width="28.0312" height="32" fill="white"/>
</clipPath>
</defs>
</svg>
