<svg width="33" height="32" viewBox="0 0 33 32" fill="none" xmlns="http://www.w3.org/2000/svg">
<path d="M16.077 0C7.24074 0 0.0773621 7.16359 0.0773621 15.9998C0.0773621 24.8359 7.24074 32 16.077 32C24.9132 32 32.0771 24.8359 32.0771 15.9998C32.0771 7.16359 24.9132 0 16.077 0ZM16.0773 5.6199L25.5455 11.524H6.60916L16.0773 5.6199ZM25.6634 20.952H25.6625C25.6625 21.899 24.895 22.6664 23.9481 22.6664H8.20651C7.25951 22.6664 6.49215 21.8989 6.49215 20.952V11.8996C6.49215 11.7995 6.50239 11.7021 6.51903 11.6064L15.5653 17.2473C15.5764 17.2543 15.5882 17.2589 15.5996 17.2653C15.6116 17.272 15.6238 17.2784 15.6359 17.2844C15.6998 17.3174 15.7656 17.344 15.8329 17.3613C15.8399 17.3633 15.8468 17.3641 15.8537 17.3657C15.9275 17.3831 16.0023 17.394 16.077 17.394H16.0775C16.0781 17.394 16.0786 17.394 16.0786 17.394C16.1533 17.394 16.228 17.3834 16.3018 17.3657C16.3088 17.364 16.3157 17.3633 16.3226 17.3613C16.3898 17.344 16.4554 17.3174 16.5197 17.2844C16.5318 17.2784 16.544 17.272 16.5559 17.2653C16.5672 17.2589 16.5792 17.2543 16.5903 17.2473L25.6365 11.6064C25.6532 11.7021 25.6634 11.7993 25.6634 11.8996V20.952Z" fill="#37A3DB"/>
</svg>
