<svg width="36" height="36" viewBox="0 0 36 36" fill="none" xmlns="http://www.w3.org/2000/svg">
<g clip-path="url(#clip0)">
<path d="M9.36914 3.60422C12.8686 8.77852 14.0119 21.8848 14.0583 22.4402C14.0963 22.8888 13.8656 23.298 13.5 23.5097C12.7928 23.919 11.8859 23.4544 11.8167 22.6301C11.8167 22.6299 11.8166 22.6297 11.8166 22.6294C11.8015 22.4795 11.6025 22.4369 11.5287 22.5683C10.7364 23.981 11.7082 25.9102 13.5 25.9102H22.5C24.2407 25.9102 25.2895 24.0257 24.4712 22.5694C24.3972 22.4378 24.1986 22.4795 24.1834 22.6297C24.1834 22.6298 24.1834 22.6299 24.1833 22.6301C24.1341 23.2165 23.6419 23.6602 23.0639 23.6602C22.3983 23.6602 21.8867 23.0905 21.9417 22.4402C21.9881 21.8848 23.1314 8.77852 26.6309 3.60422C26.651 3.57462 26.6725 3.54614 26.6949 3.519C26.8265 3.36023 26.7143 3.11386 26.5082 3.1114C26.5057 3.1114 26.5032 3.11133 26.5008 3.11133C26.2816 3.0967 26.2537 3.16589 25.8209 2.73937C25.4102 2.33437 24.7894 1.72266 23.625 1.72266C22.4599 1.72266 21.8391 2.33437 21.4284 2.73937C21.1057 3.05789 21.0375 3.10922 20.8118 3.10922C20.5868 3.10922 20.5186 3.05789 20.1959 2.74008C19.7845 2.33508 19.1637 1.72266 17.9993 1.72266C16.8349 1.72266 16.2141 2.33508 15.8034 2.74008C15.4807 3.05789 15.4125 3.10922 15.1875 3.10922C14.9618 3.10922 14.8936 3.05789 14.5709 2.74008C14.1602 2.33508 13.5394 1.72266 12.375 1.72266C11.2106 1.72266 10.5898 2.33508 10.1784 2.74008C9.8557 3.05789 9.7875 3.10922 9.5625 3.10922C9.53431 3.10922 9.50639 3.1102 9.47897 3.11217C9.27724 3.12645 9.1807 3.36523 9.30832 3.52216C9.32956 3.54832 9.34988 3.57567 9.36914 3.60422ZM19.125 22.5352C19.125 23.1567 18.6216 23.6602 18 23.6602C17.3784 23.6602 16.875 23.1567 16.875 22.5352V12.4102C16.875 11.7886 17.3784 11.2852 18 11.2852C18.6216 11.2852 19.125 11.7886 19.125 12.4102V22.5352Z" fill="#E74D2F"/>
<path d="M24.5557 19.279C24.5336 19.4472 24.6123 19.6141 24.7588 19.6995C26.0981 20.48 27 21.9319 27 23.59C27 26.0791 24.9856 28.09 22.5 28.09H13.5654C11.0924 28.09 9.03186 26.1221 9.00036 23.6492C8.97863 21.9442 9.89649 20.4788 11.2408 19.6973C11.3875 19.612 11.4664 19.4447 11.4441 19.2764C11.1829 17.3007 10.8518 15.2503 10.4467 13.3042C10.4025 13.0921 10.2034 12.947 9.98811 12.9718C8.89559 13.0979 7.87824 13.4243 6.93282 13.9275C6.81934 13.9879 6.74994 14.1075 6.74994 14.2359V32.948C6.74994 33.079 6.82313 33.1985 6.93887 33.26C8.19205 33.9251 9.59752 34.2775 11.0566 34.2775H24.9433C26.3981 34.2775 27.8084 33.9182 29.0607 33.2556C29.1766 33.1943 29.2499 33.0746 29.2499 32.9434V14.2324C29.2499 14.1039 29.1805 13.9843 29.0671 13.924C28.1218 13.4214 27.0908 13.0965 26.0147 12.9669C25.7988 12.9409 25.5986 13.0864 25.5543 13.2993C25.1475 15.258 24.8158 17.3046 24.5557 19.279Z" fill="#E74D2F"/>
<path d="M34.7358 14.6685L31.8155 14.9699C31.6363 14.9884 31.5 15.1394 31.5 15.3196V31.8732C31.5 32.0477 31.6279 32.1958 31.8005 32.2211L34.7358 32.6516C35.4066 32.7353 36 32.2114 36 31.535V15.785C36 15.1086 35.4066 14.5848 34.7358 14.6685Z" fill="#E74D2F"/>
<path d="M0 15.7852V31.6055C0 32.2819 0.593437 32.8057 1.26422 32.722L4.1921 32.3556C4.36802 32.3336 4.5 32.184 4.5 32.0067V15.4298C4.5 15.2546 4.37098 15.1061 4.19745 15.0817L1.2818 14.6714C0.605391 14.5758 0 15.1017 0 15.7852H0Z" fill="#E74D2F"/>
</g>
<defs>
<clipPath id="clip0">
<rect width="36" height="36" fill="white"/>
</clipPath>
</defs>
</svg>
