<svg width="48" height="48" viewBox="0 0 48 48" fill="none" xmlns="http://www.w3.org/2000/svg">
<circle cx="24" cy="24" r="24" fill="white"/>
<path d="M24 23.25C23.0054 23.25 22.0516 22.8549 21.3484 22.1517C20.6451 21.4484 20.25 20.4946 20.25 19.5C20.25 18.5054 20.6451 17.5516 21.3484 16.8484C22.0516 16.1451 23.0054 15.75 24 15.75C24.9946 15.75 25.9484 16.1451 26.6517 16.8484C27.3549 17.5516 27.75 18.5054 27.75 19.5C27.75 19.9925 27.653 20.4801 27.4646 20.9351C27.2761 21.39 26.9999 21.8034 26.6517 22.1517C26.3034 22.4999 25.89 22.7761 25.4351 22.9646C24.9801 23.153 24.4925 23.25 24 23.25ZM24 9C21.2152 9 18.5445 10.1062 16.5754 12.0754C14.6062 14.0445 13.5 16.7152 13.5 19.5C13.5 27.375 24 39 24 39C24 39 34.5 27.375 34.5 19.5C34.5 16.7152 33.3938 14.0445 31.4246 12.0754C29.4555 10.1062 26.7848 9 24 9Z" fill="#37A3DB"/>
</svg>
