<svg width="48" height="48" viewBox="0 0 48 48" fill="none" xmlns="http://www.w3.org/2000/svg">
<path d="M24.0004 0C10.7461 0 0.000999451 10.7454 0.000999451 23.9998C0.000999451 37.2538 10.7461 48 24.0004 48C37.2548 48 48.0007 37.2538 48.0007 23.9998C48.0007 10.7454 37.2548 0 24.0004 0ZM24.0009 8.42984L38.2031 17.2859H9.7987L24.0009 8.42984ZM38.3801 31.428H38.3787C38.3787 32.8485 37.2275 33.9995 35.8071 33.9995H12.1947C10.7742 33.9995 9.62318 32.8483 9.62318 31.428V17.8495C9.62318 17.6992 9.63854 17.5531 9.6635 17.4096L23.2329 25.871C23.2496 25.8814 23.2673 25.8884 23.2844 25.898C23.3024 25.9079 23.3206 25.9175 23.3388 25.9267C23.4347 25.9761 23.5334 26.0159 23.6344 26.042C23.6448 26.0449 23.6552 26.0462 23.6656 26.0486C23.7763 26.0747 23.8884 26.091 24.0004 26.091H24.0012C24.002 26.091 24.0028 26.091 24.0028 26.091C24.1148 26.091 24.227 26.0751 24.3377 26.0486C24.3481 26.046 24.3585 26.0449 24.3689 26.042C24.4697 26.0159 24.5681 25.9761 24.6644 25.9267C24.6827 25.9175 24.7009 25.9079 24.7188 25.898C24.7358 25.8884 24.7537 25.8814 24.7704 25.871L38.3398 17.4096C38.3647 17.5531 38.3801 17.6989 38.3801 17.8495V31.428Z" fill="white"/>
</svg>
