<svg width="48" height="48" viewBox="0 0 48 48" fill="none" xmlns="http://www.w3.org/2000/svg">
<path d="M23.9986 38.0486C25.034 38.0486 25.8735 37.2092 25.8735 36.1737C25.8735 35.1382 25.034 34.2988 23.9986 34.2988C22.9631 34.2988 22.1237 35.1382 22.1237 36.1737C22.1237 37.2092 22.9631 38.0486 23.9986 38.0486Z" fill="white"/>
<path d="M29.2297 10.9199H18.7685C18.1821 10.9199 17.705 11.3748 17.705 11.9329V31.7076C17.705 32.2662 18.1818 32.7206 18.7685 32.7206H29.2297C29.8161 32.7206 30.2932 32.2657 30.2932 31.7076V11.9329C30.2929 11.3743 29.8161 10.9199 29.2297 10.9199Z" fill="white"/>
<path d="M23.9994 0C10.745 0 0 10.7458 0 23.9995C0 37.2533 10.745 48 23.9994 48C37.2537 48 48 37.2539 48 23.9995C48 10.7451 37.2537 0 23.9994 0ZM33.3367 35.8434C33.3367 37.6766 31.8503 39.1632 30.0168 39.1632H17.9825C16.1492 39.1632 14.6627 37.6768 14.6627 35.8434V12.0517C14.6627 10.2184 16.1491 8.73184 17.9825 8.73184H30.0168C31.8501 8.73184 33.3367 10.2182 33.3367 12.0517V35.8434Z" fill="white"/>
</svg>
