<svg width="36" height="36" viewBox="0 0 36 36" fill="none" xmlns="http://www.w3.org/2000/svg">
<path d="M1.74037 3.35241V10.787H0.627744C0.57764 10.787 0.528014 10.7772 0.48171 10.7581C0.435406 10.7389 0.393335 10.7109 0.357906 10.6754C0.322477 10.64 0.294388 10.5979 0.275248 10.5516C0.256109 10.5053 0.246295 10.4557 0.246369 10.4056V0.811594C0.246369 0.487031 0.488244 0.222656 0.820681 0.222656H5.73637C6.06768 0.222656 6.31124 0.485906 6.31124 0.810469V1.37409H13.9117C14.1232 1.37409 14.2931 1.54453 14.2931 1.75434V3.91209H7.80524V3.34734C7.80524 3.02334 7.56337 2.75953 7.22981 2.75953H2.31637C1.98281 2.76009 1.74093 3.02728 1.74093 3.35297L1.74037 3.35241Z" fill="#E74D2F"/>
<path d="M17.2811 15.2899C17.2812 15.34 17.2714 15.3896 17.2522 15.4358C17.2331 15.482 17.205 15.524 17.1695 15.5594C17.1341 15.5947 17.092 15.6227 17.0457 15.6417C16.9994 15.6607 16.9498 15.6704 16.8998 15.6702H3.61632C3.56626 15.6704 3.51666 15.6607 3.47037 15.6417C3.42407 15.6227 3.38199 15.5947 3.34654 15.5594C3.3111 15.524 3.28299 15.482 3.26384 15.4358C3.24469 15.3896 3.23487 15.34 3.23494 15.2899V5.69538C3.23494 5.37082 3.47681 5.10645 3.80925 5.10645H8.72381C9.05625 5.10645 9.29982 5.3697 9.29982 5.69426V6.25788H16.8998C17.1113 6.25788 17.2811 6.42832 17.2811 6.63813V15.2905V15.2899ZM11.3901 9.82807V7.56457H9.12656V9.82807H6.8625V12.0916H9.12656V14.3545H11.3901V12.0916H13.6524V9.82807H11.3901Z" fill="#E74D2F"/>
<path d="M19.9963 6.17529V35.1469H35.919V6.17529H19.9963ZM34.92 31.0485H20.9914V20.1056H34.92V31.0485ZM34.92 18.1419H20.9914V7.20073H34.92V18.1419Z" fill="#E74D2F"/>
<path d="M33.9092 8.13379H21.9904V17.2142H33.9092V8.13379ZM29.8907 11.1775H25.9661C25.8195 11.1775 25.6788 11.1192 25.5751 11.0155C25.4714 10.9118 25.4132 10.7712 25.4132 10.6245C25.4132 10.4779 25.4714 10.3372 25.5751 10.2336C25.6788 10.1299 25.8195 10.0716 25.9661 10.0716H29.8907C30.0373 10.0716 30.178 10.1299 30.2817 10.2336C30.3854 10.3372 30.4436 10.4779 30.4436 10.6245C30.4436 10.7712 30.3854 10.9118 30.2817 11.0155C30.178 11.1192 30.0373 11.1775 29.8907 11.1775Z" fill="#E74D2F"/>
<path d="M33.9165 21.0366H21.9994V30.1154H33.9165V21.0366ZM29.8907 24.0831H25.9661C25.8193 24.0831 25.6785 24.0248 25.5747 23.921C25.4709 23.8172 25.4126 23.6764 25.4126 23.5296C25.4126 23.3828 25.4709 23.242 25.5747 23.1382C25.6785 23.0344 25.8193 22.9761 25.9661 22.9761H29.8907C30.0375 22.9761 30.1783 23.0344 30.2821 23.1382C30.3859 23.242 30.4442 23.3828 30.4442 23.5296C30.4442 23.6764 30.3859 23.8172 30.2821 23.921C30.1783 24.0248 30.0375 24.0831 29.8907 24.0831Z" fill="#E74D2F"/>
</svg>
