<svg width="73" height="64" viewBox="0 0 73 64" fill="none" xmlns="http://www.w3.org/2000/svg">
<path d="M53.115 46.488C48.9598 51.4769 42.7012 54.6522 35.701 54.6522C28.7008 54.6522 22.4422 51.4769 18.287 46.488H15.264C19.8031 52.8793 27.2651 57.0494 35.701 57.0494C44.1369 57.0494 51.5989 52.8793 56.138 46.488H53.115Z" fill="#37A3DB"/>
<path d="M18.2122 17.6022C22.3669 12.5614 28.6586 9.34775 35.701 9.34775C42.7434 9.34775 49.0351 12.5614 53.1898 17.6022H56.2018C51.669 11.16 44.1766 6.95063 35.701 6.95063C27.2254 6.95063 19.733 11.16 15.2002 17.6022H18.2122Z" fill="#37A3DB"/>
<path d="M56.9375 52.7165C51.5644 58.2003 44.0753 61.6029 35.7914 61.6029C27.5075 61.6029 20.0184 58.2003 14.6453 52.7165H11.4015C17.2711 59.6201 26.0198 64 35.7914 64C45.563 64 54.3117 59.6201 60.1813 52.7165H56.9375Z" fill="#37A3DB"/>
<path d="M14.7341 11.1932C20.1008 5.76238 27.5531 2.39712 35.7914 2.39712C44.0297 2.39712 51.4821 5.76238 56.8487 11.1932H60.1043C54.2353 4.34169 45.5204 0 35.7914 0C26.0624 0 17.3475 4.34169 11.4785 11.1932H14.7341Z" fill="#37A3DB"/>
<path d="M0 32.0451C0 31.1976 0.687044 30.5106 1.53456 30.5106H25.5458C26.3933 30.5106 27.0804 31.1976 27.0804 32.0451C27.0804 32.8926 26.3933 33.5797 25.5458 33.5797H1.53456C0.687044 33.5797 0 32.8926 0 32.0451Z" fill="#E74D2F"/>
<path d="M44.996 32.0517C44.996 31.2006 45.686 30.5106 46.5371 30.5106H70.5352C71.3864 30.5106 72.0764 31.2006 72.0764 32.0517C72.0764 32.9029 71.3864 33.5929 70.5352 33.5929H46.5371C45.686 33.5929 44.996 32.9029 44.996 32.0517Z" fill="#E74D2F"/>
<path d="M25.3193 33.519C24.4972 33.2987 24.0093 32.4536 24.2296 31.6314L27.6865 18.7298C27.9068 17.9077 28.7519 17.4198 29.5741 17.6401C30.3962 17.8604 30.8841 18.7054 30.6638 19.5276L27.2069 32.4292C26.9866 33.2514 26.1415 33.7393 25.3193 33.519Z" fill="#E74D2F"/>
<path d="M46.9055 33.519C46.0834 33.7393 45.2383 33.2513 45.018 32.4292L41.561 19.5276C41.3407 18.7054 41.8286 17.8604 42.6508 17.6401C43.4729 17.4198 44.318 17.9077 44.5383 18.7298L47.9953 31.6314C48.2156 32.4536 47.7277 33.2987 46.9055 33.519Z" fill="#E74D2F"/>
<path d="M36.4602 46.4168C35.6381 46.6371 34.793 46.1492 34.5727 45.3271L27.6606 19.5309C27.4403 18.7088 27.9283 17.8637 28.7504 17.6434C29.5726 17.4231 30.4176 17.911 30.6379 18.7332L37.55 44.5293C37.7703 45.3514 37.2824 46.1965 36.4602 46.4168Z" fill="#E74D2F"/>
<path d="M35.7002 46.4135C34.878 46.1932 34.3901 45.3481 34.6104 44.5259L41.5224 18.7298C41.7427 17.9077 42.5878 17.4198 43.41 17.6401C44.2321 17.8604 44.72 18.7054 44.4997 19.5276L37.5877 45.3237C37.3674 46.1459 36.5223 46.6338 35.7002 46.4135Z" fill="#E74D2F"/>
</svg>
