<svg width="73" height="65" viewBox="0 0 73 65" fill="none" xmlns="http://www.w3.org/2000/svg">
<path d="M53.115 46.988C48.9598 51.9769 42.7012 55.1522 35.701 55.1522C28.7008 55.1522 22.4422 51.9769 18.287 46.988H15.264C19.8031 53.3793 27.2651 57.5494 35.701 57.5494C44.1369 57.5494 51.5989 53.3793 56.138 46.988H53.115Z" fill="white"/>
<path d="M18.2122 18.1022C22.3669 13.0614 28.6586 9.84775 35.701 9.84775C42.7434 9.84775 49.0351 13.0614 53.1898 18.1022H56.2018C51.669 11.66 44.1766 7.45063 35.701 7.45063C27.2254 7.45063 19.733 11.66 15.2002 18.1022H18.2122Z" fill="white"/>
<path d="M56.9375 53.2165C51.5644 58.7003 44.0753 62.1029 35.7914 62.1029C27.5075 62.1029 20.0184 58.7003 14.6453 53.2165H11.4015C17.2711 60.1201 26.0198 64.5 35.7914 64.5C45.563 64.5 54.3117 60.1201 60.1813 53.2165H56.9375Z" fill="white"/>
<path d="M14.7341 11.6932C20.1008 6.26238 27.5531 2.89712 35.7914 2.89712C44.0297 2.89712 51.4821 6.26238 56.8487 11.6932H60.1043C54.2353 4.84169 45.5204 0.5 35.7914 0.5C26.0624 0.5 17.3475 4.84169 11.4785 11.6932H14.7341Z" fill="white"/>
<path d="M0 32.5449C0 31.6974 0.687044 31.0103 1.53456 31.0103H25.5458C26.3933 31.0103 27.0804 31.6974 27.0804 32.5449C27.0804 33.3924 26.3933 34.0794 25.5458 34.0794H1.53456C0.687044 34.0794 0 33.3924 0 32.5449Z" fill="white"/>
<path d="M44.996 32.5515C44.996 31.7003 45.686 31.0103 46.5371 31.0103H70.5352C71.3864 31.0103 72.0764 31.7003 72.0764 32.5515C72.0764 33.4027 71.3864 34.0927 70.5352 34.0927H46.5371C45.686 34.0927 44.996 33.4027 44.996 32.5515Z" fill="white"/>
<path d="M25.3193 34.0187C24.4972 33.7984 24.0093 32.9534 24.2296 32.1312L27.6865 19.2296C27.9068 18.4074 28.7519 17.9195 29.5741 18.1398C30.3962 18.3601 30.8841 19.2052 30.6638 20.0274L27.2069 32.929C26.9866 33.7511 26.1415 34.239 25.3193 34.0187Z" fill="white"/>
<path d="M46.9055 34.0187C46.0834 34.239 45.2383 33.7511 45.018 32.9289L41.561 20.0273C41.3407 19.2052 41.8286 18.3601 42.6508 18.1398C43.4729 17.9195 44.318 18.4074 44.5383 19.2296L47.9953 32.1312C48.2156 32.9533 47.7277 33.7984 46.9055 34.0187Z" fill="white"/>
<path d="M36.4602 46.9166C35.6381 47.1369 34.793 46.649 34.5727 45.8268L27.6606 20.0307C27.4403 19.2085 27.9283 18.3635 28.7504 18.1432C29.5726 17.9229 30.4176 18.4108 30.6379 19.2329L37.55 45.029C37.7703 45.8512 37.2824 46.6963 36.4602 46.9166Z" fill="white"/>
<path d="M35.7002 46.9132C34.878 46.6929 34.3901 45.8479 34.6104 45.0257L41.5224 19.2296C41.7427 18.4074 42.5878 17.9195 43.41 18.1398C44.2321 18.3601 44.72 19.2052 44.4997 20.0273L37.5877 45.8235C37.3674 46.6456 36.5223 47.1335 35.7002 46.9132Z" fill="white"/>
</svg>
