<svg width="32" height="32" viewBox="0 0 32 32" fill="none" xmlns="http://www.w3.org/2000/svg">
<path fill-rule="evenodd" clip-rule="evenodd" d="M27.3377 4.65096C25.8617 3.17229 24.1055 1.99981 22.1709 1.20146C20.2364 0.403109 18.1619 -0.00524659 16.0676 5.08882e-05C7.2858 5.08882e-05 0.136844 7.11331 0.133294 15.8569C0.133294 18.6514 0.866293 21.3787 2.25952 23.7845L0.000183105 32L8.44653 29.7938C10.7829 31.0596 13.4004 31.7233 16.0605 31.7244H16.0676C24.8476 31.7244 31.9966 24.6112 32.0001 15.8675C32.0062 13.7841 31.5972 11.72 30.7969 9.7948C29.9967 7.86955 28.8209 6.12126 27.3377 4.65096ZM16.0676 29.0484H16.0623C13.6903 29.0486 11.3619 28.4135 9.32152 27.2095L8.83877 26.9234L3.82669 28.2323L5.16312 23.3694L4.84898 22.8713C3.52282 20.77 2.82078 18.3383 2.82392 15.8569C2.82747 8.59001 8.76777 2.6779 16.0729 2.6779C17.8127 2.67405 19.5359 3.01366 21.143 3.67706C22.75 4.34047 24.2088 5.31449 25.4351 6.54277C26.6679 7.76518 27.6451 9.21866 28.3101 10.8192C28.9751 12.4197 29.3148 14.1356 29.3095 15.8675C29.3059 23.1345 23.3656 29.0484 16.0676 29.0484ZM23.3319 19.176C22.9326 18.9764 20.9767 18.019 20.6111 17.8865C20.2473 17.7541 19.9828 17.6887 19.7166 18.0844C19.4504 18.48 18.6872 19.3721 18.4547 19.637C18.2222 19.902 17.9897 19.9338 17.5922 19.7359C17.1946 19.5381 15.9114 19.1195 14.3904 17.77C13.2066 16.7189 12.4079 15.4224 12.1754 15.025C11.9429 14.6275 12.1506 14.4138 12.3511 14.216C12.5304 14.0393 12.7487 13.7532 12.9475 13.5218C13.1462 13.2904 13.2119 13.1261 13.345 12.8611C13.4781 12.5962 13.4125 12.3648 13.3113 12.167C13.2119 11.9674 12.415 10.0173 12.0831 9.22415C11.7619 8.45577 11.4335 8.55822 11.1886 8.54762C10.935 8.53729 10.6811 8.53258 10.4272 8.53349C10.2254 8.53861 10.0267 8.58518 9.84378 8.67029C9.66084 8.7554 9.49753 8.87721 9.36411 9.02808C8.9985 9.42552 7.97088 10.3829 7.97088 12.333C7.97088 14.2831 9.39783 16.1678 9.59661 16.4328C9.79539 16.6978 12.4044 20.6986 16.3977 22.4156C17.349 22.8236 18.0909 23.0674 18.6677 23.2511C19.6208 23.5531 20.4887 23.509 21.1755 23.4083C21.9405 23.2952 23.5307 22.4509 23.8626 21.5253C24.1945 20.5997 24.1945 19.8066 24.0951 19.6406C23.9957 19.4745 23.7277 19.3738 23.3319 19.176Z" fill="#37A3DB"/>
</svg>
