<svg width="48" height="48" viewBox="0 0 48 48" fill="none" xmlns="http://www.w3.org/2000/svg">
<path d="M43 0H30.4C28 0 25.6 1.00003 24 2.59997L1.8 24.8C0.6 26 0 27.4 0 29C0 30.6 0.6 32 1.8 33.2L15 46.4C16 47.4 17.4 48 19 48C20.6001 48 22 47.4 23.2 46.2L45.4 24C47 22.4 48 20 48 17.6V4.99997C48 2.20003 45.8 0 43 0ZM15 28C13.4 28 12 26.6001 12 25C12 23.4 13.4 22 15 22C16.6 22 18 23.4 18 25C18 26.6 16.6 28 15 28ZM22 35C22 35.6 21.6 36 21 36C20.4 36 20 35.6 20 35V19C20 18.4 20.4 18 21 18C21.6 18 22 18.4 22 19V35ZM27 32C25.4 32 24 30.6 24 29C24 27.3999 25.4 26 27 26C28.6 26 30 27.3999 30 29C30 30.6 28.6 32 27 32ZM37 16C34.2 16 32.0001 13.8 32.0001 11.0001C32 8.20003 34.2 6 37 6C39.8001 6 42 8.20003 42 11C42 13.8 39.8 16 37 16Z" fill="white"/>
</svg>
