<svg width="36" height="36" viewBox="0 0 36 36" fill="none" xmlns="http://www.w3.org/2000/svg">
<g clip-path="url(#clip0)">
<path d="M8.4 11.9958H8.412C11.264 11.9208 13.931 10.5672 15.675 8.30939C16.2426 7.6085 17.0959 7.20087 17.9978 7.19982C18.8997 7.19877 19.754 7.60442 20.3232 8.30399C22.0674 10.5636 24.7352 11.9191 27.5886 11.9958H27.6L30 12V11.4C30 10.7372 29.4627 10.2 28.8 10.2H27.894C25.4847 10.1715 23.2166 9.05836 21.72 7.16999C20.8097 6.05009 19.4432 5.3999 18 5.3999C16.5568 5.3999 15.1903 6.05009 14.28 7.16999C12.7834 9.05836 10.5153 10.1715 8.106 10.2H7.2C6.53726 10.2 6 10.7372 6 11.4V12L8.4 11.9958Z" fill="#E74D2F"/>
<path d="M27.6 13.196H27.5868C24.3721 13.1196 21.3625 11.6008 19.3914 9.06018C19.05 8.64064 18.5376 8.39751 17.9967 8.39844C17.4559 8.39937 16.9443 8.64427 16.6044 9.06498C14.6364 11.6135 11.6193 13.1326 8.39999 13.196L5.99999 13.2002V18.0002C5.9521 24.3939 10.7224 29.7999 17.0724 30.548C17.6888 30.6176 18.3111 30.6176 18.9276 30.548C25.2776 29.7999 30.0479 24.3939 30 18.0002V13.2002L27.6 13.196ZM10.2924 15.0074C15.4007 15.7934 20.5992 15.7934 25.7076 15.0074C25.9207 14.9716 26.1365 15.0531 26.2727 15.2208C26.4089 15.3885 26.4445 15.6165 26.3658 15.8177C26.287 16.0189 26.1062 16.1622 25.8924 16.193C23.281 16.5968 20.6424 16.7986 18 16.7966C15.3576 16.7986 12.719 16.5968 10.1076 16.193C9.78353 16.1385 9.56356 15.8335 9.61416 15.5089C9.66477 15.1842 9.96713 14.9606 10.2924 15.0074ZM9.62699 19.0202C9.67424 18.8682 9.77993 18.7412 9.92081 18.6672C10.0617 18.5931 10.2262 18.5781 10.3782 18.6254C15.3406 20.1794 20.6594 20.1794 25.6218 18.6254C25.8265 18.5617 26.0496 18.6121 26.2071 18.7576C26.3646 18.903 26.4325 19.1214 26.3853 19.3306C26.3381 19.5397 26.1829 19.7077 25.9782 19.7714C23.3958 20.5794 20.7058 20.9913 18 20.993C15.2936 20.992 12.6031 20.5807 10.02 19.7732C9.86793 19.7256 9.74104 19.6194 9.66732 19.4782C9.59359 19.3369 9.57908 19.1721 9.62699 19.0202ZM26.0586 23.9402C20.9733 26.4243 15.0266 26.4243 9.94139 23.9402C9.73377 23.8569 9.58972 23.665 9.56768 23.4424C9.54563 23.2198 9.64926 23.0034 9.83651 22.8811C10.0238 22.7587 10.2636 22.7506 10.4586 22.8602C15.2174 25.1852 20.7826 25.1852 25.5414 22.8602C25.7364 22.7506 25.9762 22.7587 26.1635 22.8811C26.3507 23.0034 26.4543 23.2198 26.4323 23.4424C26.4103 23.665 26.2662 23.8569 26.0586 23.9402Z" fill="#E74D2F"/>
<path d="M5.568 22.6018C2.46 21.8698 0 19.1398 0 16.1998V13.1998C0 11.8743 1.07452 10.7998 2.4 10.7998H4.878C4.82442 10.9952 4.79817 11.1972 4.8 11.3998V11.9998H2.4C1.73808 12.0018 1.20198 12.5379 1.2 13.1998V16.1998C1.2 18.5698 3.048 20.4658 5.172 21.2278C5.27935 21.6926 5.41154 22.1512 5.568 22.6018Z" fill="#E74D2F"/>
<path d="M36 13.1998V16.1998C36 19.1398 33.54 21.8698 30.432 22.6018C30.5885 22.1512 30.7207 21.6926 30.828 21.2278C32.952 20.4658 34.8 18.5698 34.8 16.1998V13.1998C34.798 12.5379 34.2619 12.0018 33.6 11.9998H31.2V11.3998C31.2018 11.1972 31.1756 10.9952 31.122 10.7998H33.6C34.9255 10.7998 36 11.8743 36 13.1998Z" fill="#E74D2F"/>
</g>
<defs>
<clipPath id="clip0">
<rect width="36" height="36" fill="white"/>
</clipPath>
</defs>
</svg>
