<svg width="36" height="36" viewBox="0 0 36 36" fill="none" xmlns="http://www.w3.org/2000/svg">
<path d="M18 16.875C19.2426 16.875 20.25 15.8676 20.25 14.625C20.25 13.3824 19.2426 12.375 18 12.375C16.7574 12.375 15.75 13.3824 15.75 14.625C15.75 15.8676 16.7574 16.875 18 16.875Z" fill="#E74D2F"/>
<path d="M28.2656 6.1875H7.73438C7.19156 6.1875 6.75 6.62906 6.75 7.17188V28.8281C6.75 29.3709 7.19156 29.8125 7.73438 29.8125H28.2656C28.8084 29.8125 29.25 29.3709 29.25 28.8281V7.17188C29.25 6.62906 28.8084 6.1875 28.2656 6.1875ZM11.8125 23.625C11.8125 24.2463 11.3089 24.75 10.6875 24.75C10.0661 24.75 9.5625 24.2463 9.5625 23.625V19.125C9.5625 18.5037 10.0661 18 10.6875 18C11.3089 18 11.8125 18.5037 11.8125 19.125V23.625ZM18 19.125C15.5187 19.125 13.5 17.1063 13.5 14.625C13.5 12.1437 15.5187 10.125 18 10.125C20.4813 10.125 22.5 12.1437 22.5 14.625C22.5 17.1063 20.4813 19.125 18 19.125Z" fill="#E74D2F"/>
<path d="M35.0859 16.875H31.8516C31.6574 16.875 31.5 17.0324 31.5 17.2266V18.7734C31.5 18.9676 31.6574 19.125 31.8516 19.125H35.0859C35.2801 19.125 35.4375 18.9676 35.4375 18.7734V17.2266C35.4375 17.0324 35.2801 16.875 35.0859 16.875Z" fill="#E74D2F"/>
<path d="M31.8516 14.625H35.0859C35.2801 14.625 35.4375 14.4676 35.4375 14.2734V11.6016C35.4375 11.4074 35.2801 11.25 35.0859 11.25H31.8516C31.6574 11.25 31.5 11.4074 31.5 11.6016V14.2734C31.5 14.4676 31.6574 14.625 31.8516 14.625Z" fill="#E74D2F"/>
<path d="M31.5 27.3516V28.8281C31.5 30.6144 30.0519 32.0625 28.2656 32.0625H7.73438C5.94809 32.0625 4.5 30.6144 4.5 28.8281V7.17188C4.5 5.38559 5.94809 3.9375 7.73438 3.9375H28.2656C30.0519 3.9375 31.5 5.38559 31.5 7.17188V8.64844C31.5 8.84257 31.6574 9 31.8516 9H35.0859C35.2801 9 35.4375 8.84257 35.4375 8.64844V3.23438C35.4375 1.44809 33.9894 0 32.2031 0H3.79688C2.01059 0 0.5625 1.44809 0.5625 3.23438V32.7656C0.5625 34.5519 2.01059 36 3.79688 36H32.2031C33.9894 36 35.4375 34.5519 35.4375 32.7656V27.3516C35.4375 27.1574 35.2801 27 35.0859 27H31.8516C31.6574 27 31.5 27.1574 31.5 27.3516Z" fill="#E74D2F"/>
<path d="M35.0859 21.375H31.8516C31.6574 21.375 31.5 21.5324 31.5 21.7266V24.3984C31.5 24.5926 31.6574 24.75 31.8516 24.75H35.0859C35.2801 24.75 35.4375 24.5926 35.4375 24.3984V21.7266C35.4375 21.5324 35.2801 21.375 35.0859 21.375Z" fill="#E74D2F"/>
</svg>
