<svg width="90" height="90" viewBox="0 0 90 90" fill="none" xmlns="http://www.w3.org/2000/svg">
<path fill-rule="evenodd" clip-rule="evenodd" d="M90 45C90 69.8528 69.8528 90 45 90C20.1472 90 0 69.8528 0 45C0 20.1472 20.1472 0 45 0C69.8528 0 90 20.1472 90 45ZM53.8059 43.3114C57.6792 44.4592 62.044 43.5052 65.1026 40.4473C68.1717 37.3782 69.1204 32.9963 67.956 29.1133C67.8528 29.2453 67.7437 29.3735 67.6229 29.4944L63.7975 33.319C62.1753 34.9419 59.5457 34.9419 57.9228 33.319L56.1278 31.5245C54.5049 29.9017 54.5049 27.2721 56.1278 25.6498L59.9524 21.8245C60.0732 21.7029 60.2013 21.5938 60.3334 21.4906C56.4503 20.3257 52.0684 21.2764 48.9994 24.3436C45.9415 27.4015 44.9874 31.7669 46.1347 35.6416L35.6422 46.1341C31.7675 44.9856 27.4035 45.9415 24.3455 48.9982C21.2776 52.0665 20.3276 56.4491 21.4912 60.3323C21.5944 60.2003 21.7042 60.0734 21.825 59.9512L25.651 56.1272C27.2726 54.5036 29.9029 54.5036 31.5257 56.1272L33.3202 57.9216C34.9431 59.5439 34.9431 62.1735 33.3202 63.7963L29.4956 67.621C29.3746 67.7433 29.2459 67.8517 29.1138 67.9548C32.9984 69.1198 37.3803 68.1703 40.448 65.1013C43.5066 62.0439 44.4606 57.6777 43.3127 53.8038L53.8059 43.3114Z" fill="#E74D2F"/>
</svg>
