<svg width="33" height="32" viewBox="0 0 33 32" fill="none" xmlns="http://www.w3.org/2000/svg">
<path d="M16.0765 25.3656C16.7668 25.3656 17.3264 24.806 17.3264 24.1156C17.3264 23.4253 16.7668 22.8657 16.0765 22.8657C15.3862 22.8657 14.8266 23.4253 14.8266 24.1156C14.8266 24.806 15.3862 25.3656 16.0765 25.3656Z" fill="#37A3DB"/>
<path d="M19.5634 7.27979H12.5894C12.1984 7.27979 11.8804 7.58304 11.8804 7.95509V21.1382C11.8804 21.5106 12.1982 21.8135 12.5894 21.8135H19.5634C19.9544 21.8135 20.2725 21.5103 20.2725 21.1382V7.95509C20.2722 7.58272 19.9544 7.27979 19.5634 7.27979Z" fill="#37A3DB"/>
<path d="M16.0768 0C7.24066 0 0.0773544 7.16384 0.0773544 15.9997C0.0773544 24.8355 7.24066 32 16.0768 32C24.913 32 32.0771 24.8359 32.0771 15.9997C32.0771 7.16341 24.913 0 16.0768 0ZM22.3017 23.8956C22.3017 25.1178 21.3107 26.1088 20.0884 26.1088H12.0656C10.8434 26.1088 9.85239 25.1179 9.85239 23.8956V8.03445C9.85239 6.81227 10.8433 5.82123 12.0656 5.82123H20.0884C21.3106 5.82123 22.3017 6.81216 22.3017 8.03445V23.8956Z" fill="#37A3DB"/>
</svg>
